<?xml version="1.0" standalone="no"?>
<!DOCTYPE svg PUBLIC "-//W3C//DTD SVG 20010904//EN"
 "http://www.w3.org/TR/2001/REC-SVG-20010904/DTD/svg10.dtd">
<svg version="1.0" xmlns="http://www.w3.org/2000/svg"
 width="260.000000pt" height="260.000000pt" viewBox="0 0 260.000000 260.000000"
 preserveAspectRatio="xMidYMid meet">
<metadata>
Created by potrace 1.14, written by Peter Selinger 2001-2017
</metadata>
<g transform="translate(0.000000,260.000000) scale(0.100000,-0.100000)"
fill="#000000" stroke="none">
<path d="M1135 2534 c-197 -30 -307 -70 -542 -194 -190 -101 -395 -354 -483
-595 -43 -116 -73 -181 -91 -197 -17 -14 -19 -30 -19 -146 l0 -130 31 -7 c16
-4 138 -7 269 -7 200 0 244 2 263 15 26 17 31 28 72 161 74 238 220 397 437
476 269 99 523 32 724 -190 116 -129 116 -132 -41 -285 -120 -116 -144 -152
-115 -170 13 -8 872 -6 923 2 l37 6 0 468 0 469 -42 0 c-40 0 -47 -5 -113 -73
-119 -124 -137 -129 -201 -50 -230 281 -560 437 -948 448 -72 2 -144 1 -161
-1z"/>
<path d="M27 1193 c-25 -4 -27 -8 -27 -53 l0 -48 63 -11 c35 -6 163 -11 284
-11 200 0 221 2 236 18 23 25 21 68 -3 92 -19 19 -32 20 -272 19 -139 -1 -265
-4 -281 -6z"/>
<path d="M1991 1164 c-26 -33 -27 -70 -2 -84 22 -11 410 -14 534 -4 l77 7 0
47 c0 34 -4 50 -16 54 -9 3 -141 6 -294 6 l-279 0 -20 -26z"/>
<path d="M1963 1029 c-32 -17 -60 -75 -47 -97 10 -15 38 -17 284 -20 259 -2
274 -1 305 18 55 34 56 71 2 90 -45 15 -516 24 -544 9z"/>
<path d="M68 1019 c-33 -19 -20 -72 23 -94 37 -20 528 -22 547 -3 18 18 15 53
-7 79 l-19 24 -264 2 c-169 2 -269 -1 -280 -8z"/>
<path d="M128 870 c-20 -12 -23 -51 -8 -81 24 -45 54 -49 324 -49 141 0 266 4
280 10 36 13 33 43 -8 88 l-34 37 -269 3 c-174 1 -274 -2 -285 -8z"/>
<path d="M1883 869 c-48 -14 -92 -96 -62 -115 6 -3 34 -6 62 -6 29 1 149 -2
267 -5 282 -9 212 -21 -125 -23 -137 0 -270 -5 -294 -11 -25 -5 -66 -26 -93
-45 -46 -34 -59 -56 -39 -69 5 -3 179 -6 386 -7 l377 -1 30 30 c29 30 36 58
24 98 -5 15 1 25 28 42 43 27 57 75 30 104 -16 18 -32 19 -288 18 -149 0 -285
-5 -303 -10z"/>
<path d="M183 712 c-23 -23 -14 -57 23 -93 l35 -34 334 2 c334 3 390 8 379 37
-9 25 -91 73 -142 85 -73 17 -612 20 -629 3z"/>
<path d="M280 546 c-17 -17 -11 -52 13 -74 52 -49 53 -49 637 -42 300 3 703 3
895 0 193 -3 368 -1 390 3 51 10 104 46 111 75 14 52 61 50 -1027 48 -622 0
-1014 -5 -1019 -10z"/>
<path d="M414 375 c-25 -64 148 -133 283 -113 32 4 348 8 703 8 383 -1 661 3
684 9 22 5 53 23 70 40 25 25 29 34 20 49 -10 16 -67 17 -883 20 -768 2 -872
0 -877 -13z"/>
<path d="M627 223 c-39 -39 86 -97 230 -107 50 -3 113 -14 140 -24 46 -17 48
-19 46 -55 l-3 -37 266 0 266 0 -7 39 -6 39 53 18 c29 9 98 20 153 24 75 6
114 14 157 33 64 29 75 42 58 62 -11 13 -108 15 -680 15 -366 0 -670 -3 -673
-7z"/>
</g>
</svg>
