<svg width="244" height="31" viewBox="0 0 244 31" fill="none" xmlns="http://www.w3.org/2000/svg">
<path d="M9.91049 0.695435H25.2662V2.47346H23.4073C22.882 2.43305 22.3567 2.59469 21.9122 2.87755C21.5889 3.20083 21.4272 3.68575 21.4272 4.13026V21.5064C21.4677 23.8502 20.417 26.0323 18.5582 27.4466C16.6589 28.9822 14.0323 29.7904 10.7591 29.7904C7.76878 29.7904 5.30379 29.063 3.44495 27.5679C1.54569 26.0727 0.616273 24.3755 0.616273 22.4358C0.535453 21.0619 1.06078 19.7284 2.07102 18.7181C3.00044 17.7887 4.25314 17.3038 5.54625 17.3442C6.63731 17.3038 7.64755 17.6675 8.49616 18.3949C9.26394 19.0414 9.70845 20.0112 9.70845 21.0215C9.74886 21.9105 9.42558 22.7591 8.81943 23.3653C8.29411 23.931 7.52632 24.2543 6.71813 24.2543C6.47567 24.2543 6.23321 24.2543 5.99076 24.2138C5.66748 24.133 5.38461 24.0926 5.06133 24.0926C4.77847 24.0522 4.4956 24.133 4.25314 24.2947C4.0915 24.4967 4.01068 24.7392 4.01068 24.9816C4.05109 25.7898 4.53601 26.5576 5.26338 26.9213C6.47567 27.6487 7.8496 28.0124 9.26394 27.972C10.7591 28.0528 12.2138 27.487 13.3049 26.4364C14.2747 25.4261 14.7597 23.931 14.7597 21.9913V4.17067C14.8001 3.68575 14.6384 3.24124 14.3151 2.91797C13.911 2.59469 13.4261 2.47346 12.9412 2.51387H9.82967" fill="white"/>
<path d="M96.9127 27.4466C96.4277 27.487 95.9832 27.3658 95.5791 27.1234C95.2963 26.8809 95.1346 26.5172 95.1346 26.1535V10.7979L86.3253 11.1615V12.8992H87.2143C87.8205 12.8587 88.4266 13.0608 88.952 13.4245C89.3965 13.8286 89.5985 14.3943 89.5581 14.9601V25.709C89.5581 27.8911 83.6583 27.9316 83.6583 25.709V17.1018C83.6583 14.9601 83.0926 13.3437 81.9207 12.1718C80.6276 10.9595 78.9304 10.3534 77.1927 10.4342C75.738 10.4342 74.3237 10.7979 73.0305 11.4444C71.495 12.293 70.121 13.4649 69.03 14.8792C68.6259 13.5457 67.8581 12.4142 66.7266 11.5656C65.5548 10.7979 64.1808 10.4342 62.8069 10.4746C61.3926 10.4746 59.9782 10.7575 58.6851 11.404C57.19 12.2526 55.8564 13.3437 54.7654 14.7176C54.6846 13.3841 54.4825 12.0101 54.1592 10.717L45.9561 11.1211V12.8588C46.643 12.8183 47.2896 12.8588 47.9361 13.0204C48.3402 13.1416 48.6635 13.3841 48.906 13.7073C49.108 14.071 49.2293 14.4751 49.2293 14.8792V25.3049C49.2293 27.8507 42.8041 28.2952 42.8041 25.2645V16.4148C42.8445 15.2025 42.5213 13.9902 41.8343 12.98C41.2281 12.091 40.3391 11.404 39.3289 11.0403C37.5509 10.4342 35.7324 10.1109 33.8736 10.1513C31.449 10.0705 29.0648 10.6766 26.9635 11.9293C25.4684 12.8992 24.741 13.9902 24.741 15.2429C24.741 15.9703 25.0239 16.6573 25.5896 17.1018C26.2362 17.5867 27.0444 17.8291 27.8526 17.7887C28.6203 17.8291 29.3477 17.5867 29.9539 17.1018C30.4792 16.6573 30.762 16.0107 30.7216 15.3641C30.7216 14.758 30.4792 14.1519 30.1155 13.6265C29.9539 13.4649 29.873 13.2629 29.8326 13.0608C29.8326 12.8183 30.0751 12.5759 30.56 12.3334C31.3682 11.9293 32.2168 11.7677 33.1058 11.7677C34.1969 11.7273 35.2475 12.0506 36.0961 12.7375C36.8639 13.3841 37.268 14.3539 37.1872 15.3237V17.91C31.5702 18.8394 27.9738 19.7688 26.317 20.6982C24.2561 21.8701 23.2458 23.4461 23.2458 25.3857C23.2458 26.6789 23.852 27.8507 24.9431 28.5781C26.317 29.5075 27.9738 29.9116 29.5902 29.8308C30.9237 29.8712 32.2168 29.6288 33.4695 29.1438C34.8838 28.4973 36.2173 27.5679 37.3488 26.4768C37.6721 27.1638 38.7227 29.9924 42.2384 29.9924C43.4911 29.9924 44.7438 29.75 45.8753 29.2247H58.1194V27.4062H56.9475C56.3818 27.4466 55.816 27.285 55.3311 26.9213C55.0078 26.5172 54.8462 25.9919 54.927 25.4666V18.3545C54.9674 17.5463 55.2503 16.7381 55.6948 16.0511C56.1393 15.2833 56.7859 14.6368 57.5536 14.1923C58.281 13.7882 59.0892 13.5861 59.8974 13.5861C60.9076 13.5457 61.8775 13.9498 62.6049 14.6772C63.3322 15.5258 63.7363 16.6169 63.6555 17.7079V25.8302C63.6959 26.2748 63.4939 26.7193 63.1706 27.0425C62.7261 27.3254 62.2008 27.4062 61.6754 27.3658H60.3015V29.1438H72.5052V27.3658H71.1717C70.6464 27.4062 70.121 27.2042 69.6765 26.8809C69.3937 26.5576 69.232 26.1131 69.2724 25.6686V18.8394C69.3129 17.8695 69.5957 16.9401 70.0806 16.0915C70.808 14.4347 72.5052 13.4245 74.3237 13.5457C75.3339 13.5053 76.3441 13.869 77.0715 14.5964C77.7989 15.5258 78.1626 16.6573 78.0413 17.8291V25.7494C78.0818 26.1939 77.9201 26.6789 77.5968 27.0021C77.1523 27.3254 76.5866 27.4466 76.0209 27.4062H74.8086V29.1843H98.2462V27.3658M37.2276 22.1126C37.3084 23.4865 36.8235 24.8604 35.8537 25.8707C34.9242 26.8001 33.6715 27.285 32.3784 27.2446C31.6106 27.285 30.8429 27.0425 30.2771 26.5172C29.7518 25.9515 29.4689 25.2241 29.5498 24.4563C29.5498 23.2036 30.1559 22.0721 31.1661 21.3852C32.2168 20.6174 34.2777 20.0113 37.3488 19.6476L37.2276 22.1126Z" fill="white"/>
<path d="M92.1039 9.1006C92.9929 9.1006 93.8819 8.77733 94.5285 8.17118C95.175 7.60545 95.5791 6.79725 95.5387 5.94865C95.5387 5.10005 95.175 4.25144 94.5285 3.68571C93.1141 2.47342 91.0128 2.47342 89.6389 3.68571C88.4266 4.77677 88.3054 6.63561 89.356 7.8479C89.4368 7.92872 89.5177 8.04995 89.6389 8.13077C90.3258 8.77732 91.1745 9.1006 92.1039 9.1006Z" fill="white"/>
<path d="M118.249 20.577H104.348C104.388 23.1228 104.954 24.9817 106.045 26.194C107.096 27.3658 108.631 28.0528 110.207 28.0124C111.42 28.0124 112.591 27.6891 113.642 27.083C114.976 26.1939 116.107 25.0625 116.996 23.729L118.532 24.618C117.562 26.3152 116.147 27.7295 114.41 28.7398C112.672 29.6288 110.692 30.0733 108.753 29.9925C105.52 29.9925 102.893 29.1034 100.873 27.285C98.8926 25.5474 97.8015 23.0016 97.8419 20.375C97.8015 17.7079 98.933 15.1621 100.873 13.3437C102.893 11.4444 105.56 10.4342 108.308 10.515C110.126 10.4746 111.904 10.8383 113.561 11.6465C115.016 12.3738 116.188 13.5457 116.996 14.9601C117.885 16.6573 118.33 18.6373 118.249 20.577ZM104.388 18.8394H111.015C111.5 18.8798 111.985 18.7182 112.349 18.3949C112.672 17.9504 112.793 17.3846 112.753 16.8593C112.834 15.6066 112.43 14.3539 111.622 13.3841C110.894 12.5759 109.844 12.1314 108.753 12.1314C107.5 12.091 106.288 12.7375 105.641 13.7882C104.873 14.9197 104.469 16.5764 104.388 18.8394Z" fill="white"/>
<path d="M175.63 2.67549C176.519 2.67549 177.408 2.99877 178.055 3.60491C179.267 4.69597 179.429 6.55482 178.338 7.76711C178.257 7.84793 178.136 7.96915 178.055 8.04997C177.408 8.65612 176.519 8.9794 175.63 8.9794C174.701 8.9794 173.852 8.65612 173.165 8.04997C171.953 6.95891 171.832 5.05966 172.923 3.84737C173.004 3.76655 173.085 3.68573 173.165 3.60491C173.852 2.95836 174.741 2.63508 175.63 2.67549Z" fill="white"/>
<path d="M180.358 10.8383H192.077V12.5355H191.107C190.582 12.495 190.016 12.5759 189.531 12.8183C189.249 12.98 189.087 13.2628 189.127 13.5861C189.168 14.0306 189.329 14.4751 189.572 14.8792L194.583 23.3248L198.906 15.4045C199.108 15.0409 199.23 14.6368 199.23 14.2327C199.23 13.1416 198.219 12.5759 196.28 12.5355V10.8383H204.806V12.5355C204.16 12.5759 203.554 12.7375 203.028 13.0608C202.543 13.3841 202.139 13.8286 201.897 14.3539L193.734 29.3055H192.239L183.187 14.1923C182.904 13.6669 182.541 13.2224 182.136 12.8587C181.773 12.6567 181.328 12.5355 180.884 12.5355H180.278" fill="white"/>
<path d="M223.556 20.3346H209.655C209.696 22.8804 210.262 24.7392 211.353 25.9515C212.403 27.1638 213.939 27.8104 215.515 27.7699C216.727 27.7699 217.899 27.4467 218.95 26.8405C220.283 25.9515 221.415 24.82 222.304 23.4865L223.839 24.3755C222.869 26.0727 221.455 27.4871 219.717 28.4973C217.98 29.3863 216.04 29.8308 214.06 29.7904C210.827 29.7904 208.201 28.9014 206.18 27.083C204.2 25.3454 203.109 22.7996 203.15 20.1325C203.109 17.4655 204.2 14.8793 206.18 13.0608C208.201 11.1616 210.868 10.1513 213.616 10.2322C215.434 10.1918 217.212 10.5554 218.869 11.3636C220.324 12.091 221.496 13.2629 222.304 14.6772C223.193 16.4148 223.637 18.3545 223.556 20.3346ZM209.696 18.597H216.323C216.808 18.6374 217.333 18.4757 217.697 18.1524C218.02 17.7079 218.142 17.1422 218.101 16.6169C218.182 15.3642 217.778 14.1115 216.97 13.1416C216.242 12.3335 215.192 11.8485 214.06 11.8889C212.807 11.8485 211.595 12.4547 210.949 13.5457C210.181 14.6368 209.777 16.334 209.696 18.597Z" fill="white"/>
<path d="M237.336 27.4467V29.2247H223.637V27.4467H225.213C225.779 27.4871 226.304 27.3658 226.749 27.083C227.072 26.8405 227.234 26.4768 227.234 26.0727V15.3642C227.274 14.6772 227.032 13.9903 226.547 13.4649C226.062 13.0204 225.375 12.8184 224.728 12.8588H223.597V11.1616L232.083 10.7575V16.6573C232.447 14.9197 233.376 13.3437 234.669 12.1314C235.801 11.1212 237.296 10.5554 238.831 10.5554C239.963 10.4746 241.054 10.8383 241.943 11.5253C242.711 12.1314 243.115 13.0204 243.074 13.9902C243.074 14.758 242.792 15.4854 242.266 16.0511C241.741 16.5765 241.054 16.8593 240.327 16.8593C239.68 16.8593 239.033 16.6169 238.589 16.1724C238.144 15.6874 237.862 15.0813 237.902 14.3943C237.902 13.9498 238.023 13.5053 238.266 13.1416C238.346 12.98 238.427 12.8184 238.468 12.6163C238.468 12.4547 238.427 12.3335 238.306 12.2122C238.185 12.1314 238.023 12.091 237.862 12.091C237.215 12.1314 236.649 12.4547 236.205 12.8992C235.114 13.9902 234.265 15.3238 233.821 16.8189C233.214 18.5565 232.891 20.375 232.891 22.1934V26.1131C232.851 26.5172 233.012 26.8809 233.295 27.1234C233.619 27.3658 234.023 27.5275 234.427 27.4871" fill="white"/>
<path d="M157.81 29.265V27.487H159.184C159.669 27.5274 160.194 27.3658 160.558 27.0425C160.881 26.6788 161.043 26.1535 161.002 25.6686V6.51442C160.922 5.38295 159.952 4.49394 158.78 4.57476H157.406V2.87755C160.72 2.87755 164.033 2.75632 165.852 0.816652L166.539 0.73584V25.8302C166.539 26.8001 167.71 27.3254 169.044 27.4466C169.408 27.4466 170.337 27.4466 170.741 27.4466C172.115 27.3254 173.287 26.7597 173.287 25.7898V15.0004C173.327 14.4347 173.085 13.869 172.64 13.4649C172.156 13.0608 171.549 12.8991 170.903 12.9395H170.014V11.1615L178.823 10.7978V26.1535C178.823 26.5172 178.985 26.8809 179.268 27.1233C179.672 27.3658 180.116 27.487 180.601 27.4466H181.975V29.2246" fill="white"/>
<path d="M142.818 0.00850576C145.566 -0.0319039 148.233 0.655068 150.617 1.94818C152.961 3.16047 154.9 5.0193 156.234 7.24183C157.567 9.54518 158.295 12.1718 158.254 14.7984C158.376 18.8394 156.759 22.7187 153.809 25.507C150.859 28.3357 146.94 29.8712 142.858 29.7904C140.11 29.8308 137.443 29.1843 135.019 27.8508C132.756 26.5981 130.857 24.7796 129.523 22.5975C128.149 20.2133 127.462 17.5463 127.543 14.7984C127.422 10.7979 129.038 6.91856 131.907 4.17071C134.857 1.42285 138.777 -0.112723 142.818 0.00850576ZM142.899 1.82694C141.404 1.78653 139.908 2.23104 138.696 3.07964C137.363 4.13029 136.393 5.54463 135.867 7.16102C135.059 9.62601 134.736 12.2122 134.817 14.7984C134.817 18.2333 135.14 20.9003 135.787 22.6783C136.271 24.2543 137.282 25.6282 138.615 26.5981C139.908 27.4467 141.404 27.8912 142.939 27.8508C145.242 27.9316 147.465 26.8001 148.758 24.9009C150.213 22.9208 150.94 19.688 150.94 14.7984C150.94 11.3636 150.617 8.61576 150.011 6.91856C149.526 5.38299 148.556 4.04947 147.223 3.07964C145.929 2.27145 144.434 1.82694 142.899 1.82694Z" fill="white"/>
</svg>
