<svg width="126" height="163" viewBox="0 0 126 163" fill="none" xmlns="http://www.w3.org/2000/svg">
<g clip-path="url(#clip0_6130_4239)">
<path d="M0 0H126.136V200H0V0ZM5.18182 5.39773C5.18182 10.75 5.19318 16.1023 5.17045 21.4659C15.625 17.7045 26.6477 15.875 37.6364 14.4659C65.2727 11.1591 93.1477 10.375 120.955 10.4886C120.955 8.79545 120.955 7.09091 120.955 5.39773C82.3636 5.39773 43.7727 5.39773 5.18182 5.39773ZM92.625 13.3295C62.5682 16.7955 32.1591 22.8977 5.13636 37.0568C5.21591 43.3636 5.15909 49.6705 5.19318 55.9773C24.7955 40.1477 48.1705 29.7614 72.0455 22.2159C87.1477 17.5341 102.58 13.7614 118.273 11.75C109.693 11.3409 101.148 12.5455 92.625 13.3295ZM17.4659 124.284C51.9545 124.307 86.4545 124.284 120.955 124.284C120.955 87.0114 120.966 49.7273 120.943 12.4432C79.4659 42.3523 44.7045 81.1136 17.4659 124.284ZM106.932 16.1023C70.5682 28.7955 35.9091 47.2955 6.82955 72.7386C5.02273 74.0341 5.27273 76.4091 5.13636 78.3636C5.10227 84.6818 5.14773 90.9886 5.38636 97.3068C10.2955 92.7727 14.4205 87.4886 19.1932 82.8068C42.4432 59.5455 69.3295 40.1477 97.7386 23.6932C103.045 20.5227 108.83 18.1477 113.75 14.3523C111.455 14.8523 109.159 15.3523 106.932 16.1023ZM10.6477 134.33C9.42045 141.295 7.67045 148.17 5.54545 154.92C11.3295 154.886 17.1023 154.898 22.875 154.898C23.4318 153.648 23.9886 152.398 24.5455 151.148C21.2273 151.375 17.9091 151.443 14.5909 151.466C16.0341 145.727 17.2614 139.92 19.1705 134.307C16.3295 134.364 13.4886 134.375 10.6477 134.33ZM37.5568 134.398C33.4773 141.75 28 148.239 22.9886 154.966C24.625 154.932 26.2727 154.909 27.9205 154.898C28.8409 153.08 29.8182 151.284 30.8182 149.511C34 149.432 37.1932 149.42 40.375 149.443C40.3977 151.284 40.3864 153.114 40.3523 154.955C43.4773 154.898 46.6023 154.898 49.7273 154.932C48.0568 148.17 47.2614 141.227 46.0682 134.375C43.2386 134.375 40.3977 134.375 37.5568 134.398ZM54.0227 134.375C53.5795 135.352 52.6932 137.295 52.25 138.273C54.4545 138.045 56.6705 137.864 58.8864 137.705C57.5341 143.477 56.2386 149.284 54.3636 154.92C57.1932 154.898 60.0114 154.898 62.8295 154.909C63.8295 149.102 65.4545 143.432 66.8636 137.727C68.9773 137.864 71.1023 138.034 73.2159 138.227C73.2841 136.943 73.3523 135.648 73.4318 134.364C66.9659 134.375 60.5 134.364 54.0227 134.375ZM81.9773 134.409C77.8295 141.739 72.5 148.364 67.2727 154.955C68.9659 154.932 70.6591 154.898 72.3523 154.875C73.2614 153.068 74.2273 151.295 75.2045 149.523C78.3977 149.432 81.6023 149.42 84.7955 149.443C84.8068 151.284 84.7955 153.114 84.7614 154.955C87.8977 154.898 91.0227 154.898 94.1591 154.92C92.5 148.159 91.6818 141.227 90.4886 134.375C87.6477 134.364 84.8182 134.375 81.9773 134.409ZM100.33 134.295C99.1364 141.284 97.3523 148.17 95.2273 154.932C98.0455 154.898 100.864 154.898 103.682 154.898C104.341 151.443 104.511 147.545 107.295 145C108.33 148.205 108.943 151.534 109.455 154.864C112.341 154.886 115.227 154.909 118.114 154.932C117.443 152.136 116.784 149.341 116.136 146.557C120.443 144.955 121.693 139.205 120.534 135.273C114.045 133.307 107.023 134.898 100.33 134.295ZM31.5227 177.614C33.1932 177.625 34.8636 177.591 36.5227 177.511C36.625 173.068 38.2159 167.943 35.5909 163.989C34.9318 167.818 35.3068 171.705 34.9773 175.557C34.5 175.625 33.5568 175.75 33.0795 175.818C32.8295 171.898 33.1136 167.955 32.5 164.057C29.5114 167.818 31.3523 173.193 31.5227 177.614ZM41.2955 164.159C39.7841 168.83 38.8182 173.67 38.1591 178.534C39.4773 177.239 40.7727 175.92 42.1136 174.636C42.4091 175.364 43.0227 176.795 43.3295 177.523C46.3182 177.341 49.2955 177.602 52.2727 177.648C52.7955 176.955 53.8523 175.568 54.375 174.875C55.5568 175.966 56.6364 177.159 57.7841 178.295C57.4432 175.75 57.0455 173.205 56.7841 170.648C55.9432 171.841 55.125 173.057 54.2841 174.261C53.7614 172.591 53.1932 170.966 52.4545 169.386C52.1477 171.784 51.7614 174.17 51.3068 176.534C50.4545 176.364 48.7727 176.011 47.9318 175.841C47.9773 172.227 47.9773 168.614 47.9659 165.011C47.5227 165.023 46.6364 165.057 46.1932 165.068C46.0114 168.659 46.8636 172.523 45.3068 175.886C44.3409 174.489 42.9205 173.625 41.1932 173.534C39.9091 172.534 41.5 170.67 41.5114 169.364C41.625 169.932 41.875 171.08 41.9886 171.648C42.4205 172.443 43.0909 172.591 44 172.114C43.2614 169.409 42.6818 166.625 41.2955 164.159ZM54.0568 164.693C53.7045 165.886 52.9886 168.273 52.6364 169.466C53.8977 169.75 55.1705 170.08 56.4773 170.034C55.4318 168.489 56.1023 165.557 54.0568 164.693ZM62.1591 165.591C61.25 169.705 65.3864 172.182 65.5227 176.023C64.5795 175.955 62.7045 175.807 61.7614 175.727C62.6818 177.625 64.9318 178.557 66.6364 177.011C68.9659 173.534 65.3295 170.466 63.4773 167.864C64.5568 167.364 66.7046 166.375 67.7841 165.875C65.9659 165.068 64.0455 164.955 62.1591 165.591ZM69.0114 165C68.9886 169.227 68.9886 173.455 69 177.67C70.1364 177.67 72.3977 177.67 73.5341 177.67L73.6591 176.091C72.9318 176.068 71.4886 176.034 70.7614 176.011C70.7614 174.75 70.7614 173.489 70.75 172.227C71.6364 172.034 73.3977 171.636 74.2841 171.432C73.3864 171.08 71.6023 170.375 70.7159 170.023C70.7386 169.216 70.7727 167.602 70.7955 166.795C71.5 166.75 72.9091 166.659 73.6136 166.614C73.5909 166.227 73.5568 165.455 73.5455 165.057C72.0341 165.034 70.5227 165.023 69.0114 165ZM75.3068 164.148C74.7727 168.636 75.0568 173.159 74.9886 177.67C77.0795 177.659 79.1704 177.636 81.2727 177.614C81.6591 176.92 82.4205 175.557 82.8068 174.864C84.0796 175.898 85.2045 177.125 86.4659 178.17C86.2727 175.159 85.6023 172.216 84.9886 169.273L83.9204 169.432C83.9091 170.659 83.9091 173.125 83.8977 174.352C82.7727 173.705 81.6932 173.011 80.6477 172.261C81.375 175.364 79.6705 176.432 76.8977 176.295C76.2386 172.341 78.3977 167.318 75.3068 164.148ZM82.8523 172.773C83.0455 171.818 83.4318 169.909 83.625 168.955L85.2046 169.193C84.5682 167.489 83.9091 165.795 83.2273 164.125C82.1023 166.92 80.5909 170.125 82.8523 172.773ZM88.2614 164.159C87.7841 168.989 87.5568 173.932 88.4659 178.739C90.1591 176.489 89.7386 173.58 90.2727 170.989C90.875 173.136 91.4773 175.318 92.0909 177.466C92.5341 177.58 93.3977 177.807 93.8295 177.909C93.3182 173.398 95.4545 167.932 92.4318 164.08C92.0795 166.67 92.0341 169.284 91.9318 171.898C90.9318 169.227 90.3977 166.216 88.2614 164.159ZM96.625 165.932C95.1932 169.432 95.1932 173.705 96.8295 177.148C98.2841 177.568 99.7841 177.761 101.318 177.75C101.784 175.511 102.125 173.25 102.398 170.989C101.42 171.011 99.4659 171.045 98.4886 171.068C98.9432 171.67 99.8636 172.875 100.33 173.477C100.08 174.307 99.6023 175.955 99.3523 176.773C96.8182 174.205 97.7955 170.318 97.9091 167.102C99.5 167.284 101.068 167.682 102.659 167.943C101.557 165.705 98.7727 163.489 96.625 165.932ZM105.216 165.477C102.659 168.568 103.091 173.682 104.83 177.17C109.307 179.898 110.966 173.739 110.273 170.398C110.784 167.67 108.364 163.17 105.216 165.477ZM112.17 164.75C112.068 169.045 112.091 173.341 112.102 177.636L113.92 177.705C113.841 175.875 113.75 174.057 113.648 172.239C114.705 174.511 115.705 176.886 117.625 178.614C117.284 176.545 116.659 174.545 116.33 172.477C116.67 170.25 117.227 168.057 117.352 165.795C115.636 165.409 113.898 165.068 112.17 164.75ZM6.29545 181.807C6.23864 185.636 6.23864 189.466 6.28409 193.295C8.61364 193.17 10.9545 193.034 13.25 192.625C11.4432 192.091 9.56818 191.818 7.70455 191.5C7.70455 190.614 7.69318 188.83 7.69318 187.932C9.51136 187.659 11.3523 187.42 13.1364 186.977C11.3295 186.614 9.5 186.318 7.67045 186.08C7.68182 185.466 7.71591 184.227 7.72727 183.614C9.55682 183.25 11.3977 182.92 13.1818 182.398C10.9091 182.023 8.60227 181.909 6.29545 181.807ZM16.1932 181.193C17.0114 183.318 18.0227 185.352 19.0795 187.364C17.9318 189.489 16.8068 191.636 15.9318 193.898C17.7614 192.682 18.9205 190.818 20 188.966C21.1136 190.818 22.2159 192.75 24.125 193.898C23.2159 191.648 22.0682 189.523 20.9205 187.409C21.9659 185.352 23 183.284 23.7727 181.102C22.2045 182.33 21.0682 183.977 19.9886 185.625C18.9545 183.955 17.8182 182.33 16.1932 181.193ZM28.0568 181.648C28.1818 185.761 27.2955 190.114 28.9205 194.023C29.2159 192.318 29.4659 190.614 29.6705 188.898C31.6364 188.227 35.1705 186.864 33.7727 184.125C33.0455 181.659 30.0341 182.114 28.0568 181.648ZM39.1705 194.057C39.3409 192.693 39.6705 189.943 39.8295 188.58C41.25 190.545 42.6023 192.659 44.7955 193.875C43.9432 192.091 42.9545 190.386 41.9545 188.693C42.7386 187.307 44.5227 185.989 43.9205 184.205C43.2159 181.818 40.1818 182.205 38.3182 181.489C38.4091 185.659 37.4773 190.091 39.1705 194.057ZM49.0227 181.841C48.9205 185.648 48.9318 189.455 49.0227 193.261C51.2727 193.182 53.5114 193.114 55.75 192.841C54.0227 192.148 52.1818 191.807 50.375 191.42C50.3636 190.58 50.3636 188.875 50.3523 188.023C52.1364 187.67 53.9659 187.455 55.6477 186.693C54.3182 186.557 51.6818 186.307 50.3523 186.17C50.3636 185.545 50.375 184.284 50.375 183.659C52.1705 183.261 53.9886 182.909 55.7273 182.273C53.5 181.977 51.2614 181.909 49.0227 181.841ZM59.9205 183.58C58.25 187.443 65.125 187.352 64.75 190.739C62.8977 193.341 60.5795 190.568 58.5909 189.727C59.625 191.045 60.2841 193.636 62.4545 193.25C65.5795 193.932 67.7273 188.932 64.7727 187.534C63.4432 186.33 59.0114 185 62.3068 183.307C63.3636 183.443 65.4773 183.716 66.5341 183.852C64.8182 182.011 61.2614 180.58 59.9205 183.58ZM71 183.42C69.4773 186.92 74.625 187.966 76.4773 189.875C75.8182 190.42 74.5 191.523 73.8409 192.068C72.4091 191.318 71.0909 190.386 69.7045 189.568C70.6023 191.239 71.4886 193.841 73.9432 193.25C76.1818 193.466 78.5796 189.886 76.5568 188.205C75.0341 186.477 70.7273 185.761 73.0568 182.909C74.125 183.25 76.2727 183.909 77.3523 184.239C76 181.966 72.5568 180.511 71 183.42ZM80.8864 181.068C81.4205 183.932 82.375 186.682 83.0909 189.511C83.5568 188.716 84.0114 187.932 84.4659 187.136C83.3977 185.045 82.5114 182.818 80.8864 181.068ZM88.4773 181.727C87.2841 184.227 86.2841 186.83 85.5 189.5C84.9773 189.511 83.9432 189.545 83.4205 189.557C83.8295 190.591 84.6364 192.659 85.0341 193.682C86.2841 190.886 87.4318 188.045 88.6023 185.205C89.7727 188.023 90.9205 190.852 92.2159 193.625C93.7727 189.511 95.5114 185.432 96.4091 181.102C93.8295 183.318 93.3523 186.864 92.1477 189.852C91.0682 187.08 89.9659 184.307 88.4773 181.727ZM103.057 181.42C101.239 185.545 99.1818 189.58 97.9659 193.932C99.1591 192.693 100.216 191.352 101.295 190.023C102.182 190.011 103.977 190 104.864 189.989C105.92 191.364 106.989 192.739 108.216 193.977C106.955 189.614 104.966 185.523 103.057 181.42ZM109.5 181.25C111.636 185.284 113.341 189.466 114.023 194.011C114.273 189.352 116.25 185.261 118.261 181.159C116.273 182.443 115.136 184.523 113.932 186.477C112.693 184.534 111.5 182.489 109.5 181.25Z" fill="white"/>
<path d="M107.614 137.898C109.477 137.886 111.341 137.875 113.216 137.886C112.841 139.432 112.455 140.977 112.068 142.523C110.216 142.523 108.364 142.523 106.511 142.511C106.886 140.966 107.25 139.432 107.614 137.898Z" fill="white"/>
<path d="M33.7727 145.932C35.3182 143.682 36.875 141.454 38.4318 139.216C38.8295 141.466 39.2159 143.704 39.6136 145.954C37.6591 145.954 35.7159 145.943 33.7727 145.932Z" fill="white"/>
<path d="M78.1704 145.943C79.7159 143.704 81.2727 141.466 82.8409 139.239C83.25 141.477 83.6363 143.716 84.034 145.954C82.0795 145.954 80.125 145.943 78.1704 145.943Z" fill="white"/>
</g>
<defs>
<clipPath id="clip0_6130_4239">
<rect width="126" height="163" fill="white"/>
</clipPath>
</defs>
</svg>
