<svg width="200" height="143" viewBox="0 0 200 143" fill="none" xmlns="http://www.w3.org/2000/svg">
<g clip-path="url(#clip0_6130_4408)">
<path fill-rule="evenodd" clip-rule="evenodd" d="M6.21594 122.915L100.128 4.43459e-05L194.034 122.915H6.21594ZM48.9962 118.835C49.6183 118.835 49.7312 118.615 49.7312 118.015V100.473C49.7312 99.8646 49.6183 99.6525 48.9962 99.6525V99.2672H54.6059V99.6525C53.8694 99.6525 53.7533 99.8646 53.7533 100.473V115.989H66.8449C67.523 115.989 67.8075 115.766 67.8075 115.328H68.2025V119.823H67.8075C67.8075 119.432 67.523 119.223 66.8449 119.223H48.9962V118.835ZM98.4452 100.473C98.4452 99.8649 98.3334 99.6523 97.65 99.6523V99.2674H110.175C117.368 99.2674 120.435 103.238 120.435 109.25C120.435 115.875 116.634 119.223 110.797 119.223H97.65V118.835C98.3334 118.835 98.4452 118.615 98.4452 118.015V100.473ZM102.471 115.989H110.797C114.316 115.989 116.408 114.234 116.408 109.25C116.408 103.93 113.571 102.501 109.829 102.501H102.471V115.989ZM88.5373 100.473V107.052H75.7904V100.473C75.7904 99.8646 75.9313 99.6525 76.6093 99.6525V99.2672H70.9172V99.6525C71.6511 99.6525 71.7626 99.8646 71.7626 100.473V118.015C71.7626 118.615 71.6511 118.835 70.9172 118.835V119.223H76.6093V118.835C75.9313 118.835 75.7904 118.615 75.7904 118.015V110.506H88.5373V118.015C88.5373 118.615 88.4244 118.835 87.6876 118.835V119.223H93.3474V118.835C92.7002 118.835 92.5608 118.615 92.5608 118.015V100.473C92.5608 99.8646 92.7002 99.6525 93.3474 99.6525V99.2672H87.6876V99.6525C88.4244 99.6525 88.5373 99.8646 88.5373 100.473ZM145.948 118.015C145.948 118.615 146.149 118.835 146.71 118.835V119.223H141.47V118.835C141.754 118.835 142.042 118.782 142.042 118.615C142.042 118.415 141.933 118.307 141.698 118.075L141.698 118.074C141.641 118.018 141.577 117.955 141.505 117.881L128.755 104.641V118.015C128.755 118.615 128.897 118.835 129.519 118.835V119.223H124.505V118.835C125.128 118.835 125.186 118.615 125.186 118.015V100.473C125.186 99.8646 125.128 99.6525 124.505 99.6525V99.2672H130.541V99.6525C129.999 99.6525 129.776 99.7643 129.776 100.013C129.776 100.093 129.888 100.224 130.083 100.42L142.376 113.054V100.473C142.376 99.8646 142.329 99.6525 141.64 99.6525V99.2672H146.71V99.6525C146.149 99.6525 145.948 99.8646 145.948 100.473V118.015ZM89.3057 60.1045C89.3057 60.1045 91.2969 60.6585 94.1134 62.43C95.7752 59.3082 97.2424 55.7968 98.3698 51.8539C98.3698 51.8539 99.2167 48.8213 97.0166 50.6791C97.0166 50.6791 92.4032 54.2367 87.35 59.4418L89.3057 60.1045ZM93.3615 44.6723C93.3615 44.6723 111.35 32.8139 118.83 43.7305C124.952 52.6631 114.609 66.6546 105.836 75.2973C107.597 78.5277 109.176 82.4093 110.334 87.0801L107.848 86.9346C107.848 86.9346 106.701 82.4373 103.836 77.1917C102.614 78.3188 101.445 79.3233 100.401 80.1633C91.2535 87.4732 69.86 98.288 61.1421 87.8975C52.4252 77.5095 70.966 59.8325 75.2558 56.4035C75.2558 56.4035 54.0533 77.1469 63.9349 86.011C73.818 94.8809 96.5618 79.7139 99.2249 77.5626C99.9571 76.9713 101.087 76.014 102.441 74.7891C100.68 71.9851 98.081 69.2256 95.2548 66.8456C90.6675 72.7048 83.5121 78.2044 73.3868 84.5603L72.1952 82.7638C72.1952 82.7638 84.0243 77.058 92.5605 64.5563C89.1344 62.4246 85.8936 61.3896 85.8936 61.3896L83.1509 63.8685L83.0525 63.9777C79.4171 68.0094 78.058 69.5167 74.7078 75.1994L70.7334 76.3545C70.7334 76.3545 81.6636 43.7556 99.2837 18.1207L106.093 18.1433L104.277 20.9806C98.6938 23.9107 93.0518 34.0639 79.8821 63.8685C79.8821 63.8685 88.2374 54.4224 99.2866 46.5678H105.08C105.08 46.5678 104.433 54.4948 97.184 64.6484C99.5263 66.5707 102.087 69.2453 104.433 72.9198C112.103 65.5189 123.306 52.1065 115.083 43.7599C107.915 36.4729 93.3615 44.6723 93.3615 44.6723Z" fill="white"/>
<path d="M1.25285 142.306V142.01C1.78862 142.01 1.91836 141.765 1.91836 141.416V130.138C1.91836 129.789 1.78862 129.541 1.19873 129.541V129.239H5.54265V129.541C5.10041 129.541 4.94881 129.692 4.94881 129.865C4.94881 129.967 4.99899 130.06 5.05704 130.138L9.23862 138.087L13.5815 130.138C13.6033 130.038 13.6804 129.939 13.6804 129.837C13.6804 129.692 13.5001 129.541 13.0371 129.541V129.239H17.6383V129.541C17.0438 129.541 16.9126 129.789 16.9126 130.138V141.416C16.9126 141.765 17.0438 142.01 17.6383 142.01V142.306H14.0405V142.01C14.629 142.01 14.7587 141.765 14.7587 141.416V131.603L14.6835 131.555L9.2103 142.063L3.74287 131.555L3.71814 131.603V141.416C3.69162 141.765 3.81992 142.01 4.30516 142.01V142.306H1.25285Z" fill="white"/>
<path d="M36.3184 137.189H41.893L38.9872 131.332L36.3184 137.189ZM35.4952 138.835L34.6261 140.816C34.4949 141.12 34.2692 141.539 34.2692 141.745C34.2692 141.915 34.3932 142.01 34.7032 142.01V142.306H31.543V142.01C31.9798 142.01 32.0816 141.94 32.5934 140.847L37.2448 130.811C37.5 130.235 37.6505 130.015 37.6505 129.837C37.6505 129.692 37.4498 129.541 37.1903 129.541V129.239H40.94V129.541C40.6336 129.541 40.5315 129.639 40.5315 129.837C40.5315 130.038 40.7114 130.316 40.9931 130.883L45.9208 140.774C46.5136 141.94 46.5376 142.01 47.1318 142.01V142.306H43.5616V142.01C43.9762 142.01 44.0777 141.89 44.0777 141.661C44.0777 141.517 44.0235 141.416 43.7401 140.816L42.7635 138.835H35.4952Z" fill="white"/>
<path d="M64.3567 129.239V129.541C63.87 129.541 63.7446 129.789 63.7446 130.235V140.671H72.3718C72.956 140.671 73.2699 140.445 73.2699 139.929H73.5771V142.855H73.2699C73.2699 142.459 73.0105 142.306 72.3718 142.306H60.9711V142.01C61.4595 142.01 61.585 141.765 61.585 141.416V130.138C61.585 129.789 61.4595 129.541 60.9711 129.541V129.239H64.3567Z" fill="white"/>
<path d="M90.4463 137.189H96.0101L93.1112 131.332L90.4463 137.189ZM89.6163 138.835L88.7501 140.816C88.6161 141.12 88.3856 141.539 88.3856 141.745C88.3856 141.915 88.5171 142.01 88.8211 142.01V142.306H85.6652V142.01C86.102 142.01 86.2056 141.94 86.7174 140.847L91.3655 130.811C91.6196 130.235 91.7755 130.015 91.7755 129.837C91.7755 129.692 91.5738 129.541 91.3143 129.541V129.239H95.0612V129.541C94.7519 129.541 94.6526 129.639 94.6526 129.837C94.6526 130.038 94.8343 130.316 95.116 130.883L100.043 140.774C100.636 141.94 100.661 142.01 101.253 142.01V142.306H97.6784V142.01C98.0916 142.01 98.1977 141.89 98.1977 141.661C98.1977 141.517 98.1475 141.416 97.8655 140.816L96.8875 138.835H89.6163Z" fill="white"/>
<path d="M116.381 142.306V142.01C116.872 142.01 117.001 141.765 117.001 141.416V136.895L112.04 130.386C111.582 129.789 111.354 129.541 110.938 129.541V129.239H114.816V129.541C114.406 129.566 114.174 129.692 114.174 129.892C114.174 130.06 114.425 130.263 114.612 130.536L118.156 135.205L121.9 130.386C122.031 130.214 122.257 129.992 122.257 129.837C122.257 129.664 122.082 129.541 121.696 129.541V129.239H125.393V129.541C124.902 129.541 124.702 129.811 124.238 130.386L119.157 136.895V141.416C119.157 141.765 119.283 142.01 119.771 142.01V142.306H116.381Z" fill="white"/>
<path d="M139.841 138.21L140.184 138.386C140.131 138.511 140.103 138.609 140.103 138.71C140.103 139.627 142.745 140.815 145.268 140.815C148.496 140.815 149.885 139.778 149.885 138.335C149.885 134.462 138.945 139.228 138.945 133.093C138.945 130.732 141.822 129.095 145.572 129.095C148.496 129.095 149.838 130.037 150.502 130.037C150.857 130.037 151.015 129.892 151.166 129.717L151.479 129.837L150.064 132.694L149.782 132.52C149.807 132.395 149.807 132.303 149.807 132.197C149.807 131.734 148.063 130.732 145.572 130.732C142.798 130.732 141.052 131.734 141.052 133.073C141.052 136.452 151.989 131.924 151.989 138.335C151.989 140.423 149.676 142.459 145.315 142.459C141.615 142.459 140.028 140.916 139.255 140.916C139.048 140.916 138.895 141.014 138.714 141.212L138.457 141.073L139.841 138.21Z" fill="white"/>
<path d="M167.012 142.306V142.01C167.497 142.01 167.625 141.765 167.625 141.416V130.138C167.625 129.789 167.497 129.541 167.012 129.541V129.239H170.399V129.541C169.911 129.541 169.782 129.789 169.782 130.138V141.416C169.782 141.765 169.911 142.01 170.399 142.01V142.306H167.012Z" fill="white"/>
<path d="M189.185 137.189H194.758L191.861 131.332L189.185 137.189ZM188.367 138.835L187.491 140.816C187.366 141.12 187.132 141.539 187.132 141.745C187.132 141.915 187.263 142.01 187.567 142.01V142.306H184.417V142.01C184.849 142.01 184.947 141.94 185.466 140.847L190.114 130.811C190.371 130.235 190.524 130.015 190.524 129.837C190.524 129.692 190.321 129.541 190.061 129.541V129.239H193.812V129.541C193.504 129.541 193.402 129.639 193.402 129.837C193.402 130.038 193.585 130.316 193.861 130.883L198.789 140.774C199.38 141.94 199.406 142.01 200 142.01V142.306H196.437V142.01C196.844 142.01 196.942 141.89 196.942 141.661C196.942 141.517 196.895 141.416 196.61 140.816L195.636 138.835H188.367Z" fill="white"/>
</g>
<defs>
<clipPath id="clip0_6130_4408">
<rect width="200" height="142.855" fill="white" transform="matrix(1 0 0 -1 0 142.855)"/>
</clipPath>
</defs>
</svg>
