<svg width="145" height="200" viewBox="0 0 145 200" fill="none" xmlns="http://www.w3.org/2000/svg">
<g clip-path="url(#clip0_6128_4053)">
<path d="M2.49658 13.4083L9.98749 4.10141L10.6685 4.32842C12.9385 5.23641 15.6624 5.46341 18.1594 5.46341C24.0613 5.23641 29.9632 4.5554 35.8651 2.96643C41.3131 1.15045 46.988 0.242474 52.8899 0.0154771C60.1538 -0.21152 67.4177 2.05845 73.0926 6.82538L73.3196 7.05238V13.1813L2.49658 13.4083ZM10.6685 6.37138L6.12855 11.8193H71.2766V7.96037C66.0557 3.64743 59.2458 1.60444 52.6629 1.83144C46.988 1.83144 41.5401 2.73944 36.3191 4.55542C30.4172 6.14439 24.2883 7.05238 18.1594 7.05238C15.4354 7.50637 12.9385 7.05237 10.6685 6.37138Z" fill="#F1F1F1"/>
<path d="M69.0069 10.4576C60.3811 1.37777 41.3133 7.50669 41.0863 7.73369C27.4665 12.7276 8.62576 9.09567 7.71777 8.86867L7.94477 7.27969C8.17176 7.27969 27.2395 10.9116 40.4053 6.1447C41.3133 5.9177 60.835 -0.438208 70.1419 9.54965L69.0069 10.4576Z" fill="#F1F1F1"/>
<path d="M69.0066 12.7276C60.3807 5.91773 41.313 10.4577 41.086 10.6847C27.4662 14.3166 7.26346 10.6847 6.35547 10.6847L6.58246 9.09569C6.80946 9.09569 27.2392 12.7276 40.632 9.09569C41.54 8.86869 60.8347 4.10176 70.1416 11.5927L69.0066 12.7276Z" fill="#F1F1F1"/>
<path d="M142.1 13.4086H71.2769V7.27967L71.5038 7.05268C77.1788 2.28574 84.2157 0.0157751 91.7066 0.242772C97.3815 0.242772 103.283 1.15075 108.731 2.96673C114.406 4.55571 120.308 5.23671 126.21 5.46371C128.707 5.6907 131.204 5.23671 133.701 4.32872L134.382 4.10171L134.836 4.78271L142.1 13.4086ZM73.0928 11.8196H138.468L133.928 6.37168C131.431 7.05267 128.934 7.50667 126.437 7.27967C120.308 7.05268 114.179 6.37169 108.277 4.78271C103.056 2.96673 97.3815 2.05875 91.9336 2.05875C85.1237 1.83176 78.5408 3.87472 73.0928 8.18766V11.8196Z" fill="#F1F1F1"/>
<path d="M75.3628 10.4577L74.2278 9.32272C83.5347 -0.665142 103.056 5.69077 103.964 6.14476C117.13 10.9117 136.198 7.27975 136.425 7.27975L136.652 8.86874C135.971 9.09573 116.903 12.7277 103.283 7.73375C103.056 7.73375 83.9886 1.37783 75.3628 10.4577Z" fill="#F1F1F1"/>
<path d="M75.3628 12.7276L74.2278 11.3656C83.5347 4.10168 102.829 8.64162 103.737 8.86862C116.903 12.5006 137.56 8.86862 137.787 8.86862L138.014 10.4576C137.106 10.6846 116.903 14.0895 103.283 10.4576C103.283 10.6846 84.2156 5.91765 75.3628 12.7276Z" fill="#F1F1F1"/>
<path d="M72.6388 200H71.7308H71.5038C67.8718 189.785 31.0983 184.337 30.6443 184.11C3.4047 173.895 4.76668 153.693 4.76668 153.466V39.0592C4.53968 33.8382 3.6317 28.6173 2.04272 23.6234V22.9424H142.327L142.1 23.6234C140.511 28.6173 139.603 33.8382 139.376 39.0592V153.466C139.376 153.693 140.738 173.668 113.498 183.883C113.044 184.11 76.4977 189.785 72.6388 200ZM3.6317 24.0774C4.99368 29.0713 5.90168 34.0652 6.12868 39.2862V153.693C6.12868 153.92 4.76669 173.214 31.3253 183.202C32.6873 183.429 66.5098 188.423 72.4118 198.638C78.3137 188.65 112.136 183.429 113.725 183.202C140.057 173.214 138.695 153.92 138.695 153.693V39.0592C138.922 33.8382 139.83 28.8443 141.192 23.8504L3.6317 24.0774Z" fill="#F1F1F1"/>
<path d="M139.376 72.2007H4.99369V39.0592C4.76669 33.8382 3.8587 28.6173 2.26972 23.6234L2.04272 22.9424H142.327L142.1 23.6234C140.511 28.6173 139.603 33.8382 139.376 39.0592V72.2007ZM5.90166 71.0657H138.468V39.0592C138.695 33.8382 139.376 28.8443 140.965 23.8504H3.6317C4.99368 28.8443 5.90168 33.8382 6.12868 39.0592L5.90166 71.0657Z" fill="#F1F1F1"/>
<path d="M139.376 72.2007H4.99369V39.0592C4.76669 33.8382 3.8587 28.6173 2.26972 23.6234L2.04272 22.9424H142.327L142.1 23.6234C140.511 28.6173 139.603 33.8382 139.376 39.0592V72.2007ZM5.90166 71.0657H138.468V39.0592C138.695 33.8382 139.376 28.8443 140.965 23.8504H3.6317C4.99368 28.8443 5.90168 33.8382 6.12868 39.0592L5.90166 71.0657Z" fill="#F1F1F1"/>
<path d="M144.37 12.5002H0.226562V14.5432H144.37V12.5002Z" fill="#F1F1F1"/>
<path d="M144.37 14.5432H0V12.2732H144.37V14.5432ZM0.226993 14.3162H144.143V12.5002H0.226993V14.3162Z" fill="#F1F1F1"/>
<path d="M66.0557 12.7274C66.0557 10.2304 68.7796 7.96045 72.4116 7.96045C75.8165 7.96045 78.7675 10.0034 78.7675 12.7274C78.7675 15.4513 76.0435 17.4943 72.4116 17.4943C68.7796 17.4943 66.0557 15.2243 66.0557 12.7274Z" fill="#F1F1F1"/>
<path d="M111.001 68.1145H106.234L102.602 65.8445L99.4244 64.9366H99.1974C95.3385 64.9366 91.7065 64.0286 88.0746 62.4396C86.0316 61.5316 84.2156 60.3966 82.8536 58.8076C80.5837 58.8076 66.0559 57.8997 59.7 51.9977L59.473 51.7707H59.246C58.111 51.9977 56.976 52.4517 56.068 53.1327C52.6631 55.1757 48.8041 56.0837 44.9452 56.0837C41.7672 56.0837 38.5892 55.4027 35.6383 54.2677H34.9573C33.3683 54.2677 32.0063 54.9487 30.8713 56.0837C30.8713 56.0837 29.5094 59.0346 33.3683 61.3046H33.5953V61.5316C33.5953 61.7586 34.5033 63.5746 33.8223 64.7096C33.3683 65.1636 32.9143 65.6175 32.2333 65.3905H32.0063L31.5523 65.1635L31.3253 66.0715L29.0554 66.2985L28.6014 65.3905H28.1474H26.5584L26.3314 65.1635C25.1964 62.6666 24.7424 59.9426 24.7424 57.2187C24.7424 56.7647 26.5584 49.2738 41.3132 45.4148L41.7672 45.1878C37.6813 45.1878 29.9634 44.2798 28.6014 38.6049C28.6014 36.335 29.2824 34.065 30.8713 32.476C32.6873 30.66 35.1843 29.752 37.9083 30.206C41.3132 30.433 44.9452 30.887 48.3501 31.568C51.9821 32.476 55.614 33.157 59.246 33.157C60.3809 33.157 61.5159 33.157 62.6509 32.93C64.2399 32.249 65.8289 32.022 67.4179 32.022C68.5528 31.795 69.4608 32.249 70.1418 33.157C70.5958 33.838 70.8228 34.746 70.5958 35.427C70.1418 36.5619 68.5528 37.0159 66.0559 37.0159C64.9209 37.2429 63.7859 37.2429 62.8779 37.2429C55.841 37.0159 48.8041 36.108 41.9942 34.292C41.0862 34.065 39.9512 33.838 39.0432 33.838C34.7303 33.838 34.7303 36.562 34.7303 37.2429C34.7303 37.6969 34.7303 38.1509 35.1843 38.6049C35.8653 39.2859 37.4543 40.1939 41.3132 40.1939C43.5832 40.1939 45.8531 39.9669 47.8961 39.5129C49.9391 39.0589 52.2091 38.8319 54.479 38.8319C58.338 38.8319 62.1969 39.2859 65.8289 40.4209C67.8718 40.8749 69.9148 41.1019 71.7308 41.1019C77.4057 41.3289 83.0806 39.2859 87.1666 35.2L88.9826 32.476L89.4365 30.66H89.6635C89.8905 30.66 91.2525 30.206 93.5225 31.795C95.5655 32.022 97.6084 32.476 99.4244 33.157L99.6514 33.384L99.8784 34.065L104.418 34.292L104.645 34.519C106.461 36.3349 106.461 39.2859 105.099 41.3289L104.872 41.5559L102.148 41.1019H101.467C101.24 42.0099 101.24 43.1448 101.921 43.8258C102.602 44.2798 103.737 45.4148 103.51 46.3228C103.283 47.2308 102.148 47.0038 101.921 47.0038H101.467L95.5655 45.1878C95.7925 45.4148 96.0195 45.6418 96.2465 45.6418L99.1974 48.5928C99.8784 48.8198 100.559 49.0468 101.24 49.0468C103.283 49.0468 105.099 48.5928 106.915 47.6848L110.093 47.2308C111.909 46.5498 113.498 46.3228 115.314 46.3228C116.676 46.0958 117.811 46.5498 118.719 47.4578V47.6848C119.173 49.0468 119.173 50.4087 118.719 51.7707C118.492 52.4517 117.811 52.9057 117.13 53.1327L116.676 53.3597L116.449 54.7217H115.768C115.541 54.7217 115.314 54.7217 114.86 54.7217C114.179 54.7217 113.725 54.2677 113.044 54.0407C112.817 53.8137 112.59 53.5867 112.363 53.5867C111.682 53.3597 111.228 53.3597 110.547 53.3597C109.639 53.3597 108.731 53.5867 107.823 54.0407C104.418 56.5377 100.559 57.8997 96.4734 58.1266C96.0195 58.1266 95.3385 58.1266 94.8845 58.1266C95.7925 59.0346 97.8354 60.1696 103.056 60.3966H103.51C105.099 60.3966 113.271 60.6236 114.86 66.9795V67.2065L113.498 68.5685L111.909 68.1145H111.001ZM106.461 66.9795H110.547L111.228 66.5255L112.59 66.7525L113.044 66.2985C111.228 61.0776 104.191 60.8506 102.829 60.8506H102.375C93.2955 60.3966 92.8415 56.9917 92.8415 56.7647V56.0837L93.5225 56.3107C94.4305 56.5377 95.1115 56.5377 96.0195 56.5377C99.8784 56.3107 103.737 54.9487 106.915 52.6787C107.823 51.9977 108.958 51.7707 110.093 51.7707C110.774 51.7707 111.455 51.7707 112.136 51.9977C112.59 52.2247 113.044 52.4517 113.271 52.6787C113.498 52.9057 113.952 53.1327 114.406 53.3597C114.633 53.3597 114.633 53.3597 114.86 53.3597H115.087L115.314 52.2247L116.222 51.5437C116.676 51.5437 117.13 51.0897 117.357 50.6357C117.584 49.7278 117.584 48.5928 117.357 47.4578C116.676 47.0038 115.768 46.5498 114.633 46.7768C113.044 46.7768 111.228 47.2308 109.639 47.6848L106.461 48.1388C104.645 49.0468 102.602 49.5008 100.559 49.5008C99.6514 49.5008 98.5164 49.2738 97.8354 48.8198L94.8845 45.8688C94.4305 45.6418 93.5225 44.9608 93.7495 44.2798C93.9765 43.8258 94.2035 43.3719 94.6575 43.3719H94.8845L101.24 45.1878C101.467 45.1878 101.694 45.1878 101.921 45.1878C101.467 44.7338 101.24 44.2798 100.559 43.8258C98.7434 41.1019 100.105 39.5129 100.105 39.2859L100.332 39.0589H101.694L103.964 39.5129C105.099 37.9239 104.872 35.881 103.737 34.519L98.7434 34.292L98.2894 33.157C96.4735 32.703 94.6575 32.249 92.8415 32.022H92.6145C91.9335 31.341 91.0255 30.887 89.8905 30.887L89.4365 32.249L87.3936 35.2C83.0806 39.5129 77.1787 41.5559 71.0498 41.3289C69.0068 41.3289 66.7369 41.1019 64.6939 40.6479C61.0619 39.5129 57.43 39.0589 53.571 39.0589C51.5281 39.0589 49.2581 39.2859 47.2151 39.7399C39.7242 40.8749 35.1843 40.4209 33.3683 38.3779C32.9143 37.9239 32.6873 37.0159 32.6873 36.335C32.6873 33.384 34.5033 31.795 37.9083 31.795C39.0432 31.795 40.1782 32.022 41.0862 32.249C47.8961 34.065 54.706 34.973 61.7429 35.2C62.8779 35.2 63.7859 35.2 64.9209 34.973C67.8718 34.973 68.5528 34.292 68.5528 34.065C68.7798 33.838 68.3258 32.93 68.3258 32.93C67.8718 32.476 67.1909 32.249 66.5099 32.249C64.9209 32.249 63.3319 32.703 61.9699 33.157C60.8349 33.384 59.7 33.384 58.338 33.384C54.479 33.384 50.8471 32.703 47.2151 31.568C43.8102 30.887 40.4052 30.433 37.0003 30.206H36.0923C34.2763 30.206 32.2333 30.887 30.8713 32.022C29.7364 33.384 29.0554 35.427 29.0554 37.2429C30.4174 42.4639 39.2702 42.9179 41.7672 42.9179C42.4482 42.9179 42.9022 42.9179 42.9022 42.9179H44.9452L40.8592 45.1878C26.5584 48.8198 24.9694 56.0837 24.9694 56.0837C24.9694 58.5806 25.4234 60.8506 26.3314 63.1206H28.1474L29.2824 62.8936L29.7364 63.8016H30.8713L31.3253 63.1206L32.4603 63.5746C32.6873 63.5746 32.9143 63.5746 33.1413 63.3476C33.3683 62.8936 33.1413 61.9856 32.9143 61.3046C28.1474 58.3536 30.1904 54.7217 30.1904 54.4947C31.3253 52.9057 33.1413 51.9977 35.1843 51.9977C35.4113 51.9977 35.8653 51.9977 36.0923 51.9977C39.0432 53.1327 41.9942 53.5867 45.1722 53.8137C48.8041 53.8137 52.436 52.9057 55.614 51.0897C56.749 50.1818 57.884 49.7278 59.473 49.5008C59.927 49.5008 60.381 49.7278 60.6079 50.1818C66.9639 56.0837 82.8536 56.5377 83.0806 56.5377H83.3076L83.5346 56.7647C84.8966 58.3536 86.7126 59.7156 88.5286 60.6236C91.9335 61.9856 95.5655 62.8936 99.1974 62.8936H99.4244L103.056 64.0286L106.461 66.9795Z" fill="#F1F1F1"/>
<path d="M111.001 68.1145H106.234L102.602 65.8445L99.4244 64.9366H99.1974C95.3385 64.9366 91.7065 64.0286 88.0746 62.4396C86.0316 61.5316 84.2156 60.3966 82.8536 58.8076C80.5837 58.8076 66.0559 57.8997 59.7 51.9977L59.473 51.7707H59.246C58.111 51.9977 56.976 52.4517 56.068 53.1327C52.6631 55.1757 48.8041 56.0837 44.9452 56.0837C41.7672 56.0837 38.5892 55.4027 35.6383 54.2677H34.9573C33.3683 54.2677 32.0063 54.9487 30.8713 56.0837C30.8713 56.0837 29.5094 59.0346 33.3683 61.3046H33.5953V61.5316C33.5953 61.7586 34.5033 63.5746 33.8223 64.7096C33.3683 65.1636 32.9143 65.6175 32.2333 65.3905H32.0063L31.5523 65.1635L31.3253 66.0715L29.0554 66.2985L28.6014 65.3905H28.1474H26.5584L26.3314 65.1635C25.1964 62.6666 24.7424 59.9426 24.7424 57.2187C24.7424 56.7647 26.5584 49.2738 41.3132 45.4148L41.7672 45.1878C37.6813 45.1878 29.9634 44.2798 28.6014 38.6049C28.6014 36.335 29.2824 34.065 30.8713 32.476C32.6873 30.66 35.1843 29.752 37.9083 30.206C41.3132 30.433 44.9452 30.887 48.3501 31.568C51.9821 32.476 55.614 33.157 59.246 33.157C60.3809 33.157 61.5159 33.157 62.6509 32.93C64.2399 32.249 65.8289 32.022 67.4179 32.022C68.5528 31.795 69.4608 32.249 70.1418 33.157C70.5958 33.838 70.8228 34.746 70.5958 35.427C70.1418 36.5619 68.5528 37.0159 66.0559 37.0159C64.9209 37.2429 63.7859 37.2429 62.8779 37.2429C55.841 37.0159 48.8041 36.108 41.9942 34.292C41.0862 34.065 39.9512 33.838 39.0432 33.838C34.7303 33.838 34.7303 36.562 34.7303 37.2429C34.7303 37.6969 34.7303 38.1509 35.1843 38.6049C35.8653 39.2859 37.4543 40.1939 41.3132 40.1939C43.5832 40.1939 45.8531 39.9669 47.8961 39.5129C49.9391 39.0589 52.2091 38.8319 54.479 38.8319C58.338 38.8319 62.1969 39.2859 65.8289 40.4209C67.8718 40.8749 69.9148 41.1019 71.7308 41.1019C77.4057 41.3289 83.0806 39.2859 87.1666 35.2L88.9826 32.476L89.4365 30.66H89.6635C89.8905 30.66 91.2525 30.206 93.5225 31.795C95.5655 32.022 97.6084 32.476 99.4244 33.157L99.6514 33.384L99.8784 34.065L104.418 34.292L104.645 34.519C106.461 36.3349 106.461 39.2859 105.099 41.3289L104.872 41.5559L102.148 41.1019H101.467C101.24 42.0099 101.24 43.1448 101.921 43.8258C102.602 44.2798 103.737 45.4148 103.51 46.3228C103.283 47.2308 102.148 47.0038 101.921 47.0038H101.694L96.0195 45.4148L96.4734 45.6418L99.4244 48.5928C100.105 48.8198 100.786 49.0468 101.467 49.0468C103.51 49.0468 105.326 48.5928 107.142 47.6848L110.32 47.2308C112.136 46.5498 113.725 46.3228 115.541 46.3228C116.903 46.0958 118.038 46.5498 118.946 47.4578V47.6848C119.4 49.0468 119.4 50.4087 118.946 51.7707C118.719 52.4517 118.038 52.9057 117.357 53.1327L116.903 53.3597L116.676 54.7217H115.995C115.768 54.7217 115.541 54.7217 115.087 54.7217C114.406 54.7217 113.952 54.2677 113.271 54.0407C113.044 53.8137 112.817 53.5867 112.59 53.5867C111.909 53.3597 111.455 53.3597 110.774 53.3597C109.866 53.3597 108.958 53.5867 108.05 54.0407C104.645 56.5377 100.786 57.8997 96.7004 58.1266C96.2464 58.1266 95.5655 58.1266 95.1115 58.1266C96.0195 59.0346 98.0624 60.1696 103.283 60.3966H103.737C105.326 60.3966 113.498 60.6236 115.087 66.9795V67.2065L113.725 68.5685L112.136 68.1145H111.001ZM106.461 66.9795H110.547L111.228 66.5255L112.59 66.7525L113.044 66.2985C111.228 61.0776 104.191 60.8506 102.829 60.8506H102.375C93.2955 60.3966 92.8415 56.9917 92.8415 56.7647V56.0837L93.5225 56.3107C94.4305 56.5377 95.1115 56.5377 96.0195 56.5377C99.8784 56.3107 103.737 54.9487 106.915 52.6787C107.823 51.9977 108.958 51.7707 110.093 51.7707C110.774 51.7707 111.455 51.7707 112.136 51.9977C112.59 52.2247 113.044 52.4517 113.271 52.6787C113.498 52.9057 113.952 53.1327 114.406 53.3597C114.633 53.3597 114.633 53.3597 114.86 53.3597H115.087L115.314 52.2247L116.222 51.5437C116.676 51.5437 117.13 51.0897 117.357 50.6357C117.584 49.7278 117.584 48.5928 117.357 47.4578C116.676 47.0038 115.768 46.5498 114.633 46.7768C113.044 46.7768 111.228 47.2308 109.639 47.6848L106.461 48.1388C104.645 49.0468 102.602 49.5008 100.559 49.5008C99.6514 49.5008 98.5164 49.2738 97.8354 48.8198L94.8845 45.8688C94.2035 45.4148 93.5225 44.9608 93.7495 44.2798C93.9765 43.8258 94.4305 43.5988 94.8845 43.5988L101.013 45.4148C101.24 45.4148 101.467 45.4148 101.694 45.4148C101.24 44.9608 101.013 44.5068 100.559 44.0528C98.7434 41.3289 100.105 39.7399 100.105 39.5129L100.332 39.2859H101.694L103.964 39.7399C105.099 38.1509 104.872 36.1079 103.737 34.746L98.7434 34.519L98.5164 33.384C96.7004 32.93 94.8845 32.476 93.0685 32.249H92.8415C92.1605 31.568 91.2525 31.114 90.1175 31.114L89.6635 32.476L87.6206 35.427C83.3076 39.7399 77.4057 41.7829 71.2768 41.5559C69.2338 41.5559 66.9638 41.3289 64.9209 40.8749C61.2889 39.7399 57.657 39.2859 53.798 39.2859C51.7551 39.2859 49.4851 39.5129 47.4421 39.9669C39.9512 41.1019 35.4113 40.6479 33.5953 38.6049C33.1413 38.1509 32.9143 37.2429 32.9143 36.5619C32.9143 33.611 34.7303 32.022 38.1353 32.022C39.2702 32.022 40.4052 32.249 41.3132 32.476C48.1231 34.292 54.933 35.2 61.9699 35.427C63.1049 35.427 64.0129 35.427 65.1479 35.2C68.0988 35.2 68.7798 34.519 68.7798 34.292C69.0068 34.065 68.5528 33.157 68.5528 33.157C68.0988 32.703 67.4178 32.476 66.7369 32.476C65.1479 32.476 63.5589 32.93 62.1969 33.384C61.0619 33.611 59.927 33.611 58.565 33.611C54.706 33.611 51.0741 32.93 47.4421 31.795C44.0372 31.114 40.6322 30.66 37.2273 30.433H36.3193C34.5033 30.433 32.4603 31.114 31.0984 32.249C29.9634 33.611 29.2824 35.654 29.2824 37.4699C30.6444 42.6909 39.4972 43.1449 41.9942 43.1449C42.6752 43.1449 43.1292 43.1449 43.1292 43.1449H45.1722L41.0862 45.4148C26.7854 49.0468 25.1964 56.3107 25.1964 56.3107C25.1964 58.8076 25.6504 61.0776 26.5584 63.3476H28.1474L29.2824 63.1206L29.7364 64.0286H30.8713L31.3253 63.3476L32.4603 63.8016C32.6873 63.8016 32.9143 63.8016 33.1413 63.5746C33.3683 63.1206 33.1413 62.2126 32.9143 61.5316C28.1474 58.5806 30.1904 54.9487 30.1904 54.7217C31.3253 53.1327 33.1413 52.2247 35.1843 52.2247C35.4113 52.2247 35.8653 52.2247 36.0923 52.2247C39.0432 53.3597 41.9942 53.8137 45.1722 54.0407C48.8041 54.0407 52.436 53.1327 55.614 51.3167C56.749 50.4088 57.884 49.9548 59.473 49.7278C59.927 49.7278 60.381 49.9548 60.6079 50.4088C66.9639 56.3107 82.8536 56.7647 83.0806 56.7647H83.3076L83.5346 56.9917C84.8966 58.5806 86.7126 59.9426 88.5286 60.8506C91.9335 62.2126 95.5655 63.1206 99.1974 63.1206H99.4244L103.056 64.2556L106.461 66.9795Z" fill="#F1F1F1"/>
<path d="M68.3258 68.342L65.6018 67.888L63.1048 65.8451L61.5158 63.8021C61.2889 63.5751 60.8349 63.3481 60.3809 63.1211C59.4729 62.8941 58.7919 62.4401 58.1109 61.9861C57.4299 61.5321 56.9759 61.0781 56.7489 60.1701C56.5219 59.4891 56.0679 58.8081 55.6139 58.3541L54.252 56.3112L55.6139 54.4952L57.6569 54.2682L59.2459 54.4952L61.0619 54.2682L62.4238 54.9492L62.6508 53.8142L63.3318 54.2682C64.6938 55.1762 66.0558 55.8572 67.6448 56.3112L69.0068 56.0842L68.3258 56.9922C67.4178 58.3542 65.8288 59.2621 64.2398 59.9431C64.9208 61.3051 66.0558 62.2131 67.6448 62.6671L71.5037 62.8941L73.0927 64.0291L73.3197 65.391L73.0927 66.299L72.4117 66.98L71.0497 67.888L68.3258 68.342ZM66.0558 66.98L68.3258 67.207L70.5957 66.98L71.7307 66.299L72.1847 65.8451V65.391L71.9577 64.7101L71.2767 63.8021L67.6448 63.5751C65.6018 63.1211 63.7858 61.7591 63.1048 59.4891L62.8778 58.8082H63.5588C64.6938 58.5812 65.8288 57.9002 66.7368 56.9922C65.6018 56.5382 64.4668 56.0842 63.3318 55.4032L63.1048 56.5382L60.6079 55.4032L59.0189 55.6302L57.4299 55.4032L55.8409 55.6302L55.1599 56.5382L56.0679 57.9002C56.7489 58.5812 56.9759 59.2621 57.4299 60.1701C57.6569 61.0781 58.1109 61.3051 58.1109 61.3051C58.7919 61.7591 59.4729 61.9861 60.1539 62.2131C60.8349 62.4401 61.5159 62.6671 61.7429 63.3481L63.3318 65.391L66.0558 66.98Z" fill="#F1F1F1"/>
<path d="M110.32 47.2314C109.639 47.9124 109.185 49.0474 108.958 49.9554L107.596 47.9124L110.32 47.2314Z" fill="#F1F1F1"/>
<path d="M109.639 51.7707L106.688 47.4577L111.909 46.3228L110.774 47.6847C110.093 48.3657 109.639 49.2737 109.412 50.1817V51.7707H109.639Z" fill="#F1F1F1"/>
<path d="M104.191 48.8198C104.191 48.8198 105.553 51.9978 103.056 53.3598C103.056 53.3598 104.191 50.1818 102.375 49.2738L104.191 48.8198Z" fill="#F1F1F1"/>
<path d="M101.921 54.4953L102.375 53.1333C102.375 53.1333 103.283 50.4094 102.148 49.7284L100.786 49.0474L104.418 48.1394L104.645 48.5934C105.553 50.4094 105.099 52.6793 103.283 53.8143L101.921 54.4953ZM103.51 49.5014C103.737 49.9554 103.964 50.6364 103.964 51.3174C104.191 50.6364 104.191 49.9554 103.964 49.5014H103.51Z" fill="#F1F1F1"/>
<path d="M101.24 49.5008C101.24 49.5008 100.559 52.4518 96.0193 52.6788C96.0193 52.6788 99.1972 51.5438 98.9702 48.8198L101.24 49.5008Z" fill="#F1F1F1"/>
<path d="M96.0195 53.1333L95.7925 51.9984C95.7925 51.9984 98.5164 51.0904 98.5164 48.8204V48.1394L101.921 48.8204V49.2744C101.24 51.9984 98.7434 53.5873 96.0195 53.1333ZM99.8784 49.5014C99.8784 50.1824 99.4244 50.8634 98.9704 51.5444C99.8784 51.0904 100.559 50.6364 100.786 49.7284L99.8784 49.5014Z" fill="#F1F1F1"/>
<path d="M100.333 39.9673C100.333 39.9673 96.9276 39.0593 96.9276 41.7833C96.9276 41.7833 96.7006 44.5072 100.787 43.5992C100.106 42.6913 99.8785 41.3293 100.333 39.9673Z" fill="#F1F1F1"/>
<path d="M99.6516 44.5076C98.7436 44.5076 97.8356 44.2806 97.1546 43.5996C96.7006 43.1456 96.4736 42.4646 96.4736 41.7836C96.4736 40.4216 97.6086 39.2866 99.1976 39.2866H99.4246C99.8786 39.2866 100.333 39.2866 100.787 39.5136L101.468 39.7406L101.014 40.4216C100.56 41.3296 100.56 42.6916 101.468 43.5996L102.149 44.2806L101.241 44.5076C100.56 44.2806 100.106 44.5076 99.6516 44.5076ZM99.4246 40.4216C97.8356 40.4216 97.6086 41.3296 97.6086 42.0106C97.6086 42.4646 97.8356 42.6916 98.0626 42.9186C98.7436 43.3726 99.4246 43.5996 100.333 43.3726C99.8786 42.4646 99.6516 41.3296 100.106 40.4216H99.4246Z" fill="#F1F1F1"/>
<path d="M93.5223 32.4761C93.5223 32.4761 91.4793 31.7951 91.4793 33.8381C91.4793 33.8381 91.2523 32.0221 89.6634 33.1571L88.7554 32.9301L88.9824 31.5681C88.9824 31.5681 89.4364 29.9791 90.5714 30.6601C91.0253 30.6601 92.6143 32.4761 93.5223 32.4761Z" fill="#F1F1F1"/>
<path d="M91.2528 33.8384C91.2528 33.8384 91.2528 33.3844 91.0258 33.3844C90.7988 33.3844 90.5718 33.6114 90.3448 33.6114L90.1178 33.8384L88.5288 33.3844L88.9828 31.5685C89.2098 31.1145 89.6638 29.9795 90.5718 29.9795C90.7988 29.9795 91.2528 29.9795 91.4798 30.2065H91.7068C92.1608 30.8875 92.8418 31.3415 93.5228 31.7955C93.7497 31.7955 93.9767 31.7955 94.2037 32.0225L93.9767 33.1575C93.7497 33.1575 93.5227 33.1575 93.2957 32.9305C93.0687 32.9305 92.6148 32.9305 92.6148 33.8384H91.2528ZM89.6638 32.4765C90.3448 32.0225 91.0258 32.0225 91.4798 32.2495L91.7068 32.0225C91.2528 31.7955 90.7988 31.3415 90.5718 30.8875C90.1178 30.6605 89.8908 31.3415 89.8908 31.5685L89.6638 32.4765Z" fill="#F1F1F1"/>
<path d="M104.646 35.8812C104.646 35.8812 103.057 36.3352 103.965 34.2922C103.965 34.2922 104.646 34.5192 104.646 35.8812Z" fill="#F1F1F1"/>
<path d="M86.7127 36.1079C87.1667 38.8319 86.4857 41.5558 84.6697 43.8258C83.3077 46.7768 83.0807 50.1817 84.2157 53.3597C84.2157 53.3597 80.5838 50.4087 81.9457 43.5988C82.8537 42.2368 83.0807 40.4208 82.6267 38.8319C83.9887 38.1509 85.5777 37.2429 86.7127 36.1079Z" fill="#F1F1F1"/>
<path d="M85.5777 55.1757L83.9888 53.8137C83.7618 53.8137 80.1298 50.6357 81.2648 43.5988V43.3718C82.1728 42.2369 82.3998 40.6479 81.7188 39.2859L81.4918 38.8319L81.9458 38.6049C83.3078 37.6969 84.8967 36.7889 86.0317 35.6539L86.7127 35.2L86.9397 36.1079C87.3937 39.0589 86.7127 42.0099 84.8967 44.2798C83.5348 47.2308 83.5348 50.4087 84.4428 53.3597L85.5777 55.1757ZM82.3998 44.0528C81.9458 46.3228 82.1728 48.8198 83.0808 50.8627C82.8538 48.3658 83.3078 45.8688 84.2157 43.5988C85.5777 41.7829 86.2587 39.5129 86.2587 37.0159C84.8967 37.9239 83.7618 38.8319 83.0808 39.0589C83.5348 40.8749 83.3078 42.4639 82.3998 44.0528Z" fill="#F1F1F1"/>
<path d="M77.8599 40.4216C78.5409 42.2376 78.3139 44.0536 77.4059 45.6426C76.7249 48.1395 77.1789 50.8635 78.7679 52.9065C78.7679 52.9065 75.3629 51.5445 75.1359 46.0966C75.1359 46.0966 76.2709 42.9186 74.9089 41.5566C75.8169 42.0106 77.1789 41.5566 77.8599 40.4216Z" fill="#F1F1F1"/>
<path d="M80.3567 54.2678L78.5407 53.5868C78.3137 53.5868 74.6817 51.9978 74.6817 46.3229C74.9087 45.6419 75.3627 43.1449 74.4548 42.237L73.0928 40.875L74.9087 41.329C75.1357 41.329 75.1357 41.329 75.3627 41.329C76.2707 41.329 77.1787 40.875 77.6327 40.421L78.0867 39.74L78.5407 40.421C79.4487 42.2369 79.2217 44.5069 78.0867 46.3229C77.6327 48.5929 77.8597 51.0898 79.2217 53.1328L80.3567 54.2678ZM75.5897 46.3229C75.5897 47.9119 76.0437 49.5009 76.9517 50.8628C76.4977 49.0469 76.4977 47.4579 76.9517 45.6419C77.6327 44.2799 77.8597 42.9179 77.8597 41.556C77.1787 42.0099 76.4977 42.237 75.8167 42.237C76.2707 43.5989 76.2707 44.9609 75.5897 46.3229Z" fill="#F1F1F1"/>
<path d="M67.8718 41.3293L70.8228 41.5563C69.2338 44.0533 68.3258 47.0043 68.7798 49.9552C69.0068 49.9552 67.4178 47.9123 67.8718 41.3293Z" fill="#F1F1F1"/>
<path d="M69.9149 51.7705L68.5529 50.1816C68.5529 50.1816 66.7369 47.9116 67.4179 41.1017V40.6477L71.9579 41.1017L71.2769 41.7827C69.6879 44.0527 69.0069 47.0036 69.4609 49.7276L69.9149 51.7705ZM68.5529 41.7827C68.3259 43.3717 68.3259 44.7336 68.5529 46.3226C68.7799 44.7336 69.2339 43.3717 70.1419 42.0097L68.5529 41.7827Z" fill="#F1F1F1"/>
<path d="M65.6021 40.8756C64.2401 43.5996 63.3321 46.5506 62.8781 49.7285C62.8781 49.7285 61.2892 44.5076 62.1972 42.6916L61.9702 40.8756L61.7432 40.4216L65.6021 40.8756Z" fill="#F1F1F1"/>
<path d="M62.1968 49.7276C61.9698 49.2736 60.6079 44.5066 61.5158 42.4636L61.2889 40.8747L60.3809 39.5127L66.2828 40.4207L65.8288 41.1017C64.4668 43.8256 63.5588 46.7766 63.1048 49.7276H62.1968ZM62.4238 40.8747L62.6508 42.6906V42.9176C62.4238 44.2796 62.4238 45.8686 62.8778 47.2306C63.3318 45.1876 64.0128 43.1446 64.9208 41.3287L62.4238 40.8747Z" fill="#F1F1F1"/>
<path d="M58.5648 39.2866C58.5648 39.2866 60.3808 42.6916 57.4299 44.2806C55.6139 45.1886 54.4789 47.2315 54.9329 49.2745C54.9329 49.2745 52.8899 47.4585 54.9329 44.0536C56.2949 42.9186 56.7489 40.8756 55.6139 39.5136H58.5648V39.2866Z" fill="#F1F1F1"/>
<path d="M55.8411 50.6358L54.7061 49.7278C54.7061 49.7278 52.4361 47.6848 54.4791 43.5989L54.7061 43.3719C54.9331 43.1449 56.5221 42.0099 55.1601 39.286L54.7061 38.605H58.7921L59.0191 38.832C60.154 40.6479 59.7 43.3719 57.8841 44.5069C57.6571 44.5069 55.3871 45.4149 55.8411 49.0468V50.6358ZM55.6141 44.5069C55.1601 45.1879 54.9331 45.8689 54.9331 46.7769C55.3871 45.4149 56.2951 44.5069 57.4301 44.0529C59.2461 42.9179 58.5651 40.8749 58.3381 39.967H56.7491C57.4301 41.5559 56.9761 43.3719 55.6141 44.5069Z" fill="#F1F1F1"/>
<path d="M53.117 39.2865C52.663 41.1025 51.528 42.4645 50.166 43.5994C49.258 45.6424 48.8041 48.1394 48.8041 50.4094C47.4421 48.1394 46.9881 45.1884 47.6691 42.4645L48.5771 42.2375L49.2581 40.8755L48.5771 39.7405C48.3501 39.5135 51.982 38.8325 53.117 39.2865Z" fill="#F1F1F1"/>
<path d="M48.3503 50.6355C46.7613 48.1385 46.3073 45.1876 46.9883 42.4636V42.0096L48.1233 41.7826L48.5773 40.8746L47.8963 39.7397L48.1233 39.2857C48.5773 38.6047 50.8473 38.3777 51.5283 38.3777C52.2093 38.3777 52.6632 38.3777 53.3442 38.8317L53.5712 39.0587V39.5127C53.1172 41.3286 51.9823 42.9176 50.3933 44.0526C49.4853 46.0956 49.0313 48.1385 49.0313 50.4085L48.3503 50.6355ZM48.1233 42.9176C47.8963 44.5066 47.8963 46.3226 48.3503 47.9115C48.5773 46.3226 49.0313 44.7336 49.7123 43.1446V42.9176C50.8473 42.0096 51.7553 40.8747 52.4362 39.5127C52.2092 39.5127 51.9823 39.5127 51.5283 39.5127C50.8473 39.5127 49.9393 39.5127 49.2583 39.7397L49.7123 40.6477L48.5773 42.4636L48.1233 42.9176Z" fill="#F1F1F1"/>
<path d="M42.2213 45.4148C42.2213 45.4148 39.2704 48.1388 42.4483 52.4517C40.4053 51.3167 38.8164 49.2737 38.5894 46.7768L42.2213 45.4148Z" fill="#F1F1F1"/>
<path d="M44.0374 53.8143L42.2214 52.9063C39.9514 51.7713 38.3624 49.5013 37.9084 46.7774V46.3234L41.9944 44.7344L42.4484 45.6424C42.4484 45.8694 39.9514 48.1393 42.9024 51.9983L44.0374 53.8143ZM39.0434 47.0043C39.2704 48.1393 39.7244 49.2743 40.6324 50.1823C40.1784 48.8203 40.1784 47.4583 40.6324 46.3234L39.0434 47.0043Z" fill="#F1F1F1"/>
<path d="M35.4115 48.1394C34.9575 50.1824 36.3195 51.9984 38.1355 52.4523C38.1355 52.4523 33.3685 52.6793 31.7795 50.1824C32.6875 49.2744 34.0495 48.5934 35.4115 48.1394Z" fill="#F1F1F1"/>
<path d="M37.9083 52.9057C36.7733 52.9057 32.6873 52.6787 31.0983 50.4088L30.8713 49.9548L31.3253 49.7278C32.4603 48.8198 33.8223 48.1388 35.1843 47.6848H35.8653V48.3658C35.6383 49.9548 36.7733 51.5438 38.3622 51.9978L37.9083 52.9057ZM32.4603 50.1818C33.3683 51.0898 34.7303 51.5438 35.8653 51.7707C35.1843 51.0898 34.7303 49.9548 34.7303 49.0468C34.0493 49.2738 33.1413 49.7278 32.4603 50.1818Z" fill="#F1F1F1"/>
<path d="M28.8287 51.9976C28.8287 51.9976 29.7367 53.8135 30.8717 53.8135C30.8717 53.8135 29.5097 55.4025 27.2397 53.5865L28.8287 51.9976Z" fill="#F1F1F1"/>
<path d="M29.2825 54.9488C28.3746 54.9488 27.4666 54.4948 27.0126 54.0408L26.5586 53.5868L29.0556 51.0898L29.5095 51.7708C29.7365 52.2248 30.4175 53.1328 31.0985 53.1328H32.2335L31.5525 54.0408C30.8715 54.4948 30.1905 54.7218 29.2825 54.9488ZM28.1476 53.3598C28.6016 53.5868 29.0555 53.8138 29.7365 53.8138C29.2825 53.5868 29.0556 53.1328 28.8286 52.9058L28.1476 53.3598Z" fill="#F1F1F1"/>
<path d="M83.0806 58.1275C84.2156 57.9005 85.3505 57.2195 86.2585 56.3115C86.2585 56.3115 84.8965 59.0355 83.7616 59.0355L83.0806 58.1275Z" fill="#F1F1F1"/>
<path d="M83.5345 59.7162L81.9456 57.9002L82.8535 57.6732C83.9885 57.4462 84.8965 56.9922 85.5775 56.0842L86.4855 56.7652C86.0315 57.4462 84.8965 59.7162 83.7615 59.9432L83.5345 59.7162Z" fill="#F1F1F1"/>
<path d="M87.1665 60.8512C87.1665 60.8512 90.1175 61.0782 91.0254 59.4893C91.0254 59.4893 89.8905 61.7592 89.2095 61.7592L87.1665 60.8512Z" fill="#F1F1F1"/>
<path d="M89.2094 62.4402H88.9824L86.9395 61.3052L87.1664 60.3972H87.6204C88.3014 60.3972 89.8904 60.3972 90.3444 59.4893L91.2524 59.9433C91.0254 60.8512 90.1174 62.4402 89.2094 62.4402Z" fill="#F1F1F1"/>
<path d="M92.6143 63.121C93.9762 63.121 95.1112 62.44 95.7922 61.532C95.7922 61.532 96.0192 63.575 94.6572 63.575L92.6143 63.121Z" fill="#F1F1F1"/>
<path d="M94.6577 64.2556L92.3877 63.8016V62.6666C93.5227 62.6666 94.4307 62.2126 95.1117 61.3047L95.7926 60.1697L96.2466 61.5317C96.4736 62.2126 96.2466 63.1206 95.7926 63.8016C95.5657 64.0286 95.1117 64.2556 94.6577 64.2556Z" fill="#F1F1F1"/>
<path d="M101.013 64.4827C101.921 64.0287 102.375 63.3477 102.602 62.4397C102.602 62.4397 100.559 64.2557 99.4243 64.2557L101.013 64.4827Z" fill="#F1F1F1"/>
<path d="M101.24 64.9363L99.4243 64.7093V63.8013C100.559 63.5744 101.467 62.8934 102.148 61.9854L103.056 61.0774V62.4394C103.056 63.5744 102.148 64.4823 101.24 64.9363Z" fill="#F1F1F1"/>
<path d="M59.4728 54.9496C59.4728 54.9496 58.5648 57.9006 60.1538 59.0356C60.1538 59.0356 56.2948 56.7656 55.8408 55.1766C56.9758 54.7226 58.1108 54.4956 59.4728 54.9496Z" fill="#F1F1F1"/>
<path d="M59.9268 59.4894C59.2459 59.0354 55.8409 56.9925 55.3869 55.4035L55.1599 54.9495L55.6139 54.7225C56.5219 54.2685 57.2029 54.2685 58.1109 54.0415C58.5649 54.0415 59.0189 54.0415 59.4729 54.2685L59.9268 54.4955L59.6999 54.9495C59.6999 54.9495 59.0189 57.6735 60.1538 58.3544L59.9268 59.4894ZM56.7489 55.4035C57.4299 56.0845 58.1109 56.7655 58.7919 57.2195C58.7919 56.5385 58.7919 55.8575 58.7919 55.1765C58.1109 55.1765 57.2029 55.1765 56.7489 55.4035Z" fill="#F1F1F1"/>
<path d="M47.6693 40.1943C47.6693 40.1943 45.1724 41.7833 44.9454 43.3722V43.8262C45.1724 45.6422 43.1294 42.0103 43.1294 40.4213C44.7184 40.6483 46.3074 40.6483 47.6693 39.9673" fill="#F1F1F1"/>
<path d="M44.7182 44.9615L44.2642 44.7346C43.1292 43.3726 42.4482 41.7836 42.4482 40.1946V39.5136L43.1292 39.7406C44.4912 39.9676 46.0802 39.7406 47.4422 39.2866L47.8962 40.1946L48.1232 40.4216C47.4422 40.8756 45.8532 42.0106 45.6262 43.1456V43.5996C45.6262 43.8266 45.6262 44.2806 45.3992 44.5076L44.7182 44.9615ZM43.5832 40.8756C43.8102 41.5566 44.0372 42.2376 44.2642 42.9186C44.4912 42.2376 44.9452 41.3296 45.6262 40.8756C44.9452 40.8756 44.2642 40.8756 43.5832 40.8756Z" fill="#F1F1F1"/>
<path d="M40.8591 40.1943C40.8591 40.1943 38.1352 42.4643 39.9511 44.0533L38.3622 43.8263C38.3622 43.8263 35.6382 41.3293 37.6812 40.4213C37.6812 40.4213 39.0432 40.4213 40.8591 40.1943Z" fill="#F1F1F1"/>
<path d="M39.7244 44.5066L38.1355 44.0526H37.9085C37.6815 43.8256 36.0925 42.2367 36.3195 41.1017C36.5465 40.6477 36.7735 40.1937 37.4545 39.9667H37.6815C37.6815 39.9667 39.0435 39.9667 40.6324 39.7397L42.2214 39.5127L40.8594 40.6477C40.4054 41.1017 39.4975 42.0097 39.4975 42.9176C39.4975 43.1446 39.7244 43.3716 39.9514 43.5986L39.7244 44.5066ZM38.5895 43.3716C38.8165 43.3716 38.8165 43.1446 38.8165 42.9176C38.8165 42.2367 39.0435 41.5557 39.4975 40.8747H37.9085C37.6815 41.1017 37.6815 41.1017 37.6815 41.1017C37.6815 41.7827 38.1355 42.6906 38.5895 43.3716Z" fill="#F1F1F1"/>
<path d="M35.4113 39.5138C34.0493 39.5138 33.1414 40.4218 32.9144 41.5568C32.9144 41.7838 32.9144 42.0108 32.9144 42.2378C32.2334 42.0108 31.5524 41.5568 31.0984 40.8758C31.0984 40.8758 32.0064 37.6978 34.0493 38.1518C34.0493 38.3788 34.5033 39.5138 35.4113 39.5138Z" fill="#F1F1F1"/>
<path d="M33.5954 42.9182H32.9144C32.0065 42.6912 31.0985 42.2372 30.6445 41.3292L30.4175 41.1022V40.8752C30.4175 40.8752 31.3255 37.6973 33.5954 37.6973C33.8224 37.6973 34.0494 37.6973 34.0494 37.6973H34.2764V37.9243C34.2764 38.1513 34.7304 38.6053 34.9574 38.6053V39.7402C34.5034 39.7402 33.8224 39.9672 33.3684 40.4212C32.9145 40.8752 32.9144 41.5562 32.9144 42.0102L33.5954 42.9182ZM31.7795 41.1022C32.0065 41.3292 32.2335 41.5562 32.4605 41.5562C32.4605 40.8752 32.6874 40.4212 33.1414 39.9672C33.3684 39.7402 33.8224 39.5132 34.0494 39.2862L33.8224 38.8323C32.6874 39.0592 32.0065 40.4212 31.7795 41.1022Z" fill="#F1F1F1"/>
<path d="M30.4175 33.6112C30.4175 33.6112 32.9145 33.8382 33.3684 35.8812L34.2764 34.2922C34.2764 34.2922 33.3684 32.2492 32.0065 32.0222C32.0065 32.0222 30.4175 32.9302 30.4175 33.6112Z" fill="#F1F1F1"/>
<path d="M33.3683 37.2428L33.1413 35.8808C32.6873 34.2918 30.4174 34.0648 30.4174 34.0648H29.9634V33.6108C29.9634 32.7028 31.3253 31.7949 31.7793 31.5679H32.0063H32.2333C33.8223 32.0219 34.7303 34.0648 34.9573 34.2918H35.1843L33.3683 37.2428ZM31.3254 33.1568C32.2333 33.3838 32.9143 33.8378 33.5953 34.5188L33.8223 34.2918C33.3683 33.6108 32.9143 32.9298 32.2333 32.4758C31.7794 32.7028 31.5524 32.9298 31.3254 33.1568Z" fill="#F1F1F1"/>
<path d="M38.1356 32.7028C38.3626 31.7948 38.1356 31.1139 37.4546 30.4329L39.2706 30.6599C39.2706 30.6599 40.1786 32.0218 39.7246 32.9298L38.1356 32.7028Z" fill="#F1F1F1"/>
<path d="M39.9509 33.6114L37.227 33.1574L37.454 32.4764C37.681 31.7954 37.454 31.1144 37 30.6604L35.865 29.7524L39.4969 30.2064L39.7239 30.4334C40.4049 31.3414 40.4049 32.2494 40.1779 33.3844L39.9509 33.6114ZM38.5889 32.2494H39.2699C39.2699 31.7954 39.0429 31.3414 38.8159 30.8874H38.362C38.5889 31.3414 38.8159 31.7954 38.5889 32.2494Z" fill="#F1F1F1"/>
<path d="M44.0371 31.1145C44.7181 31.7955 45.1721 32.7035 45.1721 33.6115L47.6691 34.7464C47.6691 34.7464 48.3501 32.7035 47.4421 31.7955L44.0371 31.1145Z" fill="#F1F1F1"/>
<path d="M48.1232 35.6541L44.4912 34.0651V33.6111C44.4912 32.9301 44.2642 32.0221 43.5833 31.5681L44.0372 30.6602L47.4422 31.3411V31.5681C48.5772 32.7031 47.8962 34.7461 47.8962 35.2001L48.1232 35.6541ZM45.8532 33.3841L47.4422 34.0651C47.6692 33.3841 47.4422 32.9301 47.2152 32.2491L45.3992 32.0221C45.6262 32.4761 45.8532 32.9301 45.8532 33.3841Z" fill="#F1F1F1"/>
<path d="M51.9822 32.7029C51.9822 32.7029 53.1172 34.0649 52.4362 35.1998L54.4791 35.8808L54.2521 33.3839L51.9822 32.7029Z" fill="#F1F1F1"/>
<path d="M54.9332 36.7891L51.5283 35.6541L51.9823 34.9731C52.4363 34.2921 51.5283 33.1571 51.5283 33.1571L50.3933 31.7952L54.7062 32.9302L54.9332 36.7891ZM53.1173 34.9731L53.7983 35.2001V33.8381L53.1173 33.6111C53.3443 34.0651 53.3443 34.5191 53.1173 34.9731Z" fill="#F1F1F1"/>
<path d="M58.792 33.6118C58.792 33.6118 60.381 34.9738 59.246 35.8818L61.289 36.1088C61.289 36.1088 61.9699 35.4278 61.289 33.6118H58.792Z" fill="#F1F1F1"/>
<path d="M61.2888 36.7892L57.8838 36.5622L58.5648 35.6542C58.7918 35.4272 58.7918 35.4272 58.7918 35.2002C58.7918 34.7462 58.5648 34.5192 58.1108 34.0652L56.9758 33.1572H61.2888L61.5158 33.3842C62.1968 34.2922 62.1968 35.6542 61.5158 36.5622L61.2888 36.7892ZM60.1538 35.6542H60.8348C61.0618 35.2002 61.0618 34.7462 60.8348 34.2922H59.9268C60.1538 34.5192 60.1538 34.7462 60.1538 35.2002C60.1538 35.2002 60.1538 35.4272 60.1538 35.6542Z" fill="#F1F1F1"/>
<path d="M63.332 32.9308C64.467 33.6118 65.148 34.9738 65.148 36.3358L66.737 36.1088C66.737 34.7468 66.056 33.3848 64.921 32.4768L63.332 32.9308Z" fill="#F1F1F1"/>
<path d="M64.6937 37.0161V36.3352C64.6937 35.2002 64.2397 34.0652 63.1047 33.6112L61.9697 32.9302L65.1477 32.0222L65.3747 32.2492C66.7367 33.1572 67.6447 34.7462 67.4177 36.3352V36.7891L64.6937 37.0161ZM64.6937 33.3842C65.3747 34.0652 65.8287 34.9732 65.8287 35.8812H66.2827C66.2827 34.9732 65.6017 33.8382 64.9207 33.3842H64.6937Z" fill="#F1F1F1"/>
<path d="M67.418 32.2495C67.418 32.2495 67.872 34.0655 69.2339 34.0655C69.4609 34.2925 70.1419 33.1575 67.418 32.2495Z" fill="#F1F1F1"/>
<path d="M69.4608 34.7458H69.2338C67.4178 34.5188 66.9638 32.4758 66.9638 32.4758L66.7368 31.5679L67.6448 31.7949C69.0068 32.2489 69.9148 32.9298 69.9148 33.6108C70.1418 33.8378 69.9148 34.2918 69.4608 34.7458Z" fill="#F1F1F1"/>
<path d="M9.76054 168.674L9.30654 168.22C6.35558 164.134 4.7666 159.14 4.7666 153.92V71.0657H72.6387V123.048L72.4117 123.275L9.76054 168.674ZM5.90159 72.2007V154.147C5.90159 158.913 7.49057 163.453 9.98754 167.312L71.5037 122.594V72.2007H5.90159Z" fill="#F1F1F1"/>
<path d="M134.609 168.674L71.7307 123.048V71.0657H139.603V154.147C139.603 159.14 138.014 164.134 135.063 168.22L134.609 168.674ZM72.8657 122.594L134.382 167.312C136.879 163.453 138.468 158.913 138.468 154.147V72.2007H72.8657V122.594Z" fill="#F1F1F1"/>
<path d="M67.6445 173.668C67.6445 173.668 70.5955 177.073 75.3624 173.668H67.6445Z" fill="#D81A08"/>
<path d="M71.2768 175.712C69.6878 175.712 68.3258 175.031 67.4178 174.123L66.7368 173.215L77.4057 172.988L76.0437 173.896C74.4547 175.031 72.8657 175.712 71.2768 175.712ZM69.4608 174.123C70.1418 174.35 70.5958 174.577 71.2768 174.577C71.9577 174.577 72.6387 174.35 73.3197 174.123H69.4608Z" fill="#F1F1F1"/>
<path d="M20.4297 98.7595C20.4297 97.3975 21.5647 96.2625 22.9266 96.4895C24.2886 96.4895 25.4236 97.6245 25.1966 98.9865C25.1966 100.348 24.0616 101.256 22.6997 101.256C21.5647 101.256 20.4297 100.121 20.4297 98.7595Z" fill="#F1F1F1"/>
<path d="M34.2761 107.385C34.2761 105.569 35.8651 104.207 37.4541 104.434C39.0431 104.661 40.632 106.023 40.405 107.612C40.405 109.201 39.0431 110.563 37.2271 110.563C35.6381 110.563 34.2761 109.201 34.2761 107.385Z" fill="#F1F1F1"/>
<path d="M106.688 129.858L100.332 129.404L100.559 128.723C101.467 124.183 99.1972 123.048 98.9702 123.048C98.7432 123.048 98.5162 123.048 98.2892 122.821C96.2463 122.821 94.4303 125.772 93.9763 126.907L93.7493 127.361L88.5284 124.183L88.7554 123.729C89.8903 122.14 90.1174 120.097 89.4364 118.281C88.9824 117.6 88.0744 117.146 87.3934 117.373C86.0314 117.373 84.6694 117.827 83.5344 118.508L83.0804 118.735L79.9025 113.741L80.3565 113.514C83.7614 111.471 83.0804 108.975 82.8534 108.748C82.6264 107.613 81.7185 106.932 80.1295 106.932C79.4485 106.932 78.9945 106.932 78.3135 107.159L77.6325 107.386L77.4055 101.938L86.9394 99.6676L87.1664 100.122C91.7063 116.238 104.191 116.692 105.553 116.692H105.78C120.989 116.692 123.032 100.576 123.032 99.8946V99.2136L133.247 102.165L132.566 107.613H132.112C131.431 107.613 130.75 107.386 130.069 107.386C127.118 107.386 126.664 108.748 126.664 108.748C125.756 111.698 129.615 114.195 129.615 114.195L130.069 114.422L126.21 120.551L125.756 120.097C124.621 118.735 123.032 117.827 121.216 117.827C120.989 117.827 120.535 117.827 120.308 117.827C118.038 120.097 120.989 123.956 120.989 123.956L121.443 124.41L115.314 127.134L115.087 126.68C114.406 124.637 112.59 123.048 110.32 122.821C106.461 123.502 106.915 128.042 106.915 128.269L106.688 129.858ZM101.694 128.496L105.553 128.723C105.326 125.772 107.142 123.275 110.093 122.594C112.59 122.821 114.633 124.183 115.768 126.453L119.627 124.637C118.492 122.821 117.357 119.643 119.627 117.6L119.854 117.373C120.308 117.373 120.762 117.146 121.216 117.146C123.032 117.146 124.848 117.827 125.983 119.189L128.48 115.103C127.345 114.195 124.621 111.925 125.529 108.748C125.529 108.748 125.983 106.478 130.069 106.478C130.523 106.478 131.204 106.478 131.658 106.478L132.112 103.073L124.167 100.803C123.713 103.981 120.308 118.054 106.007 118.054H105.78C104.191 118.054 91.2523 117.6 86.4854 101.03L78.9945 102.846V106.251C79.4485 106.251 79.9025 106.251 80.3565 106.251C82.3995 106.251 83.7614 107.159 84.2154 108.748C84.6694 111.017 83.5344 113.287 81.4915 114.422L83.5344 117.6C84.8964 116.919 86.0314 116.692 87.6204 116.692C88.7554 116.692 90.1173 117.146 90.7983 118.281C91.7063 120.324 91.4793 122.367 90.3444 124.183L93.5223 126.226C94.2033 124.864 96.0193 122.14 98.5162 122.14C98.9702 122.14 99.1972 122.14 99.6512 122.367C99.6512 122.367 102.602 123.729 101.694 128.496Z" fill="#F1F1F1"/>
<path d="M106.688 129.858L100.332 129.404L100.559 128.723C101.467 124.183 99.1972 123.048 98.9702 123.048C98.7432 123.048 98.5162 123.048 98.2892 122.821C96.2463 122.821 94.4303 125.772 93.9763 126.907L93.7493 127.361L88.5284 124.183L88.7554 123.729C89.8903 122.14 90.1174 120.097 89.4364 118.281C88.9824 117.6 88.0744 117.146 87.3934 117.373C86.0314 117.373 84.6694 117.827 83.5344 118.508L83.0804 118.735L79.9025 113.741L80.3565 113.514C83.7614 111.471 83.0804 108.975 82.8534 108.748C82.6264 107.613 81.7185 106.932 80.1295 106.932C79.4485 106.932 78.9945 106.932 78.3135 107.159L77.6325 107.386L77.4055 101.938L86.9394 99.6676L87.1664 100.122C91.7063 116.238 104.191 116.692 105.553 116.692H105.78C120.989 116.692 123.032 100.576 123.032 99.8946V99.2136L133.247 102.165L132.566 107.613H132.112C131.431 107.613 130.75 107.386 130.069 107.386C127.118 107.386 126.664 108.748 126.664 108.748C125.756 111.698 129.615 114.195 129.615 114.195L130.069 114.422L126.21 120.551L125.756 120.097C124.621 118.735 123.032 117.827 121.216 117.827C120.989 117.827 120.535 117.827 120.308 117.827C118.038 120.097 120.989 123.956 120.989 123.956L121.443 124.41L115.314 127.134L115.087 126.68C114.406 124.637 112.59 123.048 110.32 122.821C106.461 123.502 106.915 128.042 106.915 128.269L106.688 129.858ZM101.694 128.496L105.553 128.723C105.326 125.772 107.142 123.275 110.093 122.594C112.59 122.821 114.633 124.183 115.768 126.453L119.627 124.637C118.492 122.821 117.357 119.643 119.627 117.6L119.854 117.373C120.308 117.373 120.762 117.146 121.216 117.146C123.032 117.146 124.848 117.827 125.983 119.189L128.48 115.103C127.345 114.195 124.621 111.925 125.529 108.748C125.529 108.748 125.983 106.478 130.069 106.478C130.523 106.478 131.204 106.478 131.658 106.478L132.112 103.073L124.167 100.803C123.713 103.981 120.308 118.054 106.007 118.054H105.78C104.191 118.054 91.2523 117.6 86.4854 101.03L78.9945 102.846V106.251C79.4485 106.251 79.9025 106.251 80.3565 106.251C82.3995 106.251 83.7614 107.159 84.2154 108.748C84.6694 111.017 83.5344 113.287 81.4915 114.422L83.5344 117.6C84.8964 116.919 86.0314 116.692 87.6204 116.692C88.7554 116.692 90.1173 117.146 90.7983 118.281C91.7063 120.324 91.4793 122.367 90.3444 124.183L93.5223 126.226C94.2033 124.864 96.0193 122.14 98.5162 122.14C98.9702 122.14 99.1972 122.14 99.6512 122.367C99.6512 122.367 102.602 123.729 101.694 128.496Z" fill="#F1F1F1"/>
<path d="M116.903 96.2625H94.2036V97.8514H116.903V96.2625Z" fill="#F1F1F1"/>
<path d="M117.584 98.3055H93.7493V95.5815H117.584V98.3055ZM94.8843 97.3975H116.449V96.9435H94.8843V97.3975Z" fill="#F1F1F1"/>
<path d="M107.823 88.0904H103.056V80.1455H107.823V88.0904ZM104.191 86.9554H106.688V81.2805H104.191V86.9554Z" fill="#F1F1F1"/>
<path d="M95.7926 109.655C95.5656 109.655 95.3386 109.655 95.3386 109.428L95.1116 109.201L95.5656 105.797L103.51 86.7288L105.553 90.1337L98.2895 106.478C97.3815 108.747 96.4736 109.655 95.7926 109.655ZM96.4736 106.25L96.2466 108.066C96.7006 107.385 96.9276 106.931 97.1545 106.25L104.191 90.3607L103.51 89.2257L96.4736 106.25Z" fill="#F1F1F1"/>
<path d="M94.6573 112.379L93.7493 112.152L95.1112 107.839H96.9272L94.6573 112.379Z" fill="#F1F1F1"/>
<path d="M115.541 109.655C114.633 109.655 113.952 108.747 113.044 106.704L106.007 90.3603L108.05 86.9553L115.995 106.25L116.449 109.428L116.222 109.655C115.768 109.428 115.541 109.655 115.541 109.655ZM107.142 90.1333L113.952 106.023C114.179 106.704 114.633 107.385 114.86 107.839L114.633 106.023L107.596 88.9983L107.142 90.1333Z" fill="#F1F1F1"/>
<path d="M116.449 112.379L114.179 107.839H115.995L117.584 112.152L116.449 112.379Z" fill="#F1F1F1"/>
<path d="M105.553 93.0845C103.51 92.6305 102.375 90.5875 102.829 88.5445C103.056 87.1825 104.191 86.0476 105.553 85.8206C107.596 86.2746 108.731 88.0905 108.277 90.1335C108.05 91.7225 107.142 92.8575 105.553 93.0845ZM105.553 86.9555C104.645 86.9555 103.737 88.0905 103.737 89.4525C103.737 90.8145 104.418 91.9495 105.553 91.9495C106.688 91.9495 107.369 90.8145 107.369 89.4525C107.369 88.0905 106.688 86.9555 105.553 86.9555Z" fill="#F1F1F1"/>
<path d="M105.553 93.0845C103.51 92.6305 102.375 90.5875 102.829 88.5445C103.056 87.1825 104.191 86.0476 105.553 85.8206C107.596 86.2746 108.731 88.0905 108.277 90.1335C108.05 91.7225 107.142 92.8575 105.553 93.0845ZM105.553 86.9555C104.645 86.9555 103.737 88.0905 103.737 89.4525C103.737 90.8145 104.418 91.9495 105.553 91.9495C106.688 91.9495 107.369 90.8145 107.369 89.4525C107.369 88.0905 106.688 86.9555 105.553 86.9555Z" fill="#F1F1F1"/>
<path d="M72.6388 200H71.7308H71.5038C67.8718 189.785 31.0983 184.337 30.6443 184.11C3.4047 173.895 4.76668 153.693 4.76668 153.466V39.0592C4.53968 33.8382 3.6317 28.6173 2.04272 23.6234V22.9424H142.327L142.1 23.6234C140.511 28.6173 139.603 33.8382 139.376 39.0592V153.466C139.376 153.693 140.738 173.668 113.498 183.883C113.044 184.11 76.4977 189.785 72.6388 200ZM3.6317 24.0774C4.99368 29.0713 5.90168 34.0652 6.12868 39.2862V153.693C6.12868 153.92 4.76669 173.214 31.3253 183.202C32.6873 183.429 66.5098 188.423 72.4118 198.638C78.3137 188.65 112.136 183.429 113.725 183.202C140.057 173.214 138.695 153.92 138.695 153.693V39.0592C138.922 33.8382 139.83 28.8443 141.192 23.8504L3.6317 24.0774Z" fill="#F1F1F1"/>
<path d="M42.2216 113.287C33.3687 120.097 24.2888 123.048 21.7919 119.643C19.2949 116.238 24.7428 108.066 33.5957 101.257C42.4486 94.4467 51.5285 91.4957 54.0254 94.9006C56.5224 98.3056 51.5285 105.57 43.5836 112.152L44.4915 113.287C53.1174 106.25 57.6574 97.8516 54.9334 93.9927C52.2095 90.1337 41.7676 92.4037 32.2337 99.4406C22.6999 106.477 17.2519 116.011 20.2029 120.097C23.1538 124.183 33.3687 121.686 42.9026 114.649C43.1296 114.422 43.1296 114.422 43.3566 114.195L42.4486 113.06L42.2216 113.287Z" fill="#F1F1F1"/>
<path d="M44.0374 117.827C43.8104 116.465 44.9454 115.33 46.3073 115.103C47.6693 114.876 48.8043 116.011 49.0313 117.373C49.0313 117.6 49.0313 117.6 49.0313 117.827C49.2583 119.189 48.1233 120.324 46.7613 120.551C45.3993 120.778 44.2644 119.643 44.0374 118.281C44.0374 118.281 44.0374 118.054 44.0374 117.827Z" fill="#F1F1F1"/>
<path d="M30.8713 107.613C27.9204 96.4897 28.8284 86.7289 32.4603 85.5939C36.0923 84.4589 41.7672 92.6308 44.7182 103.754C47.6691 114.876 46.7611 124.637 43.1292 125.772C39.4972 126.907 34.5033 119.643 31.3253 109.429L29.9634 109.883C33.1413 120.778 39.0432 128.269 43.5832 127.134C48.1231 125.999 49.9391 115.103 46.7611 103.073C43.8102 91.0418 37.4542 82.6429 32.6873 83.7779C27.9204 84.9129 26.3314 95.8087 29.2824 107.84C29.2824 108.067 29.5093 108.294 29.5093 108.521L30.8713 108.067C31.0983 108.067 31.0983 107.84 30.8713 107.613Z" fill="#F1F1F1"/>
<path d="M41.9942 100.575C52.6631 103.753 60.154 109.655 59.019 113.741C57.884 117.827 48.3502 118.281 37.9083 114.876C27.4665 111.471 19.7486 105.796 20.8835 101.71C22.0185 97.6243 30.4174 97.3973 40.4053 99.8943L40.8593 98.3053C30.1904 95.3543 21.1105 96.4893 19.7486 101.256C18.3866 106.023 26.3315 113.287 37.6813 116.919C49.0311 120.551 59.473 119.643 60.835 114.649C62.197 109.655 54.2521 102.845 42.9022 98.9863L42.2212 98.7593L41.7673 100.348L41.9942 100.575Z" fill="#F1F1F1"/>
<path d="M117.357 47.0044C117.811 49.0474 115.995 49.0474 114.406 49.0474C115.087 49.2744 118.492 49.2744 118.038 50.6363C117.584 51.9983 114.86 49.9554 113.725 50.6363C114.633 51.0903 116.449 50.6364 116.222 52.2253C118.265 51.9983 119.173 49.0474 118.492 47.4584" fill="#F1F1F1"/>
<path d="M111.909 66.9799C112.136 66.0719 111.001 64.9369 110.093 64.4829C110.32 65.1639 111.909 66.9799 110.547 67.2069C109.185 67.4339 108.958 65.1639 107.596 65.1639C108.504 66.9799 109.866 68.5689 111.909 66.9799Z" fill="#F1F1F1"/>
<path d="M71.9578 66.5255C71.5038 65.6175 70.8228 64.4825 69.9148 64.7095C70.3688 65.6175 71.5037 66.0715 71.7307 67.2065C70.8228 67.4335 69.6878 67.2065 69.0068 66.5255C68.0988 65.8445 68.0988 64.9365 66.7368 65.3905C67.1908 65.8445 67.1908 65.3905 67.6448 66.0715C68.0988 66.7525 68.0988 67.4335 68.7798 67.6605" fill="#F1F1F1"/>
<path d="M32.0065 64.4827C31.7795 63.8017 30.8715 62.4397 29.9635 62.4397C30.1905 63.1207 31.3255 63.3477 31.3255 64.2557C31.3255 64.7097 31.0985 64.9367 30.6445 64.9367C30.1905 65.1637 29.9635 65.1637 29.7365 64.4827C29.5095 63.8017 29.0555 62.8937 28.6015 62.6667C28.1475 62.4397 27.6935 62.2127 28.1475 62.8937C28.6015 63.5747 28.6015 63.3477 28.8285 63.5747C29.0555 63.8017 29.2825 64.9367 29.9635 65.1637C30.6445 65.3907 31.5525 64.9367 32.0065 64.7097" fill="#F1F1F1"/>
<path d="M88.7553 50.1824C89.8903 50.8634 90.7983 51.5444 91.7063 52.4523C92.3873 52.9063 92.3873 52.9063 92.8413 52.2254C93.0683 51.9984 93.0683 51.0904 93.0683 50.8634C93.2953 50.8634 94.2033 51.3174 94.6573 51.3174C95.5653 51.3174 95.5653 50.8634 95.7923 50.4094C96.0193 49.9554 96.4732 49.5014 96.2462 49.0474C95.7922 48.5934 95.5652 48.3664 95.1113 48.1394H94.8843C94.6573 48.5934 94.8843 49.5014 94.4303 49.7284C93.9763 49.5014 93.0683 48.5934 92.6143 48.3664C92.1603 49.0474 91.9333 49.9554 92.1603 50.6364C91.2523 50.1824 90.3443 49.7284 89.4363 49.5014C88.0744 49.5014 87.6204 49.9554 88.7553 50.1824Z" fill="#F1F1F1"/>
<path d="M94.6574 44.0531C93.2955 43.3721 91.9335 44.5071 90.5715 44.2801C90.7985 43.8261 92.3875 43.5991 91.4795 42.9181C90.5715 42.4641 89.4365 42.4641 88.3015 42.6911C88.5285 43.1451 89.2095 43.1451 89.6635 43.1451C89.6635 44.0531 87.3935 44.9611 89.8905 44.9611C90.7985 44.9611 91.4795 44.9611 92.3875 44.7341C92.8415 44.5071 93.9764 43.8261 94.4304 44.2801" fill="#F1F1F1"/>
<path d="M95.3382 34.2922C96.2462 34.2922 96.9272 34.7462 97.6082 35.2002C98.2892 35.6542 98.9702 35.6542 99.4242 35.8812C98.9702 36.3352 98.5162 36.5622 97.8352 36.3352C97.6082 36.3352 97.3812 35.8812 97.1542 35.8812C96.9272 35.8812 96.7002 36.3352 96.4732 36.3352C95.3382 36.5622 96.0192 35.8812 95.5652 35.2002C95.1112 34.5192 94.4303 34.7462 93.7493 34.7462C94.4303 34.2922 94.8842 34.2922 95.3382 34.2922Z" fill="#F1F1F1"/>
<path d="M103.51 37.2429C103.51 37.2429 102.375 38.6049 101.921 36.3349C101.921 36.1079 102.829 35.8809 103.51 37.2429Z" fill="#F1F1F1"/>
<path d="M89.2094 35.2001C88.9824 34.9731 88.9823 34.7461 88.7553 34.5191C88.0744 34.0651 87.6204 33.1571 87.6204 32.4761V31.7952H88.5284C89.6633 31.7952 90.5713 32.0222 91.4793 32.4761L91.0253 33.3841C90.3443 33.1571 89.4363 32.9302 88.7553 32.9302C88.9823 33.1571 89.2093 33.3841 89.4363 33.6111C89.6633 33.8381 89.8903 34.0651 90.1173 34.2921L89.2094 35.2001Z" fill="#170F0F"/>
<path d="M105.327 39.2866C105.1 39.9676 104.192 42.0106 103.284 42.0106C102.376 42.0106 101.695 40.6486 101.014 40.4216C102.376 40.4216 103.965 41.1026 105.327 39.9676" fill="#F1F1F1"/>
<path d="M92.1605 41.1019C92.3875 41.3289 92.8415 41.3289 93.0685 41.3289C93.5225 41.3289 93.2955 41.3289 93.2955 40.8749C93.2955 39.967 93.7495 40.421 94.2035 39.967C94.6575 39.513 94.2035 38.832 93.5225 38.832C92.8415 38.832 92.8415 38.605 92.6145 38.605C92.3875 38.832 92.3875 39.059 92.6145 39.059C92.6145 39.513 92.1605 39.286 91.9335 39.513C91.9335 39.967 92.6145 39.967 92.6145 40.194C92.3875 40.6479 91.7065 40.1939 91.7065 40.4209C91.7065 40.6479 91.9335 41.1019 92.1605 41.1019Z" fill="#F1F1F1"/>
<path d="M89.2097 34.2923C89.6637 34.7463 91.0257 36.1083 90.7987 36.7893C90.7987 37.4702 90.1177 37.4702 89.6637 38.1512C89.2097 38.8322 89.6637 39.2862 89.2097 39.7402C88.5288 38.8322 88.9827 37.2433 88.9827 36.3353C88.9827 35.6543 88.5287 35.4273 88.3018 34.9733C88.0748 34.5193 88.9827 33.8383 89.2097 34.2923Z" fill="#F1F1F1"/>
<path d="M103.284 34.2922C103.965 35.4272 104.873 36.3352 104.873 37.9242C104.873 38.6052 104.419 39.0592 104.192 39.7402C103.738 40.1942 103.057 40.1942 102.603 40.8751C104.419 41.5561 104.873 39.9672 105.1 38.3782C105.326 37.6972 105.326 36.7892 105.326 36.1082C105.099 34.9732 104.419 34.9732 103.738 34.5192" fill="#F1F1F1"/>
<path d="M71.9576 174.349C71.2766 174.349 70.5956 174.122 70.1417 173.668L69.6877 173.441C69.4607 173.214 69.0067 173.214 68.7797 172.987H68.5527C68.3257 172.987 68.0987 172.987 67.6447 172.987C67.1907 172.987 66.9637 173.214 66.5097 173.214C65.8287 173.441 64.9207 173.668 64.2397 173.441H63.7857V172.987C63.7857 172.533 63.7857 172.079 63.7857 171.625C63.7857 171.625 63.5587 171.625 63.3317 171.625C63.1047 171.625 62.6507 171.625 62.4238 171.398C62.1968 171.398 61.7428 171.398 61.5158 171.171C61.2888 170.944 60.3808 170.944 60.1538 170.717C59.9268 170.263 59.6998 169.582 59.9268 169.128C60.8348 166.631 62.4238 164.361 64.2397 162.545C64.9207 161.864 65.8287 161.41 66.7367 161.637C67.1907 161.637 67.8717 161.637 68.3257 161.864C69.2337 162.091 70.1417 162.091 71.0496 161.864L71.7306 161.41C74.0006 160.275 74.4546 160.275 76.9516 162.318V162.545C77.4056 163.453 78.3135 164.361 78.9945 165.269C80.5835 166.858 81.9455 168.447 81.9455 170.036C81.4915 171.398 80.5835 172.533 79.2215 173.441H78.9945C78.7675 173.441 78.3135 173.214 78.0865 173.214C77.8595 172.987 77.4055 172.987 77.1786 172.987C76.7246 173.214 76.4976 173.668 76.2706 173.895C76.2706 174.122 76.0436 174.122 75.8166 174.349L75.5896 174.576L75.1356 174.349C74.4546 174.122 74.0006 174.122 73.3196 174.576C72.8656 174.803 72.6386 174.803 72.1846 174.803L71.9576 174.349ZM68.5527 171.625C68.7797 171.625 69.2337 171.625 69.4607 171.852C69.6876 172.079 69.9147 172.079 70.1417 172.306C70.3686 172.533 70.5957 172.533 70.8226 172.76C71.2766 173.214 72.1846 173.441 72.8656 173.214C73.0926 173.214 73.5466 172.987 73.7736 172.987C74.4546 172.76 75.3626 172.533 76.0436 172.76V172.533C76.4976 172.079 76.9516 171.625 77.4055 171.171C78.0865 170.944 78.5405 171.171 79.2215 171.398C79.4485 171.398 79.4485 171.625 79.6755 171.625C80.5835 170.944 81.2645 170.263 81.7185 169.355C81.9455 168.22 80.3565 166.858 79.2215 165.496C78.3135 164.588 77.6325 163.68 76.9516 162.545C75.8166 161.637 75.1356 161.183 74.6816 161.183C74.0006 161.41 73.5466 161.637 72.8656 161.864L71.9576 162.318C70.8226 162.772 69.6877 162.772 68.5527 162.545C67.4177 162.091 66.2827 162.318 65.3747 162.999C63.7857 164.588 62.4237 166.631 61.5158 168.901C61.5158 169.128 61.5158 169.355 61.5158 169.809C61.7428 169.809 61.9698 170.036 62.1968 170.036C62.4238 170.036 62.8778 170.036 63.1047 170.263L64.0127 170.49C65.1477 170.717 65.3747 171.171 65.3747 172.533C65.8287 172.533 66.2827 172.306 66.5097 172.306C66.9637 172.079 67.4177 172.079 67.8717 172.079L68.5527 171.625Z" fill="#F1F1F1"/>
<path d="M82.3999 170.037L81.7189 169.129C81.2649 168.221 81.0379 167.086 81.0379 165.951C81.2649 164.816 80.8109 163.454 79.9029 162.546C77.8599 161.184 75.363 160.73 73.093 161.411V161.638H72.412H72.185H71.958C71.958 161.411 71.958 161.184 71.958 160.957V160.73C72.185 158.006 73.774 155.736 76.0439 154.147C78.5409 152.331 81.7189 152.104 84.4428 153.239C86.2588 154.147 89.4368 155.963 89.2098 158.914C89.2098 159.368 88.9828 159.595 88.5288 159.822L88.3018 160.049C88.3018 160.503 88.5288 160.73 88.5288 160.957C88.5288 161.184 88.7558 161.411 88.7558 161.865C88.7558 162.546 88.3018 163 87.6208 163.454C87.1668 163.681 86.7128 163.681 86.0318 163.681C86.0318 163.908 86.0318 164.362 86.2588 164.589C86.4858 165.497 86.7128 166.178 85.1238 166.859C84.6698 167.086 84.2158 167.313 83.5348 167.313C82.8539 167.54 82.6269 167.54 82.3999 168.902V170.037ZM75.136 160.049C77.1789 160.049 78.9949 160.503 80.5839 161.865C81.7189 163 82.1729 164.589 81.9459 165.951C81.9459 166.405 81.9459 166.859 81.9459 167.313C82.1729 166.859 82.8539 166.405 83.5348 166.405C83.9888 166.405 84.4428 166.178 84.6698 165.951C85.5778 165.497 85.3508 165.497 85.3508 164.816C85.1238 164.135 85.1238 163.227 85.3508 162.546L85.5778 162.092L86.0318 162.319C86.4858 162.546 86.7128 162.546 87.1668 162.319C87.3938 162.092 87.6208 161.865 87.6208 161.638L87.3938 161.184C87.1668 160.73 87.1668 160.276 87.1668 159.822C87.1668 159.368 87.3938 159.141 87.8478 158.914L88.0748 158.687C88.3018 156.644 85.3508 154.828 83.9888 154.147C81.4919 153.012 78.7679 153.466 76.7249 154.828C74.909 155.963 73.547 158.006 73.093 160.276C73.774 160.049 74.228 160.049 74.909 160.049" fill="#F1F1F1"/>
<path d="M59.2461 170.944C59.0191 170.944 59.0191 170.944 58.7921 170.944C58.3381 170.717 57.8841 170.263 57.8841 169.809C57.6571 169.355 57.6571 169.128 57.2031 168.901C56.7491 168.674 56.2951 168.901 56.0681 169.128C55.6141 169.355 55.1601 169.582 54.4791 169.355C54.0251 169.128 53.5712 168.674 53.1172 167.766C52.8902 167.312 52.8902 166.858 52.6632 166.404C52.4362 165.723 52.4362 165.496 51.3012 164.588C49.7122 163.68 48.8042 161.864 49.2582 160.048V159.821H49.4852C50.8472 159.367 50.8472 158.459 50.8472 157.097C50.6202 156.189 50.8472 155.054 51.3012 154.146C52.4362 152.33 55.3871 151.876 57.4301 151.649C57.8841 151.649 58.3381 151.649 58.5651 151.422C61.0621 150.969 63.559 151.649 65.602 153.238C68.326 155.281 69.9149 158.459 70.1419 161.864V162.318H69.6879C69.007 162.545 68.326 162.318 67.872 162.091L68.099 161.864L67.191 162.091C66.964 161.183 66.283 160.275 65.375 160.275C64.013 160.048 62.651 160.956 62.197 162.318C61.97 163.226 61.97 164.134 62.197 165.269C62.424 167.539 62.651 170.036 60.3811 170.944C59.9271 170.717 59.4731 170.944 59.2461 170.944ZM56.7491 167.539C56.9761 167.539 57.2031 167.539 57.4301 167.766C58.1111 167.993 58.5651 168.674 58.5651 169.355C58.5651 169.582 58.7921 169.809 58.7921 170.036C59.0191 170.036 59.2461 170.036 59.4731 169.809C60.8351 169.128 60.8351 167.539 60.6081 165.042C60.3811 163.907 60.3811 162.772 60.6081 161.864C61.2891 160.048 62.878 158.913 64.921 159.14C66.283 159.14 67.645 160.275 67.872 161.637L68.099 161.183C68.326 161.183 68.553 161.41 68.78 161.41C68.553 158.459 66.964 155.962 64.694 154.146C62.878 152.784 60.8351 152.103 58.5651 152.557H57.6571C55.8411 152.784 53.1172 153.011 52.4362 154.373C51.9822 155.054 51.9822 155.962 51.9822 156.643C52.4362 158.005 51.5282 159.594 50.1662 160.275C49.9392 161.864 50.6202 162.545 51.7552 163.453C53.1172 164.361 53.3442 164.815 53.5712 165.95C53.5712 166.177 53.7982 166.631 54.0252 167.312C54.2522 167.766 54.4791 168.447 54.7061 168.447C54.9331 168.447 55.1601 168.447 55.3871 168.22C55.8411 167.539 56.2951 167.539 56.7491 167.539Z" fill="#F1F1F1"/>
<path d="M71.0496 163.226C70.5956 163.226 70.3686 163.226 69.9146 162.999C69.0066 162.318 68.5527 161.41 68.5527 160.275C68.5527 159.821 68.5526 159.367 68.3256 159.14C66.7367 156.189 64.4667 153.465 61.7427 151.423C60.6078 150.515 58.7918 150.515 57.6568 151.423C56.7488 152.104 55.6138 152.331 54.4788 152.331H54.0249V151.877C53.7979 150.515 53.3439 148.926 55.1598 147.791C55.8408 147.337 56.7488 147.337 57.4298 147.337C58.1108 147.337 58.7918 147.337 59.0188 147.11C59.2458 146.883 59.2458 146.429 59.2458 145.975C59.0188 145.521 59.2458 145.067 59.4728 144.84C59.9268 144.613 60.3808 144.386 60.8348 144.613C61.5157 144.84 62.1967 145.067 62.6507 145.521C62.8777 145.748 63.1047 145.975 63.5587 146.202C63.7857 145.521 64.2397 144.84 64.9207 144.613C66.9637 143.932 70.1416 146.429 70.8226 147.11C71.7306 147.791 72.4116 148.472 73.3196 148.926C74.9086 149.607 76.0435 150.742 77.1785 152.103L76.2705 152.784C75.3625 151.65 74.2276 150.742 72.8656 150.061C71.9576 149.607 70.8226 148.926 70.1416 148.018C69.0066 147.11 66.5097 145.294 65.3747 145.748C65.1477 145.748 64.6937 145.975 64.6937 146.883V147.337H64.2397C63.3317 147.337 62.6507 146.883 62.1967 146.429C61.9697 145.975 61.5157 145.748 61.0618 145.748H60.6078V145.975C60.8348 146.656 60.6078 147.564 60.1538 148.018C59.4728 148.472 58.5648 148.699 57.6568 148.699C57.2028 148.699 56.5218 148.699 56.0678 148.926C55.1598 149.38 55.1598 150.061 55.3868 151.423C56.2948 151.196 56.9758 150.969 57.6568 150.515C59.2458 149.38 61.2887 149.38 62.6507 150.515C65.6017 152.784 68.0987 155.508 69.6876 158.913C69.9146 159.367 69.9146 159.821 69.9146 160.275C69.9146 161.183 70.1416 161.864 70.5956 162.091C70.8226 162.318 71.2766 162.318 71.7306 162.091C72.1846 161.864 72.6386 161.41 72.8656 160.729C73.0926 160.048 73.0926 159.594 73.0926 158.913C73.0926 158.005 73.3196 157.097 73.5466 156.416V156.189C74.0006 154.827 74.9086 153.692 75.8166 152.784L76.4975 153.692C75.5896 154.6 74.9086 155.508 74.6816 156.643V156.87C74.4546 157.551 74.2276 158.232 74.2276 158.913C74.2276 159.594 74.0006 160.275 73.7736 160.956C73.5466 161.864 72.8656 162.545 71.9576 162.999C71.7306 163.226 71.2766 163.226 71.0496 163.226Z" fill="#F1F1F1"/>
<path d="M73.3201 160.957L72.4121 160.048C71.5041 158.914 71.0501 157.552 71.2771 155.963C71.2771 154.601 71.7311 153.466 72.4121 152.331L72.6391 151.877C74.455 148.472 76.952 143.478 81.9459 145.521C82.6269 145.748 83.0809 146.202 83.5349 146.883C83.7619 147.11 83.9889 147.337 84.2159 147.564C84.6699 148.018 85.1239 148.245 85.8049 148.472C86.0319 148.472 86.4859 148.699 86.7129 148.926C89.2098 150.061 88.9829 151.423 88.9829 153.693V155.055L88.0749 154.601C84.4429 152.558 79.903 152.558 76.271 154.374C74.455 155.282 73.3201 157.325 73.5471 159.368L73.3201 160.957ZM73.0931 153.239C72.4121 154.147 72.1851 155.055 72.1851 155.963C72.1851 156.417 72.1851 156.871 72.1851 157.325C72.6391 155.736 73.7741 154.374 75.363 153.466C79.222 151.65 83.5349 151.423 87.6209 153.239C87.6209 151.196 87.6209 150.515 86.0319 149.834C85.8049 149.607 85.5779 149.607 85.1239 149.38C84.4429 149.153 83.7619 148.926 83.3079 148.245C83.0809 148.018 82.6269 147.564 82.3999 147.337C82.1729 146.883 81.7189 146.656 81.265 146.429C77.406 144.84 75.363 148.245 73.3201 152.331L73.0931 153.239Z" fill="#F1F1F1"/>
<path d="M70.8227 159.367C70.8227 159.367 73.3197 147.791 71.7307 143.705C71.9577 140.981 71.5037 138.257 70.3687 135.76H68.5527L69.4607 134.398L68.0987 133.263L67.1908 132.355H65.1478L64.6938 133.717L64.4668 135.76L64.9208 137.349L65.8288 138.03V138.938L67.4178 140.754L68.3257 143.024L69.0067 143.251L69.9147 144.386C69.9147 144.386 71.0497 154.146 69.0067 158.686C69.2337 158.686 69.0067 160.956 70.8227 159.367Z" fill="#F1F1F1"/>
<path d="M74.2277 175.258C74.2277 176.62 73.7737 176.847 75.1356 176.62C75.3626 176.847 75.5896 177.301 75.5896 177.528C75.1356 177.982 74.6817 178.436 74.4547 178.89C74.2277 179.57 74.2276 180.478 74.0007 181.159C73.7737 181.84 73.7737 182.521 73.5467 183.202C73.3197 183.883 72.8657 184.564 72.4117 185.472C71.9577 186.38 73.3197 189.331 71.0497 189.104C69.6877 188.877 68.3257 185.699 68.3257 184.337C68.7797 184.337 69.0067 184.337 69.4607 184.564C68.3257 183.202 67.6448 181.613 67.4178 180.024C67.1908 179.116 66.5098 178.209 66.9638 177.301C67.1907 176.847 69.0067 176.847 67.8717 175.712C68.3257 174.804 69.4607 174.577 70.5957 174.804C71.5037 175.258 72.6387 175.258 73.7737 174.804" fill="#F1F1F1"/>
</g>
<defs>
<clipPath id="clip0_6128_4053">
<rect width="144.37" height="200" fill="white"/>
</clipPath>
</defs>
</svg>
