<svg width="200" height="194" viewBox="0 0 200 194" fill="none" xmlns="http://www.w3.org/2000/svg">
<path d="M175.06 5.6126C181.192 5.5976 187.325 5.6201 193.46 5.6001C193.62 10.0651 193.485 14.5351 193.53 19.0026C193.527 39.1976 193.532 59.3926 193.527 79.5876C187.325 79.5726 181.122 79.6501 174.92 79.6351C174.915 65.6701 174.955 51.7051 174.965 37.7376C174.925 32.3176 175.097 26.9026 175.04 21.4826C175.03 16.1926 175.062 10.9026 175.06 5.6126Z" fill="white"/>
<path d="M132.85 79.6376C132.855 54.9751 132.83 30.3126 132.862 5.65014C138.71 5.66764 144.555 5.68764 150.402 5.64014C150.527 6.50264 150.56 7.37514 150.535 8.24514C150.51 32.0451 150.557 55.8451 150.512 79.6451C144.625 79.6176 138.737 79.6351 132.85 79.6376Z" fill="white"/>
<path d="M153.637 5.65015C159.785 5.68265 165.932 5.65515 172.08 5.66515C172.105 30.2276 172.09 54.7901 172.087 79.3551C165.94 79.3526 159.792 79.3451 153.645 79.3601C153.622 54.7901 153.64 30.2201 153.637 5.65015Z" fill="white"/>
<path d="M5.52996 5.97501C11.4825 5.97501 17.44 5.90501 23.39 6.01001C23.39 30.65 23.4125 55.2925 23.38 79.9325C17.43 79.945 11.48 79.9175 5.52996 79.9475C5.42496 67.13 5.58746 54.3075 5.49746 41.485C5.57496 29.65 5.44496 17.81 5.52996 5.97501Z" fill="white"/>
<path d="M26.8075 5.98008C32.8075 5.94258 38.8075 5.95758 44.8075 5.97258C44.805 30.6301 44.8225 55.2876 44.7975 79.9451C38.8 79.9301 32.8025 79.9201 26.8075 79.9501C26.795 55.2926 26.795 30.6376 26.8075 5.98008Z" fill="white"/>
<path d="M47.9 5.9676C53.96 5.9526 60.02 5.9601 66.0775 5.9651C66.11 30.6126 66.0525 55.2601 66.105 79.9076C60.0275 79.9576 53.945 79.9401 47.865 79.9176C47.9375 55.2676 47.87 30.6176 47.9 5.9676Z" fill="white"/>
<path d="M69.1724 5.97264C75.1774 5.96264 81.1824 5.93514 87.1849 5.98514C87.1949 30.6426 87.1949 55.3001 87.1849 79.9576C81.1849 79.9151 75.1849 79.9276 69.1824 79.9501C69.1499 55.2926 69.1724 30.6326 69.1724 5.97264Z" fill="white"/>
<path d="M90.45 5.96999C96.34 5.95499 102.228 5.95499 108.115 5.96999C108.165 30.6175 108.098 55.27 108.15 79.9175C102.253 79.96 96.3575 79.9125 90.46 79.9425C90.4175 55.285 90.435 30.6275 90.45 5.96999Z" fill="white"/>
<path d="M111.285 5.97751C117.42 5.96001 123.555 5.93001 129.692 5.99001C129.685 30.5425 129.717 55.095 129.675 79.6475C124.532 79.61 119.39 79.6425 114.25 79.63C113.252 79.6125 112.25 79.7125 111.26 79.5625C111.322 69.295 111.192 59.025 111.287 48.7575C111.15 45.4275 111.342 42.095 111.265 38.7625C111.297 27.8325 111.25 16.905 111.285 5.97751Z" fill="white"/>
<path d="M56.1674 84.1202L56.1974 84.0977C56.1849 84.1127 56.1599 84.1427 56.1499 84.1577L56.1674 84.1202Z" fill="white"/>
<path d="M20.0349 91.4927L20.2624 91.5202L20.3874 91.7602L20.2774 91.9602C20.2149 91.8427 20.0949 91.6102 20.0349 91.4927Z" fill="white"/>
<path d="M5.595 153.55C67.48 153.503 129.365 153.547 191.248 153.527C191.99 153.525 192.738 153.503 193.48 153.583C193.588 165.025 193.513 176.48 193.518 187.928C143.265 187.913 93.0125 187.925 42.7575 187.92C30.37 187.932 17.9825 187.898 5.5925 187.938C5.5725 176.475 5.565 165.013 5.595 153.55ZM16.97 160.958C14.545 162.89 13.2975 165.935 12.9075 168.947C12.495 172.68 13.0175 176.785 15.52 179.745C18.48 183.427 23.9975 184.208 28.22 182.473C31.03 181.32 32.895 178.535 33.4775 175.622C31.905 175.185 30.3925 174.552 28.7925 174.22C28.3975 175.97 27.5525 177.765 25.915 178.66C23.5625 179.81 20.35 179.052 18.9675 176.765C17.9 174.962 17.7825 172.798 17.78 170.755C17.7975 168.825 18.0275 166.777 19.1275 165.135C20.7325 162.632 24.5375 162.192 26.865 163.905C27.8575 164.607 28.32 165.77 28.71 166.875C30.2875 166.502 31.855 166.1 33.4425 165.773C33.11 164.435 32.5625 163.135 31.7125 162.04C30.405 160.467 28.5275 159.407 26.525 159.015C23.2675 158.342 19.62 158.835 16.97 160.958ZM44.2725 159.143C44.2625 167.078 44.2475 175.01 44.28 182.943C50.3125 182.898 56.3475 182.972 62.38 182.902C62.345 181.57 62.355 180.235 62.37 178.902C57.9425 178.885 53.5125 178.9 49.085 178.895C49.07 176.755 49.0975 174.615 49.0825 172.475C53.0675 172.443 57.055 172.482 61.0425 172.455C61.0725 171.11 61.05 169.765 61.06 168.42C57.0725 168.432 53.0825 168.412 49.095 168.435C49.085 166.672 49.0475 164.908 49.1175 163.148C53.39 163.235 57.665 163.165 61.94 163.185C61.9275 161.842 61.925 160.503 61.9475 159.163C56.0575 159.133 50.165 159.168 44.2725 159.143ZM72.9125 159.155C72.925 167.082 72.8975 175.013 72.925 182.94C74.4125 182.918 75.9 182.935 77.39 182.937C77.4325 176.877 77.31 170.813 77.455 164.755C77.805 165.513 77.995 166.325 78.16 167.14C79.49 172.4 80.815 177.66 82.105 182.928C83.67 182.93 85.235 182.947 86.8 182.902C87.96 178.057 89.185 173.227 90.36 168.385C90.7175 167.062 90.9425 165.705 91.415 164.417C91.4325 170.572 91.4675 176.728 91.4125 182.883C92.92 182.968 94.4275 182.928 95.9375 182.925C95.93 175.01 95.89 167.097 95.9575 159.182C93.5275 159.11 91.095 159.162 88.6625 159.157C87.255 164.557 85.88 169.967 84.42 175.355C82.9625 169.955 81.62 164.525 80.095 159.145C77.7025 159.16 75.3075 159.142 72.9125 159.155ZM107.345 182.913C113.375 182.958 119.408 182.908 125.438 182.94C125.45 181.58 125.485 180.217 125.393 178.86C120.98 178.925 116.565 178.9 112.15 178.872C112.173 176.737 112.175 174.602 112.153 172.467C116.135 172.46 120.118 172.462 124.103 172.467C124.148 171.12 124.13 169.77 124.12 168.422C120.14 168.437 116.163 168.4 112.183 168.445C112.143 166.693 112.175 164.937 112.163 163.185C116.43 163.182 120.7 163.2 124.968 163.178C125.03 161.838 125.033 160.495 125.02 159.155C119.138 159.14 113.253 159.168 107.368 159.143C107.315 167.065 107.36 174.99 107.345 182.913ZM136.208 159.152C136.22 167.077 136.218 175.005 136.208 182.93C137.703 182.932 139.2 182.935 140.698 182.922C140.728 177.777 140.67 172.63 140.725 167.485C141.475 168.525 142.113 169.64 142.8 170.725C145.25 174.795 147.77 178.825 150.21 182.902C151.845 182.947 153.483 182.95 155.12 182.9C155.068 174.985 155.133 167.067 155.088 159.152C153.605 159.147 152.123 159.155 150.643 159.152C150.548 164.405 150.67 169.66 150.578 174.913C149.873 173.935 149.3 172.873 148.67 171.85C146.125 167.61 143.498 163.42 140.963 159.172C139.378 159.13 137.793 159.157 136.208 159.152ZM165.025 159.148C165.053 160.485 165.038 161.825 165.035 163.163C167.368 163.213 169.705 163.175 172.04 163.187C172.078 169.767 172.058 176.348 172.05 182.928C173.665 182.93 175.28 182.937 176.895 182.915C176.878 176.33 176.868 169.745 176.898 163.163C179.243 163.205 181.59 163.187 183.938 163.182C183.91 161.842 183.9 160.503 183.94 159.163C177.635 159.133 171.33 159.163 165.025 159.148Z" fill="white"/>
<path d="M165.137 82.7951C170.507 82.7926 175.877 82.7851 181.247 82.7826C185.262 82.6151 189.285 82.6976 193.3 82.7076C193.357 82.7651 193.472 82.8826 193.53 82.9426C193.565 87.5976 193.405 92.2576 193.577 96.9126C192.717 97.0301 191.85 96.9751 190.987 96.9551C182.36 96.9426 173.73 96.9801 165.1 96.9376C165.147 92.2226 165.155 87.5101 165.137 82.7951Z" fill="white"/>
<path d="M39.5325 83.1151C45.2675 83.0076 51.0075 83.1026 56.7425 83.0676C56.685 83.3151 56.6275 83.5626 56.5725 83.8126C56.4775 83.8826 56.2925 84.0276 56.1975 84.0976L56.1675 84.1201L56.15 84.1576C55.86 84.7501 55.4975 85.3026 55.13 85.8476C52.92 89.2576 50.685 92.6476 48.4825 96.0626C48.2275 96.4151 48.06 96.9576 47.5375 96.9526C47.02 95.7701 46.2925 94.7001 45.675 93.5726C43.6125 90.0951 41.5775 86.6026 39.5325 83.1151Z" fill="white"/>
<path d="M130.693 83.1001C133.835 83.0426 136.983 83.0751 140.128 83.0751C140.178 87.7026 140.183 92.3301 140.103 96.9576C136.953 96.9326 133.803 96.9901 130.655 96.9376C130.673 92.3251 130.685 87.7126 130.693 83.1001Z" fill="white"/>
<path d="M5.43994 83.3776C8.69494 83.3401 11.9524 83.3151 15.2074 83.3901C16.7599 86.1226 18.5024 88.7501 20.0349 91.4926C20.0949 91.6101 20.2149 91.8426 20.2774 91.9601C21.5099 93.5701 22.4224 95.4276 23.5324 97.1326C17.5449 97.1551 11.5574 97.0326 5.57244 97.1101C5.32994 92.5351 5.64244 87.9551 5.43994 83.3776Z" fill="white"/>
<path d="M72.9375 97.1251C75.5225 92.4001 78.275 87.7701 80.8625 83.0476C80.925 87.7301 80.9175 92.4151 80.875 97.0976C78.23 97.0451 75.585 97.1551 72.9375 97.1251Z" fill="white"/>
<path d="M70.6201 100.835C70.7726 100.595 70.9126 100.328 71.1751 100.188C78.4201 100.185 85.6726 100.258 92.9176 100.153C93.0651 101.008 93.0751 101.878 93.0526 102.745C93.0501 106.705 93.0476 110.668 93.0526 114.63C82.9551 114.658 72.8551 114.65 62.7576 114.635C65.3251 110.005 68.0301 105.453 70.6201 100.835Z" fill="white"/>
<path d="M118.328 114.645C118.31 109.817 118.295 104.992 118.34 100.167C125.605 100.235 132.87 100.197 140.138 100.19C140.175 105.007 140.162 109.827 140.135 114.645C132.865 114.645 125.598 114.647 118.328 114.645Z" fill="white"/>
<path d="M165.148 100.718C164.988 100.023 165.848 100.215 166.248 100.195C175.303 100.18 184.36 100.258 193.415 100.155C193.645 104.968 193.438 109.795 193.553 114.618C184.085 114.675 174.618 114.643 165.15 114.633C165.143 109.995 165.148 105.355 165.148 100.718Z" fill="white"/>
<path d="M5.53247 100.573C12.295 100.58 19.0575 100.54 25.82 100.593C28.2275 105.16 30.9225 109.575 33.28 114.165C24.055 114.228 14.825 114.155 5.59997 114.203C5.54747 109.66 5.57997 105.115 5.53247 100.573Z" fill="white"/>
<path d="M118.33 117.808C125.595 117.81 132.86 117.805 140.125 117.81C140.187 122.585 140.152 127.363 140.15 132.14C132.875 132.173 125.602 132.143 118.327 132.155C118.305 127.373 118.305 122.59 118.33 117.808Z" fill="white"/>
<path d="M165.143 117.815C167.18 117.785 169.22 117.85 171.258 117.715C178.648 117.685 186.038 117.738 193.428 117.655C193.718 119.763 193.35 121.888 193.51 124.003C193.423 126.64 193.63 129.28 193.448 131.915C184.015 131.863 174.58 131.905 165.148 131.895C165.145 127.203 165.15 122.51 165.143 117.815Z" fill="white"/>
<path d="M5.47241 118.07C15.5924 118.057 25.7124 118.073 35.8324 118.062C35.8324 122.753 35.8149 127.443 35.8374 132.133C25.7374 132.15 15.6349 132.128 5.53491 132.11C5.44241 127.428 5.55741 122.75 5.47241 118.07Z" fill="white"/>
<path d="M60.935 118.058C71.6375 118.07 82.34 118.068 93.045 118.06C93.0675 122.748 93.03 127.433 93.06 132.12C86.785 132.195 80.51 132.133 74.235 132.153C69.8 132.133 65.3625 132.195 60.9275 132.118C60.94 127.433 60.925 122.745 60.935 118.058Z" fill="white"/>
<path d="M60.93 135.313C71.6475 135.303 82.365 135.27 93.0825 135.33C92.825 139.173 93.0325 143.03 92.94 146.878C101.353 146.918 109.768 146.885 118.183 146.895C118.148 143.03 118.325 139.173 118.318 135.308C125.588 135.29 132.858 135.305 140.13 135.3C140.185 139.178 140.163 143.058 140.13 146.935C154.548 146.93 168.965 146.948 183.383 146.88C183.378 143.023 183.423 139.168 183.418 135.31C186.76 135.303 190.103 135.273 193.445 135.313C193.61 137.79 193.5 140.275 193.523 142.755C193.395 144.87 193.673 146.998 193.433 149.108C181.79 149.02 170.148 149.093 158.503 149.07C107.555 149.073 56.6075 149.06 5.66001 149.075C5.40001 148.685 5.50251 148.195 5.47751 147.76C5.45501 143.713 5.58001 139.67 5.44751 135.625C15.5825 135.538 25.7175 135.61 35.8525 135.593C35.795 139.378 35.84 143.16 35.835 146.945C44.2 146.93 52.565 146.928 60.9275 146.898C60.9325 143.035 60.9325 139.175 60.93 135.313Z" fill="white"/>
</svg>
