<svg width="96" height="31" viewBox="0 0 96 31" fill="none" xmlns="http://www.w3.org/2000/svg">
<path d="M87.2013 0.00183105C70.5421 0.00580983 66.3167 9.41165 65.6363 15.7976C64.8644 22.9673 69.826 30.0018 82.0567 30.0018C87.2053 30.0018 90.5713 29.1066 91.7649 28.7286C91.9132 28.6821 92.0461 28.596 92.1491 28.4796C92.2521 28.3632 92.3215 28.221 92.3498 28.0681L93.0382 24.4475C93.0619 24.323 93.053 24.1946 93.0122 24.0747C92.9715 23.9548 92.9003 23.8475 92.8057 23.7633C92.7111 23.6791 92.5963 23.6209 92.4724 23.5944C92.3486 23.5678 92.22 23.5739 92.0992 23.6119C90.7623 24.0337 88.3989 24.6146 85.3949 24.6146C79.5501 24.6146 75.3286 21.1053 75.8657 15.0655C76.383 9.21668 80.326 4.76045 85.753 4.76045C89.0156 4.76045 90.4599 6.47133 90.3525 8.75117V8.88247C90.3477 8.98091 90.3628 9.07932 90.3969 9.17178C90.431 9.26425 90.4835 9.34887 90.5511 9.42058C90.6187 9.49229 90.7001 9.5496 90.7904 9.58909C90.8807 9.62857 90.9781 9.64942 91.0766 9.65037H93.2928C93.635 9.65037 93.9294 9.41165 94.009 9.08141L95.5607 2.07876C95.61 1.86539 95.5756 1.64124 95.4645 1.45249C95.3535 1.26374 95.1743 1.12475 94.9639 1.06417C92.4382 0.358411 89.8277 0.00231045 87.2053 0.00581144L87.2013 0.00183105ZM7.00103 0.46337C6.82047 0.46346 6.64532 0.524951 6.50432 0.637745C6.36333 0.750538 6.26489 0.907927 6.22517 1.08406L5.79546 3.00979C5.7539 3.19925 5.78369 3.39738 5.87913 3.56623C5.97457 3.73509 6.12895 3.8628 6.3127 3.92491L6.444 3.9647C7.27159 4.29096 8.23445 5.02305 7.82862 6.94082L4.67742 21.344C3.85382 25.2711 2.52092 26.0788 1.25567 26.222H1.21589C1.04803 26.2385 0.889741 26.3078 0.763876 26.4201C0.638012 26.5324 0.551077 26.6818 0.51562 26.8467L0.109785 28.6928C0.0854445 28.8042 0.0863301 28.9195 0.112376 29.0305C0.138423 29.1415 0.18897 29.2452 0.260312 29.3341C0.331655 29.423 0.421984 29.4948 0.524681 29.5442C0.627377 29.5937 0.739836 29.6195 0.853816 29.6199H14.7278C15.066 29.6199 15.3604 29.3811 15.4321 29.0549L15.9095 26.8944C15.9462 26.7249 15.9216 26.5479 15.84 26.3949C15.7584 26.2419 15.6251 26.1228 15.4639 26.0589L15.3764 26.0191C14.6721 25.7406 13.7132 25.1278 13.9599 23.9899L15.5713 16.6292C21.0978 26.7154 22.9241 29.6238 29.5527 29.6199H35.5448C35.709 29.6201 35.8684 29.5642 35.9964 29.4614C36.1245 29.3587 36.2137 29.2152 36.249 29.0549L36.6668 27.1849C36.6922 27.0727 36.6923 26.9562 36.6672 26.844C36.642 26.7317 36.5922 26.6265 36.5214 26.5358C36.4506 26.4452 36.3605 26.3714 36.2576 26.3199C36.1548 26.2684 36.0418 26.2404 35.9268 26.2379C34.4307 26.214 33.6986 25.8679 32.2066 23.9501L24.5196 13.5496L34.5063 5.24188C35.8472 4.19149 37.4825 3.89706 38.3896 3.77769L38.4772 3.76974C38.6319 3.75496 38.778 3.69156 38.8945 3.58864C39.011 3.48571 39.0919 3.34854 39.1257 3.19679L39.5355 1.35064C39.5587 1.24375 39.5576 1.13302 39.5324 1.0266C39.5072 0.920171 39.4584 0.820751 39.3897 0.735642C39.321 0.650533 39.2341 0.581899 39.1354 0.534782C39.0367 0.487665 38.9287 0.463263 38.8193 0.46337H26.8034C26.6246 0.464337 26.4513 0.525819 26.3119 0.637801C26.1725 0.749784 26.075 0.905673 26.0355 1.08008L25.6297 2.91032C25.5861 3.10672 25.6184 3.31234 25.7203 3.48582C25.8222 3.6593 25.986 3.78775 26.1787 3.84533C26.887 4.11987 27.0421 4.80024 26.4294 5.30157L16.192 13.8082L17.9427 5.79494C18.0616 5.33403 18.2995 4.91245 18.6326 4.5724C18.9657 4.23234 19.3822 3.98574 19.8405 3.85727L19.94 3.82544C20.0731 3.78388 20.1929 3.70791 20.2872 3.60521C20.3815 3.5025 20.4471 3.37671 20.4772 3.24056L20.8989 1.34268C20.9221 1.23738 20.9214 1.1282 20.8968 1.02321C20.8722 0.918221 20.8244 0.820093 20.7568 0.736074C20.6892 0.652056 20.6036 0.58429 20.5063 0.53778C20.409 0.491269 20.3025 0.467201 20.1947 0.467351L7.00103 0.46337ZM42.3326 0.46337C42.1527 0.46436 41.9785 0.526265 41.8383 0.638985C41.6981 0.751705 41.6003 0.90859 41.5607 1.08406L41.135 3.00581C41.0942 3.18639 41.1211 3.37566 41.2105 3.53773C41.3 3.69981 41.4458 3.82342 41.6204 3.88512L41.7 3.91695C42.5116 4.22332 43.6376 5.00714 43.1482 6.93287L38.3339 28.7366C38.31 28.8427 38.3103 28.9528 38.3348 29.0588C38.3593 29.1648 38.4074 29.2639 38.4754 29.3487C38.5434 29.4336 38.6297 29.502 38.7278 29.549C38.8259 29.5959 38.9334 29.6201 39.0421 29.6199H50.0912C50.4334 29.6199 50.7278 29.3811 50.8034 29.0509L51.2809 26.8745C51.3151 26.7195 51.2951 26.5575 51.2241 26.4155C51.1531 26.2735 51.0355 26.1603 50.8909 26.0947C50.855 26.0778 50.8192 26.0605 50.7835 26.0429C50.0833 25.7008 49.0408 24.909 49.3909 23.3772C49.4268 23.1782 50.4652 18.4435 50.4652 18.4435H59.8631C60.2053 18.4435 60.4997 18.2047 60.5793 17.8745L61.4586 13.8957C61.4832 13.7885 61.4833 13.6771 61.4587 13.5698C61.4341 13.4625 61.3855 13.3623 61.3166 13.2765C61.2476 13.1907 61.1602 13.1217 61.0607 13.0746C60.9613 13.0274 60.8524 13.0035 60.7424 13.0045H51.6708L53.3697 5.28565L59.7039 5.27372C61.753 5.27372 62.3777 6.34799 62.2583 8.17027L62.2504 8.26576C62.2386 8.36834 62.2486 8.47226 62.2798 8.57068C62.3111 8.66911 62.3628 8.75982 62.4315 8.83685C62.5003 8.91388 62.5846 8.97549 62.6788 9.01764C62.7731 9.05979 62.8752 9.08152 62.9785 9.08141H65.314C65.6562 9.08141 65.9506 8.84268 66.0222 8.50846L67.6138 1.34666C67.6363 1.24005 67.6347 1.12976 67.6091 1.02383C67.5836 0.917911 67.5347 0.819029 67.4661 0.734393C67.3975 0.649758 67.3108 0.581506 67.2125 0.534619C67.1141 0.487732 67.0065 0.46339 66.8976 0.46337H42.3326Z" fill="white"/>
</svg>
