<?xml version="1.0" standalone="no"?>
<!DOCTYPE svg PUBLIC "-//W3C//DTD SVG 1.1//EN" "http://www.w3.org/Graphics/SVG/1.1/DTD/svg11.dtd" >
<svg xmlns="http://www.w3.org/2000/svg" xmlns:xlink="http://www.w3.org/1999/xlink" version="1.1">
<metadata>
Created by FontForge 20190801 at Tue Apr 16 12:56:29 2019
 By Jimmy Wärting
Copyright (c) 2016 by Fontfabric LLC. All rights reserved.
</metadata>
<defs>
<font id="Akrobat-ExtraBold" horiz-adv-x="0" >
  <font-face 
    font-family="Akrobat ExtraBold"
    font-weight="800"
    font-stretch="normal"
    units-per-em="1000"
    panose-1="0 0 9 0 0 0 0 0 0 0"
    ascent="800"
    descent="-200"
    x-height="529"
    cap-height="700"
    bbox="-532 -273 815 986"
    underline-thickness="50"
    underline-position="-100"
    unicode-range="U+0020-25CA"
  />
<missing-glyph horiz-adv-x="500" 
d="M410 -200h-317v1000h317v-1000zM168 733v-33h65v-37h-66v-33h166v33h-66v37h66v33h-165zM167 604v-104h166v34h-66v70h-100zM233 534h-33v36h33v-36zM167 473v-33h66v-37h-66v-33h100v70h66v33h-166zM300 413v-66h-133v-34h166v100h-33zM233 291v-56h34v23h33v-47h-100
v80h-33v-113h166v113h-100zM167 118v-113h166v113h-166zM300 38h-100v47h100v-47zM167 -18v-33h70l-70 -47v-33h166v33h-102l70 47h32v33h-166z" />
    <glyph glyph-name=".notdef" horiz-adv-x="500" 
d="M410 -200h-317v1000h317v-1000zM168 733v-33h65v-37h-66v-33h166v33h-66v37h66v33h-165zM167 604v-104h166v34h-66v70h-100zM233 534h-33v36h33v-36zM167 473v-33h66v-37h-66v-33h100v70h66v33h-166zM300 413v-66h-133v-34h166v100h-33zM233 291v-56h34v23h33v-47h-100
v80h-33v-113h166v113h-100zM167 118v-113h166v113h-166zM300 38h-100v47h100v-47zM167 -18v-33h70l-70 -47v-33h166v33h-102l70 47h32v33h-166z" />
    <glyph glyph-name="space" unicode=" " horiz-adv-x="207" 
 />
    <glyph glyph-name="A" unicode="A" horiz-adv-x="485" 
d="M325 127h-164l-28 -127h-128l172 700h132l172 -700h-128zM300 244l-28 130q-8 40 -28 172h-3q-14 -109 -27 -172l-28 -130h114z" />
    <glyph glyph-name="Aacute" unicode="&#xc1;" horiz-adv-x="485" 
d="M325 127h-164l-28 -127h-128l172 700h132l172 -700h-128zM300 244l-28 130q-8 40 -28 172h-3q-14 -109 -27 -172l-28 -130h114zM272 899h103l-111 -132h-86z" />
    <glyph glyph-name="Abreve" unicode="&#x102;" horiz-adv-x="485" 
d="M325 127h-164l-28 -127h-128l172 700h132l172 -700h-128zM300 244l-28 130q-8 40 -28 172h-3q-14 -109 -27 -172l-28 -130h114zM157 801.5q-35 32.5 -37 89.5h79q1 -22 13.5 -34.5t32.5 -12.5q19 0 32 12.5t14 34.5h78q-2 -58 -36 -90t-87 -32q-54 0 -89 32.5z" />
    <glyph glyph-name="Acircumflex" unicode="&#xc2;" horiz-adv-x="485" 
d="M325 127h-164l-28 -127h-128l172 700h132l172 -700h-128zM300 244l-28 130q-8 40 -28 172h-3q-14 -109 -27 -172l-28 -130h114zM288 767l-46 68l-47 -68h-82l81 131h94l81 -131h-81z" />
    <glyph glyph-name="Adieresis" unicode="&#xc4;" horiz-adv-x="485" 
d="M325 127h-164l-28 -127h-128l172 700h132l172 -700h-128zM300 244l-28 130q-8 40 -28 172h-3q-14 -109 -27 -172l-28 -130h114zM124 793.5q-15 15.5 -15 40.5q0 26 15 41t41 15q25 0 40 -15.5t15 -40.5t-15 -40.5t-40 -15.5q-26 0 -41 15.5zM278 793.5q-15 15.5 -15 40.5
q0 26 15 41t41 15q25 0 40.5 -15t15.5 -41q0 -25 -15.5 -40.5t-40.5 -15.5q-26 0 -41 15.5z" />
    <glyph glyph-name="Agrave" unicode="&#xc0;" horiz-adv-x="485" 
d="M325 127h-164l-28 -127h-128l172 700h132l172 -700h-128zM300 244l-28 130q-8 40 -28 172h-3q-14 -109 -27 -172l-28 -130h114zM224 767l-111 132h103l93 -132h-85z" />
    <glyph glyph-name="Amacron" unicode="&#x100;" horiz-adv-x="485" 
d="M325 127h-164l-28 -127h-128l172 700h132l172 -700h-128zM300 244l-28 130q-8 40 -28 172h-3q-14 -109 -27 -172l-28 -130h114zM140 870h211v-79h-211v79z" />
    <glyph glyph-name="Aogonek" unicode="&#x104;" horiz-adv-x="486" 
d="M437 -103q20 0 29 3v-82q-16 -7 -33 -9.5t-40 -2.5q-46 0 -71 23.5t-25 61.5q0 60 56 109l-28 127h-164l-28 -127h-128l172 700h132l172 -700h-27q-23 -16 -36 -38t-13 -38q0 -27 32 -27zM300 244l-28 130q-8 40 -28 172h-3q-14 -109 -27 -172l-28 -130h114z" />
    <glyph glyph-name="Aring" unicode="&#xc5;" horiz-adv-x="485" 
d="M325 127h-164l-28 -127h-128l172 700h132l172 -700h-128zM300 244l-28 130q-8 40 -28 172h-3q-14 -109 -27 -172l-28 -130h114zM182.5 786.5q-23.5 23.5 -23.5 61.5q0 37 23.5 60t62.5 23t63 -23t24 -60q0 -38 -24 -61.5t-63 -23.5t-62.5 23.5zM269 823q9 9 9 24t-9 24
t-24 9q-14 0 -23 -9t-9 -24t9 -24t23 -9q15 0 24 9z" />
    <glyph glyph-name="Atilde" unicode="&#xc3;" horiz-adv-x="485" 
d="M325 127h-164l-28 -127h-128l172 700h132l172 -700h-128zM300 244l-28 130q-8 40 -28 172h-3q-14 -109 -27 -172l-28 -130h114zM268.5 788.5q-10.5 4.5 -24.5 12.5q-15 12 -28 12q-9 0 -16.5 -7t-8.5 -19h-72q3 48 26.5 73.5t59.5 25.5q16 0 27 -4.5t24 -13.5
q17 -11 27 -11t17 7.5t9 18.5h71q-3 -46 -26 -72.5t-60 -26.5q-15 0 -25.5 4.5z" />
    <glyph glyph-name="AE" unicode="&#xc6;" horiz-adv-x="705" 
d="M668 116v-116h-340v132h-149l-48 -132h-131l268 700h390v-116h-207v-173h188v-112h-188v-183h217zM328 248v316h-4q-26 -106 -54 -183l-49 -133h107z" />
    <glyph glyph-name="B" unicode="B" horiz-adv-x="513" 
d="M457.5 297q23.5 -41 23.5 -92q0 -62 -25.5 -108.5t-72 -71.5t-106.5 -25h-211v700h205q83 0 134 -53.5t51 -141.5q0 -45 -17 -84t-47 -62q42 -21 65.5 -62zM189 584v-172h67q37 0 56 22.5t19 65.5q0 84 -79 84h-63zM355 205q0 45 -25.5 68.5t-72.5 23.5h-68v-181h69
q97 0 97 89z" />
    <glyph glyph-name="C" unicode="C" horiz-adv-x="498" 
d="M101.5 45.5q-55.5 57.5 -55.5 164.5v280q0 108 55.5 166t154.5 58q100 0 155.5 -57.5t60.5 -164.5h-123q-3 54 -26 78.5t-68 24.5q-39 0 -60.5 -26t-21.5 -79v-280q0 -52 21.5 -77.5t61.5 -25.5q46 0 69 24.5t27 76.5h123q-4 -106 -60.5 -163t-158.5 -57
q-99 0 -154.5 57.5z" />
    <glyph glyph-name="Cacute" unicode="&#x106;" horiz-adv-x="498" 
d="M101.5 45.5q-55.5 57.5 -55.5 164.5v280q0 108 55.5 166t154.5 58q100 0 155.5 -57.5t60.5 -164.5h-123q-3 54 -26 78.5t-68 24.5q-39 0 -60.5 -26t-21.5 -79v-280q0 -52 21.5 -77.5t61.5 -25.5q46 0 69 24.5t27 76.5h123q-4 -106 -60.5 -163t-158.5 -57
q-99 0 -154.5 57.5zM281 899h103l-111 -132h-86z" />
    <glyph glyph-name="Ccaron" unicode="&#x10c;" horiz-adv-x="498" 
d="M101.5 45.5q-55.5 57.5 -55.5 164.5v280q0 108 55.5 166t154.5 58q100 0 155.5 -57.5t60.5 -164.5h-123q-3 54 -26 78.5t-68 24.5q-39 0 -60.5 -26t-21.5 -79v-280q0 -52 21.5 -77.5t61.5 -25.5q46 0 69 24.5t27 76.5h123q-4 -106 -60.5 -163t-158.5 -57
q-99 0 -154.5 57.5zM379 899l-81 -132h-93l-81 132h81l47 -69l46 69h81z" />
    <glyph glyph-name="Ccedilla" unicode="&#xc7;" horiz-adv-x="498" 
d="M424 55.5q-47 -55.5 -133 -65.5l-11 -38q3 1 11 1q32 0 52.5 -19t20.5 -50q0 -40 -29 -63.5t-77 -23.5q-41 0 -71 23t-34 60h65q13 -24 41 -24q17 0 26.5 8.5t9.5 21.5q0 27 -35 27q-19 0 -32 -6l-20 19l18 63q-85 9 -132.5 66t-47.5 155v280q0 108 55.5 166t154.5 58
q100 0 155.5 -57.5t60.5 -164.5h-123q-3 54 -26 78.5t-68 24.5q-39 0 -60.5 -26t-21.5 -79v-280q0 -52 21.5 -77.5t61.5 -25.5q46 0 69 24.5t27 76.5h123q-4 -97 -51 -152.5z" />
    <glyph glyph-name="Cdotaccent" unicode="&#x10a;" horiz-adv-x="498" 
d="M101.5 45.5q-55.5 57.5 -55.5 164.5v280q0 108 55.5 166t154.5 58q100 0 155.5 -57.5t60.5 -164.5h-123q-3 54 -26 78.5t-68 24.5q-39 0 -60.5 -26t-21.5 -79v-280q0 -52 21.5 -77.5t61.5 -25.5q46 0 69 24.5t27 76.5h123q-4 -106 -60.5 -163t-158.5 -57
q-99 0 -154.5 57.5zM202 789.5q-19 19.5 -19 48.5q0 30 19 49.5t49 19.5q29 0 49 -19.5t20 -49.5q0 -28 -20 -48t-49 -20q-30 0 -49 19.5z" />
    <glyph glyph-name="D" unicode="D" horiz-adv-x="515" 
d="M66 700h183q104 0 162 -59.5t58 -166.5v-245q0 -108 -57.5 -168.5t-160.5 -60.5h-185v700zM251 117q46 0 70 29t24 84v244q0 54 -24 81.5t-70 27.5h-62v-466h62z" />
    <glyph glyph-name="Eth" unicode="&#xd0;" horiz-adv-x="525" 
d="M418 644.5q61 -55.5 61 -154.5v-276q0 -101 -61 -157.5t-165 -56.5h-180v319h-66v77h66v304h178q106 0 167 -55.5zM353 489q0 50 -24 72t-70 22h-63v-187h77v-77h-77v-202h63q47 0 70.5 22.5t23.5 75.5v274z" />
    <glyph glyph-name="Dcaron" unicode="&#x10e;" horiz-adv-x="515" 
d="M66 700h183q104 0 162 -59.5t58 -166.5v-245q0 -108 -57.5 -168.5t-160.5 -60.5h-185v700zM251 117q46 0 70 29t24 84v244q0 54 -24 81.5t-70 27.5h-62v-466h62zM376 899l-81 -132h-93l-81 132h81l47 -69l46 69h81z" />
    <glyph glyph-name="Dcroat" unicode="&#x110;" horiz-adv-x="525" 
d="M418 644.5q61 -55.5 61 -154.5v-276q0 -101 -61 -157.5t-165 -56.5h-180v319h-66v77h66v304h178q106 0 167 -55.5zM353 489q0 50 -24 72t-70 22h-63v-187h77v-77h-77v-202h63q47 0 70.5 22.5t23.5 75.5v274z" />
    <glyph glyph-name="E" unicode="E" horiz-adv-x="465" 
d="M428 116v-116h-362v700h352v-116h-229v-173h210v-112h-210v-183h239z" />
    <glyph glyph-name="Eacute" unicode="&#xc9;" horiz-adv-x="465" 
d="M428 116v-116h-362v700h352v-116h-229v-173h210v-112h-210v-183h239zM268 899h103l-111 -132h-86z" />
    <glyph glyph-name="Ecaron" unicode="&#x11a;" horiz-adv-x="465" 
d="M428 116v-116h-362v700h352v-116h-229v-173h210v-112h-210v-183h239zM375 899l-81 -132h-93l-81 132h81l47 -69l46 69h81z" />
    <glyph glyph-name="Ecircumflex" unicode="&#xca;" horiz-adv-x="465" 
d="M428 116v-116h-362v700h352v-116h-229v-173h210v-112h-210v-183h239zM292 767l-46 68l-47 -68h-82l81 131h94l81 -131h-81z" />
    <glyph glyph-name="Edieresis" unicode="&#xcb;" horiz-adv-x="465" 
d="M428 116v-116h-362v700h352v-116h-229v-173h210v-112h-210v-183h239zM129 793.5q-15 15.5 -15 40.5q0 26 15 41t41 15q25 0 40 -15.5t15 -40.5t-15 -40.5t-40 -15.5q-26 0 -41 15.5zM283 793.5q-15 15.5 -15 40.5q0 26 15 41t41 15q25 0 40.5 -15t15.5 -41
q0 -25 -15.5 -40.5t-40.5 -15.5q-26 0 -41 15.5z" />
    <glyph glyph-name="Edotaccent" unicode="&#x116;" horiz-adv-x="465" 
d="M428 116v-116h-362v700h352v-116h-229v-173h210v-112h-210v-183h239zM197 789.5q-19 19.5 -19 48.5q0 30 19 49.5t49 19.5q29 0 49 -19.5t20 -49.5q0 -28 -20 -48t-49 -20q-30 0 -49 19.5z" />
    <glyph glyph-name="Egrave" unicode="&#xc8;" horiz-adv-x="465" 
d="M428 116v-116h-362v700h352v-116h-229v-173h210v-112h-210v-183h239zM228 767l-111 132h103l93 -132h-85z" />
    <glyph glyph-name="Emacron" unicode="&#x112;" horiz-adv-x="465" 
d="M428 116v-116h-362v700h352v-116h-229v-173h210v-112h-210v-183h239zM144 870h211v-79h-211v79z" />
    <glyph glyph-name="Eogonek" unicode="&#x118;" horiz-adv-x="467" 
d="M431 -182q-16 -7 -33 -9.5t-40 -2.5q-46 0 -71.5 23.5t-25.5 61.5q0 59 68 109h-263v700h352v-116h-229v-173h210v-112h-210v-183h239v-116q-26 -16 -42 -37.5t-16 -37.5q0 -28 32 -28q20 0 28 3z" />
    <glyph glyph-name="F" unicode="F" horiz-adv-x="428" 
d="M189 584v-175h196v-113h-196v-296h-123v700h338v-116h-215z" />
    <glyph glyph-name="G" unicode="G" horiz-adv-x="512" 
d="M102.5 46q-56.5 58 -56.5 165v278q0 108 56.5 165.5t157.5 57.5q97 0 151 -56.5t58 -163.5h-123q-2 53 -23 77t-63 24q-87 0 -87 -104v-278q0 -104 89 -104q91 0 91 102v68h-97v109h217v-177q-2 -106 -58 -163.5t-155 -57.5q-101 0 -157.5 58z" />
    <glyph glyph-name="Gbreve" unicode="&#x11e;" horiz-adv-x="512" 
d="M102.5 46q-56.5 58 -56.5 165v278q0 108 56.5 165.5t157.5 57.5q97 0 151 -56.5t58 -163.5h-123q-2 53 -23 77t-63 24q-87 0 -87 -104v-278q0 -104 89 -104q91 0 91 102v68h-97v109h217v-177q-2 -106 -58 -163.5t-155 -57.5q-101 0 -157.5 58zM170 801.5
q-35 32.5 -37 89.5h79q1 -22 13.5 -34.5t32.5 -12.5q19 0 32 12.5t14 34.5h78q-2 -58 -36 -90t-87 -32q-54 0 -89 32.5z" />
    <glyph glyph-name="uni0122" unicode="&#x122;" horiz-adv-x="512" 
d="M102.5 46q-56.5 58 -56.5 165v278q0 108 56.5 165.5t157.5 57.5q97 0 151 -56.5t58 -163.5h-123q-2 53 -23 77t-63 24q-87 0 -87 -104v-278q0 -104 89 -104q91 0 91 102v68h-97v109h217v-177q-2 -106 -58 -163.5t-155 -57.5q-101 0 -157.5 58zM210 -71h103l-48 -202h-71z
" />
    <glyph glyph-name="Gdotaccent" unicode="&#x120;" horiz-adv-x="512" 
d="M102.5 46q-56.5 58 -56.5 165v278q0 108 56.5 165.5t157.5 57.5q97 0 151 -56.5t58 -163.5h-123q-2 53 -23 77t-63 24q-87 0 -87 -104v-278q0 -104 89 -104q91 0 91 102v68h-97v109h217v-177q-2 -106 -58 -163.5t-155 -57.5q-101 0 -157.5 58zM207 789.5
q-19 19.5 -19 48.5q0 30 19 49.5t49 19.5q29 0 49 -19.5t20 -49.5q0 -28 -20 -48t-49 -20q-30 0 -49 19.5z" />
    <glyph glyph-name="H" unicode="H" horiz-adv-x="548" 
d="M482 700v-700h-124v295h-169v-295h-123v700h123v-288h169v288h124z" />
    <glyph glyph-name="Hbar" unicode="&#x126;" horiz-adv-x="579" 
d="M564 522h-66v-522h-124v295h-169v-295h-123v522h-67v61h67v117h123v-117h169v117h124v-117h66v-61zM374 522h-169v-110h169v110z" />
    <glyph glyph-name="I" unicode="I" horiz-adv-x="254" 
d="M66 700h123v-700h-123v700z" />
    <glyph glyph-name="Iacute" unicode="&#xcd;" horiz-adv-x="254" 
d="M66 700h123v-700h-123v700zM158 899h103l-111 -132h-86z" />
    <glyph glyph-name="Icircumflex" unicode="&#xce;" horiz-adv-x="254" 
d="M66 700h123v-700h-123v700zM174 767l-46 68l-47 -68h-82l81 131h94l81 -131h-81z" />
    <glyph glyph-name="Idieresis" unicode="&#xcf;" horiz-adv-x="259" 
d="M16.5 793.5q-15.5 15.5 -15.5 40.5q0 26 15.5 41t40.5 15q26 0 41 -15t15 -41q0 -25 -15 -40.5t-41 -15.5q-25 0 -40.5 15.5zM163.5 793.5q-15.5 15.5 -15.5 40.5q0 26 15.5 41t40.5 15q26 0 41 -15t15 -41q0 -25 -15 -40.5t-41 -15.5q-25 0 -40.5 15.5zM68 700h123v-700
h-123v700z" />
    <glyph glyph-name="Idotaccent" unicode="&#x130;" horiz-adv-x="254" 
d="M66 700h123v-700h-123v700zM79 789.5q-19 19.5 -19 48.5q0 30 19 49.5t49 19.5q29 0 49 -19.5t20 -49.5q0 -28 -20 -48t-49 -20q-30 0 -49 19.5z" />
    <glyph glyph-name="Igrave" unicode="&#xcc;" horiz-adv-x="254" 
d="M66 700h123v-700h-123v700zM110 767l-111 132h103l93 -132h-85z" />
    <glyph glyph-name="Imacron" unicode="&#x12a;" horiz-adv-x="254" 
d="M66 700h123v-700h-123v700zM26 870h211v-79h-211v79z" />
    <glyph glyph-name="Iogonek" unicode="&#x12e;" horiz-adv-x="255" 
d="M205 -100v-81q-34 -13 -76 -13q-51 0 -76.5 24t-25.5 66q0 28 15 56t41 48h-17v700h123v-700h-18q-17 -16 -27.5 -37t-10.5 -36q0 -30 42 -30q16 0 30 3z" />
    <glyph glyph-name="J" unicode="J" horiz-adv-x="304" 
d="M0 -23q60 0 89 29.5t29 102.5v591h123v-591q0 -117 -61.5 -181t-179.5 -64v113z" />
    <glyph glyph-name="K" unicode="K" horiz-adv-x="517" 
d="M230 285l-43 -67v-218h-121v700h121v-287l41 82l117 205h142l-188 -305l218 -395h-140z" />
    <glyph glyph-name="uni0136" unicode="&#x136;" horiz-adv-x="517" 
d="M230 285l-43 -67v-218h-121v700h121v-287l41 82l117 205h142l-188 -305l218 -395h-140zM217 -71h103l-48 -202h-71z" />
    <glyph glyph-name="L" unicode="L" horiz-adv-x="414" 
d="M408 117v-117h-342v700h123v-583h219z" />
    <glyph glyph-name="Lacute" unicode="&#x139;" horiz-adv-x="414" 
d="M408 117v-117h-342v700h123v-583h219zM168 899h103l-111 -132h-86z" />
    <glyph glyph-name="Lcaron" unicode="&#x13d;" horiz-adv-x="413" 
d="M189 116h204v-116h-327v700h123v-584zM349 509h-70l9 191h105z" />
    <glyph glyph-name="uni013B" unicode="&#x13b;" horiz-adv-x="414" 
d="M408 117v-117h-342v700h123v-583h219zM188 -71h103l-48 -202h-71z" />
    <glyph glyph-name="Lslash" unicode="&#x141;" horiz-adv-x="439" 
d="M433 116v-116h-339v289l-74 -28v104l74 28v307h123v-261l119 45v-103l-119 -45v-220h216z" />
    <glyph glyph-name="M" unicode="M" horiz-adv-x="708" 
d="M643 700v-700h-121v219q6 157 10 241l-5 2l-65 -184l-47 -124h-122l-47 124l-65 184l-5 -2q4 -84 10 -241v-219h-120v700h124l114 -274q33 -81 48 -130h4q12 39 49 130l113 274h125z" />
    <glyph glyph-name="N" unicode="N" horiz-adv-x="563" 
d="M66 700h122l146 -329l56 -143l3 3q-7 58 -12 132.5t-5 123.5v213h121v-700h-122l-135 304l-18 48q-7 17 -47 123l-3 -3q7 -58 11 -136t4 -135v-201h-121v700z" />
    <glyph glyph-name="Nacute" unicode="&#x143;" horiz-adv-x="563" 
d="M66 700h122l146 -329l56 -143l3 3q-7 58 -12 132.5t-5 123.5v213h121v-700h-122l-135 304l-18 48q-7 17 -47 123l-3 -3q7 -58 11 -136t4 -135v-201h-121v700zM311 899h103l-111 -132h-86z" />
    <glyph glyph-name="Ncaron" unicode="&#x147;" horiz-adv-x="563" 
d="M66 700h122l146 -329l56 -143l3 3q-7 58 -12 132.5t-5 123.5v213h121v-700h-122l-135 304l-18 48q-7 17 -47 123l-3 -3q7 -58 11 -136t4 -135v-201h-121v700zM410 899l-81 -132h-93l-81 132h81l47 -69l46 69h81z" />
    <glyph glyph-name="uni0145" unicode="&#x145;" horiz-adv-x="563" 
d="M66 700h122l146 -329l56 -143l3 3q-7 58 -12 132.5t-5 123.5v213h121v-700h-122l-135 304l-18 48q-7 17 -47 123l-3 -3q7 -58 11 -136t4 -135v-201h-121v700zM235 -71h103l-48 -202h-71z" />
    <glyph glyph-name="Eng" unicode="&#x14a;" horiz-adv-x="563" 
d="M497 700v-700q-2 -92 -52.5 -142.5t-141.5 -51.5v113q73 2 77 72l-141 315q-32 82 -64 169l-3 -3q7 -58 11 -136t4 -135v-201h-121v700h122l147 -331q22 -53 48 -123q3 -10 8 -22l3 3q-8 58 -13 133t-5 126v214h121z" />
    <glyph glyph-name="Ntilde" unicode="&#xd1;" horiz-adv-x="563" 
d="M66 700h122l146 -329l56 -143l3 3q-7 58 -12 132.5t-5 123.5v213h121v-700h-122l-135 304l-18 48q-7 17 -47 123l-3 -3q7 -58 11 -136t4 -135v-201h-121v700zM307.5 788.5q-10.5 4.5 -24.5 12.5q-15 12 -28 12q-9 0 -16.5 -7t-8.5 -19h-72q3 48 26.5 73.5t59.5 25.5
q16 0 27 -4.5t24 -13.5q17 -11 27 -11t17 7.5t9 18.5h71q-3 -46 -26 -72.5t-60 -26.5q-15 0 -25.5 4.5z" />
    <glyph glyph-name="O" unicode="O" horiz-adv-x="533" 
d="M104.5 51q-58.5 63 -58.5 174v250q0 111 58.5 174t162.5 63q103 0 161.5 -63t58.5 -174v-250q0 -111 -58.5 -174t-161.5 -63q-104 0 -162.5 63zM336.5 137.5q23.5 30.5 23.5 87.5v250q0 58 -23.5 88t-69.5 30t-70 -30.5t-24 -87.5v-250q0 -57 24 -87.5t70 -30.5
t69.5 30.5z" />
    <glyph glyph-name="Oacute" unicode="&#xd3;" horiz-adv-x="533" 
d="M104.5 51q-58.5 63 -58.5 174v250q0 111 58.5 174t162.5 63q103 0 161.5 -63t58.5 -174v-250q0 -111 -58.5 -174t-161.5 -63q-104 0 -162.5 63zM336.5 137.5q23.5 30.5 23.5 87.5v250q0 58 -23.5 88t-69.5 30t-70 -30.5t-24 -87.5v-250q0 -57 24 -87.5t70 -30.5
t69.5 30.5zM296 899h103l-111 -132h-86z" />
    <glyph glyph-name="Ocircumflex" unicode="&#xd4;" horiz-adv-x="533" 
d="M104.5 51q-58.5 63 -58.5 174v250q0 111 58.5 174t162.5 63q103 0 161.5 -63t58.5 -174v-250q0 -111 -58.5 -174t-161.5 -63q-104 0 -162.5 63zM336.5 137.5q23.5 30.5 23.5 87.5v250q0 58 -23.5 88t-69.5 30t-70 -30.5t-24 -87.5v-250q0 -57 24 -87.5t70 -30.5
t69.5 30.5zM312 767l-46 68l-47 -68h-82l81 131h94l81 -131h-81z" />
    <glyph glyph-name="Odieresis" unicode="&#xd6;" horiz-adv-x="533" 
d="M104.5 51q-58.5 63 -58.5 174v250q0 111 58.5 174t162.5 63q103 0 161.5 -63t58.5 -174v-250q0 -111 -58.5 -174t-161.5 -63q-104 0 -162.5 63zM336.5 137.5q23.5 30.5 23.5 87.5v250q0 58 -23.5 88t-69.5 30t-70 -30.5t-24 -87.5v-250q0 -57 24 -87.5t70 -30.5
t69.5 30.5zM148 793.5q-15 15.5 -15 40.5q0 26 15 41t41 15q25 0 40 -15.5t15 -40.5t-15 -40.5t-40 -15.5q-26 0 -41 15.5zM302 793.5q-15 15.5 -15 40.5q0 26 15 41t41 15q25 0 40.5 -15t15.5 -41q0 -25 -15.5 -40.5t-40.5 -15.5q-26 0 -41 15.5z" />
    <glyph glyph-name="Ograve" unicode="&#xd2;" horiz-adv-x="533" 
d="M104.5 51q-58.5 63 -58.5 174v250q0 111 58.5 174t162.5 63q103 0 161.5 -63t58.5 -174v-250q0 -111 -58.5 -174t-161.5 -63q-104 0 -162.5 63zM336.5 137.5q23.5 30.5 23.5 87.5v250q0 58 -23.5 88t-69.5 30t-70 -30.5t-24 -87.5v-250q0 -57 24 -87.5t70 -30.5
t69.5 30.5zM247 767l-111 132h103l93 -132h-85z" />
    <glyph glyph-name="Ohungarumlaut" unicode="&#x150;" horiz-adv-x="533" 
d="M104.5 51q-58.5 63 -58.5 174v250q0 111 58.5 174t162.5 63q103 0 161.5 -63t58.5 -174v-250q0 -111 -58.5 -174t-161.5 -63q-104 0 -162.5 63zM336.5 137.5q23.5 30.5 23.5 87.5v250q0 58 -23.5 88t-69.5 30t-70 -30.5t-24 -87.5v-250q0 -57 24 -87.5t70 -30.5
t69.5 30.5zM214 900h94l-91 -132h-78zM356 900h94l-96 -132h-78z" />
    <glyph glyph-name="Omacron" unicode="&#x14c;" horiz-adv-x="533" 
d="M104.5 51q-58.5 63 -58.5 174v250q0 111 58.5 174t162.5 63q103 0 161.5 -63t58.5 -174v-250q0 -111 -58.5 -174t-161.5 -63q-104 0 -162.5 63zM336.5 137.5q23.5 30.5 23.5 87.5v250q0 58 -23.5 88t-69.5 30t-70 -30.5t-24 -87.5v-250q0 -57 24 -87.5t70 -30.5
t69.5 30.5zM163 870h211v-79h-211v79z" />
    <glyph glyph-name="Oslash" unicode="&#xd8;" horiz-adv-x="533" 
d="M468.5 587.5q19.5 -48.5 19.5 -112.5v-250q0 -111 -58.5 -174t-162.5 -63q-31 0 -58 6l-18 -61h-95l30 98q-80 63 -80 194v250q0 111 58.5 174t162.5 63q34 0 61 -7l19 62h94l-30 -101q38 -30 57.5 -78.5zM360 475q0 57 -23.5 87.5t-69.5 30.5t-69.5 -30t-23.5 -88v-250
q0 -57 23.5 -87.5t69.5 -30.5t69.5 30.5t23.5 87.5v250z" />
    <glyph glyph-name="Otilde" unicode="&#xd5;" horiz-adv-x="533" 
d="M104.5 51q-58.5 63 -58.5 174v250q0 111 58.5 174t162.5 63q103 0 161.5 -63t58.5 -174v-250q0 -111 -58.5 -174t-161.5 -63q-104 0 -162.5 63zM336.5 137.5q23.5 30.5 23.5 87.5v250q0 58 -23.5 88t-69.5 30t-70 -30.5t-24 -87.5v-250q0 -57 24 -87.5t70 -30.5
t69.5 30.5zM292.5 788.5q-10.5 4.5 -24.5 12.5q-15 12 -28 12q-9 0 -16.5 -7t-8.5 -19h-72q3 48 26.5 73.5t59.5 25.5q16 0 27 -4.5t24 -13.5q17 -11 27 -11t17 7.5t9 18.5h71q-3 -46 -26 -72.5t-60 -26.5q-15 0 -25.5 4.5z" />
    <glyph glyph-name="OE" unicode="&#x152;" horiz-adv-x="760" 
d="M724 116v-116h-363v33q-47 -45 -110 -45q-95 0 -150 63t-55 174v250q0 111 55 174t150 63q63 0 110 -45v33h352v-116h-229v-173h210v-112h-210v-183h240zM360 475q0 57 -25 87.5t-74 30.5q-44 0 -66 -30t-22 -88v-250q0 -58 22 -88t66 -30q49 0 74 30.5t25 87.5v250z" />
    <glyph glyph-name="P" unicode="P" horiz-adv-x="514" 
d="M425 638.5q59 -61.5 59 -171.5t-59 -171t-165 -61h-71v-235h-123v700h194q106 0 165 -61.5zM358 467q0 116 -99 116h-70v-232h70q99 0 99 116z" />
    <glyph glyph-name="Thorn" unicode="&#xde;" horiz-adv-x="501" 
d="M425 533.5q59 -61.5 59 -171.5q0 -111 -59 -172t-165 -61h-71v-129h-123v700h123v-105h71q106 0 165 -61.5zM358 362q0 116 -99 116h-70v-232h70q99 0 99 116z" />
    <glyph glyph-name="Q" unicode="Q" horiz-adv-x="535" 
d="M489 225q0 -109 -57 -172l55 -66l-72 -63l-63 77q-38 -13 -85 -13q-104 0 -162.5 63t-58.5 174v250q0 111 58.5 174t162.5 63t163 -63t59 -174v-250zM197.5 137.5q23.5 -30.5 69.5 -30.5t70 30.5t24 87.5v250q0 57 -24 87.5t-70 30.5t-69.5 -30t-23.5 -88v-250
q0 -57 23.5 -87.5z" />
    <glyph glyph-name="R" unicode="R" horiz-adv-x="516" 
d="M245 244h-56v-244h-123v700h192q103 0 159.5 -59.5t56.5 -166.5q0 -76 -28.5 -129t-81.5 -79l141 -266h-135zM189 361h68q44 0 67.5 28.5t23.5 83.5q0 54 -23.5 82t-67.5 28h-68v-222z" />
    <glyph glyph-name="Racute" unicode="&#x154;" horiz-adv-x="516" 
d="M245 244h-56v-244h-123v700h192q103 0 159.5 -59.5t56.5 -166.5q0 -76 -28.5 -129t-81.5 -79l141 -266h-135zM189 361h68q44 0 67.5 28.5t23.5 83.5q0 54 -23.5 82t-67.5 28h-68v-222zM276 899h103l-111 -132h-86z" />
    <glyph glyph-name="Rcaron" unicode="&#x158;" horiz-adv-x="516" 
d="M245 244h-56v-244h-123v700h192q103 0 159.5 -59.5t56.5 -166.5q0 -76 -28.5 -129t-81.5 -79l141 -266h-135zM189 361h68q44 0 67.5 28.5t23.5 83.5q0 54 -23.5 82t-67.5 28h-68v-222zM375 899l-81 -132h-93l-81 132h81l47 -69l46 69h81z" />
    <glyph glyph-name="uni0156" unicode="&#x156;" horiz-adv-x="516" 
d="M245 244h-56v-244h-123v700h192q103 0 159.5 -59.5t56.5 -166.5q0 -76 -28.5 -129t-81.5 -79l141 -266h-135zM189 361h68q44 0 67.5 28.5t23.5 83.5q0 54 -23.5 82t-67.5 28h-68v-222zM218 -71h103l-48 -202h-71z" />
    <glyph glyph-name="S" unicode="S" horiz-adv-x="472" 
d="M79.5 42q-56.5 56 -57.5 156h126q1 -46 23.5 -69t63.5 -23t62 21.5t21 56.5q0 37 -28 63.5t-86 62.5q-53 32 -87 59t-57.5 67.5t-23.5 95.5q0 52 24 93.5t68.5 65t105.5 23.5q94 0 147.5 -54t54.5 -148h-126q-1 41 -20.5 62t-55.5 21q-34 0 -53.5 -18t-19.5 -48
q0 -35 27 -59.5t84 -58.5q55 -32 89.5 -58.5t59.5 -69t25 -100.5q0 -56 -25 -100.5t-73 -70.5t-114 -26q-98 0 -154.5 56z" />
    <glyph glyph-name="Sacute" unicode="&#x15a;" horiz-adv-x="472" 
d="M79.5 42q-56.5 56 -57.5 156h126q1 -46 23.5 -69t63.5 -23t62 21.5t21 56.5q0 37 -28 63.5t-86 62.5q-53 32 -87 59t-57.5 67.5t-23.5 95.5q0 52 24 93.5t68.5 65t105.5 23.5q94 0 147.5 -54t54.5 -148h-126q-1 41 -20.5 62t-55.5 21q-34 0 -53.5 -18t-19.5 -48
q0 -35 27 -59.5t84 -58.5q55 -32 89.5 -58.5t59.5 -69t25 -100.5q0 -56 -25 -100.5t-73 -70.5t-114 -26q-98 0 -154.5 56zM264 899h103l-111 -132h-86z" />
    <glyph glyph-name="Scaron" unicode="&#x160;" horiz-adv-x="472" 
d="M79.5 42q-56.5 56 -57.5 156h126q1 -46 23.5 -69t63.5 -23t62 21.5t21 56.5q0 37 -28 63.5t-86 62.5q-53 32 -87 59t-57.5 67.5t-23.5 95.5q0 52 24 93.5t68.5 65t105.5 23.5q94 0 147.5 -54t54.5 -148h-126q-1 41 -20.5 62t-55.5 21q-34 0 -53.5 -18t-19.5 -48
q0 -35 27 -59.5t84 -58.5q55 -32 89.5 -58.5t59.5 -69t25 -100.5q0 -56 -25 -100.5t-73 -70.5t-114 -26q-98 0 -154.5 56zM363 899l-81 -132h-93l-81 132h81l47 -69l46 69h81z" />
    <glyph glyph-name="Scedilla" unicode="&#x15e;" horiz-adv-x="472" 
d="M398 51.5q-48 -53.5 -132 -63.5l-10 -36q3 1 11 1q32 0 52.5 -19t20.5 -50q0 -40 -29 -63.5t-77 -23.5q-41 0 -71 23t-34 60h65q13 -24 41 -24q17 0 26.5 8.5t9.5 21.5q0 27 -35 27q-18 0 -32 -6l-20 19l18 62q-84 9 -131.5 64t-48.5 146h126q1 -46 23.5 -69t63.5 -23
t62 21.5t21 56.5q0 37 -28 63.5t-86 62.5q-53 32 -87 59t-57.5 67.5t-23.5 95.5q0 52 24 93.5t68.5 65t105.5 23.5q94 0 147.5 -54t54.5 -148h-126q-1 41 -20.5 62t-55.5 21q-34 0 -53.5 -18t-19.5 -48q0 -35 27 -59.5t84 -58.5q55 -32 89.5 -58.5t59.5 -69t25 -100.5
q0 -78 -48 -131.5z" />
    <glyph glyph-name="uni0218" unicode="&#x218;" horiz-adv-x="472" 
d="M79.5 42q-56.5 56 -57.5 156h126q1 -46 23.5 -69t63.5 -23t62 21.5t21 56.5q0 37 -28 63.5t-86 62.5q-53 32 -87 59t-57.5 67.5t-23.5 95.5q0 52 24 93.5t68.5 65t105.5 23.5q94 0 147.5 -54t54.5 -148h-126q-1 41 -20.5 62t-55.5 21q-34 0 -53.5 -18t-19.5 -48
q0 -35 27 -59.5t84 -58.5q55 -32 89.5 -58.5t59.5 -69t25 -100.5q0 -56 -25 -100.5t-73 -70.5t-114 -26q-98 0 -154.5 56zM193 -71h103l-48 -202h-71z" />
    <glyph glyph-name="T" unicode="T" horiz-adv-x="440" 
d="M424 583h-141v-583h-126v583h-141v117h408v-117z" />
    <glyph glyph-name="Tbar" unicode="&#x166;" horiz-adv-x="440" 
d="M283 583v-196h78v-69h-78v-318h-126v318h-79v69h79v196h-141v117h408v-117h-141z" />
    <glyph glyph-name="Tcaron" unicode="&#x164;" horiz-adv-x="440" 
d="M424 583h-141v-583h-126v583h-141v117h408v-117zM348 899l-81 -132h-93l-81 132h81l47 -69l46 69h81z" />
    <glyph glyph-name="uni0162" unicode="&#x162;" horiz-adv-x="440" 
d="M424 583h-141v-583h-126v583h-141v117h408v-117zM148 -180q-30 23 -34 60h66q11 -24 40 -24q17 0 26.5 8.5t9.5 21.5q0 27 -35 27q-19 0 -32 -6l-20 19l21 74h65l-13 -48q2 1 10 1q32 0 52.5 -19t20.5 -50q0 -40 -29 -63.5t-77 -23.5q-41 0 -71 23z" />
    <glyph glyph-name="uni021A" unicode="&#x21a;" horiz-adv-x="440" 
d="M424 583h-141v-583h-126v583h-141v117h408v-117zM174 -71h103l-48 -202h-71z" />
    <glyph glyph-name="U" unicode="U" horiz-adv-x="534" 
d="M110.5 49.5q-56.5 60.5 -56.5 168.5v482h125v-482q0 -54 23 -82t65 -28t65 28t23 82v482h125v-482q0 -108 -56.5 -168.5t-156.5 -60.5t-156.5 60.5z" />
    <glyph glyph-name="Uacute" unicode="&#xda;" horiz-adv-x="534" 
d="M110.5 49.5q-56.5 60.5 -56.5 168.5v482h125v-482q0 -54 23 -82t65 -28t65 28t23 82v482h125v-482q0 -108 -56.5 -168.5t-156.5 -60.5t-156.5 60.5zM297 899h103l-111 -132h-86z" />
    <glyph glyph-name="Ucircumflex" unicode="&#xdb;" horiz-adv-x="534" 
d="M110.5 49.5q-56.5 60.5 -56.5 168.5v482h125v-482q0 -54 23 -82t65 -28t65 28t23 82v482h125v-482q0 -108 -56.5 -168.5t-156.5 -60.5t-156.5 60.5zM313 767l-46 68l-47 -68h-82l81 131h94l81 -131h-81z" />
    <glyph glyph-name="Udieresis" unicode="&#xdc;" horiz-adv-x="534" 
d="M110.5 49.5q-56.5 60.5 -56.5 168.5v482h125v-482q0 -54 23 -82t65 -28t65 28t23 82v482h125v-482q0 -108 -56.5 -168.5t-156.5 -60.5t-156.5 60.5zM149 793.5q-15 15.5 -15 40.5q0 26 15 41t41 15q25 0 40 -15.5t15 -40.5t-15 -40.5t-40 -15.5q-26 0 -41 15.5z
M303 793.5q-15 15.5 -15 40.5q0 26 15 41t41 15q25 0 40.5 -15t15.5 -41q0 -25 -15.5 -40.5t-40.5 -15.5q-26 0 -41 15.5z" />
    <glyph glyph-name="Ugrave" unicode="&#xd9;" horiz-adv-x="534" 
d="M110.5 49.5q-56.5 60.5 -56.5 168.5v482h125v-482q0 -54 23 -82t65 -28t65 28t23 82v482h125v-482q0 -108 -56.5 -168.5t-156.5 -60.5t-156.5 60.5zM248 767l-111 132h103l93 -132h-85z" />
    <glyph glyph-name="Uhungarumlaut" unicode="&#x170;" horiz-adv-x="534" 
d="M110.5 49.5q-56.5 60.5 -56.5 168.5v482h125v-482q0 -54 23 -82t65 -28t65 28t23 82v482h125v-482q0 -108 -56.5 -168.5t-156.5 -60.5t-156.5 60.5zM215 900h94l-91 -132h-78zM357 900h94l-96 -132h-78z" />
    <glyph glyph-name="Umacron" unicode="&#x16a;" horiz-adv-x="534" 
d="M110.5 49.5q-56.5 60.5 -56.5 168.5v482h125v-482q0 -54 23 -82t65 -28t65 28t23 82v482h125v-482q0 -108 -56.5 -168.5t-156.5 -60.5t-156.5 60.5zM164 870h211v-79h-211v79z" />
    <glyph glyph-name="Uogonek" unicode="&#x172;" horiz-adv-x="537" 
d="M249.5 -171q-25.5 23 -25.5 61q0 54 56 102l-1 2q-6 -5 -21 -5q-94 0 -149 61.5t-55 167.5v482h127v-482q0 -54 22.5 -82t64.5 -28t65 28t23 82v482h127v-482q0 -67 -20 -110.5t-58 -76.5q-33 -29 -53 -54.5t-20 -50.5q0 -29 33 -29q20 0 29 3v-82q-29 -12 -73 -12
q-46 0 -71.5 23z" />
    <glyph glyph-name="Uring" unicode="&#x16e;" horiz-adv-x="534" 
d="M110.5 49.5q-56.5 60.5 -56.5 168.5v482h125v-482q0 -54 23 -82t65 -28t65 28t23 82v482h125v-482q0 -108 -56.5 -168.5t-156.5 -60.5t-156.5 60.5zM207.5 786.5q-23.5 23.5 -23.5 61.5q0 37 23.5 60t62.5 23t63 -23t24 -60q0 -38 -24 -61.5t-63 -23.5t-62.5 23.5z
M294 823q9 9 9 24t-9 24t-24 9q-14 0 -23 -9t-9 -24t9 -24t23 -9q15 0 24 9z" />
    <glyph glyph-name="V" unicode="V" horiz-adv-x="479" 
d="M5 700h128l73 -356q15 -75 31 -191h4q23 143 32 191l73 356h128l-169 -700h-131z" />
    <glyph glyph-name="W" unicode="W" horiz-adv-x="773" 
d="M5 700h127l63 -355q23 -128 30 -191h4q2 18 23 147l8 46l62 343h129l62 -343l8 -46q21 -129 23 -147h4q7 63 30 191l63 355h127l-157 -700h-131l-58 269q-11 50 -20.5 115.5t-12.5 111.5h-4q-4 -48 -13.5 -113t-20.5 -114l-58 -269h-131z" />
    <glyph glyph-name="Wacute" unicode="&#x1e82;" horiz-adv-x="773" 
d="M5 700h127l63 -355q23 -128 30 -191h4q2 18 23 147l8 46l62 343h129l62 -343l8 -46q21 -129 23 -147h4q7 63 30 191l63 355h127l-157 -700h-131l-58 269q-11 50 -20.5 115.5t-12.5 111.5h-4q-4 -48 -13.5 -113t-20.5 -114l-58 -269h-131zM424 899h103l-111 -132h-86z" />
    <glyph glyph-name="Wcircumflex" unicode="&#x174;" horiz-adv-x="773" 
d="M5 700h127l63 -355q23 -128 30 -191h4q2 18 23 147l8 46l62 343h129l62 -343l8 -46q21 -129 23 -147h4q7 63 30 191l63 355h127l-157 -700h-131l-58 269q-11 50 -20.5 115.5t-12.5 111.5h-4q-4 -48 -13.5 -113t-20.5 -114l-58 -269h-131zM440 767l-46 68l-47 -68h-82
l81 131h94l81 -131h-81z" />
    <glyph glyph-name="Wdieresis" unicode="&#x1e84;" horiz-adv-x="773" 
d="M5 700h127l63 -355q23 -128 30 -191h4q2 18 23 147l8 46l62 343h129l62 -343l8 -46q21 -129 23 -147h4q7 63 30 191l63 355h127l-157 -700h-131l-58 269q-11 50 -20.5 115.5t-12.5 111.5h-4q-4 -48 -13.5 -113t-20.5 -114l-58 -269h-131zM276 793.5q-15 15.5 -15 40.5
q0 26 15 41t41 15q25 0 40 -15.5t15 -40.5t-15 -40.5t-40 -15.5q-26 0 -41 15.5zM430 793.5q-15 15.5 -15 40.5q0 26 15 41t41 15q25 0 40.5 -15t15.5 -41q0 -25 -15.5 -40.5t-40.5 -15.5q-26 0 -41 15.5z" />
    <glyph glyph-name="Wgrave" unicode="&#x1e80;" horiz-adv-x="773" 
d="M5 700h127l63 -355q23 -128 30 -191h4q2 18 23 147l8 46l62 343h129l62 -343l8 -46q21 -129 23 -147h4q7 63 30 191l63 355h127l-157 -700h-131l-58 269q-11 50 -20.5 115.5t-12.5 111.5h-4q-4 -48 -13.5 -113t-20.5 -114l-58 -269h-131zM376 767l-111 132h103l93 -132
h-85z" />
    <glyph glyph-name="X" unicode="X" horiz-adv-x="497" 
d="M348 0l-99 243l-100 -243h-135l166 362l-156 338h134l91 -222l90 222h135l-157 -338l166 -362h-135z" />
    <glyph glyph-name="Y" unicode="Y" horiz-adv-x="460" 
d="M169 218l-168 482h128l67 -212q15 -44 33 -111h3q16 59 33 113l66 210h128l-167 -482v-218h-123v218z" />
    <glyph glyph-name="Yacute" unicode="&#xdd;" horiz-adv-x="460" 
d="M169 218l-168 482h128l67 -212q15 -44 33 -111h3q16 59 33 113l66 210h128l-167 -482v-218h-123v218zM260 899h103l-111 -132h-86z" />
    <glyph glyph-name="Ycircumflex" unicode="&#x176;" horiz-adv-x="460" 
d="M169 218l-168 482h128l67 -212q15 -44 33 -111h3q16 59 33 113l66 210h128l-167 -482v-218h-123v218zM276 767l-46 68l-47 -68h-82l81 131h94l81 -131h-81z" />
    <glyph glyph-name="Ydieresis" unicode="&#x178;" horiz-adv-x="460" 
d="M169 218l-168 482h128l67 -212q15 -44 33 -111h3q16 59 33 113l66 210h128l-167 -482v-218h-123v218zM112 793.5q-15 15.5 -15 40.5q0 26 15 41t41 15q25 0 40 -15.5t15 -40.5t-15 -40.5t-40 -15.5q-26 0 -41 15.5zM266 793.5q-15 15.5 -15 40.5q0 26 15 41t41 15
q25 0 40.5 -15t15.5 -41q0 -25 -15.5 -40.5t-40.5 -15.5q-26 0 -41 15.5z" />
    <glyph glyph-name="Ygrave" unicode="&#x1ef2;" horiz-adv-x="460" 
d="M169 218l-168 482h128l67 -212q15 -44 33 -111h3q16 59 33 113l66 210h128l-167 -482v-218h-123v218zM212 767l-111 132h103l93 -132h-85z" />
    <glyph glyph-name="Z" unicode="Z" horiz-adv-x="427" 
d="M15 84l235 499h-219v117h369v-85l-234 -498h239v-117h-390v84z" />
    <glyph glyph-name="Zacute" unicode="&#x179;" horiz-adv-x="427" 
d="M15 84l235 499h-219v117h369v-85l-234 -498h239v-117h-390v84zM246 899h103l-111 -132h-86z" />
    <glyph glyph-name="Zcaron" unicode="&#x17d;" horiz-adv-x="427" 
d="M15 84l235 499h-219v117h369v-85l-234 -498h239v-117h-390v84zM344 899l-81 -132h-93l-81 132h81l47 -69l46 69h81z" />
    <glyph glyph-name="Zdotaccent" unicode="&#x17b;" horiz-adv-x="427" 
d="M15 84l235 499h-219v117h369v-85l-234 -498h239v-117h-390v84zM166 801.5q-19 19.5 -19 49.5t19 49.5t49 19.5q29 0 49 -19.5t20 -49.5q0 -28 -20 -48.5t-49 -20.5q-30 0 -49 19.5z" />
    <glyph glyph-name="a" unicode="a" horiz-adv-x="458" 
d="M405 343v-343h-95l-7 50q-36 -64 -117 -64q-72 0 -115.5 46t-43.5 119q0 80 53 122t144 42h62v28q0 42 -14 63.5t-46 21.5q-26 0 -44 -14.5t-22 -43.5h-118q4 80 53 126t133 46q177 0 177 -199zM286 219h-60q-38 0 -58.5 -17.5t-20.5 -50.5q0 -28 17 -45t50 -17t52.5 20
t19.5 56v54z" />
    <glyph glyph-name="aacute" unicode="&#xe1;" horiz-adv-x="458" 
d="M405 343v-343h-95l-7 50q-36 -64 -117 -64q-72 0 -115.5 46t-43.5 119q0 80 53 122t144 42h62v28q0 42 -14 63.5t-46 21.5q-26 0 -44 -14.5t-22 -43.5h-118q4 80 53 126t133 46q177 0 177 -199zM286 219h-60q-38 0 -58.5 -17.5t-20.5 -50.5q0 -28 17 -45t50 -17t52.5 20
t19.5 56v54zM241 741h103l-92 -132h-85z" />
    <glyph glyph-name="abreve" unicode="&#x103;" horiz-adv-x="458" 
d="M405 343v-343h-95l-7 50q-36 -64 -117 -64q-72 0 -115.5 46t-43.5 119q0 80 53 122t144 42h62v28q0 42 -14 63.5t-46 21.5q-26 0 -44 -14.5t-22 -43.5h-118q4 80 53 126t133 46q177 0 177 -199zM286 219h-60q-38 0 -58.5 -17.5t-20.5 -50.5q0 -28 17 -45t50 -17t52.5 20
t19.5 56v54zM142 643.5q-35 32.5 -37 89.5h79q1 -22 13.5 -34.5t32.5 -12.5q19 0 32 12.5t14 34.5h78q-2 -58 -36 -90t-87 -32q-54 0 -89 32.5z" />
    <glyph glyph-name="acircumflex" unicode="&#xe2;" horiz-adv-x="458" 
d="M405 343v-343h-95l-7 50q-36 -64 -117 -64q-72 0 -115.5 46t-43.5 119q0 80 53 122t144 42h62v28q0 42 -14 63.5t-46 21.5q-26 0 -44 -14.5t-22 -43.5h-118q4 80 53 126t133 46q177 0 177 -199zM286 219h-60q-38 0 -58.5 -17.5t-20.5 -50.5q0 -28 17 -45t50 -17t52.5 20
t19.5 56v54zM276 609l-46 68l-47 -68h-82l81 131h94l81 -131h-81z" />
    <glyph glyph-name="adieresis" unicode="&#xe4;" horiz-adv-x="458" 
d="M405 343v-343h-95l-7 50q-36 -64 -117 -64q-72 0 -115.5 46t-43.5 119q0 80 53 122t144 42h62v28q0 42 -14 63.5t-46 21.5q-26 0 -44 -14.5t-22 -43.5h-118q4 80 53 126t133 46q177 0 177 -199zM286 219h-60q-38 0 -58.5 -17.5t-20.5 -50.5q0 -28 17 -45t50 -17t52.5 20
t19.5 56v54zM113 633.5q-15 15.5 -15 40.5t15 40t41 15t41 -15t15 -40t-15.5 -40.5t-40.5 -15.5q-26 0 -41 15.5zM264.5 633.5q-15.5 15.5 -15.5 40.5t15.5 40t41.5 15q25 0 40.5 -15t15.5 -40t-15.5 -40.5t-40.5 -15.5q-26 0 -41.5 15.5z" />
    <glyph glyph-name="agrave" unicode="&#xe0;" horiz-adv-x="458" 
d="M405 343v-343h-95l-7 50q-36 -64 -117 -64q-72 0 -115.5 46t-43.5 119q0 80 53 122t144 42h62v28q0 42 -14 63.5t-46 21.5q-26 0 -44 -14.5t-22 -43.5h-118q4 80 53 126t133 46q177 0 177 -199zM286 219h-60q-38 0 -58.5 -17.5t-20.5 -50.5q0 -28 17 -45t50 -17t52.5 20
t19.5 56v54zM220 609l-92 132h103l74 -132h-85z" />
    <glyph glyph-name="amacron" unicode="&#x101;" horiz-adv-x="458" 
d="M405 343v-343h-95l-7 50q-36 -64 -117 -64q-72 0 -115.5 46t-43.5 119q0 80 53 122t144 42h62v28q0 42 -14 63.5t-46 21.5q-26 0 -44 -14.5t-22 -43.5h-118q4 80 53 126t133 46q177 0 177 -199zM286 219h-60q-38 0 -58.5 -17.5t-20.5 -50.5q0 -28 17 -45t50 -17t52.5 20
t19.5 56v54zM123 712h211v-78h-211v78z" />
    <glyph glyph-name="aogonek" unicode="&#x105;" horiz-adv-x="461" 
d="M269 -170q-23 24 -23 64q0 32 16.5 56.5t49.5 49.5l-7 50q-16 -29 -46 -46.5t-73 -17.5q-72 0 -115.5 46t-43.5 119q0 82 53.5 124t145.5 42h62v26q0 42 -14 63.5t-47 21.5q-27 0 -45 -14.5t-22 -43.5h-118q4 80 53.5 126t133.5 46q178 0 178 -199v-343
q-29 -18 -45 -39.5t-16 -40.5q0 -25 30 -25q15 0 32 5v-83q-27 -11 -67 -11q-49 0 -72 24zM268.5 108.5q19.5 19.5 19.5 53.5v55h-61q-38 0 -59 -17t-21 -49q0 -28 17.5 -45t50.5 -17q34 0 53.5 19.5z" />
    <glyph glyph-name="aring" unicode="&#xe5;" horiz-adv-x="458" 
d="M405 343v-343h-95l-7 50q-36 -64 -117 -64q-72 0 -115.5 46t-43.5 119q0 80 53 122t144 42h62v28q0 42 -14 63.5t-46 21.5q-26 0 -44 -14.5t-22 -43.5h-118q4 80 53 126t133 46q177 0 177 -199zM286 219h-60q-38 0 -58.5 -17.5t-20.5 -50.5q0 -28 17 -45t50 -17t52.5 20
t19.5 56v54zM166.5 629.5q-23.5 23.5 -23.5 61.5q0 37 23.5 60t62.5 23t63 -23t24 -60q0 -38 -24 -61.5t-63 -23.5t-62.5 23.5zM253 666q9 9 9 24t-9 24t-24 9q-14 0 -23 -9t-9 -24t9 -24t23 -9q15 0 24 9z" />
    <glyph glyph-name="atilde" unicode="&#xe3;" horiz-adv-x="458" 
d="M405 343v-343h-95l-7 50q-36 -64 -117 -64q-72 0 -115.5 46t-43.5 119q0 80 53 122t144 42h62v28q0 42 -14 63.5t-46 21.5q-26 0 -44 -14.5t-22 -43.5h-118q4 80 53 126t133 46q177 0 177 -199zM286 219h-60q-38 0 -58.5 -17.5t-20.5 -50.5q0 -28 17 -45t50 -17t52.5 20
t19.5 56v54zM248.5 618.5q-10.5 4.5 -24.5 12.5q-15 12 -28 12q-9 0 -16.5 -7t-8.5 -19h-72q3 48 26.5 73.5t59.5 25.5q16 0 27 -4.5t24 -13.5q17 -11 27 -11t17 7.5t9 18.5h71q-3 -46 -26 -72.5t-60 -26.5q-15 0 -25.5 4.5z" />
    <glyph glyph-name="ae" unicode="&#xe6;" horiz-adv-x="697" 
d="M662 168q-7 -86 -58 -133t-136 -47q-39 0 -72 16.5t-57 44.5q-43 -62 -154 -62q-72 0 -115 45.5t-43 119.5q0 81 53.5 122t146.5 41h60v30q0 41 -14 62t-46 21q-27 0 -45 -14.5t-22 -43.5h-118q4 80 53.5 126t133.5 46q78 0 119 -55q23 27 54 41t67 14q87 0 137 -53
t50 -148v-116h-254v-33q0 -91 68 -91q34 0 50.5 16t21.5 51h120zM402 308h137v34q0 90 -69 90q-68 0 -68 -90v-34zM287 218h-59q-39 0 -60 -16.5t-21 -49.5q0 -29 17.5 -46t50.5 -17q34 0 53 19.5t19 53.5v56z" />
    <glyph glyph-name="b" unicode="b" horiz-adv-x="470" 
d="M382.5 486q46.5 -56 46.5 -150v-141q0 -95 -46.5 -151t-123.5 -56q-32 0 -63.5 17t-52.5 42l-7 -48h-82v726h115v-218q40 35 90 35q77 0 123.5 -56zM309 336q0 93 -68 93q-35 0 -53.5 -24t-18.5 -69v-141q0 -46 19 -70.5t53 -24.5q33 0 50.5 24t17.5 71v141z" />
    <glyph glyph-name="c" unicode="c" horiz-adv-x="440" 
d="M91 40q-49 52 -49 145v161q0 92 49 144t135 52q90 0 138.5 -51.5t51.5 -144.5h-119q-3 83 -69 83q-33 0 -50 -21t-17 -62v-161q0 -42 17 -63t50 -21q66 0 70 84h119q-2 -93 -53 -145t-138 -52q-86 0 -135 52z" />
    <glyph glyph-name="cacute" unicode="&#x107;" horiz-adv-x="440" 
d="M91 40q-49 52 -49 145v161q0 92 49 144t135 52q90 0 138.5 -51.5t51.5 -144.5h-119q-3 83 -69 83q-33 0 -50 -21t-17 -62v-161q0 -42 17 -63t50 -21q66 0 70 84h119q-2 -93 -53 -145t-138 -52q-86 0 -135 52zM242 741h103l-92 -132h-85z" />
    <glyph glyph-name="ccaron" unicode="&#x10d;" horiz-adv-x="440" 
d="M91 40q-49 52 -49 145v161q0 92 49 144t135 52q90 0 138.5 -51.5t51.5 -144.5h-119q-3 83 -69 83q-33 0 -50 -21t-17 -62v-161q0 -42 17 -63t50 -21q66 0 70 84h119q-2 -93 -53 -145t-138 -52q-86 0 -135 52zM358 741l-81 -132h-94l-81 132h82l47 -69l46 69h81z" />
    <glyph glyph-name="ccedilla" unicode="&#xe7;" horiz-adv-x="440" 
d="M374 51.5q-41 -50.5 -113 -61.5l-10 -38q2 1 10 1q32 0 52.5 -19t20.5 -50q0 -40 -29 -63.5t-77 -23.5q-41 0 -71 23t-34 60h66q11 -24 40 -24q17 0 26.5 8.5t9.5 21.5q0 27 -35 27q-18 0 -32 -6l-20 19l18 64q-73 9 -113.5 60t-40.5 135v161q0 92 49 144t135 52
q90 0 138.5 -51.5t51.5 -144.5h-119q-3 83 -69 83q-33 0 -50 -21t-17 -62v-161q0 -42 17 -63t50 -21q66 0 70 84h119q-2 -83 -43 -133.5z" />
    <glyph glyph-name="cdotaccent" unicode="&#x10b;" horiz-adv-x="440" 
d="M91 40q-49 52 -49 145v161q0 92 49 144t135 52q90 0 138.5 -51.5t51.5 -144.5h-119q-3 83 -69 83q-33 0 -50 -21t-17 -62v-161q0 -42 17 -63t50 -21q66 0 70 84h119q-2 -93 -53 -145t-138 -52q-86 0 -135 52zM181 630.5q-19 19.5 -19 49.5t19 49.5t49 19.5q29 0 49 -19.5
t20 -49.5q0 -28 -20 -48.5t-49 -20.5q-30 0 -49 19.5z" />
    <glyph glyph-name="d" unicode="d" horiz-adv-x="470" 
d="M417 725v-726h-83l-6 49q-20 -26 -52 -43t-65 -17q-76 0 -122.5 56t-46.5 151v141q0 94 46 150t123 56q24 0 48 -9.5t42 -25.5v218h116zM301 336q0 45 -18.5 69t-52.5 24q-68 0 -68 -93v-141q0 -47 17.5 -71t50.5 -24q34 0 52.5 24t18.5 71v141z" />
    <glyph glyph-name="eth" unicode="&#xf0;" horiz-adv-x="466" 
d="M423 378v-184q0 -98 -50.5 -152t-140.5 -54t-140 54t-50 152v107q0 98 47.5 151.5t131.5 53.5q40 0 72 -19q-14 48 -44 86l-72 -36l-18 40l57 28q-30 24 -73 40l42 93q82 -25 138 -79l62 31l18 -40l-51 -25q70 -94 71 -247zM303 301q0 90 -71 90q-70 0 -70 -90v-107
q0 -91 70 -91q71 0 71 91v107z" />
    <glyph glyph-name="dcaron" unicode="&#x10f;" horiz-adv-x="561" 
d="M585 776l-47 -193h-71l16 193h102zM301 725h116v-726h-83l-6 49q-20 -26 -52 -43t-65 -17q-76 0 -122.5 56t-46.5 151v141q0 94 46 150t123 56q24 0 48 -9.5t42 -25.5v218zM301 336q0 45 -18.5 69t-52.5 24q-68 0 -68 -93v-141q0 -47 17.5 -71t50.5 -24q34 0 52.5 24
t18.5 71v141z" />
    <glyph glyph-name="dcroat" unicode="&#x111;" horiz-adv-x="478" 
d="M484 593h-67v-594h-83l-6 49q-20 -26 -52 -43t-65 -17q-76 0 -122.5 56t-46.5 151v141q0 94 46 150t123 56q24 0 48 -9.5t42 -25.5v86h-99v61h99v71h116v-71h67v-61zM301 336q0 45 -18.5 69t-52.5 24q-68 0 -68 -93v-141q0 -47 17.5 -71t50.5 -24q34 0 52.5 24t18.5 71
v141z" />
    <glyph glyph-name="e" unicode="e" horiz-adv-x="456" 
d="M421 167q-8 -85 -58.5 -132t-135.5 -47q-86 0 -135.5 54t-49.5 150v149q0 95 49.5 148t137.5 53q89 0 139.5 -53t50.5 -148v-118h-259v-31q0 -91 69 -91q34 0 50 15t23 51h119zM160 342v-35h142v35q0 90 -72 90q-70 0 -70 -90z" />
    <glyph glyph-name="eacute" unicode="&#xe9;" horiz-adv-x="456" 
d="M421 167q-8 -85 -58.5 -132t-135.5 -47q-86 0 -135.5 54t-49.5 150v149q0 95 49.5 148t137.5 53q89 0 139.5 -53t50.5 -148v-118h-259v-31q0 -91 69 -91q34 0 50 15t23 51h119zM160 342v-35h142v35q0 90 -72 90q-70 0 -70 -90zM239 740h103l-92 -132h-85z" />
    <glyph glyph-name="ecaron" unicode="&#x11b;" horiz-adv-x="456" 
d="M421 167q-8 -85 -58.5 -132t-135.5 -47q-86 0 -135.5 54t-49.5 150v149q0 95 49.5 148t137.5 53q89 0 139.5 -53t50.5 -148v-118h-259v-31q0 -91 69 -91q34 0 50 15t23 51h119zM160 342v-35h142v35q0 90 -72 90q-70 0 -70 -90zM356 740l-81 -132h-94l-81 132h82l47 -69
l46 69h81z" />
    <glyph glyph-name="ecircumflex" unicode="&#xea;" horiz-adv-x="456" 
d="M421 167q-8 -85 -58.5 -132t-135.5 -47q-86 0 -135.5 54t-49.5 150v149q0 95 49.5 148t137.5 53q89 0 139.5 -53t50.5 -148v-118h-259v-31q0 -91 69 -91q34 0 50 15t23 51h119zM160 342v-35h142v35q0 90 -72 90q-70 0 -70 -90zM275 608l-46 68l-47 -68h-82l81 131h94
l81 -131h-81z" />
    <glyph glyph-name="edieresis" unicode="&#xeb;" horiz-adv-x="456" 
d="M421 167q-8 -85 -58.5 -132t-135.5 -47q-86 0 -135.5 54t-49.5 150v149q0 95 49.5 148t137.5 53q89 0 139.5 -53t50.5 -148v-118h-259v-31q0 -91 69 -91q34 0 50 15t23 51h119zM160 342v-35h142v35q0 90 -72 90q-70 0 -70 -90zM112 632.5q-15 15.5 -15 40.5t15 40t41 15
t41 -15t15 -40t-15.5 -40.5t-40.5 -15.5q-26 0 -41 15.5zM263.5 632.5q-15.5 15.5 -15.5 40.5t15.5 40t41.5 15q25 0 40.5 -15t15.5 -40t-15.5 -40.5t-40.5 -15.5q-26 0 -41.5 15.5z" />
    <glyph glyph-name="edotaccent" unicode="&#x117;" horiz-adv-x="456" 
d="M421 167q-8 -85 -58.5 -132t-135.5 -47q-86 0 -135.5 54t-49.5 150v149q0 95 49.5 148t137.5 53q89 0 139.5 -53t50.5 -148v-118h-259v-31q0 -91 69 -91q34 0 50 15t23 51h119zM160 342v-35h142v35q0 90 -72 90q-70 0 -70 -90zM179 629.5q-19 19.5 -19 49.5t19 49.5
t49 19.5q29 0 49 -19.5t20 -49.5q0 -28 -20 -48.5t-49 -20.5q-30 0 -49 19.5z" />
    <glyph glyph-name="egrave" unicode="&#xe8;" horiz-adv-x="456" 
d="M421 167q-8 -85 -58.5 -132t-135.5 -47q-86 0 -135.5 54t-49.5 150v149q0 95 49.5 148t137.5 53q89 0 139.5 -53t50.5 -148v-118h-259v-31q0 -91 69 -91q34 0 50 15t23 51h119zM160 342v-35h142v35q0 90 -72 90q-70 0 -70 -90zM219 608l-92 132h103l74 -132h-85z" />
    <glyph glyph-name="emacron" unicode="&#x113;" horiz-adv-x="456" 
d="M421 167q-8 -85 -58.5 -132t-135.5 -47q-86 0 -135.5 54t-49.5 150v149q0 95 49.5 148t137.5 53q89 0 139.5 -53t50.5 -148v-118h-259v-31q0 -91 69 -91q34 0 50 15t23 51h119zM160 342v-35h142v35q0 90 -72 90q-70 0 -70 -90zM122 711h211v-78h-211v78z" />
    <glyph glyph-name="eogonek" unicode="&#x119;" horiz-adv-x="459" 
d="M231.5 -171q-25.5 23 -25.5 63q0 52 57 99v1q-18 -4 -36 -4q-87 0 -136 54t-49 150v149q0 94 49.5 147.5t136.5 53.5q88 0 138.5 -53t50.5 -148v-118h-257v-31q0 -91 69 -91q35 0 52 16t24 51h119q-4 -40 -19.5 -74.5t-39.5 -58.5q-27 -28 -43.5 -55t-16.5 -46t10.5 -28
t27.5 -9q25 0 33 3v-82q-31 -12 -73 -12q-46 0 -71.5 23zM300 307v35q0 90 -71 90q-69 0 -69 -90v-35h140z" />
    <glyph glyph-name="f" unicode="f" horiz-adv-x="311" 
d="M218 612.5q-17 -19.5 -17 -63.5v-20h95v-108h-95v-421h-117v421h-75v108h75v20q0 87 46.5 138.5t142.5 51.5h33v-107h-33q-38 0 -55 -19.5z" />
    <glyph glyph-name="g" unicode="g" horiz-adv-x="474" 
d="M420 529v-551q0 -78 -48.5 -125t-133.5 -47q-83 0 -131 46.5t-50 124.5h116q3 -29 19.5 -45t45.5 -16t45.5 16.5t16.5 45.5v73q-40 -27 -89 -27t-87.5 25t-60 69.5t-21.5 101.5v122q0 59 21.5 104.5t60 70.5t87.5 25q72 0 118 -49l8 36h83zM282 157q18 21 18 63v124
q0 41 -18.5 62.5t-51.5 21.5q-69 0 -69 -86v-122q0 -84 69 -84q34 0 52 21z" />
    <glyph glyph-name="gbreve" unicode="&#x11f;" horiz-adv-x="474" 
d="M420 529v-551q0 -78 -48.5 -125t-133.5 -47q-83 0 -131 46.5t-50 124.5h116q3 -29 19.5 -45t45.5 -16t45.5 16.5t16.5 45.5v73q-40 -27 -89 -27t-87.5 25t-60 69.5t-21.5 101.5v122q0 59 21.5 104.5t60 70.5t87.5 25q72 0 118 -49l8 36h83zM282 157q18 21 18 63v124
q0 41 -18.5 62.5t-51.5 21.5q-69 0 -69 -86v-122q0 -84 69 -84q34 0 52 21zM144 643.5q-35 32.5 -37 89.5h79q1 -22 13.5 -34.5t32.5 -12.5q19 0 32 12.5t14 34.5h78q-2 -58 -36 -90t-87 -32q-54 0 -89 32.5z" />
    <glyph glyph-name="uni0123" unicode="&#x123;" horiz-adv-x="474" 
d="M420 529v-551q0 -78 -48.5 -125t-133.5 -47q-83 0 -131 46.5t-50 124.5h116q3 -29 19.5 -45t45.5 -16t45.5 16.5t16.5 45.5v73q-40 -27 -89 -27t-87.5 25t-60 69.5t-21.5 101.5v122q0 59 21.5 104.5t60 70.5t87.5 25q72 0 118 -49l8 36h83zM282 157q18 21 18 63v124
q0 41 -18.5 62.5t-51.5 21.5q-69 0 -69 -86v-122q0 -84 69 -84q34 0 52 21zM227 809h74l-17 -207h-113z" />
    <glyph glyph-name="gdotaccent" unicode="&#x121;" horiz-adv-x="474" 
d="M420 529v-551q0 -78 -48.5 -125t-133.5 -47q-83 0 -131 46.5t-50 124.5h116q3 -29 19.5 -45t45.5 -16t45.5 16.5t16.5 45.5v73q-40 -27 -89 -27t-87.5 25t-60 69.5t-21.5 101.5v122q0 59 21.5 104.5t60 70.5t87.5 25q72 0 118 -49l8 36h83zM282 157q18 21 18 63v124
q0 41 -18.5 62.5t-51.5 21.5q-69 0 -69 -86v-122q0 -84 69 -84q34 0 52 21zM183 630.5q-19 19.5 -19 49.5t19 49.5t49 19.5q29 0 49 -19.5t20 -49.5q0 -28 -20 -48.5t-49 -20.5q-30 0 -49 19.5z" />
    <glyph glyph-name="h" unicode="h" horiz-adv-x="473" 
d="M385.5 486.5q38.5 -55.5 38.5 -163.5v-323h-118v322q0 57 -15 82t-47 25q-34 0 -53 -25.5t-19 -72.5v-331h-118v724h118v-239q41 57 104 57q71 0 109.5 -55.5z" />
    <glyph glyph-name="hbar" unicode="&#x127;" horiz-adv-x="471" 
d="M384.5 486.5q38.5 -55.5 38.5 -163.5v-323h-119v322q0 57 -15 82t-47 25q-34 0 -53 -25.5t-19 -72.5v-331h-117v602h-64v61h64v62h117v-62h93v-61h-93v-118q19 28 46 43t59 15q71 0 109.5 -55.5z" />
    <glyph glyph-name="i" unicode="i" horiz-adv-x="226" 
d="M54 529h118v-529h-118v529zM64 630.5q-19 19.5 -19 49.5t19 49.5t49 19.5q29 0 49 -19.5t20 -49.5q0 -28 -20 -48.5t-49 -20.5q-30 0 -49 19.5z" />
    <glyph glyph-name="dotlessi" unicode="&#x131;" horiz-adv-x="226" 
d="M54 529h118v-529h-118v529z" />
    <glyph glyph-name="iacute" unicode="&#xed;" horiz-adv-x="226" 
d="M54 529h118v-529h-118v529zM125 741h103l-92 -132h-85z" />
    <glyph glyph-name="icircumflex" unicode="&#xee;" horiz-adv-x="238" 
d="M74 609h-79l79 131h90l79 -131h-80l-44 68zM60 529h118v-529h-118v529z" />
    <glyph glyph-name="idieresis" unicode="&#xef;" horiz-adv-x="250" 
d="M16 634.5q-15 14.5 -15 39.5t15 39.5t39 14.5q25 0 39.5 -14.5t14.5 -39.5t-14.5 -39.5t-39.5 -14.5q-24 0 -39 14.5zM156 634.5q-15 14.5 -15 39.5t15 39.5t40 14.5q24 0 38.5 -14.5t14.5 -39.5t-14.5 -39.5t-38.5 -14.5q-25 0 -40 14.5zM65 529h119v-529h-119v529z" />
    <glyph glyph-name="i.loclTRK" horiz-adv-x="226" 
d="M54 529h118v-529h-118v529zM64 630.5q-19 19.5 -19 49.5t19 49.5t49 19.5q29 0 49 -19.5t20 -49.5q0 -28 -20 -48.5t-49 -20.5q-30 0 -49 19.5z" />
    <glyph glyph-name="igrave" unicode="&#xec;" horiz-adv-x="226" 
d="M54 529h118v-529h-118v529zM104 609l-92 132h103l74 -132h-85z" />
    <glyph glyph-name="imacron" unicode="&#x12b;" horiz-adv-x="223" 
d="M16 713h191v-81h-191v81zM52 529h119v-529h-119v529z" />
    <glyph glyph-name="iogonek" unicode="&#x12f;" horiz-adv-x="224" 
d="M60.5 631q-18.5 19 -18.5 47q0 29 18.5 48t47.5 19q28 0 47 -19t19 -48q0 -27 -19.5 -46.5t-46.5 -19.5q-29 0 -47.5 19zM183 -100v-82q-26 -12 -80 -12q-46 0 -71 23.5t-25 61.5q0 59 41 108v529h119v-528h-22q-14 -15 -22.5 -36t-8.5 -36q0 -31 40 -31q20 0 29 3z" />
    <glyph glyph-name="j" unicode="j" horiz-adv-x="254" 
d="M82 629.5q-19 19.5 -19 49.5t19 49.5t49 19.5q29 0 49 -19.5t20 -49.5q0 -28 -20 -48.5t-49 -20.5q-30 0 -49 19.5zM-12 -81q44 1 64.5 22t20.5 64v524h118v-517q0 -98 -52 -151.5t-151 -54.5v113z" />
    <glyph glyph-name="k" unicode="k" horiz-adv-x="449" 
d="M202 226l-31 -33v-193h-117v725h117v-381l122 185h137l-150 -211l174 -318h-133z" />
    <glyph glyph-name="uni0137" unicode="&#x137;" horiz-adv-x="449" 
d="M202 226l-31 -33v-193h-117v725h117v-381l122 185h137l-150 -211l174 -318h-133zM182 -71h103l-48 -202h-71z" />
    <glyph glyph-name="l" unicode="l" horiz-adv-x="216" 
d="M49 725h118v-725h-118v725z" />
    <glyph glyph-name="lacute" unicode="&#x13a;" horiz-adv-x="216" 
d="M49 725h118v-725h-118v725zM139 899h103l-111 -132h-86z" />
    <glyph glyph-name="lcaron" unicode="&#x13e;" horiz-adv-x="311" 
d="M233 776h102l-47 -195h-70zM49 725h118v-725h-118v725z" />
    <glyph glyph-name="uni013C" unicode="&#x13c;" horiz-adv-x="222" 
d="M50 725h118v-725h-118v725zM69 -71h103l-48 -202h-71z" />
    <glyph glyph-name="lslash" unicode="&#x142;" horiz-adv-x="271" 
d="M260 401l-66 -22v-379h-117v340l-66 -22v92l66 22v292h117v-253l66 22v-92z" />
    <glyph glyph-name="m" unicode="m" horiz-adv-x="712" 
d="M624 487.5q39 -54.5 39 -160.5v-327h-117v326q0 55 -14.5 79t-44.5 24q-32 0 -51 -25.5t-19 -72.5v-331h-117v326q0 55 -15 79t-45 24q-32 0 -50.5 -25.5t-18.5 -72.5v-331h-117v529h79l10 -56q20 33 51.5 51t73.5 18q40 0 70.5 -18t49.5 -53q42 71 127 71
q70 0 109 -54.5z" />
    <glyph glyph-name="n" unicode="n" horiz-adv-x="473" 
d="M384.5 488q39.5 -54 39.5 -160v-328h-118v325q0 55 -15.5 79.5t-46.5 24.5q-34 0 -53 -25.5t-19 -72.5v-331h-118v529h80l10 -57q42 70 128 70q73 0 112.5 -54z" />
    <glyph glyph-name="nacute" unicode="&#x144;" horiz-adv-x="473" 
d="M384.5 488q39.5 -54 39.5 -160v-328h-118v325q0 55 -15.5 79.5t-46.5 24.5q-34 0 -53 -25.5t-19 -72.5v-331h-118v529h80l10 -57q42 70 128 70q73 0 112.5 -54zM248 740h103l-92 -132h-85z" />
    <glyph glyph-name="ncaron" unicode="&#x148;" horiz-adv-x="473" 
d="M384.5 488q39.5 -54 39.5 -160v-328h-118v325q0 55 -15.5 79.5t-46.5 24.5q-34 0 -53 -25.5t-19 -72.5v-331h-118v529h80l10 -57q42 70 128 70q73 0 112.5 -54zM364 740l-81 -132h-94l-81 132h82l47 -69l46 69h81z" />
    <glyph glyph-name="uni0146" unicode="&#x146;" horiz-adv-x="473" 
d="M384.5 488q39.5 -54 39.5 -160v-328h-118v325q0 55 -15.5 79.5t-46.5 24.5q-34 0 -53 -25.5t-19 -72.5v-331h-118v529h80l10 -57q42 70 128 70q73 0 112.5 -54zM172 -71h103l-48 -202h-71z" />
    <glyph glyph-name="eng" unicode="&#x14b;" horiz-adv-x="473" 
d="M229 -84q77 2 77 81v328q0 55 -15.5 79.5t-46.5 24.5q-34 0 -53 -25.5t-19 -72.5v-331h-118v529h80l10 -57q20 34 53 52t75 18q73 0 112.5 -54t39.5 -160v-324q0 -95 -51 -147.5t-144 -53.5v113z" />
    <glyph glyph-name="ntilde" unicode="&#xf1;" horiz-adv-x="473" 
d="M384.5 488q39.5 -54 39.5 -160v-328h-118v325q0 55 -15.5 79.5t-46.5 24.5q-34 0 -53 -25.5t-19 -72.5v-331h-118v529h80l10 -57q42 70 128 70q73 0 112.5 -54zM256.5 617.5q-10.5 4.5 -24.5 12.5q-15 12 -28 12q-9 0 -16.5 -7t-8.5 -19h-72q3 48 26.5 73.5t59.5 25.5
q16 0 27 -4.5t24 -13.5q17 -11 27 -11t17 7.5t9 18.5h71q-3 -46 -26 -72.5t-60 -26.5q-15 0 -25.5 4.5z" />
    <glyph glyph-name="o" unicode="o" horiz-adv-x="467" 
d="M92.5 41q-50.5 54 -50.5 152v143q0 98 50.5 152t140.5 54q91 0 141.5 -54t50.5 -152v-143q0 -98 -50.5 -152t-141.5 -54q-90 0 -140.5 54zM305 193v143q0 91 -72 91q-71 0 -71 -91v-143q0 -91 71 -91q72 0 72 91z" />
    <glyph glyph-name="oacute" unicode="&#xf3;" horiz-adv-x="467" 
d="M92.5 41q-50.5 54 -50.5 152v143q0 98 50.5 152t140.5 54q91 0 141.5 -54t50.5 -152v-143q0 -98 -50.5 -152t-141.5 -54q-90 0 -140.5 54zM305 193v143q0 91 -72 91q-71 0 -71 -91v-143q0 -91 71 -91q72 0 72 91zM244 741h103l-92 -132h-85z" />
    <glyph glyph-name="ocircumflex" unicode="&#xf4;" horiz-adv-x="467" 
d="M92.5 41q-50.5 54 -50.5 152v143q0 98 50.5 152t140.5 54q91 0 141.5 -54t50.5 -152v-143q0 -98 -50.5 -152t-141.5 -54q-90 0 -140.5 54zM305 193v143q0 91 -72 91q-71 0 -71 -91v-143q0 -91 71 -91q72 0 72 91zM280 609l-46 68l-47 -68h-82l81 131h94l81 -131h-81z" />
    <glyph glyph-name="odieresis" unicode="&#xf6;" horiz-adv-x="467" 
d="M92.5 41q-50.5 54 -50.5 152v143q0 98 50.5 152t140.5 54q91 0 141.5 -54t50.5 -152v-143q0 -98 -50.5 -152t-141.5 -54q-90 0 -140.5 54zM305 193v143q0 91 -72 91q-71 0 -71 -91v-143q0 -91 71 -91q72 0 72 91zM117 633.5q-15 15.5 -15 40.5t15 40t41 15t41 -15t15 -40
t-15.5 -40.5t-40.5 -15.5q-26 0 -41 15.5zM268.5 633.5q-15.5 15.5 -15.5 40.5t15.5 40t41.5 15q25 0 40.5 -15t15.5 -40t-15.5 -40.5t-40.5 -15.5q-26 0 -41.5 15.5z" />
    <glyph glyph-name="ograve" unicode="&#xf2;" horiz-adv-x="467" 
d="M92.5 41q-50.5 54 -50.5 152v143q0 98 50.5 152t140.5 54q91 0 141.5 -54t50.5 -152v-143q0 -98 -50.5 -152t-141.5 -54q-90 0 -140.5 54zM305 193v143q0 91 -72 91q-71 0 -71 -91v-143q0 -91 71 -91q72 0 72 91zM224 609l-92 132h103l74 -132h-85z" />
    <glyph glyph-name="ohungarumlaut" unicode="&#x151;" horiz-adv-x="467" 
d="M92.5 41q-50.5 54 -50.5 152v143q0 98 50.5 152t140.5 54q91 0 141.5 -54t50.5 -152v-143q0 -98 -50.5 -152t-141.5 -54q-90 0 -140.5 54zM305 193v143q0 91 -72 91q-71 0 -71 -91v-143q0 -91 71 -91q72 0 72 91zM177 741h94l-91 -132h-78zM319 741h94l-96 -132h-78z" />
    <glyph glyph-name="omacron" unicode="&#x14d;" horiz-adv-x="467" 
d="M92.5 41q-50.5 54 -50.5 152v143q0 98 50.5 152t140.5 54q91 0 141.5 -54t50.5 -152v-143q0 -98 -50.5 -152t-141.5 -54q-90 0 -140.5 54zM305 193v143q0 91 -72 91q-71 0 -71 -91v-143q0 -91 71 -91q72 0 72 91zM127 712h211v-78h-211v78z" />
    <glyph glyph-name="oslash" unicode="&#xf8;" horiz-adv-x="467" 
d="M425 336v-142q0 -98 -50.5 -152t-141.5 -54q-32 0 -62 8l-26 -67h-79l39 101q-63 54 -63 164v142q0 98 50.5 152t140.5 54q36 0 66 -9l27 70h80l-41 -105q60 -54 60 -162zM305 336q0 91 -72 91q-71 0 -71 -91v-142q0 -91 71 -91q72 0 72 91v142z" />
    <glyph glyph-name="otilde" unicode="&#xf5;" horiz-adv-x="467" 
d="M92.5 41q-50.5 54 -50.5 152v143q0 98 50.5 152t140.5 54q91 0 141.5 -54t50.5 -152v-143q0 -98 -50.5 -152t-141.5 -54q-90 0 -140.5 54zM305 193v143q0 91 -72 91q-71 0 -71 -91v-143q0 -91 71 -91q72 0 72 91zM252.5 618.5q-10.5 4.5 -24.5 12.5q-15 12 -28 12
q-9 0 -16.5 -7t-8.5 -19h-72q3 48 26.5 73.5t59.5 25.5q16 0 27 -4.5t24 -13.5q17 -11 27 -11t17 7.5t9 18.5h71q-3 -46 -26 -72.5t-60 -26.5q-15 0 -25.5 4.5z" />
    <glyph glyph-name="oe" unicode="&#x153;" horiz-adv-x="717" 
d="M682 169q-7 -86 -58 -133.5t-136 -47.5q-39 0 -71.5 15t-54.5 43q-48 -58 -130 -58q-90 0 -140 54t-50 152v141q0 99 50 152t140 53q82 0 130 -56q45 56 126 56q89 0 138.5 -52.5t49.5 -147.5v-116h-255v-32q0 -91 68 -91q35 0 52 16t22 52h119zM421 307h139v34
q0 90 -71 90q-68 0 -68 -90v-34zM304 335q0 91 -72 91q-35 0 -53 -22t-18 -69v-141q0 -91 71 -91q72 0 72 91v141z" />
    <glyph glyph-name="p" unicode="p" horiz-adv-x="470" 
d="M382.5 485q46.5 -56 46.5 -151v-141q0 -95 -46.5 -150.5t-123.5 -55.5q-52 0 -90 35v-202h-115v710h82l7 -49q20 26 51.5 43t64.5 17q77 0 123.5 -56zM309 334q0 47 -17.5 71t-50.5 24q-34 0 -53 -24.5t-19 -70.5v-141q0 -45 19 -69.5t53 -24.5q68 0 68 94v141z" />
    <glyph glyph-name="thorn" unicode="&#xfe;" horiz-adv-x="469" 
d="M382 496.5q46 -55.5 46 -150.5v-149q0 -94 -46 -149.5t-123 -55.5q-50 0 -90 35v-207h-115v904h115v-207q40 35 90 35q77 0 123 -55.5zM307 346q0 94 -66 94q-34 0 -53 -24.5t-19 -69.5v-149q0 -44 19 -68.5t53 -24.5q66 0 66 93v149z" />
    <glyph glyph-name="q" unicode="q" horiz-adv-x="470" 
d="M417 530v-710h-116v201q-18 -16 -42 -25t-48 -9q-77 0 -123 55.5t-46 150.5v141q0 95 46.5 151t122.5 56q33 0 65 -17t52 -43l6 49h83zM282.5 123.5q18.5 24.5 18.5 69.5v141q0 47 -18.5 71t-52.5 24q-33 0 -50.5 -24t-17.5 -71v-141q0 -94 68 -94q34 0 52.5 24.5z" />
    <glyph glyph-name="r" unicode="r" horiz-adv-x="345" 
d="M336 531v-114q-31 13 -65 13q-47 0 -73 -29.5t-26 -86.5v-314h-118v529h80l11 -63q43 75 134 75q36 0 57 -10z" />
    <glyph glyph-name="racute" unicode="&#x155;" horiz-adv-x="345" 
d="M336 531v-114q-31 13 -65 13q-47 0 -73 -29.5t-26 -86.5v-314h-118v529h80l11 -63q43 75 134 75q36 0 57 -10zM198 741h103l-92 -132h-85z" />
    <glyph glyph-name="rcaron" unicode="&#x159;" horiz-adv-x="345" 
d="M336 531v-114q-31 13 -65 13q-47 0 -73 -29.5t-26 -86.5v-314h-118v529h80l11 -63q43 75 134 75q36 0 57 -10zM314 741l-81 -132h-94l-81 132h82l47 -69l46 69h81z" />
    <glyph glyph-name="uni0157" unicode="&#x157;" horiz-adv-x="345" 
d="M336 531v-114q-31 13 -65 13q-47 0 -73 -29.5t-26 -86.5v-314h-118v529h80l11 -63q43 75 134 75q36 0 57 -10zM80 -71h103l-48 -202h-71z" />
    <glyph glyph-name="s" unicode="s" horiz-adv-x="425" 
d="M112.5 10.5q-44.5 24.5 -67.5 65.5t-24 90h118q1 -31 19.5 -51.5t57.5 -20.5q32 0 50 14.5t18 38.5q0 26 -23.5 42t-73.5 35q-50 20 -81 37.5t-53.5 49.5t-22.5 80q0 70 48 110.5t129 40.5q86 0 131 -47t50 -126h-114q-3 68 -67 68q-28 0 -44 -13t-16 -34
q0 -23 21.5 -36.5t68.5 -30.5q51 -19 84 -37t57 -52t24 -87q0 -73 -49 -117t-134 -44q-62 0 -106.5 24.5z" />
    <glyph glyph-name="sacute" unicode="&#x15b;" horiz-adv-x="425" 
d="M112.5 10.5q-44.5 24.5 -67.5 65.5t-24 90h118q1 -31 19.5 -51.5t57.5 -20.5q32 0 50 14.5t18 38.5q0 26 -23.5 42t-73.5 35q-50 20 -81 37.5t-53.5 49.5t-22.5 80q0 70 48 110.5t129 40.5q86 0 131 -47t50 -126h-114q-3 68 -67 68q-28 0 -44 -13t-16 -34
q0 -23 21.5 -36.5t68.5 -30.5q51 -19 84 -37t57 -52t24 -87q0 -73 -49 -117t-134 -44q-62 0 -106.5 24.5zM225 743h103l-92 -132h-85z" />
    <glyph glyph-name="scaron" unicode="&#x161;" horiz-adv-x="425" 
d="M112.5 10.5q-44.5 24.5 -67.5 65.5t-24 90h118q1 -31 19.5 -51.5t57.5 -20.5q32 0 50 14.5t18 38.5q0 26 -23.5 42t-73.5 35q-50 20 -81 37.5t-53.5 49.5t-22.5 80q0 70 48 110.5t129 40.5q86 0 131 -47t50 -126h-114q-3 68 -67 68q-28 0 -44 -13t-16 -34
q0 -23 21.5 -36.5t68.5 -30.5q51 -19 84 -37t57 -52t24 -87q0 -73 -49 -117t-134 -44q-62 0 -106.5 24.5zM342 743l-81 -132h-94l-81 132h82l47 -69l46 69h81z" />
    <glyph glyph-name="scedilla" unicode="&#x15f;" horiz-adv-x="425" 
d="M360.5 37q-41.5 -43 -115.5 -50l-10 -35q2 1 10 1q32 0 52.5 -19t20.5 -50q0 -40 -29 -63.5t-77 -23.5q-41 0 -71 23t-34 60h66q11 -24 40 -24q17 0 26.5 8.5t9.5 21.5q0 27 -35 27q-18 0 -32 -6l-20 19l18 63q-75 11 -116 60t-43 117h118q1 -31 19.5 -51.5t57.5 -20.5
q32 0 50 14.5t18 38.5q0 26 -23.5 42t-73.5 35q-50 20 -81 37.5t-53.5 49.5t-22.5 80q0 70 48 110.5t129 40.5q86 0 131 -47t50 -126h-114q-3 68 -67 68q-28 0 -44 -13t-16 -34q0 -23 21.5 -36.5t68.5 -30.5q51 -19 84 -37t57 -52t24 -87q0 -67 -41.5 -110z" />
    <glyph glyph-name="uni0219" unicode="&#x219;" horiz-adv-x="425" 
d="M112.5 10.5q-44.5 24.5 -67.5 65.5t-24 90h118q1 -31 19.5 -51.5t57.5 -20.5q32 0 50 14.5t18 38.5q0 26 -23.5 42t-73.5 35q-50 20 -81 37.5t-53.5 49.5t-22.5 80q0 70 48 110.5t129 40.5q86 0 131 -47t50 -126h-114q-3 68 -67 68q-28 0 -44 -13t-16 -34
q0 -23 21.5 -36.5t68.5 -30.5q51 -19 84 -37t57 -52t24 -87q0 -73 -49 -117t-134 -44q-62 0 -106.5 24.5zM172 -71h103l-48 -202h-71z" />
    <glyph glyph-name="germandbls" unicode="&#xdf;" horiz-adv-x="489" 
d="M441 297q24 -42 24 -90q0 -62 -26 -109t-72 -72.5t-106 -25.5h-37v117h18q97 0 97 90q0 48 -24 72t-70 24h-21v113h16q81 0 81 89q0 45 -18.5 69t-53.5 24t-54 -24.5t-19 -70.5v-503h-122v503q0 96 53 153.5t143 57.5q89 0 142 -58t53 -152q0 -43 -18.5 -80t-50.5 -60
q41 -25 65 -67z" />
    <glyph glyph-name="t" unicode="t" horiz-adv-x="326" 
d="M298 104v-111h-40q-82 0 -129.5 49.5t-47.5 135.5v244h-71v107h71v126h117v-126h92v-107h-92v-245q0 -38 16.5 -55.5t50.5 -17.5h33z" />
    <glyph glyph-name="tbar" unicode="&#x167;" horiz-adv-x="326" 
d="M298 104v-111h-40q-82 0 -129.5 49.5t-47.5 135.5v64h-54v76h54v104h-71v107h71v126h117v-126h92v-107h-92v-104h66v-76h-66v-65q0 -38 16.5 -55.5t50.5 -17.5h33z" />
    <glyph glyph-name="tcaron" unicode="&#x165;" horiz-adv-x="400" 
d="M372 775l-46 -183h-72l19 183h99zM214.5 121.5q16.5 -17.5 50.5 -17.5h33v-111h-40q-82 0 -129.5 49.5t-47.5 135.5v244h-71v107h71v126h117v-126h92v-107h-92v-245q0 -38 16.5 -55.5z" />
    <glyph glyph-name="uni0163" unicode="&#x163;" horiz-adv-x="326" 
d="M213 -3l-14 -45q2 1 10 1q32 0 52.5 -20.5t20.5 -53.5q0 -41 -29 -66t-76 -25q-42 0 -72 24t-34 63h66q13 -27 40 -27q17 0 26.5 9.5t9.5 24.5q0 14 -8.5 22t-25.5 8q-21 0 -34 -8l-20 19l31 97q-36 23 -55.5 63.5t-19.5 94.5v244h-71v107h71v126h117v-126h92v-107h-92
v-245q0 -38 16.5 -55.5t50.5 -17.5h33v-111h-40q-26 0 -45 4z" />
    <glyph glyph-name="uni021B" unicode="&#x21b;" horiz-adv-x="326" 
d="M298 104v-111h-40q-82 0 -129.5 49.5t-47.5 135.5v244h-71v107h71v126h117v-126h92v-107h-92v-245q0 -38 16.5 -55.5t50.5 -17.5h33zM135 -71h103l-48 -202h-71z" />
    <glyph glyph-name="u" unicode="u" horiz-adv-x="473" 
d="M419 529v-529h-80l-10 57q-42 -70 -128 -70q-73 0 -112.5 54t-39.5 160v328h118v-325q0 -55 15.5 -79.5t46.5 -24.5q34 0 53 25.5t19 72.5v331h118z" />
    <glyph glyph-name="uacute" unicode="&#xfa;" horiz-adv-x="473" 
d="M419 529v-529h-80l-10 57q-42 -70 -128 -70q-73 0 -112.5 54t-39.5 160v328h118v-325q0 -55 15.5 -79.5t46.5 -24.5q34 0 53 25.5t19 72.5v331h118zM244 740h103l-92 -132h-85z" />
    <glyph glyph-name="ucircumflex" unicode="&#xfb;" horiz-adv-x="473" 
d="M419 529v-529h-80l-10 57q-42 -70 -128 -70q-73 0 -112.5 54t-39.5 160v328h118v-325q0 -55 15.5 -79.5t46.5 -24.5q34 0 53 25.5t19 72.5v331h118zM279 608l-46 68l-47 -68h-82l81 131h94l81 -131h-81z" />
    <glyph glyph-name="udieresis" unicode="&#xfc;" horiz-adv-x="473" 
d="M419 529v-529h-80l-10 57q-42 -70 -128 -70q-73 0 -112.5 54t-39.5 160v328h118v-325q0 -55 15.5 -79.5t46.5 -24.5q34 0 53 25.5t19 72.5v331h118zM116 632.5q-15 15.5 -15 40.5t15 40t41 15t41 -15t15 -40t-15.5 -40.5t-40.5 -15.5q-26 0 -41 15.5zM267.5 632.5
q-15.5 15.5 -15.5 40.5t15.5 40t41.5 15q25 0 40.5 -15t15.5 -40t-15.5 -40.5t-40.5 -15.5q-26 0 -41.5 15.5z" />
    <glyph glyph-name="ugrave" unicode="&#xf9;" horiz-adv-x="473" 
d="M419 529v-529h-80l-10 57q-42 -70 -128 -70q-73 0 -112.5 54t-39.5 160v328h118v-325q0 -55 15.5 -79.5t46.5 -24.5q34 0 53 25.5t19 72.5v331h118zM223 608l-92 132h103l74 -132h-85z" />
    <glyph glyph-name="uhungarumlaut" unicode="&#x171;" horiz-adv-x="473" 
d="M419 529v-529h-80l-10 57q-42 -70 -128 -70q-73 0 -112.5 54t-39.5 160v328h118v-325q0 -55 15.5 -79.5t46.5 -24.5q34 0 53 25.5t19 72.5v331h118zM177 740h94l-91 -132h-78zM319 740h94l-96 -132h-78z" />
    <glyph glyph-name="umacron" unicode="&#x16b;" horiz-adv-x="473" 
d="M419 529v-529h-80l-10 57q-42 -70 -128 -70q-73 0 -112.5 54t-39.5 160v328h118v-325q0 -55 15.5 -79.5t46.5 -24.5q34 0 53 25.5t19 72.5v331h118zM127 711h211v-78h-211v78z" />
    <glyph glyph-name="uogonek" unicode="&#x173;" horiz-adv-x="473" 
d="M374.5 -38.5q-16.5 -21.5 -16.5 -39.5q0 -25 33 -25q14 0 28 3v-82q-16 -7 -33 -9.5t-40 -2.5q-41 0 -64.5 23.5t-23.5 60.5q0 62 81 110l-10 57q-42 -70 -128 -70q-73 0 -112.5 54t-39.5 160v328h118v-326q0 -55 15 -79t47 -24q34 0 53 25.5t19 72.5v331h118v-529
q-28 -17 -44.5 -38.5z" />
    <glyph glyph-name="uring" unicode="&#x16f;" horiz-adv-x="473" 
d="M419 529v-529h-80l-10 57q-42 -70 -128 -70q-73 0 -112.5 54t-39.5 160v328h118v-325q0 -55 15.5 -79.5t46.5 -24.5q34 0 53 25.5t19 72.5v331h118zM170.5 628.5q-23.5 23.5 -23.5 61.5q0 37 23.5 60t62.5 23t63 -23t24 -60q0 -38 -24 -61.5t-63 -23.5t-62.5 23.5z
M257 665q9 9 9 24t-9 24t-24 9q-14 0 -23 -9t-9 -24t9 -24t23 -9q15 0 24 9z" />
    <glyph glyph-name="v" unicode="v" horiz-adv-x="422" 
d="M2 529h125l44 -199q21 -93 37 -191h6q2 7 3 14.5t2 13.5q4 22 14 74.5t18 88.5l44 199h125l-143 -529h-132z" />
    <glyph glyph-name="w" unicode="w" horiz-adv-x="652" 
d="M650 529l-123 -529h-127l-35 152q-13 58 -23 119t-13 105h-5q-8 -97 -36 -224l-35 -152h-128l-123 529h122l37 -209q23 -141 28 -190h5q7 57 30 185l40 204h125l39 -204q23 -128 30 -185h5q5 49 28 190l37 209h122z" />
    <glyph glyph-name="wacute" unicode="&#x1e83;" horiz-adv-x="652" 
d="M650 529l-123 -529h-127l-35 152q-13 58 -23 119t-13 105h-5q-8 -97 -36 -224l-35 -152h-128l-123 529h122l37 -209q23 -141 28 -190h5q7 57 30 185l40 204h125l39 -204q23 -128 30 -185h5q5 49 28 190l37 209h122zM334 740h103l-92 -132h-85z" />
    <glyph glyph-name="wcircumflex" unicode="&#x175;" horiz-adv-x="652" 
d="M650 529l-123 -529h-127l-35 152q-13 58 -23 119t-13 105h-5q-8 -97 -36 -224l-35 -152h-128l-123 529h122l37 -209q23 -141 28 -190h5q7 57 30 185l40 204h125l39 -204q23 -128 30 -185h5q5 49 28 190l37 209h122zM369 608l-46 68l-47 -68h-82l81 131h94l81 -131h-81z
" />
    <glyph glyph-name="wdieresis" unicode="&#x1e85;" horiz-adv-x="652" 
d="M650 529l-123 -529h-127l-35 152q-13 58 -23 119t-13 105h-5q-8 -97 -36 -224l-35 -152h-128l-123 529h122l37 -209q23 -141 28 -190h5q7 57 30 185l40 204h125l39 -204q23 -128 30 -185h5q5 49 28 190l37 209h122zM206 632.5q-15 15.5 -15 40.5t15 40t41 15t41 -15
t15 -40t-15.5 -40.5t-40.5 -15.5q-26 0 -41 15.5zM357.5 632.5q-15.5 15.5 -15.5 40.5t15.5 40t41.5 15q25 0 40.5 -15t15.5 -40t-15.5 -40.5t-40.5 -15.5q-26 0 -41.5 15.5z" />
    <glyph glyph-name="wgrave" unicode="&#x1e81;" horiz-adv-x="652" 
d="M650 529l-123 -529h-127l-35 152q-13 58 -23 119t-13 105h-5q-8 -97 -36 -224l-35 -152h-128l-123 529h122l37 -209q23 -141 28 -190h5q7 57 30 185l40 204h125l39 -204q23 -128 30 -185h5q5 49 28 190l37 209h122zM314 608l-92 132h103l74 -132h-85z" />
    <glyph glyph-name="x" unicode="x" horiz-adv-x="423" 
d="M294 0l-83 169l-82 -169h-133l142 266l-129 263h129l73 -162l73 162h130l-127 -263l140 -266h-133z" />
    <glyph glyph-name="y" unicode="y" horiz-adv-x="432" 
d="M430 529l-166 -556q-24 -77 -59.5 -119.5t-95.5 -42.5h-61v114h37q28 0 44.5 17t26.5 52l16 55l-170 480h125l58 -179l37 -125l36 124l53 180h119z" />
    <glyph glyph-name="yacute" unicode="&#xfd;" horiz-adv-x="432" 
d="M430 529l-166 -556q-24 -77 -59.5 -119.5t-95.5 -42.5h-61v114h37q28 0 44.5 17t26.5 52l16 55l-170 480h125l58 -179l37 -125l36 124l53 180h119zM231 743h103l-92 -132h-85z" />
    <glyph glyph-name="ycircumflex" unicode="&#x177;" horiz-adv-x="432" 
d="M430 529l-166 -556q-24 -77 -59.5 -119.5t-95.5 -42.5h-61v114h37q28 0 44.5 17t26.5 52l16 55l-170 480h125l58 -179l37 -125l36 124l53 180h119zM267 611l-46 68l-47 -68h-82l81 131h94l81 -131h-81z" />
    <glyph glyph-name="ydieresis" unicode="&#xff;" horiz-adv-x="432" 
d="M430 529l-166 -556q-24 -77 -59.5 -119.5t-95.5 -42.5h-61v114h37q28 0 44.5 17t26.5 52l16 55l-170 480h125l58 -179l37 -125l36 124l53 180h119zM104 635.5q-15 15.5 -15 40.5t15 40t41 15t41 -15t15 -40t-15.5 -40.5t-40.5 -15.5q-26 0 -41 15.5zM255.5 635.5
q-15.5 15.5 -15.5 40.5t15.5 40t41.5 15q25 0 40.5 -15t15.5 -40t-15.5 -40.5t-40.5 -15.5q-26 0 -41.5 15.5z" />
    <glyph glyph-name="ygrave" unicode="&#x1ef3;" horiz-adv-x="432" 
d="M430 529l-166 -556q-24 -77 -59.5 -119.5t-95.5 -42.5h-61v114h37q28 0 44.5 17t26.5 52l16 55l-170 480h125l58 -179l37 -125l36 124l53 180h119zM211 611l-92 132h103l74 -132h-85z" />
    <glyph glyph-name="z" unicode="z" horiz-adv-x="371" 
d="M6 75l192 345h-173v109h322v-75l-189 -346h199v-108h-351v75z" />
    <glyph glyph-name="zacute" unicode="&#x17a;" horiz-adv-x="371" 
d="M6 75l192 345h-173v109h322v-75l-189 -346h199v-108h-351v75zM192 741h103l-92 -132h-85z" />
    <glyph glyph-name="zcaron" unicode="&#x17e;" horiz-adv-x="371" 
d="M6 75l192 345h-173v109h322v-75l-189 -346h199v-108h-351v75zM308 741l-81 -132h-94l-81 132h82l47 -69l46 69h81z" />
    <glyph glyph-name="zdotaccent" unicode="&#x17c;" horiz-adv-x="371" 
d="M6 75l192 345h-173v109h322v-75l-189 -346h199v-108h-351v75zM131 630.5q-19 19.5 -19 49.5t19 49.5t49 19.5q29 0 49 -19.5t20 -49.5q0 -28 -20 -48.5t-49 -20.5q-30 0 -49 19.5z" />
    <glyph glyph-name="uni0410" unicode="&#x410;" horiz-adv-x="485" 
d="M325 127h-164l-28 -127h-128l172 700h132l172 -700h-128zM300 244l-28 130q-8 40 -28 172h-3q-14 -109 -27 -172l-28 -130h114z" />
    <glyph glyph-name="uni0411" unicode="&#x411;" horiz-adv-x="510" 
d="M66 700h377v-115h-254v-156h78q104 0 159.5 -58t55.5 -156q0 -215 -215 -215h-201v700zM258 117q46 0 71.5 24t25.5 74q0 49 -25.5 74t-71.5 25h-69v-197h69z" />
    <glyph glyph-name="uni0412" unicode="&#x412;" horiz-adv-x="513" 
d="M457.5 297q23.5 -41 23.5 -92q0 -62 -25.5 -108.5t-72 -71.5t-106.5 -25h-211v700h205q83 0 134 -53.5t51 -141.5q0 -45 -17 -84t-47 -62q42 -21 65.5 -62zM189 584v-172h67q37 0 56 22.5t19 65.5q0 84 -79 84h-63zM355 205q0 45 -25.5 68.5t-72.5 23.5h-68v-181h69
q97 0 97 89z" />
    <glyph glyph-name="uni0413" unicode="&#x413;" horiz-adv-x="426" 
d="M410 583h-221v-583h-123v700h344v-117z" />
    <glyph glyph-name="uni0403" unicode="&#x403;" horiz-adv-x="426" 
d="M410 583h-221v-583h-123v700h344v-117zM261 899h103l-111 -132h-86z" />
    <glyph glyph-name="uni0490" unicode="&#x490;" horiz-adv-x="426" 
d="M410 823v-240h-221v-583h-123v700h243v123h101z" />
    <glyph glyph-name="uni0414" unicode="&#x414;" horiz-adv-x="579" 
d="M564 115v-233h-121v118h-317v-118h-121v233h43q73 79 81 272l12 313h360v-585h63zM379 584h-123l-9 -232q-5 -147 -55 -237h187v469z" />
    <glyph glyph-name="uni0415" unicode="&#x415;" horiz-adv-x="465" 
d="M428 116v-116h-362v700h352v-116h-229v-173h210v-112h-210v-183h239z" />
    <glyph glyph-name="uni0401" unicode="&#x401;" horiz-adv-x="465" 
d="M428 116v-116h-362v700h352v-116h-229v-173h210v-112h-210v-183h239zM134 793.5q-15 15.5 -15 40.5q0 26 15 41t41 15q25 0 40 -15.5t15 -40.5t-15 -40.5t-40 -15.5q-26 0 -41 15.5zM288 793.5q-15 15.5 -15 40.5q0 26 15 41t41 15q25 0 40.5 -15t15.5 -41
q0 -25 -15.5 -40.5t-40.5 -15.5q-26 0 -41 15.5z" />
    <glyph glyph-name="uni0416" unicode="&#x416;" horiz-adv-x="742" 
d="M465 279l-34 -53v-226h-120v227l-34 53l-140 -280h-137l212 384l-194 316h140l112 -202l41 -84v286h120v-287l43 87l111 200h139l-194 -317l212 -383h-136z" />
    <glyph glyph-name="uni0417" unicode="&#x417;" horiz-adv-x="489" 
d="M440 303.5q27 -42.5 27 -105.5q0 -64 -29.5 -112.5t-81 -74t-115.5 -25.5q-69 0 -119.5 30t-78 80.5t-30.5 110.5h124q2 -42 28 -72t75 -30q44 0 72.5 26.5t28.5 73.5q0 49 -29 75t-81 26h-50v107h41q51 0 75.5 24t24.5 73q0 40 -21 63.5t-60 23.5q-89 0 -94 -105h-122
q6 101 61.5 162t154.5 61q93 0 149 -55.5t56 -148.5q0 -54 -22.5 -90t-73.5 -57q63 -18 90 -60.5z" />
    <glyph glyph-name="uni0418" unicode="&#x418;" horiz-adv-x="563" 
d="M66 700h120v-229q0 -45 -4 -115t-11 -125l3 -2l11 30q20 53 40 99l149 342h123v-700h-120v218q0 52 3.5 126.5t9.5 127.5l-3 3l-15 -42q-31 -83 -43 -110l-141 -323h-122v700z" />
    <glyph glyph-name="uni0419" unicode="&#x419;" horiz-adv-x="563" 
d="M66 700h120v-229q0 -45 -4 -115t-11 -125l3 -2l11 30q20 53 40 99l149 342h123v-700h-120v218q0 52 3.5 126.5t9.5 127.5l-3 3l-15 -42q-31 -83 -43 -110l-141 -323h-122v700zM197 801.5q-35 32.5 -37 89.5h79q1 -22 13.5 -34.5t32.5 -12.5q19 0 32 12.5t14 34.5h78
q-2 -58 -36 -90t-87 -32q-54 0 -89 32.5z" />
    <glyph glyph-name="uni040D" unicode="&#x40d;" horiz-adv-x="563" 
d="M66 700h120v-229q0 -45 -4 -115t-11 -125l3 -2l11 30q20 53 40 99l149 342h123v-700h-120v218q0 52 3.5 126.5t9.5 127.5l-3 3l-15 -42q-31 -83 -43 -110l-141 -323h-122v700zM263 767l-111 132h103l93 -132h-85z" />
    <glyph glyph-name="uni041A" unicode="&#x41a;" horiz-adv-x="517" 
d="M230 285l-43 -67v-218h-121v700h121v-287l41 82l117 205h142l-188 -305l218 -395h-140z" />
    <glyph glyph-name="uni040C" unicode="&#x40c;" horiz-adv-x="517" 
d="M230 285l-43 -67v-218h-121v700h121v-287l41 82l117 205h142l-188 -305l218 -395h-140zM255 899h103l-111 -132h-86z" />
    <glyph glyph-name="uni041B" unicode="&#x41b;" horiz-adv-x="549" 
d="M0 100q33 0 51 21.5t28 80.5q9 52 16 161t17 337h371v-700h-123v584h-130q-16 -304 -33 -412q-11 -73 -36.5 -113t-64 -55t-96.5 -15v111z" />
    <glyph glyph-name="uni041C" unicode="&#x41c;" horiz-adv-x="708" 
d="M643 700v-700h-121v219q6 157 10 241l-5 2l-65 -184l-47 -124h-122l-47 124l-65 184l-5 -2q4 -84 10 -241v-219h-120v700h124l114 -274q33 -81 48 -130h4q12 39 49 130l113 274h125z" />
    <glyph glyph-name="uni041D" unicode="&#x41d;" horiz-adv-x="548" 
d="M482 700v-700h-124v295h-169v-295h-123v700h123v-288h169v288h124z" />
    <glyph glyph-name="uni041E" unicode="&#x41e;" horiz-adv-x="533" 
d="M104.5 51q-58.5 63 -58.5 174v250q0 111 58.5 174t162.5 63q103 0 161.5 -63t58.5 -174v-250q0 -111 -58.5 -174t-161.5 -63q-104 0 -162.5 63zM336.5 137.5q23.5 30.5 23.5 87.5v250q0 58 -23.5 88t-69.5 30t-70 -30.5t-24 -87.5v-250q0 -57 24 -87.5t70 -30.5
t69.5 30.5z" />
    <glyph glyph-name="uni041F" unicode="&#x41f;" horiz-adv-x="546" 
d="M481 0h-123v583h-169v-583h-123v700h415v-700z" />
    <glyph glyph-name="uni0420" unicode="&#x420;" horiz-adv-x="514" 
d="M425 638.5q59 -61.5 59 -171.5t-59 -171t-165 -61h-71v-235h-123v700h194q106 0 165 -61.5zM358 467q0 116 -99 116h-70v-232h70q99 0 99 116z" />
    <glyph glyph-name="uni0421" unicode="&#x421;" horiz-adv-x="498" 
d="M101.5 45.5q-55.5 57.5 -55.5 164.5v280q0 108 55.5 166t154.5 58q100 0 155.5 -57.5t60.5 -164.5h-123q-3 54 -26 78.5t-68 24.5q-39 0 -60.5 -26t-21.5 -79v-280q0 -52 21.5 -77.5t61.5 -25.5q46 0 69 24.5t27 76.5h123q-4 -106 -60.5 -163t-158.5 -57
q-99 0 -154.5 57.5z" />
    <glyph glyph-name="uni0422" unicode="&#x422;" horiz-adv-x="440" 
d="M424 583h-141v-583h-126v583h-141v117h408v-117z" />
    <glyph glyph-name="uni0423" unicode="&#x423;" horiz-adv-x="454" 
d="M453 700l-166 -540q-22 -69 -48.5 -105.5t-64.5 -51t-99 -14.5h-26v110h30q41 0 61.5 20t37.5 78l-175 503h130l100 -313l91 313h129z" />
    <glyph glyph-name="uni040E" unicode="&#x40e;" horiz-adv-x="454" 
d="M453 700l-166 -540q-22 -69 -48.5 -105.5t-64.5 -51t-99 -14.5h-26v110h30q41 0 61.5 20t37.5 78l-175 503h130l100 -313l91 313h129zM141 801.5q-35 32.5 -37 89.5h79q1 -22 13.5 -34.5t32.5 -12.5q19 0 32 12.5t14 34.5h78q-2 -58 -36 -90t-87 -32q-54 0 -89 32.5z" />
    <glyph glyph-name="uni0424" unicode="&#x424;" horiz-adv-x="680" 
d="M279 13h-14q-69 0 -124 30.5t-86.5 89t-31.5 139.5v150q0 82 31.5 142t86.5 91.5t124 31.5h14v74h122v-74h14q69 0 124 -31.5t86.5 -91.5t31.5 -142v-150q0 -81 -31.5 -139.5t-86.5 -89t-124 -30.5h-14v-79h-122v79zM279 131v438h-20q-52 0 -82.5 -36t-30.5 -111v-150
q0 -72 30.5 -106.5t82.5 -34.5h20zM420 131q53 0 83.5 34.5t30.5 106.5v150q0 75 -31 111t-83 36h-19v-438h19z" />
    <glyph glyph-name="uni0425" unicode="&#x425;" horiz-adv-x="497" 
d="M348 0l-99 243l-100 -243h-135l166 362l-156 338h134l91 -222l90 222h135l-157 -338l166 -362h-135z" />
    <glyph glyph-name="uni0427" unicode="&#x427;" horiz-adv-x="519" 
d="M454 700v-704h-123v251q-43 -13 -92 -13q-96 0 -150.5 61t-54.5 170v235h123v-241q0 -110 100 -110q38 0 74 12v339h123z" />
    <glyph glyph-name="uni0426" unicode="&#x426;" horiz-adv-x="557" 
d="M422 0h-356v700h123v-583h166v583h124v-583h64v-235h-121v118z" />
    <glyph glyph-name="uni0428" unicode="&#x428;" horiz-adv-x="813" 
d="M66 700h121v-583h159v583h121v-583h159v583h121v-700h-681v700z" />
    <glyph glyph-name="uni0429" unicode="&#x429;" horiz-adv-x="822" 
d="M687 0h-621v700h121v-583h157v583h122v-583h157v583h121v-583h64v-235h-121v118z" />
    <glyph glyph-name="uni040F" unicode="&#x40f;" horiz-adv-x="546" 
d="M213 0h-147v700h123v-583h169v583h123v-700h-147v-118h-121v118z" />
    <glyph glyph-name="uni042C" unicode="&#x42c;" horiz-adv-x="494" 
d="M66 700h123v-272h69q107 0 162 -58.5t55 -157.5q0 -107 -53.5 -159.5t-163.5 -52.5h-192v700zM249 113q98 0 98 99t-98 99h-60v-198h60z" />
    <glyph glyph-name="uni042A" unicode="&#x42a;" horiz-adv-x="572" 
d="M147 588h-134v112h258v-271h65q107 0 162 -58.5t55 -157.5q0 -108 -53 -160.5t-164 -52.5h-189v588zM327 113q100 0 100 100q0 99 -100 99h-56v-199h56z" />
    <glyph glyph-name="uni042B" unicode="&#x42b;" horiz-adv-x="724" 
d="M66 700h126v-272h55q106 0 160.5 -58t54.5 -158q0 -107 -53 -159.5t-162 -52.5h-181v700zM536 700h123v-700h-123v700zM238 113q48 0 72 24t24 75q0 99 -96 99h-46v-198h46z" />
    <glyph glyph-name="uni0409" unicode="&#x409;" horiz-adv-x="770" 
d="M0 102q36 0 55 23t27 81q8 47 14.5 161t15.5 333h369v-272h56q107 0 160.5 -58t53.5 -162q0 -208 -214 -208h-183v584h-126q-15 -308 -31 -412q-13 -73 -37.5 -112.5t-63 -55t-96.5 -15.5v113zM528 113q96 0 96 99t-96 99h-47v-198h47z" />
    <glyph glyph-name="uni040A" unicode="&#x40a;" horiz-adv-x="786" 
d="M66 700h123v-280h167v280h123v-279h71q107 0 162 -57t55 -154q0 -106 -53.5 -158t-163.5 -52h-194v303h-167v-303h-123v700zM541 113q98 0 98 97q0 94 -98 94h-62v-191h62z" />
    <glyph glyph-name="uni0405" unicode="&#x405;" horiz-adv-x="472" 
d="M79.5 42q-56.5 56 -57.5 156h126q1 -46 23.5 -69t63.5 -23t62 21.5t21 56.5q0 37 -28 63.5t-86 62.5q-53 32 -87 59t-57.5 67.5t-23.5 95.5q0 52 24 93.5t68.5 65t105.5 23.5q94 0 147.5 -54t54.5 -148h-126q-1 41 -20.5 62t-55.5 21q-34 0 -53.5 -18t-19.5 -48
q0 -35 27 -59.5t84 -58.5q55 -32 89.5 -58.5t59.5 -69t25 -100.5q0 -56 -25 -100.5t-73 -70.5t-114 -26q-98 0 -154.5 56z" />
    <glyph glyph-name="uni0404" unicode="&#x404;" horiz-adv-x="498" 
d="M475 208q-4 -106 -60.5 -163t-158.5 -57q-99 0 -154.5 57.5t-55.5 164.5v280q0 108 55.5 166t154.5 58q100 0 155.5 -57.5t60.5 -164.5h-123q-3 54 -26 78.5t-68 24.5q-39 0 -60.5 -26t-21.5 -79v-84h160v-102h-160v-94q0 -52 21.5 -77.5t61.5 -25.5q46 0 69 24.5
t27 76.5h123z" />
    <glyph glyph-name="uni042D" unicode="&#x42d;" horiz-adv-x="499" 
d="M396.5 656q55.5 -58 55.5 -166v-280q0 -107 -55.5 -164.5t-154.5 -57.5q-102 0 -158.5 57t-59.5 163h122q5 -53 27.5 -77t68.5 -24q40 0 61.5 25.5t21.5 77.5v94h-159v102h159v84q0 53 -21.5 79t-60.5 26q-45 0 -67.5 -24.5t-26.5 -78.5h-122q4 107 59.5 164.5
t156.5 57.5q98 0 153.5 -58z" />
    <glyph glyph-name="uni0406" unicode="&#x406;" horiz-adv-x="254" 
d="M66 700h123v-700h-123v700z" />
    <glyph glyph-name="uni0407" unicode="&#x407;" horiz-adv-x="254" 
d="M66 700h123v-700h-123v700zM11 793.5q-15 15.5 -15 40.5q0 26 15 41t41 15q25 0 40 -15.5t15 -40.5t-15 -40.5t-40 -15.5q-26 0 -41 15.5zM165 793.5q-15 15.5 -15 40.5q0 26 15 41t41 15q25 0 40.5 -15t15.5 -41q0 -25 -15.5 -40.5t-40.5 -15.5q-26 0 -41 15.5z" />
    <glyph glyph-name="uni0408" unicode="&#x408;" horiz-adv-x="304" 
d="M0 -23q60 0 89 29.5t29 102.5v591h123v-591q0 -117 -61.5 -181t-179.5 -64v113z" />
    <glyph glyph-name="uni040B" unicode="&#x40b;" horiz-adv-x="580" 
d="M154 583h-138v117h403v-117h-139v-127q18 26 45 40.5t59 14.5q71 0 109.5 -55t38.5 -163v-293h-119v292q0 57 -15 82t-46 25t-50 -22t-22 -62v-315h-126v583z" />
    <glyph glyph-name="uni042E" unicode="&#x42e;" horiz-adv-x="774" 
d="M670.5 647.5q57.5 -63.5 57.5 -175.5v-244q0 -112 -57.5 -175.5t-159.5 -63.5q-103 0 -160.5 63t-57.5 176v67h-105v-295h-122v700h122v-288h105v60q0 113 57.5 176t160.5 63q102 0 159.5 -63.5zM602 472q0 59 -23 89.5t-68 30.5q-91 0 -91 -120v-244q0 -120 91 -120
q45 0 68 30.5t23 89.5v244z" />
    <glyph glyph-name="uni042F" unicode="&#x42f;" horiz-adv-x="515" 
d="M151 263q-53 25 -81.5 78t-28.5 128q0 109 57 170t159 61h192v-700h-123v239h-55l-125 -239h-136zM326 356v227h-68q-44 0 -67.5 -29t-23.5 -85q0 -55 23.5 -84t67.5 -29h68z" />
    <glyph glyph-name="uni0402" unicode="&#x402;" horiz-adv-x="573" 
d="M336 108q77 0 77 90v94q0 57 -15 82t-46 25q-33 0 -52.5 -23t-19.5 -64v-312h-126v583h-138v117h403v-117h-139v-127q18 26 45 40.5t59 14.5q71 0 109.5 -55t38.5 -163v-96q-1 -97 -52 -149.5t-144 -52.5v113z" />
    <glyph glyph-name="uni0414.loclBGR" horiz-adv-x="540" 
d="M1 115h58l146 585h130l145 -585h59v-233h-122v118h-295v-118h-121v233zM357 115l-53 236q-18 88 -32 198h-4q-14 -109 -32 -198l-54 -236h175z" />
    <glyph glyph-name="uni041B.loclBGR" horiz-adv-x="479" 
d="M305 700l169 -700h-128l-73 356q-9 48 -32 191h-4q-16 -116 -31 -191l-73 -356h-128l169 700h131z" />
    <glyph glyph-name="uni0430" unicode="&#x430;" horiz-adv-x="458" 
d="M405 343v-343h-95l-7 50q-36 -64 -117 -64q-72 0 -115.5 46t-43.5 119q0 80 53 122t144 42h62v28q0 42 -14 63.5t-46 21.5q-26 0 -44 -14.5t-22 -43.5h-118q4 80 53 126t133 46q177 0 177 -199zM286 219h-60q-38 0 -58.5 -17.5t-20.5 -50.5q0 -28 17 -45t50 -17t52.5 20
t19.5 56v54z" />
    <glyph glyph-name="uni0431" unicode="&#x431;" horiz-adv-x="476" 
d="M104.5 41.5q-50.5 53.5 -50.5 151.5v270q0 88 43.5 138.5t126.5 81.5q46 17 63 28t36 38l83 -69q-23 -39 -51.5 -60t-70.5 -35q-35 -11 -57.5 -22t-39 -32.5t-16.5 -56.5v-21q38 32 95 32q76 0 122.5 -54t46.5 -151v-87q0 -98 -50.5 -151.5t-140.5 -53.5
q-89 0 -139.5 53.5zM315 193v85q0 92 -70 92q-33 0 -52.5 -21.5t-19.5 -68.5v-87q0 -91 71 -91t71 91z" />
    <glyph glyph-name="uni0432" unicode="&#x432;" horiz-adv-x="434" 
d="M397.5 230.5q19.5 -33.5 19.5 -76.5q0 -73 -47.5 -113.5t-142.5 -40.5h-173v529h169q81 0 124 -39t43 -111q0 -29 -14 -55t-40 -44q42 -16 61.5 -49.5zM167 317h48q29 0 44.5 15t15.5 44q0 27 -16 42.5t-45 15.5h-47v-117zM301 159q0 32 -16.5 47t-51.5 15h-66v-124h66
q68 0 68 62z" />
    <glyph glyph-name="uni0433" unicode="&#x433;" horiz-adv-x="349" 
d="M335 417h-162v-417h-119v530h281v-113z" />
    <glyph glyph-name="uni0453" unicode="&#x453;" horiz-adv-x="349" 
d="M335 417h-162v-417h-119v530h281v-113zM202 741h103l-92 -132h-85z" />
    <glyph glyph-name="uni0491" unicode="&#x491;" horiz-adv-x="350" 
d="M336 628v-212h-163v-416h-119v529h187v99h95z" />
    <glyph glyph-name="uni0434" unicode="&#x434;" horiz-adv-x="494" 
d="M0 107h41q36 45 44 156q10 175 12 266h326v-422h61v-225h-113v118h-258v-118h-113v225zM306 107v313h-98q-2 -109 -8 -186q-5 -75 -24 -127h130z" />
    <glyph glyph-name="uni0435" unicode="&#x435;" horiz-adv-x="456" 
d="M421 167q-8 -85 -58.5 -132t-135.5 -47q-86 0 -135.5 54t-49.5 150v149q0 95 49.5 148t137.5 53q89 0 139.5 -53t50.5 -148v-118h-259v-31q0 -91 69 -91q34 0 50 15t23 51h119zM160 342v-35h142v35q0 90 -72 90q-70 0 -70 -90z" />
    <glyph glyph-name="uni0451" unicode="&#x451;" horiz-adv-x="456" 
d="M421 167q-8 -85 -58.5 -132t-135.5 -47q-86 0 -135.5 54t-49.5 150v149q0 95 49.5 148t137.5 53q89 0 139.5 -53t50.5 -148v-118h-259v-31q0 -91 69 -91q34 0 50 15t23 51h119zM160 342v-35h142v35q0 90 -72 90q-70 0 -70 -90zM106 632.5q-15 15.5 -15 40.5t15 40t41 15
t41 -15t15 -40t-15.5 -40.5t-40.5 -15.5q-26 0 -41 15.5zM257.5 632.5q-15.5 15.5 -15.5 40.5t15.5 40t41.5 15q25 0 40.5 -15t15.5 -40t-15.5 -40.5t-40.5 -15.5q-26 0 -41.5 15.5z" />
    <glyph glyph-name="uni0436" unicode="&#x436;" horiz-adv-x="655" 
d="M412 213l-28 -30v-183h-113v183l-28 30l-117 -213h-131l174 304l-152 225h135l66 -115l53 -96v211h113v-210q36 66 53 95l66 115h135l-152 -225l173 -304h-130z" />
    <glyph glyph-name="uni0437" unicode="&#x437;" horiz-adv-x="427" 
d="M381 231.5q21 -32.5 21 -72.5q0 -80 -51.5 -126t-140.5 -46q-87 0 -138.5 45.5t-56.5 125.5h113q3 -30 24 -46.5t58 -16.5t57 18t20 52q0 30 -19 46t-55 16h-62v86h61q29 0 45.5 16.5t16.5 45.5q0 28 -16.5 43.5t-47.5 15.5q-67 0 -72 -69h-113q5 83 52.5 129t129.5 46
q83 0 131.5 -42.5t48.5 -114.5q0 -66 -57 -104q30 -15 51 -47.5z" />
    <glyph glyph-name="uni0438" unicode="&#x438;" horiz-adv-x="474" 
d="M54 529h113v-178l-1 -163l2 -1q11 34 30 87t37 102l66 153h119v-529h-113v156q0 113 5 187l-3 1q-5 -22 -29 -94t-40 -106l-66 -144h-120v529z" />
    <glyph glyph-name="uni0439" unicode="&#x439;" horiz-adv-x="474" 
d="M54 529h113v-178l-1 -163l2 -1q11 34 30 87t37 102l66 153h119v-529h-113v156q0 113 5 187l-3 1q-5 -22 -29 -94t-40 -106l-66 -144h-120v529zM150 643.5q-35 32.5 -37 89.5h79q1 -22 13.5 -34.5t32.5 -12.5q19 0 32 12.5t14 34.5h78q-2 -58 -36 -90t-87 -32
q-54 0 -89 32.5z" />
    <glyph glyph-name="uni045D" unicode="&#x45d;" horiz-adv-x="474" 
d="M54 529h113v-178l-1 -163l2 -1q11 34 30 87t37 102l66 153h119v-529h-113v156q0 113 5 187l-3 1q-5 -22 -29 -94t-40 -106l-66 -144h-120v529zM226 609l-92 132h103l74 -132h-85z" />
    <glyph glyph-name="uni043A" unicode="&#x43a;" horiz-adv-x="451" 
d="M200 212l-29 -31v-181h-117v529h117v-212l52 93l70 119h138l-153 -224l178 -305h-134z" />
    <glyph glyph-name="uni045C" unicode="&#x45c;" horiz-adv-x="451" 
d="M200 212l-29 -31v-181h-117v529h117v-212l52 93l70 119h138l-153 -224l178 -305h-134zM240 741h103l-92 -132h-85z" />
    <glyph glyph-name="uni043B" unicode="&#x43b;" horiz-adv-x="464" 
d="M-3 105q34 0 47.5 26.5t19.5 87.5q5 49 11 140.5t8 169.5h327v-529h-117v420h-97q-6 -148 -16 -223q-11 -105 -56 -155.5t-127 -50.5v114z" />
    <glyph glyph-name="uni043C" unicode="&#x43c;" horiz-adv-x="565" 
d="M512 529v-529h-109v164q0 46 4 128l2 41l-6 2q-15 -53 -41 -139l-26 -69h-106l-26 69q-8 24 -34 112l-8 27l-6 -2q7 -114 7 -169v-164h-109v529h117l67 -163q30 -80 43 -125h3q15 52 44 125l66 163h118z" />
    <glyph glyph-name="uni043D" unicode="&#x43d;" horiz-adv-x="461" 
d="M407 529v-529h-118v214h-117v-214h-118v529h118v-206h117v206h118z" />
    <glyph glyph-name="uni043E" unicode="&#x43e;" horiz-adv-x="467" 
d="M92.5 41q-50.5 54 -50.5 152v143q0 98 50.5 152t140.5 54q91 0 141.5 -54t50.5 -152v-143q0 -98 -50.5 -152t-141.5 -54q-90 0 -140.5 54zM305 193v143q0 91 -72 91q-71 0 -71 -91v-143q0 -91 71 -91q72 0 72 91z" />
    <glyph glyph-name="uni043F" unicode="&#x43f;" horiz-adv-x="461" 
d="M54 529h353v-529h-118v420h-117v-420h-118v529z" />
    <glyph glyph-name="uni0440" unicode="&#x440;" horiz-adv-x="470" 
d="M382.5 485q46.5 -56 46.5 -151v-141q0 -95 -46.5 -150.5t-123.5 -55.5q-52 0 -90 35v-202h-115v710h82l7 -49q20 26 51.5 43t64.5 17q77 0 123.5 -56zM309 334q0 47 -17.5 71t-50.5 24q-34 0 -53 -24.5t-19 -70.5v-141q0 -45 19 -69.5t53 -24.5q68 0 68 94v141z" />
    <glyph glyph-name="uni0441" unicode="&#x441;" horiz-adv-x="440" 
d="M91 40q-49 52 -49 145v161q0 92 49 144t135 52q90 0 138.5 -51.5t51.5 -144.5h-119q-3 83 -69 83q-33 0 -50 -21t-17 -62v-161q0 -42 17 -63t50 -21q66 0 70 84h119q-2 -93 -53 -145t-138 -52q-86 0 -135 52z" />
    <glyph glyph-name="uni0442" unicode="&#x442;" horiz-adv-x="364" 
d="M355 417h-114v-417h-118v417h-115v112h347v-112z" />
    <glyph glyph-name="uni0443" unicode="&#x443;" horiz-adv-x="432" 
d="M430 529l-166 -556q-24 -77 -59.5 -119.5t-95.5 -42.5h-61v114h37q28 0 44.5 17t26.5 52l16 55l-170 480h125l58 -179l37 -125l36 124l53 180h119z" />
    <glyph glyph-name="uni045E" unicode="&#x45e;" horiz-adv-x="432" 
d="M430 529l-166 -556q-24 -77 -59.5 -119.5t-95.5 -42.5h-61v114h37q28 0 44.5 17t26.5 52l16 55l-170 480h125l58 -179l37 -125l36 124l53 180h119zM135 645.5q-35 32.5 -37 89.5h79q1 -22 13.5 -34.5t32.5 -12.5q19 0 32 12.5t14 34.5h78q-2 -58 -36 -90t-87 -32
q-54 0 -89 32.5z" />
    <glyph glyph-name="uni0444" unicode="&#x444;" horiz-adv-x="628" 
d="M533 483q53 -54 53 -152v-125q0 -100 -53 -156t-144 -56h-18v-174h-114v174h-18q-91 0 -144 56t-53 156v125q0 98 52.5 152t144.5 54h18v187h114v-187h18q91 0 144 -54zM257 109v313h-18q-36 0 -56.5 -22.5t-20.5 -68.5v-125q0 -49 20.5 -73t56.5 -24h18zM466 331
q0 46 -20.5 68.5t-56.5 22.5h-18v-313h18q36 0 56.5 24t20.5 73v125z" />
    <glyph glyph-name="uni0445" unicode="&#x445;" horiz-adv-x="423" 
d="M294 0l-83 169l-82 -169h-133l142 266l-129 263h129l73 -162l73 162h130l-127 -263l140 -266h-133z" />
    <glyph glyph-name="uni0447" unicode="&#x447;" horiz-adv-x="436" 
d="M272 177q-33 -18 -80 -18q-77 0 -121 52.5t-44 163.5v154h111v-154q0 -60 16.5 -83t49.5 -23q43 0 68 16v244h111v-529h-111v177z" />
    <glyph glyph-name="uni0446" unicode="&#x446;" horiz-adv-x="482" 
d="M354 0h-300v529h118v-422h116v422h118v-422h61v-225h-113v118z" />
    <glyph glyph-name="uni0448" unicode="&#x448;" horiz-adv-x="679" 
d="M49 529h116v-420h114v420h116v-420h114v420h116v-529h-576v529z" />
    <glyph glyph-name="uni0449" unicode="&#x449;" horiz-adv-x="706" 
d="M579 0h-525v529h116v-420h114v420h116v-420h114v420h117v-422h60v-225h-112v118z" />
    <glyph glyph-name="uni045F" unicode="&#x45f;" horiz-adv-x="461" 
d="M407 0h-121v-118h-109v118h-123v529h118v-420h117v420h118v-529z" />
    <glyph glyph-name="uni044C" unicode="&#x44c;" horiz-adv-x="433" 
d="M373.5 305.5q48.5 -48.5 48.5 -126.5q0 -80 -48.5 -129.5t-126.5 -49.5h-193v529h118v-175h75q78 0 126.5 -48.5zM284 125.5q19 19.5 19 53.5q0 33 -19 51.5t-52 18.5h-60v-143h60q33 0 52 19.5z" />
    <glyph glyph-name="uni044A" unicode="&#x44a;" horiz-adv-x="493" 
d="M433.5 305.5q48.5 -48.5 48.5 -126.5q0 -80 -48.5 -129.5t-126.5 -49.5h-194v420h-105v109h223v-175h76q78 0 126.5 -48.5zM344 125.5q19 19.5 19 53.5q0 33 -19 51.5t-52 18.5h-61v-143h61q33 0 52 19.5z" />
    <glyph glyph-name="uni044B" unicode="&#x44b;" horiz-adv-x="651" 
d="M373.5 303q48.5 -48 48.5 -126q0 -79 -48.5 -128t-126.5 -49h-193v528h118v-177h75q78 0 126.5 -48zM597 528v-528h-119v528h119zM284 125q19 19 19 53q0 32 -19 49.5t-52 17.5h-60v-139h60q33 0 52 19z" />
    <glyph glyph-name="uni0459" unicode="&#x459;" horiz-adv-x="671" 
d="M-3 105q34 0 47.5 26.5t19.5 87.5q5 49 11 140.5t8 169.5h326v-178h76q78 0 126.5 -48t48.5 -126q0 -79 -48.5 -128t-126.5 -49h-192v420h-97q-5 -134 -16 -223q-11 -105 -56 -155.5t-127 -50.5v114zM470 106q33 0 52 19t19 53q0 32 -19 49.5t-52 17.5h-61v-139h61z" />
    <glyph glyph-name="uni045A" unicode="&#x45a;" horiz-adv-x="668" 
d="M54 529h118v-192h117v192h117v-192h76q77 0 126 -46t49 -120q0 -76 -49 -123.5t-126 -47.5h-193v228h-117v-228h-118v529zM467 106q33 0 52 17.5t19 48.5q0 28 -19 43.5t-52 15.5h-61v-125h61z" />
    <glyph glyph-name="uni0455" unicode="&#x455;" horiz-adv-x="425" 
d="M112.5 10.5q-44.5 24.5 -67.5 65.5t-24 90h118q1 -31 19.5 -51.5t57.5 -20.5q32 0 50 14.5t18 38.5q0 26 -23.5 42t-73.5 35q-50 20 -81 37.5t-53.5 49.5t-22.5 80q0 70 48 110.5t129 40.5q86 0 131 -47t50 -126h-114q-3 68 -67 68q-28 0 -44 -13t-16 -34
q0 -23 21.5 -36.5t68.5 -30.5q51 -19 84 -37t57 -52t24 -87q0 -73 -49 -117t-134 -44q-62 0 -106.5 24.5z" />
    <glyph glyph-name="uni0454" unicode="&#x454;" horiz-adv-x="440" 
d="M417 177q-2 -89 -52.5 -139t-138.5 -50q-86 0 -135 52t-49 145v161q0 92 49 144t135 52q89 0 137 -49t51 -139h-119q-3 75 -67 75q-33 0 -50 -21t-17 -62v-40h146v-78h-146v-43q0 -42 17 -63t50 -21q65 0 70 76h119z" />
    <glyph glyph-name="uni044D" unicode="&#x44d;" horiz-adv-x="440" 
d="M350 490q49 -52 49 -144v-161q0 -93 -49 -145t-135 -52q-88 0 -139 50t-53 139h119q5 -76 70 -76q33 0 50 21t17 63v43h-146v78h146v40q0 41 -17 62t-50 21q-64 0 -67 -75h-119q3 90 51.5 139t137.5 49q86 0 135 -52z" />
    <glyph glyph-name="uni0456" unicode="&#x456;" horiz-adv-x="226" 
d="M54 529h118v-529h-118v529zM64 630.5q-19 19.5 -19 49.5t19 49.5t49 19.5q29 0 49 -19.5t20 -49.5q0 -28 -20 -48.5t-49 -20.5q-30 0 -49 19.5z" />
    <glyph glyph-name="uni0457" unicode="&#x457;" horiz-adv-x="250" 
d="M16 634.5q-15 14.5 -15 39.5t15 39.5t39 14.5q25 0 39.5 -14.5t14.5 -39.5t-14.5 -39.5t-39.5 -14.5q-24 0 -39 14.5zM156 634.5q-15 14.5 -15 39.5t15 39.5t40 14.5q24 0 38.5 -14.5t14.5 -39.5t-14.5 -39.5t-38.5 -14.5q-25 0 -40 14.5zM65 529h119v-529h-119v529z" />
    <glyph glyph-name="uni0458" unicode="&#x458;" horiz-adv-x="254" 
d="M82 629.5q-19 19.5 -19 49.5t19 49.5t49 19.5q29 0 49 -19.5t20 -49.5q0 -28 -20 -48.5t-49 -20.5q-30 0 -49 19.5zM-12 -81q44 1 64.5 22t20.5 64v524h118v-517q0 -98 -52 -151.5t-151 -54.5v113z" />
    <glyph glyph-name="uni045B" unicode="&#x45b;" horiz-adv-x="471" 
d="M384.5 486.5q38.5 -55.5 38.5 -163.5v-323h-119v322q0 57 -15 82t-47 25q-34 0 -53 -25.5t-19 -72.5v-331h-117v602h-64v61h64v62h117v-62h93v-61h-93v-118q19 28 46 43t59 15q71 0 109.5 -55.5z" />
    <glyph glyph-name="uni044E" unicode="&#x44e;" horiz-adv-x="648" 
d="M556.5 488q49.5 -54 49.5 -151v-143q0 -98 -49.5 -152t-136.5 -54q-88 0 -137 54t-49 152v20h-67v-214h-113v529h113v-207h67v15q0 98 49 151.5t137 53.5q87 0 136.5 -54zM488 337q0 90 -68 90q-34 0 -51.5 -22t-17.5 -68v-143q0 -91 69 -91q68 0 68 91v143z" />
    <glyph glyph-name="uni044F" unicode="&#x44f;" horiz-adv-x="427" 
d="M378 529v-529h-113v171h-44l-82 -171h-132l105 190q-40 21 -64 61.5t-24 101.5q0 83 50 129.5t133 46.5h171zM265 423h-51q-37 0 -56 -19t-19 -55q0 -80 74 -80h52v154z" />
    <glyph glyph-name="uni0452" unicode="&#x452;" horiz-adv-x="471" 
d="M220 -84q43 1 63.5 21t20.5 60v325q0 57 -15 82t-47 25q-34 0 -53 -25.5t-19 -72.5v-331h-118v605h-63v61h63v59h118v-59h93v-61h-93v-120q41 57 105 57q71 0 109.5 -55.5t38.5 -163.5v-319q0 -95 -52.5 -147.5t-150.5 -53.5v113z" />
    <glyph glyph-name="uni0432.loclBGR" horiz-adv-x="456" 
d="M398.5 326.5q27.5 -46.5 27.5 -117.5q0 -103 -54.5 -162t-147.5 -59q-86 0 -132.5 54.5t-46.5 157.5v336q0 94 48.5 147.5t130.5 53.5q83 0 129 -49.5t46 -135.5q0 -107 -77 -156q49 -23 76.5 -69.5zM177.5 600.5q-16.5 -22.5 -16.5 -64.5v-114l35 4q43 4 65 33t22 80
q0 84 -60 84q-29 0 -45.5 -22.5zM308 209q0 115 -95 109l-52 -4v-127q0 -86 64 -86q83 0 83 108z" />
    <glyph glyph-name="uni0433.loclBGR" horiz-adv-x="424" 
d="M72 30q-49 44 -49 117q0 50 22.5 82.5t53.5 49.5t81 37q49 19 71.5 34t22.5 41q0 21 -14.5 32.5t-42.5 11.5q-62 0 -67 -65h-114q5 78 50 125t131 47q80 0 127.5 -40.5t47.5 -111.5q0 -50 -22.5 -82t-53 -49t-81.5 -38q-48 -18 -70.5 -33t-22.5 -41q0 -24 17.5 -37
t49.5 -13q36 0 55 17.5t21 51.5h118q-2 -49 -24.5 -90t-66.5 -65.5t-106 -24.5q-85 0 -134 44z" />
    <glyph glyph-name="uni0434.loclBGR" horiz-adv-x="474" 
d="M420 529v-551q0 -78 -48.5 -125t-133.5 -47q-83 0 -131 46.5t-50 124.5h116q3 -29 19.5 -45t45.5 -16t45.5 16.5t16.5 45.5v73q-40 -27 -89 -27t-87.5 25t-60 69.5t-21.5 101.5v122q0 59 21.5 104.5t60 70.5t87.5 25q72 0 118 -49l8 36h83zM282 157q18 21 18 63v124
q0 41 -18.5 62.5t-51.5 21.5q-69 0 -69 -86v-122q0 -84 69 -84q34 0 52 21z" />
    <glyph glyph-name="uni0436.loclBGR" horiz-adv-x="650" 
d="M409 218l-28 -29v-189h-112v189l-28 29l-115 -218h-131l171 309l-149 220h133l86 -143l33 -62v400h112v-400l33 61l86 144h134l-150 -221l171 -308h-131z" />
    <glyph glyph-name="uni0437.loclBGR" horiz-adv-x="455" 
d="M396.5 127q24.5 -43 24.5 -110q0 -99 -54.5 -154.5t-151.5 -55.5q-91 0 -142.5 52t-54.5 148h113q4 -88 87 -88q41 0 62.5 27t21.5 77q0 52 -24.5 80.5t-69.5 28.5h-59v105h48q43 0 66 27t23 79q0 43 -19 66.5t-53 23.5q-32 0 -51 -21.5t-24 -62.5h-113q4 92 55 142.5
t137 50.5t134.5 -50.5t48.5 -141.5q0 -57 -17.5 -95t-64.5 -64q53 -21 77.5 -64z" />
    <glyph glyph-name="uni0438.loclBGR" horiz-adv-x="473" 
d="M419 529v-529h-80l-10 57q-42 -70 -128 -70q-73 0 -112.5 54t-39.5 160v328h118v-325q0 -55 15.5 -79.5t46.5 -24.5q34 0 53 25.5t19 72.5v331h118z" />
    <glyph glyph-name="uni0439.loclBGR" horiz-adv-x="473" 
d="M419 529v-529h-80l-10 57q-42 -70 -128 -70q-73 0 -112.5 54t-39.5 160v328h118v-325q0 -55 15.5 -79.5t46.5 -24.5q34 0 53 25.5t19 72.5v331h118zM142 643.5q-35 32.5 -37 89.5h79q1 -22 13.5 -34.5t32.5 -12.5q19 0 32 12.5t14 34.5h78q-2 -58 -36 -90t-87 -32
q-54 0 -89 32.5z" />
    <glyph glyph-name="uni045D.loclBGR" horiz-adv-x="478" 
d="M189 609l-92 132h103l74 -132h-85zM424 529v-529h-80l-10 57q-42 -70 -128 -70q-73 0 -112.5 54t-39.5 160v328h118v-325q0 -55 15.5 -79.5t46.5 -24.5q34 0 53 25.5t19 72.5v331h118z" />
    <glyph glyph-name="uni043A.loclBGR" horiz-adv-x="449" 
d="M202 226l-31 -33v-193h-117v725h117v-381l122 185h137l-150 -211l174 -318h-133z" />
    <glyph glyph-name="uni043B.loclBGR" horiz-adv-x="422" 
d="M277 529l143 -529h-125l-44 199q-8 36 -18 88.5t-14 74.5q-1 6 -2 13.5t-3 14.5h-6q-15 -92 -37 -191l-44 -199h-125l143 529h132z" />
    <glyph glyph-name="uni043F.loclBGR" horiz-adv-x="473" 
d="M384.5 488q39.5 -54 39.5 -160v-328h-118v325q0 55 -15.5 79.5t-46.5 24.5q-34 0 -53 -25.5t-19 -72.5v-331h-118v529h80l10 -57q42 70 128 70q73 0 112.5 -54z" />
    <glyph glyph-name="uni0442.loclBGR" horiz-adv-x="712" 
d="M624 487.5q39 -54.5 39 -160.5v-327h-117v326q0 55 -14.5 79t-44.5 24q-32 0 -51 -25.5t-19 -72.5v-331h-117v326q0 55 -15 79t-45 24q-32 0 -50.5 -25.5t-18.5 -72.5v-331h-117v529h79l10 -56q20 33 51.5 51t73.5 18q40 0 70.5 -18t49.5 -53q42 71 127 71
q70 0 109 -54.5z" />
    <glyph glyph-name="uni0446.loclBGR" horiz-adv-x="494" 
d="M367 0q-14 5 -26 22t-15 36q-39 -71 -125 -71q-73 0 -112.5 54t-39.5 160v328h118v-326q0 -55 15 -79t46 -24q34 0 53.5 25.5t19.5 72.5v331h117v-364q0 -34 13 -50.5t48 -16.5v-216h-112v118z" />
    <glyph glyph-name="uni0448.loclBGR" horiz-adv-x="712" 
d="M658 529v-529h-79l-10 56q-20 -33 -51.5 -51t-73.5 -18q-40 0 -70.5 18t-49.5 53q-42 -71 -127 -71q-70 0 -109 54.5t-39 160.5v327h117v-326q0 -55 14.5 -79t44.5 -24q32 0 51 25.5t19 72.5v331h117v-326q0 -55 15 -79t45 -24q32 0 50.5 25.5t18.5 72.5v331h117z" />
    <glyph glyph-name="uni0449.loclBGR" horiz-adv-x="736" 
d="M609 0q-14 5 -26 22t-15 37q-37 -72 -122 -72q-84 0 -121 73q-41 -73 -128 -73q-70 0 -109 54.5t-39 160.5v327h117v-326q0 -55 14.5 -79t43.5 -24q34 0 53 25.5t19 72.5v331h117v-326q0 -55 15 -79t45 -24q33 0 51.5 25.5t18.5 72.5v331h117v-364q0 -34 13 -50.5
t49 -16.5v-216h-113v118z" />
    <glyph glyph-name="uni044C.loclBGR" horiz-adv-x="432" 
d="M374.5 320q46.5 -51 46.5 -136q0 -90 -52 -144t-136 -54q-86 0 -135 48.5t-49 133.5v361h117v-190q37 32 86 32q76 0 122.5 -51zM283.5 119q17.5 22 17.5 65q0 38 -17.5 58t-49.5 20q-33 0 -50.5 -20.5t-17.5 -58.5q0 -86 67 -86q33 0 50.5 22z" />
    <glyph glyph-name="uni044A.loclBGR" horiz-adv-x="492" 
d="M434.5 320q46.5 -51 46.5 -136q0 -90 -52 -144t-136 -54q-86 0 -135.5 48.5t-49.5 133.5v252h-105v109h222v-191q36 33 86 33q77 0 123.5 -51zM343.5 119q17.5 22 17.5 65q0 38 -17.5 58t-50.5 20q-32 0 -50 -21t-18 -58q0 -86 68 -86q33 0 50.5 22z" />
    <glyph glyph-name="uni044E.loclBGR" horiz-adv-x="643" 
d="M552 486.5q49 -53.5 49 -151.5v-141q0 -98 -49 -152t-137 -54t-137 54t-49 152v20h-67v-214h-113v724h113v-402h67v13q0 98 49 151.5t137 53.5t137 -53.5zM483 335q0 91 -68 91q-69 0 -69 -91v-141q0 -91 69 -91q68 0 68 91v141z" />
    <glyph glyph-name="uni0432.ss01" horiz-adv-x="456" 
d="M398.5 326.5q27.5 -46.5 27.5 -117.5q0 -103 -54.5 -162t-147.5 -59q-86 0 -132.5 54.5t-46.5 157.5v336q0 94 48.5 147.5t130.5 53.5q83 0 129 -49.5t46 -135.5q0 -107 -77 -156q49 -23 76.5 -69.5zM177.5 600.5q-16.5 -22.5 -16.5 -64.5v-114l35 4q43 4 65 33t22 80
q0 84 -60 84q-29 0 -45.5 -22.5zM308 209q0 115 -95 109l-52 -4v-127q0 -86 64 -86q83 0 83 108z" />
    <glyph glyph-name="uni0433.ss01" horiz-adv-x="424" 
d="M72 30q-49 44 -49 117q0 50 22.5 82.5t53.5 49.5t81 37q49 19 71.5 34t22.5 41q0 21 -14.5 32.5t-42.5 11.5q-62 0 -67 -65h-114q5 78 50 125t131 47q80 0 127.5 -40.5t47.5 -111.5q0 -50 -22.5 -82t-53 -49t-81.5 -38q-48 -18 -70.5 -33t-22.5 -41q0 -24 17.5 -37
t49.5 -13q36 0 55 17.5t21 51.5h118q-2 -49 -24.5 -90t-66.5 -65.5t-106 -24.5q-85 0 -134 44z" />
    <glyph glyph-name="uni0434.ss01" horiz-adv-x="474" 
d="M420 529v-551q0 -78 -48.5 -125t-133.5 -47q-83 0 -131 46.5t-50 124.5h116q3 -29 19.5 -45t45.5 -16t45.5 16.5t16.5 45.5v73q-40 -27 -89 -27t-87.5 25t-60 69.5t-21.5 101.5v122q0 59 21.5 104.5t60 70.5t87.5 25q72 0 118 -49l8 36h83zM282 157q18 21 18 63v124
q0 41 -18.5 62.5t-51.5 21.5q-69 0 -69 -86v-122q0 -84 69 -84q34 0 52 21z" />
    <glyph glyph-name="uni0436.ss01" horiz-adv-x="650" 
d="M409 218l-28 -29v-189h-112v189l-28 29l-115 -218h-131l171 309l-149 220h133l86 -143l33 -62v400h112v-400l33 61l86 144h134l-150 -221l171 -308h-131z" />
    <glyph glyph-name="uni0437.ss01" horiz-adv-x="455" 
d="M396.5 127q24.5 -43 24.5 -110q0 -99 -54.5 -154.5t-151.5 -55.5q-91 0 -142.5 52t-54.5 148h113q4 -88 87 -88q41 0 62.5 27t21.5 77q0 52 -24.5 80.5t-69.5 28.5h-59v105h48q43 0 66 27t23 79q0 43 -19 66.5t-53 23.5q-32 0 -51 -21.5t-24 -62.5h-113q4 92 55 142.5
t137 50.5t134.5 -50.5t48.5 -141.5q0 -57 -17.5 -95t-64.5 -64q53 -21 77.5 -64z" />
    <glyph glyph-name="uni0438.ss01" horiz-adv-x="473" 
d="M419 529v-529h-80l-10 57q-42 -70 -128 -70q-73 0 -112.5 54t-39.5 160v328h118v-325q0 -55 15.5 -79.5t46.5 -24.5q34 0 53 25.5t19 72.5v331h118z" />
    <glyph glyph-name="uni0439.ss01" horiz-adv-x="473" 
d="M419 529v-529h-80l-10 57q-42 -70 -128 -70q-73 0 -112.5 54t-39.5 160v328h118v-325q0 -55 15.5 -79.5t46.5 -24.5q34 0 53 25.5t19 72.5v331h118zM142 643.5q-35 32.5 -37 89.5h79q1 -22 13.5 -34.5t32.5 -12.5q19 0 32 12.5t14 34.5h78q-2 -58 -36 -90t-87 -32
q-54 0 -89 32.5z" />
    <glyph glyph-name="uni045D.ss01" horiz-adv-x="478" 
d="M189 609l-92 132h103l74 -132h-85zM424 529v-529h-80l-10 57q-42 -70 -128 -70q-73 0 -112.5 54t-39.5 160v328h118v-325q0 -55 15.5 -79.5t46.5 -24.5q34 0 53 25.5t19 72.5v331h118z" />
    <glyph glyph-name="uni043A.ss01" horiz-adv-x="449" 
d="M202 226l-31 -33v-193h-117v725h117v-381l122 185h137l-150 -211l174 -318h-133z" />
    <glyph glyph-name="uni043B.ss01" horiz-adv-x="422" 
d="M277 529l143 -529h-125l-44 199q-8 36 -18 88.5t-14 74.5q-1 6 -2 13.5t-3 14.5h-6q-15 -92 -37 -191l-44 -199h-125l143 529h132z" />
    <glyph glyph-name="uni043F.ss01" horiz-adv-x="473" 
d="M384.5 488q39.5 -54 39.5 -160v-328h-118v325q0 55 -15.5 79.5t-46.5 24.5q-34 0 -53 -25.5t-19 -72.5v-331h-118v529h80l10 -57q42 70 128 70q73 0 112.5 -54z" />
    <glyph glyph-name="uni0442.ss01" horiz-adv-x="712" 
d="M624 487.5q39 -54.5 39 -160.5v-327h-117v326q0 55 -14.5 79t-44.5 24q-32 0 -51 -25.5t-19 -72.5v-331h-117v326q0 55 -15 79t-45 24q-32 0 -50.5 -25.5t-18.5 -72.5v-331h-117v529h79l10 -56q20 33 51.5 51t73.5 18q40 0 70.5 -18t49.5 -53q42 71 127 71
q70 0 109 -54.5z" />
    <glyph glyph-name="uni0446.ss01" horiz-adv-x="494" 
d="M367 0q-14 5 -26 22t-15 36q-39 -71 -125 -71q-73 0 -112.5 54t-39.5 160v328h118v-326q0 -55 15 -79t46 -24q34 0 53.5 25.5t19.5 72.5v331h117v-364q0 -34 13 -50.5t48 -16.5v-216h-112v118z" />
    <glyph glyph-name="uni0448.ss01" horiz-adv-x="712" 
d="M658 529v-529h-79l-10 56q-20 -33 -51.5 -51t-73.5 -18q-40 0 -70.5 18t-49.5 53q-42 -71 -127 -71q-70 0 -109 54.5t-39 160.5v327h117v-326q0 -55 14.5 -79t44.5 -24q32 0 51 25.5t19 72.5v331h117v-326q0 -55 15 -79t45 -24q32 0 50.5 25.5t18.5 72.5v331h117z" />
    <glyph glyph-name="uni0449.ss01" horiz-adv-x="736" 
d="M609 0q-14 5 -26 22t-15 37q-37 -72 -122 -72q-84 0 -121 73q-41 -73 -128 -73q-70 0 -109 54.5t-39 160.5v327h117v-326q0 -55 14.5 -79t43.5 -24q34 0 53 25.5t19 72.5v331h117v-326q0 -55 15 -79t45 -24q33 0 51.5 25.5t18.5 72.5v331h117v-364q0 -34 13 -50.5
t49 -16.5v-216h-113v118z" />
    <glyph glyph-name="uni044C.ss01" horiz-adv-x="432" 
d="M374.5 320q46.5 -51 46.5 -136q0 -90 -52 -144t-136 -54q-86 0 -135 48.5t-49 133.5v361h117v-190q37 32 86 32q76 0 122.5 -51zM283.5 119q17.5 22 17.5 65q0 38 -17.5 58t-49.5 20q-33 0 -50.5 -20.5t-17.5 -58.5q0 -86 67 -86q33 0 50.5 22z" />
    <glyph glyph-name="uni044A.ss01" horiz-adv-x="492" 
d="M434.5 320q46.5 -51 46.5 -136q0 -90 -52 -144t-136 -54q-86 0 -135.5 48.5t-49.5 133.5v252h-105v109h222v-191q36 33 86 33q77 0 123.5 -51zM343.5 119q17.5 22 17.5 65q0 38 -17.5 58t-50.5 20q-32 0 -50 -21t-18 -58q0 -86 68 -86q33 0 50.5 22z" />
    <glyph glyph-name="uni044E.ss01" horiz-adv-x="643" 
d="M552 486.5q49 -53.5 49 -151.5v-141q0 -98 -49 -152t-137 -54t-137 54t-49 152v20h-67v-214h-113v724h113v-402h67v13q0 98 49 151.5t137 53.5t137 -53.5zM483 335q0 91 -68 91q-69 0 -69 -91v-141q0 -91 69 -91q68 0 68 91v141z" />
    <glyph glyph-name="zero" unicode="0" horiz-adv-x="478" 
d="M97.5 44.5q-51.5 54.5 -51.5 149.5v310q0 96 51.5 151t141.5 55q91 0 143 -55t52 -151v-310q0 -95 -52 -149.5t-143 -54.5q-90 0 -141.5 54.5zM298.5 123q20.5 24 20.5 70v310q0 47 -20.5 71.5t-59.5 24.5q-38 0 -58.5 -24.5t-20.5 -71.5v-310q0 -46 20.5 -70t58.5 -24
q39 0 59.5 24z" />
    <glyph glyph-name="one" unicode="1" horiz-adv-x="307" 
d="M241 700v-700h-117v541l-100 -63v130l138 92h79z" />
    <glyph glyph-name="two" unicode="2" horiz-adv-x="430" 
d="M25 76q0 60 22 111t53 90.5t79 89.5q52 55 76.5 90t24.5 73q0 30 -17 50.5t-50 20.5q-32 0 -50.5 -22t-19.5 -62h-112q4 94 51.5 144.5t129.5 50.5q60 0 101.5 -25t62.5 -65.5t21 -86.5t-20 -89t-47.5 -78t-73.5 -84q-56 -61 -82 -98.5t-26 -76.5h253v-109h-376v76z" />
    <glyph glyph-name="three" unicode="3" horiz-adv-x="429" 
d="M354.5 369.5q36.5 -50.5 36.5 -120.5v-45q0 -107 -46 -161.5t-143 -54.5q-88 0 -137 52.5t-52 150.5h116q3 -46 20.5 -67t51.5 -21q39 0 55.5 24.5t16.5 78.5v39q0 52 -20.5 72.5t-62.5 20.5h-65v79l107 176h-195v107h338v-78l-121 -196q64 -6 100.5 -56.5z" />
    <glyph glyph-name="four" unicode="4" horiz-adv-x="447" 
d="M445 166h-75v-166h-115v166h-248v63l136 471h117l-125 -427h122l16 221h97v-221h75v-107z" />
    <glyph glyph-name="five" unicode="5" horiz-adv-x="446" 
d="M365.5 428.5q43.5 -51.5 43.5 -144.5v-86q0 -100 -49 -155t-134 -55q-82 0 -131 52.5t-51 143.5h117q2 -43 18 -62t47 -19q32 0 48 22t16 76v75q0 50 -15 71t-45 21q-52 0 -65 -61h-111v393h332v-105h-219v-139q37 24 85 24q70 0 113.5 -51.5z" />
    <glyph glyph-name="six" unicode="6" horiz-adv-x="455" 
d="M342.5 435.5q39.5 -22.5 61.5 -62.5t22 -91v-105q0 -56 -24.5 -99t-67.5 -66.5t-99 -23.5q-55 0 -98 23.5t-67 66.5t-24 99v347q0 85 52 136.5t136 51.5q82 0 133.5 -50.5t54.5 -135.5h-116q-4 34 -22.5 52.5t-50.5 18.5q-33 0 -52 -19t-19 -54v-100q16 15 39.5 24.5
t52.5 9.5q49 0 88.5 -22.5zM309 274q0 36 -20 56t-54 20t-53.5 -20t-19.5 -56v-96q0 -35 20 -55t53 -20q34 0 54 20t20 55v96z" />
    <glyph glyph-name="seven" unicode="7" horiz-adv-x="379" 
d="M229 592h-233v108h366v-85l-188 -615h-122z" />
    <glyph glyph-name="eight" unicode="8" horiz-adv-x="465" 
d="M408 304.5q19 -39.5 19 -85.5v-28q0 -94 -52.5 -148.5t-141.5 -54.5t-141.5 54t-52.5 149v28q0 46 19 85t52 62q-28 26 -43.5 62t-15.5 76v18q0 86 49.5 138t132.5 52t132.5 -52t49.5 -138v-18q0 -40 -16 -75.5t-44 -61.5q34 -23 53 -62.5zM166 500q0 -42 17 -63t50 -21
q32 0 49 21t17 63v18q0 80 -66 80q-67 0 -67 -80v-18zM309 218q0 44 -19.5 66t-56.5 22q-77 0 -77 -88v-27q0 -87 77 -87q76 0 76 87v27z" />
    <glyph glyph-name="nine" unicode="9" horiz-adv-x="458" 
d="M325 688.5q43 -23.5 67 -66.5t24 -99v-347q0 -85 -52 -136.5t-136 -51.5q-82 0 -133.5 50.5t-54.5 135.5h116q4 -34 22.5 -52.5t50.5 -18.5q33 0 52 19t19 54v100q-16 -15 -39.5 -24.5t-52.5 -9.5q-49 0 -88.5 22.5t-61.5 62.5t-22 91v105q0 56 24.5 99t67.5 66.5
t99 23.5q55 0 98 -23.5zM280.5 370q19.5 20 19.5 56v96q0 36 -19.5 55.5t-53.5 19.5t-54 -20t-20 -55v-96q0 -35 20.5 -55.5t53.5 -20.5q34 0 53.5 20z" />
    <glyph glyph-name="zero.lf" horiz-adv-x="480" 
d="M97.5 44.5q-51.5 54.5 -51.5 149.5v310q0 96 51.5 151t141.5 55q91 0 143 -55t52 -151v-310q0 -95 -52 -149.5t-143 -54.5q-90 0 -141.5 54.5zM298.5 123q20.5 24 20.5 70v310q0 47 -20.5 71.5t-59.5 24.5q-38 0 -58.5 -24.5t-20.5 -71.5v-310q0 -46 20.5 -70t58.5 -24
q39 0 59.5 24z" />
    <glyph glyph-name="one.lf" horiz-adv-x="307" 
d="M241 700v-700h-117v541l-100 -63v130l138 92h79z" />
    <glyph glyph-name="two.lf" horiz-adv-x="430" 
d="M25 76q0 60 22 111t53 90.5t79 89.5q52 55 76.5 90t24.5 73q0 30 -17 50.5t-50 20.5q-32 0 -50.5 -22t-19.5 -62h-112q4 94 51.5 144.5t129.5 50.5q60 0 101.5 -25t62.5 -65.5t21 -86.5t-20 -89t-47.5 -78t-73.5 -84q-56 -61 -82 -98.5t-26 -76.5h253v-109h-376v76z" />
    <glyph glyph-name="three.lf" horiz-adv-x="429" 
d="M354.5 369.5q36.5 -50.5 36.5 -120.5v-45q0 -107 -46 -161.5t-143 -54.5q-88 0 -137 52.5t-52 150.5h116q3 -46 20.5 -67t51.5 -21q39 0 55.5 24.5t16.5 78.5v39q0 52 -20.5 72.5t-62.5 20.5h-65v79l107 176h-195v107h338v-78l-121 -196q64 -6 100.5 -56.5z" />
    <glyph glyph-name="four.lf" horiz-adv-x="447" 
d="M445 166h-75v-166h-115v166h-248v63l136 471h117l-125 -427h122l16 221h97v-221h75v-107z" />
    <glyph glyph-name="five.lf" horiz-adv-x="446" 
d="M365.5 428.5q43.5 -51.5 43.5 -144.5v-86q0 -100 -49 -155t-134 -55q-82 0 -131 52.5t-51 143.5h117q2 -43 18 -62t47 -19q32 0 48 22t16 76v75q0 50 -15 71t-45 21q-52 0 -65 -61h-111v393h332v-105h-219v-139q37 24 85 24q70 0 113.5 -51.5z" />
    <glyph glyph-name="six.lf" horiz-adv-x="455" 
d="M342.5 435.5q39.5 -22.5 61.5 -62.5t22 -91v-105q0 -56 -24.5 -99t-67.5 -66.5t-99 -23.5q-55 0 -98 23.5t-67 66.5t-24 99v347q0 85 52 136.5t136 51.5q82 0 133.5 -50.5t54.5 -135.5h-116q-4 34 -22.5 52.5t-50.5 18.5q-33 0 -52 -19t-19 -54v-100q16 15 39.5 24.5
t52.5 9.5q49 0 88.5 -22.5zM309 274q0 36 -20 56t-54 20t-53.5 -20t-19.5 -56v-96q0 -35 20 -55t53 -20q34 0 54 20t20 55v96z" />
    <glyph glyph-name="seven.lf" horiz-adv-x="379" 
d="M229 592h-233v108h366v-85l-188 -615h-122z" />
    <glyph glyph-name="eight.lf" horiz-adv-x="465" 
d="M408 304.5q19 -39.5 19 -85.5v-28q0 -94 -52.5 -148.5t-141.5 -54.5t-141.5 54t-52.5 149v28q0 46 19 85t52 62q-28 26 -43.5 62t-15.5 76v18q0 86 49.5 138t132.5 52t132.5 -52t49.5 -138v-18q0 -40 -16 -75.5t-44 -61.5q34 -23 53 -62.5zM166 500q0 -42 17 -63t50 -21
q32 0 49 21t17 63v18q0 80 -66 80q-67 0 -67 -80v-18zM309 218q0 44 -19.5 66t-56.5 22q-77 0 -77 -88v-27q0 -87 77 -87q76 0 76 87v27z" />
    <glyph glyph-name="nine.lf" horiz-adv-x="455" 
d="M318 688.5q43 -23.5 67 -66.5t24 -99v-347q0 -85 -52 -136.5t-136 -51.5q-82 0 -133.5 50.5t-54.5 135.5h116q4 -34 22.5 -52.5t49.5 -18.5q34 0 53 19t19 54v100q-16 -15 -39.5 -24.5t-52.5 -9.5q-49 0 -88.5 22.5t-61.5 62.5t-22 91v105q0 56 24 99t67.5 66.5
t98.5 23.5q56 0 99 -23.5zM273 370q20 20 20 56v96q0 36 -20 55.5t-54 19.5q-33 0 -53 -20t-20 -55v-96q0 -36 20 -56t54 -20q33 0 53 20z" />
    <glyph glyph-name="zero.lf.zero" horiz-adv-x="480" 
d="M382 655q52 -55 52 -151v-310q0 -95 -52 -149.5t-143 -54.5q-90 0 -141.5 54.5t-51.5 149.5v310q0 96 51.5 151t141.5 55q91 0 143 -55zM180.5 574.5q-20.5 -24.5 -20.5 -71.5v-204l159 212q-1 43 -21.5 65.5t-58.5 22.5t-58.5 -24.5zM298.5 123q20.5 24 20.5 70v206
l-159 -213q1 -43 21.5 -65t57.5 -22q39 0 59.5 24z" />
    <glyph glyph-name="zero.tf" horiz-adv-x="458" 
d="M88 43.5q-52 53.5 -52 147.5v316q0 94 52 148.5t142 54.5t142 -54.5t52 -148.5v-316q0 -94 -52 -147.5t-142 -53.5t-142 53.5zM288.5 124q20.5 24 20.5 70v310q0 46 -20.5 71t-58.5 25q-39 0 -59 -24.5t-20 -71.5v-310q0 -46 20 -70t59 -24q38 0 58.5 24z" />
    <glyph glyph-name="one.tf" horiz-adv-x="458" 
d="M403 109v-109h-332v109h109v432l-101 -63v130l139 92h79v-591h106z" />
    <glyph glyph-name="two.tf" horiz-adv-x="458" 
d="M45 76q0 60 22 111t53 90.5t79 89.5q52 55 76.5 90t24.5 73q0 30 -17.5 50.5t-49.5 20.5t-50.5 -22t-19.5 -62h-112q4 94 51.5 144.5t128.5 50.5q60 0 102 -25t63 -65.5t21 -86.5t-20 -89t-47.5 -78t-73.5 -84q-56 -61 -82 -98.5t-26 -76.5h253v-109h-376v76z" />
    <glyph glyph-name="three.tf" horiz-adv-x="458" 
d="M373 369q37 -50 37 -120v-45q0 -108 -46.5 -162t-145.5 -54q-88 0 -137 52.5t-52 150.5h116q3 -46 20.5 -67t51.5 -21q41 0 58.5 24.5t17.5 78.5v39q0 52 -21.5 72.5t-65.5 20.5h-65v79l111 176h-199v107h342v-78l-125 -196q66 -7 103 -57z" />
    <glyph glyph-name="four.tf" horiz-adv-x="458" 
d="M449 166h-69v-166h-114v166h-248v63l136 471h116l-125 -427h123l15 221h97v-221h69v-107z" />
    <glyph glyph-name="five.tf" horiz-adv-x="458" 
d="M372.5 428.5q43.5 -51.5 43.5 -144.5v-86q0 -100 -49 -155t-134 -55q-82 0 -131 52.5t-51 143.5h117q2 -43 18 -62t47 -19q32 0 48 22t16 76v75q0 50 -15 71t-45 21q-52 0 -65 -61h-111v393h332v-105h-219v-139q37 24 85 24q70 0 113.5 -51.5z" />
    <glyph glyph-name="six.tf" horiz-adv-x="458" 
d="M338 435.5q39 -22.5 61 -62.5t22 -91v-105q0 -56 -24 -99t-67.5 -66.5t-98.5 -23.5t-98.5 23.5t-67.5 66.5t-24 99v347q0 85 52.5 136.5t136.5 51.5q82 0 133 -50.5t54 -135.5h-115q-4 34 -22.5 52.5t-50.5 18.5q-33 0 -52 -19t-19 -54v-99q16 15 40 24t52 9
q49 0 88 -22.5zM305 274q0 36 -20.5 56t-54.5 20q-33 0 -52.5 -20t-19.5 -56v-96q0 -35 20 -55t53 -20q34 0 54 20t20 55v96z" />
    <glyph glyph-name="seven.tf" horiz-adv-x="458" 
d="M285 592h-246v108h374v-85l-195 -615h-123z" />
    <glyph glyph-name="eight.tf" horiz-adv-x="458" 
d="M405 304.5q21 -39.5 21 -85.5v-28q0 -95 -53 -149t-143 -54t-143 54t-53 149v28q0 46 21 85t57 62q-31 26 -48.5 62t-17.5 76v18q0 86 50 138t134 52t134 -52t50 -138v-18q0 -40 -17.5 -75t-49.5 -62q37 -23 58 -62.5zM161 500q0 -42 18 -63t51 -21t51 21t18 63v18
q0 80 -69 80t-69 -80v-18zM309 218q0 44 -20 66t-59 22t-59 -22t-20 -66v-27q0 -87 79 -87t79 87v27z" />
    <glyph glyph-name="nine.tf" horiz-adv-x="458" 
d="M325 693.5q43 -23.5 67 -66.5t24 -99v-347q0 -85 -52 -136.5t-136 -51.5q-82 0 -133.5 50.5t-54.5 135.5h116q4 -34 22.5 -52.5t50.5 -18.5q33 0 52 19t19 54v100q-16 -15 -39.5 -24.5t-52.5 -9.5q-49 0 -88.5 22.5t-61.5 62.5t-22 91v105q0 56 24.5 99t67.5 66.5
t99 23.5q55 0 98 -23.5zM280.5 375q19.5 20 19.5 56v96q0 36 -19.5 55.5t-53.5 19.5t-54 -20t-20 -55v-96q0 -35 20.5 -55.5t53.5 -20.5q34 0 53.5 20z" />
    <glyph glyph-name="zero.tf.zero" horiz-adv-x="458" 
d="M372 655.5q52 -54.5 52 -148.5v-316q0 -94 -52 -147.5t-142 -53.5t-142 53.5t-52 147.5v316q0 94 52 148.5t142 54.5t142 -54.5zM171 575.5q-20 -24.5 -20 -71.5v-204l158 212q-1 43 -21.5 65.5t-57.5 22.5q-39 0 -59 -24.5zM288.5 124q20.5 24 20.5 70v206l-158 -212
q2 -43 22 -65.5t57 -22.5q38 0 58.5 24z" />
    <glyph glyph-name="zero.zero" horiz-adv-x="478" 
d="M382 655q52 -55 52 -151v-310q0 -95 -52 -149.5t-143 -54.5q-90 0 -141.5 54.5t-51.5 149.5v310q0 96 51.5 151t141.5 55q91 0 143 -55zM180.5 574.5q-20.5 -24.5 -20.5 -71.5v-204l159 212q-1 43 -21.5 65.5t-58.5 22.5t-58.5 -24.5zM298.5 123q20.5 24 20.5 70v206
l-159 -213q1 -43 21.5 -65t57.5 -22q39 0 59.5 24z" />
    <glyph glyph-name="fraction" unicode="&#x2044;" horiz-adv-x="568" 
d="M467 700h92l-458 -700h-92z" />
    <glyph glyph-name="period" unicode="." horiz-adv-x="200" 
d="M50.5 7q-18.5 19 -18.5 50t18.5 49.5t49.5 18.5t50 -18.5t19 -49.5t-19 -50t-50 -19t-49.5 19z" />
    <glyph glyph-name="comma" unicode="," horiz-adv-x="181" 
d="M44 110h113l-63 -250h-70z" />
    <glyph glyph-name="colon" unicode=":" horiz-adv-x="186" 
d="M49.5 7q-18.5 19 -18.5 50t18.5 49.5t49.5 18.5t50 -18.5t19 -49.5t-19 -50t-50 -19t-49.5 19zM49.5 347q-18.5 19 -18.5 50t18.5 49.5t49.5 18.5t50 -18.5t19 -49.5t-19 -50t-50 -19t-49.5 19z" />
    <glyph glyph-name="semicolon" unicode=";" horiz-adv-x="190" 
d="M48 349q-19 19 -19 49q0 31 19 50t50 19t49.5 -19t18.5 -50q0 -30 -18.5 -49t-49.5 -19t-50 19zM44 110h113l-63 -250h-70z" />
    <glyph glyph-name="ellipsis" unicode="&#x2026;" horiz-adv-x="566" 
d="M50.5 8.5q-18.5 18.5 -18.5 49.5t18.5 50t49.5 19t50 -19t19 -50t-19 -49.5t-50 -18.5t-49.5 18.5zM233.5 8.5q-18.5 18.5 -18.5 49.5t18.5 50t49.5 19t49.5 -19t18.5 -50t-18.5 -49.5t-49.5 -18.5t-49.5 18.5zM416.5 8.5q-18.5 18.5 -18.5 49.5t18.5 50t49.5 19
t49.5 -19t18.5 -50t-18.5 -49.5t-49.5 -18.5t-49.5 18.5z" />
    <glyph glyph-name="exclam" unicode="!" horiz-adv-x="266" 
d="M73 700h119v-519h-119v519zM83.5 7q-18.5 19 -18.5 50t18.5 49.5t49.5 18.5t49.5 -18.5t18.5 -49.5t-18.5 -50t-49.5 -19t-49.5 19z" />
    <glyph glyph-name="exclamdown" unicode="&#xa1;" horiz-adv-x="266" 
d="M83.5 422.5q-18.5 18.5 -18.5 49.5t18.5 49.5t49.5 18.5t49.5 -18.5t18.5 -49.5t-18.5 -49.5t-49.5 -18.5t-49.5 18.5zM73 348h119v-528h-119v528z" />
    <glyph glyph-name="question" unicode="?" horiz-adv-x="403" 
d="M127 215q0 49 11.5 85t27 59.5t41.5 54.5q28 33 41.5 57t13.5 58q0 32 -17 53.5t-53 21.5q-35 0 -53.5 -23.5t-20.5 -67.5h-114q5 93 54.5 146.5t132.5 53.5q54 0 97 -22.5t67 -64t24 -96.5q0 -53 -17.5 -87.5t-52.5 -77.5q-33 -40 -49.5 -71.5t-16.5 -77.5v-35h-116v34z
M136.5 7q-18.5 19 -18.5 50t18.5 49.5t49.5 18.5t50 -18.5t19 -49.5t-19 -50t-50 -19t-49.5 19z" />
    <glyph glyph-name="questiondown" unicode="&#xbf;" horiz-adv-x="403" 
d="M159.5 420.5q-18.5 18.5 -18.5 49.5t18.5 49.5t49.5 18.5t49.5 -18.5t18.5 -49.5t-18.5 -49.5t-49.5 -18.5t-49.5 18.5zM69 -136q-52 50 -52 133q0 52 17.5 87t52.5 78q33 41 49 72.5t16 76.5v35h117v-35q0 -49 -11.5 -85t-27 -59t-41.5 -54q-29 -33 -42.5 -57t-13.5 -58
q0 -32 17.5 -54t52.5 -22t54 24t21 68h114q-6 -93 -55 -146.5t-133 -53.5q-83 0 -135 50z" />
    <glyph glyph-name="periodcentered" unicode="&#xb7;" horiz-adv-x="200" 
d="M50.5 208q-18.5 19 -18.5 50t18.5 49.5t49.5 18.5t50 -18.5t19 -49.5t-19 -50t-50 -19t-49.5 19z" />
    <glyph glyph-name="bullet" unicode="&#x2022;" horiz-adv-x="225" 
d="M45.5 184.5q-25.5 25.5 -25.5 66.5t25.5 66t66.5 25q40 0 65 -25t25 -66t-25 -66.5t-65 -25.5q-41 0 -66.5 25.5z" />
    <glyph glyph-name="asterisk" unicode="*" horiz-adv-x="313" 
d="M49 525l46 62l-74 24l24 73l73 -24v77h77v-77l73 24l24 -73l-74 -23l46 -63l-62 -45l-46 62l-45 -62z" />
    <glyph glyph-name="numbersign" unicode="#" horiz-adv-x="646" 
d="M124 174h-116l20 87h115l38 167h-115l20 87h115l43 185h107l-42 -185h105l43 185h108l-42 -185h115l-20 -87h-115l-39 -167h116l-20 -87h-115l-40 -174h-108l40 174h-106l-40 -174h-107zM356 261l38 167h-105l-39 -167h106z" />
    <glyph glyph-name="slash" unicode="/" horiz-adv-x="433" 
d="M326 815h102l-320 -936h-103z" />
    <glyph glyph-name="backslash" unicode="\" horiz-adv-x="505" 
d="M362 -121l-321 936h103l320 -936h-102z" />
    <glyph glyph-name="parenleft" unicode="(" horiz-adv-x="302" 
d="M116.5 -69q-50.5 53 -50.5 147v541q0 94 50.5 147t143.5 54v-110q-37 -1 -56.5 -22t-19.5 -62v-555q0 -81 76 -84v-110q-93 1 -143.5 54z" />
    <glyph glyph-name="parenright" unicode=")" horiz-adv-x="302" 
d="M42 -13q76 3 76 84v555q0 41 -19.5 62t-56.5 22v110q93 -1 143.5 -54t50.5 -147v-541q0 -94 -50.5 -147t-143.5 -54v110z" />
    <glyph glyph-name="braceleft" unicode="{" horiz-adv-x="339" 
d="M160 351q62 -53 62 -144v-141q0 -34 20 -54t56 -20v-112q-90 0 -141 53t-51 147v142q0 33 -16.5 52t-47.5 20v114q31 2 47.5 20t16.5 52v140q0 94 51 147t141 53v-112q-36 0 -56 -20t-20 -54v-139q0 -91 -62 -144z" />
    <glyph glyph-name="braceright" unicode="}" horiz-adv-x="339" 
d="M250 426q17 -19 48 -20v-113q-32 -2 -48.5 -20.5t-16.5 -52.5v-139q0 -94 -51 -147.5t-140 -53.5v113q36 0 55.5 19.5t19.5 53.5v140q0 89 63 143q-63 54 -63 144v141q0 35 -19.5 54.5t-55.5 19.5v112q89 0 140 -53t51 -147v-141q0 -34 17 -53z" />
    <glyph glyph-name="bracketleft" unicode="[" horiz-adv-x="311" 
d="M66 820h203v-109h-86v-722h86v-109h-203v940z" />
    <glyph glyph-name="bracketright" unicode="]" horiz-adv-x="311" 
d="M245 -120h-203v109h86v722h-86v109h203v-940z" />
    <glyph glyph-name="hyphen" unicode="-" horiz-adv-x="315" 
d="M34 308h247v-102h-247v102z" />
    <glyph glyph-name="endash" unicode="&#x2013;" horiz-adv-x="415" 
d="M34 308h347v-102h-347v102z" />
    <glyph glyph-name="emdash" unicode="&#x2014;" horiz-adv-x="550" 
d="M34 308h483v-102h-483v102z" />
    <glyph glyph-name="underscore" unicode="_" horiz-adv-x="379" 
d="M17 -10h345v-113h-345v113z" />
    <glyph glyph-name="hyphen.case" horiz-adv-x="315" 
d="M34 408h247v-102h-247v102z" />
    <glyph glyph-name="endash.case" horiz-adv-x="415" 
d="M34 408h347v-102h-347v102z" />
    <glyph glyph-name="emdash.case" horiz-adv-x="550" 
d="M34 408h483v-102h-483v102z" />
    <glyph glyph-name="quotesinglbase" unicode="&#x201a;" horiz-adv-x="181" 
d="M44 110h113l-63 -250h-70z" />
    <glyph glyph-name="quotedblbase" unicode="&#x201e;" horiz-adv-x="327" 
d="M44 110h113l-63 -250h-70zM190 110h113l-63 -250h-70z" />
    <glyph glyph-name="quotedblleft" unicode="&#x201c;" horiz-adv-x="313" 
d="M76 700h70l-20 -250h-113zM222 700h70l-20 -250h-113z" />
    <glyph glyph-name="quotedblright" unicode="&#x201d;" horiz-adv-x="313" 
d="M42 700h112l-62 -250h-71zM187 700h113l-63 -250h-70z" />
    <glyph glyph-name="quoteleft" unicode="&#x2018;" horiz-adv-x="168" 
d="M76 700h70l-20 -250h-113z" />
    <glyph glyph-name="quoteright" unicode="&#x2019;" horiz-adv-x="168" 
d="M42 702h112l-62 -250h-71z" />
    <glyph glyph-name="guillemotleft" unicode="&#xab;" horiz-adv-x="488" 
d="M34 237v40l113 151h116l-127 -171l127 -171h-116zM225 237v40l113 151h116l-127 -171l127 -171h-116z" />
    <glyph glyph-name="guillemotright" unicode="&#xbb;" horiz-adv-x="488" 
d="M34 86l127 171l-127 171h115l114 -151v-40l-114 -151h-115zM225 86l127 171l-127 171h116l113 -151v-40l-113 -151h-116z" />
    <glyph glyph-name="guilsinglleft" unicode="&#x2039;" horiz-adv-x="297" 
d="M34 237v40l113 151h116l-127 -171l127 -171h-116z" />
    <glyph glyph-name="guilsinglright" unicode="&#x203a;" horiz-adv-x="297" 
d="M34 86l127 171l-127 171h115l114 -151v-40l-114 -151h-115z" />
    <glyph glyph-name="quotedbl" unicode="&#x22;" horiz-adv-x="313" 
d="M42 700h112l-62 -250h-71zM187 700h113l-63 -250h-70z" />
    <glyph glyph-name="quotesingle" unicode="'" horiz-adv-x="168" 
d="M42 700h112l-62 -250h-71z" />
    <glyph glyph-name="guillemotleft.case" horiz-adv-x="488" 
d="M34 297v40l113 151h116l-127 -171l127 -171h-116zM225 297v40l113 151h116l-127 -171l127 -171h-116z" />
    <glyph glyph-name="guillemotright.case" horiz-adv-x="488" 
d="M34 146l127 171l-127 171h115l114 -151v-40l-114 -151h-115zM225 146l127 171l-127 171h116l113 -151v-40l-113 -151h-116z" />
    <glyph glyph-name="guilsinglleft.case" horiz-adv-x="297" 
d="M34 297v40l113 151h116l-127 -171l127 -171h-116z" />
    <glyph glyph-name="guilsinglright.case" horiz-adv-x="297" 
d="M34 146l127 171l-127 171h115l114 -151v-40l-114 -151h-115z" />
    <glyph glyph-name="uni00A0" unicode="&#xa0;" horiz-adv-x="207" 
 />
    <glyph glyph-name="cent" unicode="&#xa2;" horiz-adv-x="439" 
d="M376 55q-38 -50 -106 -63v-67h-92v68q-65 13 -100.5 63t-35.5 129v160q0 78 35.5 127.5t100.5 62.5v66h92v-65q68 -12 104.5 -61t38.5 -130h-119q-3 82 -67 82q-32 0 -49 -20.5t-17 -61.5v-160q0 -42 17 -63t49 -21q67 0 70 84h119q-2 -80 -40 -130z" />
    <glyph glyph-name="currency" unicode="&#xa4;" horiz-adv-x="465" 
d="M32 120l52 71q-21 38 -21 92v77q0 52 20 92l-51 70l68 50l43 -59q39 23 89 23t91 -23l42 59l68 -50l-51 -70q20 -40 20 -92v-77q0 -54 -21 -92l52 -71l-68 -49l-44 59q-38 -22 -89 -22q-50 0 -88 22l-44 -59zM292 284v75q0 72 -60 72q-59 0 -59 -72v-75q0 -36 15.5 -54
t43.5 -18q60 0 60 72z" />
    <glyph glyph-name="dollar" unicode="$" horiz-adv-x="472" 
d="M403 56.5q-43 -52.5 -119 -66.5v-75h-102v76q-75 14 -117 67.5t-43 139.5h126q1 -46 23.5 -69t63.5 -23t62 21.5t21 56.5q0 37 -28 63.5t-86 62.5q-53 32 -87 59t-57.5 67.5t-23.5 95.5q0 67 39 115t107 62v76h102v-76q71 -14 111 -65.5t41 -131.5h-126q-1 41 -20.5 62
t-55.5 21q-34 0 -53.5 -18t-19.5 -48q0 -35 27 -59.5t84 -58.5q55 -32 89.5 -58.5t59.5 -69t25 -100.5q0 -74 -43 -126.5z" />
    <glyph glyph-name="Euro" unicode="&#x20ac;" horiz-adv-x="562" 
d="M539 208q-4 -106 -60.5 -163t-158.5 -57q-99 0 -154.5 57.5t-55.5 164.5v50h-80v68h80v50h-80v69h80v43q0 108 55.5 166t153.5 58q100 0 156 -57.5t61 -164.5h-123q-4 54 -26.5 78.5t-67.5 24.5q-39 0 -60.5 -26t-21.5 -79v-43h127v-69h-127v-50h127v-68h-127v-50
q0 -52 21.5 -77.5t61.5 -25.5q46 0 69 24.5t27 76.5h123z" />
    <glyph glyph-name="sterling" unicode="&#xa3;" horiz-adv-x="482" 
d="M451 113v-113h-424v102q32 4 45.5 24.5t13.5 60.5v104h-60v104h60v124q0 87 48.5 140t128.5 53t129.5 -53.5t54.5 -148.5h-119q-9 83 -66 83q-26 0 -41.5 -18.5t-15.5 -54.5v-125h157v-104h-157v-103q0 -45 -16 -75h262z" />
    <glyph glyph-name="yen" unicode="&#xa5;" horiz-adv-x="460" 
d="M317 291h132v-72h-157v-61h157v-72h-157v-86h-123v86h-158v72h158v61h-158v72h133l-143 409h128l67 -212q15 -44 33 -111h3q16 59 33 113l66 210h128z" />
    <glyph glyph-name="plus" unicode="+" horiz-adv-x="471" 
d="M430 256h-140v-144h-109v144h-140v108h140v144h109v-144h140v-108z" />
    <glyph glyph-name="minus" unicode="&#x2212;" horiz-adv-x="471" 
d="M41 364h389v-108h-389v108z" />
    <glyph glyph-name="multiply" unicode="&#xd7;" horiz-adv-x="471" 
d="M37 177l122 122l-121 120l76 78l122 -122l121 122l77 -78l-121 -120l121 -122l-77 -77l-121 122l-122 -122z" />
    <glyph glyph-name="divide" unicode="&#xf7;" horiz-adv-x="471" 
d="M190 414q-18 18 -18 47t18 47t47 18t47 -18t18 -47t-18 -47t-47 -18t-47 18zM41 354h389v-101h-389v101zM190 93q-18 18 -18 47t18 47t47 18t47 -18t18 -47t-18 -47t-47 -18t-47 18z" />
    <glyph glyph-name="equal" unicode="=" horiz-adv-x="471" 
d="M41 457h389v-107h-389v107zM41 259h389v-106h-389v106z" />
    <glyph glyph-name="notequal" unicode="&#x2260;" horiz-adv-x="475" 
d="M303 347l-31 -71h160v-109h-207l-29 -66h-101l29 66h-80v109h127l31 71h-158v109h206l29 67h101l-29 -67h81v-109h-129z" />
    <glyph glyph-name="greater" unicode="&#x3e;" horiz-adv-x="441" 
d="M400 356v-114l-359 -137v110l238 84l-238 83v110z" />
    <glyph glyph-name="less" unicode="&#x3c;" horiz-adv-x="441" 
d="M400 382l-238 -83l238 -84v-110l-359 137v114l359 136v-110z" />
    <glyph glyph-name="greaterequal" unicode="&#x2265;" horiz-adv-x="441" 
d="M400 439v-114l-359 -137v110l238 84l-238 84v110zM41 161h359v-103h-359v103z" />
    <glyph glyph-name="lessequal" unicode="&#x2264;" horiz-adv-x="441" 
d="M400 466l-238 -84l238 -84v-110l-359 137v114l359 137v-110zM41 161h359v-103h-359v103z" />
    <glyph glyph-name="plusminus" unicode="&#xb1;" horiz-adv-x="475" 
d="M432 428v-106h-140v-130h-109v130h-139v106h139v130h109v-130h140zM44 146h388v-101h-388v101z" />
    <glyph glyph-name="approxequal" unicode="&#x2248;" horiz-adv-x="475" 
d="M287.5 322.5q-22.5 5.5 -54.5 15.5q-27 8 -45.5 12.5t-36.5 4.5q-17 0 -32.5 -7.5t-25.5 -20.5l-57 81q43 51 104 51q24 0 46.5 -5t56.5 -16q28 -9 46.5 -13.5t35.5 -4.5q16 0 31.5 8t26.5 21l57 -80q-42 -52 -105 -52q-25 0 -47.5 5.5zM287.5 146.5
q-22.5 5.5 -54.5 15.5q-27 8 -45.5 12.5t-36.5 4.5q-17 0 -32.5 -8t-25.5 -21l-57 81q42 51 104 51q24 0 46.5 -5t56.5 -16q53 -17 82 -17q16 0 31.5 8t26.5 21l57 -80q-42 -52 -105 -52q-25 0 -47.5 5.5z" />
    <glyph glyph-name="asciitilde" unicode="~" horiz-adv-x="475" 
d="M287.5 240.5q-23.5 6.5 -57.5 19.5q-27 11 -44.5 16t-32.5 5q-19 0 -33.5 -9t-27.5 -28l-60 73q23 35 50 50.5t59 15.5q24 0 45 -6t59 -20q27 -11 44.5 -16t32.5 -5q37 0 60 38l63 -74q-44 -66 -110 -66q-24 0 -47.5 6.5z" />
    <glyph glyph-name="logicalnot" unicode="&#xac;" horiz-adv-x="475" 
d="M334 256h-290v108h397v-177h-107v69z" />
    <glyph glyph-name="asciicircum" unicode="^" horiz-adv-x="349" 
d="M237 473l-62 133l-63 -133h-105l116 227h102l116 -227h-104z" />
    <glyph glyph-name="emptyset" unicode="&#x2205;" horiz-adv-x="791" 
d="M655 609q45 -48 69 -114t24 -145q0 -108 -44 -189.5t-124 -126.5t-185 -45q-97 0 -175 39l-46 -61h-130l92 123q-45 48 -69.5 114t-24.5 146q0 108 44 189.5t124 126.5t185 45q99 0 177 -40l46 62h130zM200 175l310 414q-54 24 -115 24q-75 0 -132 -33t-88 -92.5
t-31 -137.5q0 -105 56 -175zM591 524l-309 -413q50 -24 113 -24q74 0 131 33t88 92.5t31 137.5q0 105 -54 174z" />
    <glyph glyph-name="infinity" unicode="&#x221e;" horiz-adv-x="624" 
d="M510.5 394q33.5 -20 53 -57t19.5 -85q0 -72 -41 -116t-103 -44q-40 0 -72 18.5t-55 51.5q-23 -33 -55 -51.5t-72 -18.5q-62 0 -102.5 44t-40.5 116q0 48 19 85t52.5 57t73.5 20q74 0 125 -63q51 63 125 63q40 0 73.5 -20zM228.5 210q13.5 15 24.5 44q-11 28 -24.5 42.5
t-33.5 14.5q-21 0 -34.5 -15t-13.5 -43t13.5 -43t34.5 -15q20 0 33.5 15zM464.5 210q13.5 15 13.5 43t-13.5 43t-34.5 15q-20 0 -33.5 -14t-25.5 -43q12 -30 25.5 -44.5t33.5 -14.5q21 0 34.5 15z" />
    <glyph glyph-name="integral" unicode="&#x222b;" horiz-adv-x="337" 
d="M28 -78q81 1 81 73v515q0 96 51.5 148.5t148.5 52.5v-113q-81 0 -81 -73v-515q0 -95 -51.5 -147.5t-148.5 -53.5v113z" />
    <glyph glyph-name="product" unicode="&#x220f;" horiz-adv-x="517" 
d="M66 700h386v-800h-121v683h-144v-683h-121v800z" />
    <glyph glyph-name="summation" unicode="&#x2211;" horiz-adv-x="381" 
d="M32 94l148 256l-148 256v98h317v-110h-184l115 -208v-72l-115 -208h184v-110h-317v98z" />
    <glyph glyph-name="radical" unicode="&#x221a;" horiz-adv-x="505" 
d="M95 395h-85v105h180l70 -395l118 685h115l-152 -790h-161z" />
    <glyph glyph-name="partialdiff" unicode="&#x2202;" horiz-adv-x="464" 
d="M356 619.5q66 -87.5 67 -241.5v-184q0 -98 -50.5 -152t-140.5 -54t-140 54t-50 152v107q0 98 47.5 151.5t131.5 53.5q40 0 72 -19q-35 118 -150 158l42 93q105 -31 171 -118.5zM303 301q0 90 -71 90q-70 0 -70 -90v-107q0 -91 70 -91q71 0 71 91v107z" />
    <glyph glyph-name="percent" unicode="%" horiz-adv-x="593" 
d="M34.5 416.5q-28.5 28.5 -28.5 80.5v104q0 52 28.5 81t76.5 29t76.5 -29t28.5 -81v-104q0 -52 -28.5 -80.5t-76.5 -28.5t-76.5 28.5zM493 700h82l-476 -700h-82zM135 463q8 10 8 33v106q0 24 -8 34t-24 10q-17 0 -25 -10t-8 -34v-106q0 -23 8.5 -33t24.5 -10t24 10z
M391.5 19.5q-28.5 28.5 -28.5 81.5v103q0 53 28.5 82t76.5 29t76.5 -29t28.5 -82v-103q0 -53 -28.5 -81.5t-76.5 -28.5t-76.5 28.5zM492 66q8 10 8 33v107q0 23 -8 33t-24 10t-24.5 -10t-8.5 -33v-107q0 -23 8.5 -33t24.5 -10t24 10z" />
    <glyph glyph-name="perthousand" unicode="&#x2030;" horiz-adv-x="834" 
d="M49.5 416.5q-28.5 28.5 -28.5 80.5v104q0 52 28.5 81t76.5 29t76.5 -29t28.5 -81v-104q0 -52 -28.5 -80.5t-76.5 -28.5t-76.5 28.5zM496 700h82l-483 -700h-82zM150 463q8 10 8 33v106q0 24 -8 34t-24 10t-24 -10t-8 -34v-106q0 -23 8 -33t24 -10t24 10zM376.5 19.5
q-28.5 28.5 -28.5 81.5v103q0 53 28.5 82t76.5 29t76 -29t28 -82v-103q0 -53 -28 -81.5t-76 -28.5t-76.5 28.5zM633.5 19.5q-28.5 28.5 -28.5 81.5v103q0 53 28.5 82t77.5 29q48 0 76 -29t28 -82v-103q0 -53 -28 -81.5t-76 -28.5q-49 0 -77.5 28.5zM477 66q8 10 8 33v107
q0 23 -8 33t-24 10t-24.5 -10t-8.5 -33v-107q0 -23 8.5 -33t24.5 -10t24 10zM734.5 66q7.5 10 7.5 33v107q0 23 -7.5 33t-23.5 10q-17 0 -25 -10t-8 -33v-107q0 -23 8 -33t25 -10q16 0 23.5 10z" />
    <glyph glyph-name="lozenge" unicode="&#x25ca;" horiz-adv-x="474" 
d="M42 334v34l132 332h127l131 -332v-34l-131 -334h-127zM321 351l-84 228l-84 -228l84 -230z" />
    <glyph glyph-name="at" unicode="@" horiz-adv-x="818" 
d="M143.5 -20q-101.5 100 -101.5 284v115q0 110 45 188.5t129 119.5t200 41q172 0 266 -86t94 -243v-108q0 -69 -25 -113.5t-63.5 -65t-80.5 -20.5t-66.5 17.5t-39.5 46.5q-33 -66 -111 -66q-62 0 -97.5 39.5t-35.5 113.5v118q0 77 35.5 117t91.5 40q32 0 54 -13.5t37 -38.5
l7 38h71v-248q0 -37 11 -55.5t43 -18.5q37 0 56 28t19 81v108q0 117 -67.5 177.5t-197.5 60.5q-137 0 -209 -66t-72 -192v-115q0 -143 74 -218.5t216 -75.5q117 0 207 46l47 -71q-94 -65 -248 -65q-187 0 -288.5 100zM443 199.5q15 18.5 15 52.5v106q0 31 -14 50t-40 19
q-24 0 -37 -16t-13 -47v-118q0 -32 12.5 -48.5t36.5 -16.5q25 0 40 18.5z" />
    <glyph glyph-name="ampersand" unicode="&#x26;" horiz-adv-x="597" 
d="M438 0l-36 53q-70 -67 -157 -67q-47 0 -88 20.5t-66 61t-25 96.5q0 62 29 111.5t80 99.5q-35 56 -52.5 99t-17.5 80q0 40 17 77t52.5 60t87.5 23q78 0 117.5 -46.5t39.5 -113.5q0 -56 -28 -101t-79 -95q31 -43 89 -125q14 32 21 58h110q-21 -84 -64 -155l13 -20
q25 -35 79 -116h-122zM220.5 506.5q9.5 -23.5 31.5 -58.5q29 28 44.5 53t15.5 51q0 24 -12.5 42t-37.5 18q-22 0 -36.5 -15.5t-14.5 -46.5q0 -20 9.5 -43.5zM340 142q-14 20 -27 37.5t-24 33.5l-52 72q-27 -29 -41.5 -55.5t-14.5 -56.5q0 -35 19.5 -56t50.5 -21q45 0 89 46z
" />
    <glyph glyph-name="paragraph" unicode="&#xb6;" horiz-adv-x="615" 
d="M207 379q-74 0 -119.5 44t-45.5 118q0 75 45.5 119t119.5 44h342v-795h-119v683h-104v-683h-119v470z" />
    <glyph glyph-name="section" unicode="&#xa7;" horiz-adv-x="428" 
d="M397 106q0 -74 -48 -118t-132 -44q-61 0 -104 24.5t-65 65t-23 89.5h117q2 -31 19 -51t53 -20q31 0 48 14.5t17 40.5t-23 41.5t-73 35.5q-51 22 -83 40.5t-55 51t-23 81.5q0 81 67 122q-52 44 -52 112t46.5 108t124.5 40q84 0 127.5 -46.5t48.5 -125.5h-114q-3 66 -62 66
q-26 0 -40.5 -12.5t-14.5 -31.5q0 -24 21 -38.5t67 -33.5q50 -21 82 -40t55.5 -54.5t23.5 -89.5q0 -75 -56 -117q51 -44 51 -110zM273.5 299q10.5 13 10.5 31q0 27 -22.5 45t-64.5 36q-25 -1 -41.5 -15t-16.5 -36q0 -26 25.5 -43t80.5 -35q18 4 28.5 17z" />
    <glyph glyph-name="copyright" unicode="&#xa9;" horiz-adv-x="684" 
d="M124 78.5q-78 85.5 -78 238.5v76q0 151 78 236t218 85t218 -85t78 -236v-76q0 -153 -78 -238.5t-218 -85.5t-218 85.5zM503 131q55 64 55 186v76q0 121 -55 183.5t-161 62.5t-161 -62.5t-55 -183.5v-76q0 -122 55 -186t161 -64t161 64zM245.5 187.5
q-34.5 37.5 -34.5 103.5v123q0 66 34.5 103t94.5 37q62 0 96 -36.5t36 -103.5h-83q-1 59 -47 59q-23 0 -35.5 -15t-12.5 -44v-123q0 -29 12.5 -44t35.5 -15q47 0 50 59h83q-1 -67 -37 -104t-98 -37q-60 0 -94.5 37.5z" />
    <glyph glyph-name="registered" unicode="&#xae;" horiz-adv-x="456" 
d="M364.5 664.5q47.5 -49.5 47.5 -141.5v-59q0 -96 -47.5 -147.5t-133.5 -51.5q-87 0 -134.5 51.5t-47.5 147.5v59q0 92 47.5 141.5t134.5 49.5q86 0 133.5 -49.5zM369 522q0 75 -35.5 113t-102.5 38q-68 0 -103.5 -38t-35.5 -113v-59q0 -79 35.5 -119t103.5 -40
q67 0 102.5 40t35.5 119v59zM272 461l49 -92h-50l-42 84h-20v-84h-46v244h70q37 0 57 -21t20 -59q0 -51 -38 -72zM209 496h23q32 0 32 37q0 36 -32 36h-23v-73z" />
    <glyph glyph-name="trademark" unicode="&#x2122;" horiz-adv-x="474" 
d="M20 700h166v-54h-54v-218h-57v218h-55v54zM448 700v-272h-56v46q0 65 5 130l-4 1q-19 -60 -21 -68l-14 -43h-53l-14 43q-10 37 -22 68l-3 -1q5 -65 5 -130v-46h-56v272h62l21 -49q8 -22 19 -56t14 -48q6 22 16 51.5t18 52.5l20 49h63z" />
    <glyph glyph-name="degree" unicode="&#xb0;" horiz-adv-x="311" 
d="M58.5 476.5q-36.5 37.5 -36.5 99.5q0 61 36.5 98.5t97.5 37.5t97.5 -37.5t36.5 -98.5q0 -62 -36.5 -99.5t-97.5 -37.5t-97.5 37.5zM196 532.5q15 16.5 15 43.5t-15 43.5t-40 16.5t-40 -16.5t-15 -43.5t15 -43.5t40 -16.5t40 16.5z" />
    <glyph glyph-name="bar" unicode="|" horiz-adv-x="219" 
d="M49 803h120v-899h-120v899z" />
    <glyph glyph-name="brokenbar" unicode="&#xa6;" horiz-adv-x="199" 
d="M39 803h120v-315h-120v315zM39 224h120v-316h-120v316z" />
    <glyph glyph-name="dagger" unicode="&#x2020;" horiz-adv-x="370" 
d="M351 415h-111v-513h-110v513h-111v105h111v185h110v-185h111v-105z" />
    <glyph glyph-name="daggerdbl" unicode="&#x2021;" horiz-adv-x="375" 
d="M242 415v-189h111v-105h-111v-219h-111v219h-111v105h111v189h-111v105h111v185h111v-185h111v-105h-111z" />
    <glyph glyph-name="uni0308" unicode="&#x308;" 
d="M-249 632.5q-15 15.5 -15 40.5t15 40t41 15t41 -15t15 -40t-15.5 -40.5t-40.5 -15.5q-26 0 -41 15.5zM-97.5 632.5q-15.5 15.5 -15.5 40.5t15.5 40t41.5 15q25 0 40.5 -15t15.5 -40t-15.5 -40.5t-40.5 -15.5q-26 0 -41.5 15.5z" />
    <glyph glyph-name="uni0307" unicode="&#x307;" 
d="M-150 630.5q-19 19.5 -19 49.5t19 49.5t49 19.5q29 0 49 -19.5t20 -49.5q0 -28 -20 -48.5t-49 -20.5q-30 0 -49 19.5z" />
    <glyph glyph-name="gravecomb" unicode="&#x300;" 
d="M-85 609l-92 132h103l74 -132h-85z" />
    <glyph glyph-name="acutecomb" unicode="&#x301;" 
d="M-103 741h103l-92 -132h-85z" />
    <glyph glyph-name="uni030B" unicode="&#x30b;" 
d="M-236 741h94l-91 -132h-78zM-94 741h94l-96 -132h-78z" />
    <glyph glyph-name="uni0302" unicode="&#x302;" 
d="M-80 609l-46 68l-47 -68h-82l81 131h94l81 -131h-81z" />
    <glyph glyph-name="uni030C" unicode="&#x30c;" 
d="M7 741l-81 -132h-94l-81 132h82l47 -69l46 69h81z" />
    <glyph glyph-name="uni0306" unicode="&#x306;" 
d="M-213 643.5q-35 32.5 -37 89.5h79q1 -22 13.5 -34.5t32.5 -12.5q19 0 32 12.5t14 34.5h78q-2 -58 -36 -90t-87 -32q-54 0 -89 32.5z" />
    <glyph glyph-name="uni030A" unicode="&#x30a;" 
d="M-153.5 629.5q-23.5 23.5 -23.5 61.5q0 37 23.5 60t62.5 23t63 -23t24 -60q0 -38 -24 -61.5t-63 -23.5t-62.5 23.5zM-67 666q9 9 9 24t-9 24t-24 9q-14 0 -23 -9t-9 -24t9 -24t23 -9q15 0 24 9z" />
    <glyph glyph-name="tildecomb" unicode="&#x303;" 
d="M-111.5 626.5q-10.5 4.5 -24.5 12.5q-15 12 -28 12q-9 0 -16.5 -7t-8.5 -19h-72q3 48 26.5 73.5t59.5 25.5q16 0 27 -4.5t24 -13.5q17 -11 27 -11t17 7.5t9 18.5h71q-3 -46 -26 -72.5t-60 -26.5q-15 0 -25.5 4.5z" />
    <glyph glyph-name="uni0304" unicode="&#x304;" 
d="M-211 712h211v-78h-211v78z" />
    <glyph glyph-name="uni0312" unicode="&#x312;" 
d="M-54 809h74l-17 -207h-113z" />
    <glyph glyph-name="uni0326" unicode="&#x326;" 
d="M-103 -71h103l-48 -202h-71z" />
    <glyph glyph-name="uni0327" unicode="&#x327;" 
d="M-181 -180q-30 23 -34 60h66q11 -24 40 -24q17 0 26.5 8.5t9.5 21.5q0 27 -35 27q-19 0 -32 -6l-20 19l21 74h65l-13 -48q2 1 10 1q32 0 52.5 -19t20.5 -50q0 -40 -29 -63.5t-77 -23.5q-41 0 -71 23z" />
    <glyph glyph-name="uni0328" unicode="&#x328;" 
d="M-152.5 -170.5q-25.5 23.5 -25.5 61.5q0 59 60 109h101q-24 -17 -38.5 -38.5t-14.5 -37.5q0 -27 33 -27q20 0 29 3v-82q-16 -7 -33 -9.5t-40 -2.5q-46 0 -71.5 23.5z" />
    <glyph glyph-name="uni0335" unicode="&#x335;" 
d="M-210 433h200v-61h-200v61z" />
    <glyph glyph-name="uni0336" unicode="&#x336;" 
d="M-330 433h320v-61h-320v61z" />
    <glyph glyph-name="uni0337" unicode="&#x337;" 
d="M-128 553h128l-157 -596h-127z" />
    <glyph glyph-name="uni0338" unicode="&#x338;" 
d="M-149 739h125l-211 -778h-125z" />
    <glyph glyph-name="acute" unicode="&#xb4;" horiz-adv-x="177" 
d="M74 741h103l-92 -132h-85z" />
    <glyph glyph-name="breve" unicode="&#x2d8;" horiz-adv-x="250" 
d="M37 643.5q-35 32.5 -37 89.5h79q1 -22 13.5 -34.5t32.5 -12.5q19 0 32 12.5t14 34.5h78q-2 -58 -36 -90t-87 -32q-54 0 -89 32.5z" />
    <glyph glyph-name="caron" unicode="&#x2c7;" horiz-adv-x="247" 
d="M254 741l-81 -132h-94l-81 132h82l47 -69l46 69h81z" />
    <glyph glyph-name="cedilla" unicode="&#xb8;" horiz-adv-x="220" 
d="M39 -180q-30 23 -34 60h66q11 -24 40 -24q17 0 26.5 8.5t9.5 21.5q0 27 -35 27q-19 0 -32 -6l-20 19l21 74h65l-13 -48q2 1 10 1q32 0 52.5 -19t20.5 -50q0 -40 -29 -63.5t-77 -23.5q-41 0 -71 23z" />
    <glyph glyph-name="circumflex" unicode="&#x2c6;" horiz-adv-x="253" 
d="M173 609l-46 68l-47 -68h-82l81 131h94l81 -131h-81z" />
    <glyph glyph-name="dieresis" unicode="&#xa8;" horiz-adv-x="264" 
d="M15.5 632.5q-15.5 15.5 -15.5 40.5t15 40t41 15t41 -15t15 -40t-15 -40.5t-41 -15.5q-25 0 -40.5 15.5zM166.5 632.5q-15.5 15.5 -15.5 40.5t15.5 40t41.5 15q25 0 40.5 -15t15.5 -40t-15.5 -40.5t-40.5 -15.5q-26 0 -41.5 15.5z" />
    <glyph glyph-name="dotaccent" unicode="&#x2d9;" horiz-adv-x="201" 
d="M51 630.5q-19 19.5 -19 49.5t19 49.5t49 19.5q29 0 49 -19.5t20 -49.5q0 -28 -20 -48.5t-49 -20.5q-30 0 -49 19.5z" />
    <glyph glyph-name="grave" unicode="`" horiz-adv-x="177" 
d="M92 609l-92 132h103l74 -132h-85z" />
    <glyph glyph-name="hungarumlaut" unicode="&#x2dd;" horiz-adv-x="311" 
d="M75 741h94l-91 -132h-78zM217 741h94l-96 -132h-78z" />
    <glyph glyph-name="macron" unicode="&#xaf;" horiz-adv-x="211" 
d="M0 712h211v-78h-211v78z" />
    <glyph glyph-name="ogonek" unicode="&#x2db;" horiz-adv-x="177" 
d="M24.5 -170.5q-25.5 23.5 -25.5 61.5q0 59 60 109h101q-24 -17 -38.5 -38.5t-14.5 -37.5q0 -27 33 -27q20 0 29 3v-82q-16 -7 -33 -9.5t-40 -2.5q-46 0 -71.5 23.5z" />
    <glyph glyph-name="ring" unicode="&#x2da;" horiz-adv-x="181" 
d="M27.5 629.5q-23.5 23.5 -23.5 61.5q0 37 23.5 60t62.5 23t63 -23t24 -60q0 -38 -24 -61.5t-63 -23.5t-62.5 23.5zM114 666q9 9 9 24t-9 24t-24 9q-14 0 -23 -9t-9 -24t9 -24t23 -9q15 0 24 9z" />
    <glyph glyph-name="tilde" unicode="&#x2dc;" horiz-adv-x="261" 
d="M149.5 626.5q-10.5 4.5 -24.5 12.5q-15 12 -28 12q-9 0 -16.5 -7t-8.5 -19h-72q3 48 26.5 73.5t59.5 25.5q16 0 27 -4.5t24 -13.5q17 -11 27 -11t17 7.5t9 18.5h71q-3 -46 -26 -72.5t-60 -26.5q-15 0 -25.5 4.5z" />
    <glyph glyph-name="uni0308.case" 
d="M-250 793.5q-15 15.5 -15 40.5q0 26 15 41t41 15q25 0 40 -15.5t15 -40.5t-15 -40.5t-40 -15.5q-26 0 -41 15.5zM-96 793.5q-15 15.5 -15 40.5q0 26 15 41t41 15q25 0 40.5 -15t15.5 -41q0 -25 -15.5 -40.5t-40.5 -15.5q-26 0 -41 15.5z" />
    <glyph glyph-name="uni0307.case" 
d="M-117 789.5q-19 19.5 -19 48.5q0 30 19 49.5t49 19.5q29 0 49 -19.5t20 -49.5q0 -28 -20 -48t-49 -20q-30 0 -49 19.5z" />
    <glyph glyph-name="gravecomb.case" 
d="M-99 767l-111 132h103l93 -132h-85z" />
    <glyph glyph-name="acutecomb.case" 
d="M-103 899h103l-111 -132h-86z" />
    <glyph glyph-name="uni030B.case" 
d="M-231 900h94l-91 -132h-78zM-89 900h94l-96 -132h-78z" />
    <glyph glyph-name="uni0302.case" 
d="M-79 767l-46 68l-47 -68h-82l81 131h94l81 -131h-81z" />
    <glyph glyph-name="uni030C.case" 
d="M1 899l-81 -132h-93l-81 132h81l47 -69l46 69h81z" />
    <glyph glyph-name="uni0306.case" 
d="M-207 801.5q-35 32.5 -37 89.5h79q1 -22 13.5 -34.5t32.5 -12.5q19 0 32 12.5t14 34.5h78q-2 -58 -36 -90t-87 -32q-54 0 -89 32.5z" />
    <glyph glyph-name="uni030A.case" 
d="M-143.5 786.5q-23.5 23.5 -23.5 61.5q0 37 23.5 60t62.5 23t63 -23t24 -60q0 -38 -24 -61.5t-63 -23.5t-62.5 23.5zM-57 823q9 9 9 24t-9 24t-24 9q-14 0 -23 -9t-9 -24t9 -24t23 -9q15 0 24 9z" />
    <glyph glyph-name="tildecomb.case" 
d="M-97.5 788.5q-10.5 4.5 -24.5 12.5q-15 12 -28 12q-9 0 -16.5 -7t-8.5 -19h-72q3 48 26.5 73.5t59.5 25.5q16 0 27 -4.5t24 -13.5q17 -11 27 -11t17 7.5t9 18.5h71q-3 -46 -26 -72.5t-60 -26.5q-15 0 -25.5 4.5z" />
    <glyph glyph-name="uni0304.case" 
d="M-205 870h211v-79h-211v79z" />
    <glyph glyph-name="uni0312.case" 
d="M-125 986h74l56 -206h-113z" />
    <glyph glyph-name="uni0326.case" 
d="M-106 -71h103l-48 -202h-71z" />
    <glyph glyph-name="uni0327.case" 
d="M-173 -180q-30 23 -34 60h66q11 -24 40 -24q17 0 26.5 8.5t9.5 21.5q0 27 -35 27q-19 0 -32 -6l-20 19l21 74h65l-13 -48q2 1 10 1q32 0 52.5 -19t20.5 -50q0 -40 -29 -63.5t-77 -23.5q-41 0 -71 23z" />
    <glyph glyph-name="uni0328.case" 
d="M-150.5 -170.5q-25.5 23.5 -25.5 61.5q0 59 60 109h101q-24 -17 -38.5 -38.5t-14.5 -37.5q0 -27 33 -27q20 0 29 3v-82q-16 -7 -33 -9.5t-40 -2.5q-46 0 -71.5 23.5z" />
    <glyph glyph-name="uni0337.case" 
d="M-134 553h128l-157 -596h-127z" />
    <glyph glyph-name="uni0338.case" 
d="M-321 739h125l-211 -778h-125z" />
    <glyph glyph-name="brevecombcy" 
d="M-208 643.5q-35 32.5 -37 89.5h79q1 -22 13.5 -34.5t32.5 -12.5q19 0 32 12.5t14 34.5h78q-2 -58 -36 -90t-87 -32q-54 0 -89 32.5z" />
    <glyph glyph-name="brevecombcy.case" 
d="M-207 801.5q-35 32.5 -37 89.5h79q1 -22 13.5 -34.5t32.5 -12.5q19 0 32 12.5t14 34.5h78q-2 -58 -36 -90t-87 -32q-54 0 -89 32.5z" />
    <glyph glyph-name="uni0312.001" horiz-adv-x="128" 
d="M-2 809h75l55 -207h-112z" />
    <glyph glyph-name="uni0335.001" horiz-adv-x="220" 
d="M10 433h200v-61h-200v61z" />
    <glyph glyph-name="uni0336.001" horiz-adv-x="340" 
d="M10 433h320v-61h-320v61z" />
    <glyph glyph-name="uni0337.001" horiz-adv-x="264" 
d="M136 553h128l-157 -596h-127z" />
    <glyph glyph-name="uni0338.001" horiz-adv-x="390" 
d="M241 739h125l-211 -778h-125z" />
    </font>
</defs>
</svg>
