<?xml version="1.0" standalone="no"?>
<!DOCTYPE svg PUBLIC "-//W3C//DTD SVG 1.1//EN" "http://www.w3.org/Graphics/SVG/1.1/DTD/svg11.dtd" >
<svg xmlns="http://www.w3.org/2000/svg" xmlns:xlink="http://www.w3.org/1999/xlink" version="1.1">
<metadata>
Created by FontForge 20190801 at Tue Apr 16 12:56:29 2019
 By Jimmy Wärting
Copyright (c) 2016 by Fontfabric LLC. All rights reserved.
</metadata>
<defs>
<font id="Akrobat-Regular" horiz-adv-x="0" >
  <font-face 
    font-family="Akrobat"
    font-weight="500"
    font-stretch="normal"
    units-per-em="1000"
    panose-1="0 0 6 0 0 0 0 0 0 0"
    ascent="800"
    descent="-200"
    x-height="525"
    cap-height="700"
    bbox="-381 -249 802 946"
    underline-thickness="50"
    underline-position="-100"
    unicode-range="U+0020-25CA"
  />
<missing-glyph horiz-adv-x="500" 
d="M410 -200h-317v1000h317v-1000zM168 733v-33h65v-37h-66v-33h166v33h-66v37h66v33h-165zM167 604v-104h166v34h-66v70h-100zM233 534h-33v36h33v-36zM167 473v-33h66v-37h-66v-33h100v70h66v33h-166zM300 413v-66h-133v-34h166v100h-33zM233 291v-56h34v23h33v-47h-100
v80h-33v-113h166v113h-100zM167 118v-113h166v113h-166zM300 38h-100v47h100v-47zM167 -18v-33h70l-70 -47v-33h166v33h-102l70 47h32v33h-166z" />
    <glyph glyph-name=".notdef" horiz-adv-x="500" 
d="M410 -200h-317v1000h317v-1000zM168 733v-33h65v-37h-66v-33h166v33h-66v37h66v33h-165zM167 604v-104h166v34h-66v70h-100zM233 534h-33v36h33v-36zM167 473v-33h66v-37h-66v-33h100v70h66v33h-166zM300 413v-66h-133v-34h166v100h-33zM233 291v-56h34v23h33v-47h-100
v80h-33v-113h166v113h-100zM167 118v-113h166v113h-166zM300 38h-100v47h100v-47zM167 -18v-33h70l-70 -47v-33h166v33h-102l70 47h32v33h-166z" />
    <glyph glyph-name="space" unicode=" " horiz-adv-x="229" 
 />
    <glyph glyph-name="A" unicode="A" horiz-adv-x="458" 
d="M340 164h-222l-41 -164h-66l184 700h68l184 -700h-66zM326 220l-72 290q-15 58 -24 110h-2q-9 -52 -24 -110l-72 -290h194z" />
    <glyph glyph-name="Aacute" unicode="&#xc1;" horiz-adv-x="458" 
d="M340 164h-222l-41 -164h-66l184 700h68l184 -700h-66zM326 220l-72 290q-15 58 -24 110h-2q-9 -52 -24 -110l-72 -290h194zM271 882h72l-105 -113h-59z" />
    <glyph glyph-name="Abreve" unicode="&#x102;" horiz-adv-x="458" 
d="M340 164h-222l-41 -164h-66l184 700h68l184 -700h-66zM326 220l-72 290q-15 58 -24 110h-2q-9 -52 -24 -110l-72 -290h194zM145.5 796.5q-29.5 30.5 -31.5 85.5h52q2 -34 16.5 -50t44.5 -16t44.5 16t16.5 50h52q-2 -55 -31.5 -85.5t-81.5 -30.5t-81.5 30.5z" />
    <glyph glyph-name="Acircumflex" unicode="&#xc2;" horiz-adv-x="458" 
d="M340 164h-222l-41 -164h-66l184 700h68l184 -700h-66zM326 220l-72 290q-15 58 -24 110h-2q-9 -52 -24 -110l-72 -290h194zM284 769l-57 70l-57 -70h-56l81 113h64l81 -113h-56z" />
    <glyph glyph-name="Adieresis" unicode="&#xc4;" horiz-adv-x="458" 
d="M340 164h-222l-41 -164h-66l184 700h68l184 -700h-66zM326 220l-72 290q-15 58 -24 110h-2q-9 -52 -24 -110l-72 -290h194zM133 798.5q-11 10.5 -11 28.5t11 28.5t29 10.5q17 0 28 -10.5t11 -28.5t-11 -28.5t-28 -10.5q-18 0 -29 10.5zM262.5 798.5
q-11.5 10.5 -11.5 28.5t11.5 28.5t29.5 10.5t29 -10.5t11 -28.5t-11 -28.5t-29 -10.5t-29.5 10.5z" />
    <glyph glyph-name="Agrave" unicode="&#xc0;" horiz-adv-x="458" 
d="M340 164h-222l-41 -164h-66l184 700h68l184 -700h-66zM326 220l-72 290q-15 58 -24 110h-2q-9 -52 -24 -110l-72 -290h194zM209 769l-105 113h72l92 -113h-59z" />
    <glyph glyph-name="Amacron" unicode="&#x100;" horiz-adv-x="458" 
d="M340 164h-222l-41 -164h-66l184 700h68l184 -700h-66zM326 220l-72 290q-15 58 -24 110h-2q-9 -52 -24 -110l-72 -290h194zM135 849h184v-52h-184v52z" />
    <glyph glyph-name="Aogonek" unicode="&#x104;" horiz-adv-x="459" 
d="M448 -134v-52q-17 -6 -41 -6q-43 0 -64.5 23.5t-21.5 57.5q0 59 60 111l-41 164h-222l-41 -164h-66l184 700h68l184 -700h-11q-25 -22 -41.5 -50t-16.5 -51q0 -19 11 -27.5t27 -8.5q23 0 32 3zM326 220l-72 290q-15 58 -24 110h-2q-9 -52 -24 -110l-72 -290h194z" />
    <glyph glyph-name="Aring" unicode="&#xc5;" horiz-adv-x="458" 
d="M340 164h-222l-41 -164h-66l184 700h68l184 -700h-66zM326 220l-72 290q-15 58 -24 110h-2q-9 -52 -24 -110l-72 -290h194zM176.5 783q-19.5 19 -19.5 50q0 30 19.5 48.5t50.5 18.5t50.5 -18.5t19.5 -48.5q0 -31 -19.5 -50t-50.5 -19t-50.5 19zM249.5 809.5
q8.5 8.5 8.5 22.5t-9 22.5t-22 8.5q-14 0 -22.5 -8.5t-8.5 -22.5t8.5 -22.5t22.5 -8.5t22.5 8.5z" />
    <glyph glyph-name="Atilde" unicode="&#xc3;" horiz-adv-x="458" 
d="M340 164h-222l-41 -164h-66l184 700h68l184 -700h-66zM326 220l-72 290q-15 58 -24 110h-2q-9 -52 -24 -110l-72 -290h194zM244 800q-11 5 -25 15q-18 12 -27 12q-16 0 -19 -29h-54q2 36 20 57t48 21q16 0 27 -5t25 -15q6 -5 13 -8.5t13 -3.5q20 0 23 29h50
q-4 -37 -21.5 -57.5t-46.5 -20.5q-15 0 -26 5z" />
    <glyph glyph-name="AE" unicode="&#xc6;" horiz-adv-x="700" 
d="M660 57v-57h-324v184h-187l-79 -184h-70l309 700h340v-57h-251v-259h234v-57h-234v-270h262zM336 240v392h-1l-41 -107l-122 -285h164z" />
    <glyph glyph-name="B" unicode="B" horiz-adv-x="493" 
d="M424 305.5q32 -44.5 32 -114.5q0 -93 -52.5 -142t-146.5 -49h-180v700h164q88 0 137 -47.5t49 -134.5q0 -64 -24.5 -103.5t-66.5 -51.5q56 -13 88 -57.5zM139 642v-254h104q121 0 121 130q0 64 -30 94t-93 30h-102zM359.5 90.5q33.5 32.5 33.5 100.5q0 67 -39.5 103
t-107.5 36h-107v-272h118q69 0 102.5 32.5z" />
    <glyph glyph-name="C" unicode="C" horiz-adv-x="480" 
d="M110.5 43.5q-52.5 55.5 -52.5 154.5v304q0 99 51.5 154.5t135.5 55.5q86 0 137.5 -52.5t56.5 -149.5h-60q-5 73 -39.5 109.5t-94.5 36.5q-58 0 -92.5 -39t-34.5 -115v-304q0 -76 35.5 -115t95.5 -39q121 0 136 146h60q-8 -96 -59 -149t-137 -53t-138.5 55.5z" />
    <glyph glyph-name="Cacute" unicode="&#x106;" horiz-adv-x="480" 
d="M110.5 43.5q-52.5 55.5 -52.5 154.5v304q0 99 51.5 154.5t135.5 55.5q86 0 137.5 -52.5t56.5 -149.5h-60q-5 73 -39.5 109.5t-94.5 36.5q-58 0 -92.5 -39t-34.5 -115v-304q0 -76 35.5 -115t95.5 -39q121 0 136 146h60q-8 -96 -59 -149t-137 -53t-138.5 55.5zM285 882h72
l-105 -113h-59z" />
    <glyph glyph-name="Ccaron" unicode="&#x10c;" horiz-adv-x="480" 
d="M110.5 43.5q-52.5 55.5 -52.5 154.5v304q0 99 51.5 154.5t135.5 55.5q86 0 137.5 -52.5t56.5 -149.5h-60q-5 73 -39.5 109.5t-94.5 36.5q-58 0 -92.5 -39t-34.5 -115v-304q0 -76 35.5 -115t95.5 -39q121 0 136 146h60q-8 -96 -59 -149t-137 -53t-138.5 55.5zM353 882
l-81 -113h-64l-81 113h56l57 -70l57 70h56z" />
    <glyph glyph-name="Ccedilla" unicode="&#xc7;" horiz-adv-x="480" 
d="M392 46.5q-46 -52.5 -124 -57.5l-12 -39q4 1 14 1q29 0 50 -18.5t21 -46.5q0 -36 -25.5 -56.5t-66.5 -20.5q-36 0 -60.5 19.5t-27.5 53.5h49q3 -13 14 -20.5t27 -7.5q19 0 30.5 8.5t11.5 24.5q0 32 -39 32q-19 0 -31 -7l-17 16l19 61q-76 8 -121.5 62.5t-45.5 146.5v304
q0 99 51.5 154.5t135.5 55.5q86 0 137.5 -52.5t56.5 -149.5h-60q-5 73 -39.5 109.5t-94.5 36.5q-58 0 -92.5 -39t-34.5 -115v-304q0 -76 35.5 -115t95.5 -39q121 0 136 146h60q-7 -91 -53 -143.5z" />
    <glyph glyph-name="Cdotaccent" unicode="&#x10a;" horiz-adv-x="480" 
d="M110.5 43.5q-52.5 55.5 -52.5 154.5v304q0 99 51.5 154.5t135.5 55.5q86 0 137.5 -52.5t56.5 -149.5h-60q-5 73 -39.5 109.5t-94.5 36.5q-58 0 -92.5 -39t-34.5 -115v-304q0 -76 35.5 -115t95.5 -39q121 0 136 146h60q-8 -96 -59 -149t-137 -53t-138.5 55.5zM206 807
q-13 13 -13 35t13 35t35 13t35 -13t13 -35t-13 -35t-35 -13t-35 13z" />
    <glyph glyph-name="D" unicode="D" horiz-adv-x="500" 
d="M77 700h157q99 0 153.5 -53.5t54.5 -151.5v-291q0 -96 -55 -150t-153 -54h-157v700zM234 59q70 0 108 37.5t38 110.5v285q0 74 -37.5 111.5t-108.5 37.5h-95v-582h95z" />
    <glyph glyph-name="Eth" unicode="&#xd0;" horiz-adv-x="514" 
d="M401.5 646.5q54.5 -53.5 54.5 -151.5v-291q0 -96 -55 -150t-153 -54h-157v327h-79v55h79v318h157q99 0 153.5 -53.5zM394 492q0 74 -37.5 111.5t-108.5 37.5h-95v-259h99v-55h-99v-268h95q70 0 108 37.5t38 110.5v285z" />
    <glyph glyph-name="Dcaron" unicode="&#x10e;" horiz-adv-x="500" 
d="M77 700h157q99 0 153.5 -53.5t54.5 -151.5v-291q0 -96 -55 -150t-153 -54h-157v700zM234 59q70 0 108 37.5t38 110.5v285q0 74 -37.5 111.5t-108.5 37.5h-95v-582h95zM342 882l-81 -113h-64l-81 113h56l57 -70l57 70h56z" />
    <glyph glyph-name="Dcroat" unicode="&#x110;" horiz-adv-x="514" 
d="M401.5 646.5q54.5 -53.5 54.5 -151.5v-291q0 -96 -55 -150t-153 -54h-157v327h-79v55h79v318h157q99 0 153.5 -53.5zM394 492q0 74 -37.5 111.5t-108.5 37.5h-95v-259h99v-55h-99v-268h95q70 0 108 37.5t38 110.5v285z" />
    <glyph glyph-name="E" unicode="E" horiz-adv-x="454" 
d="M414 57v-57h-337v700h326v-57h-264v-259h247v-57h-247v-270h275z" />
    <glyph glyph-name="Eacute" unicode="&#xc9;" horiz-adv-x="454" 
d="M414 57v-57h-337v700h326v-57h-264v-259h247v-57h-247v-270h275zM254 882h72l-105 -113h-59z" />
    <glyph glyph-name="Ecaron" unicode="&#x11a;" horiz-adv-x="454" 
d="M414 57v-57h-337v700h326v-57h-264v-259h247v-57h-247v-270h275zM356 882l-81 -113h-64l-81 113h56l57 -70l57 70h56z" />
    <glyph glyph-name="Ecircumflex" unicode="&#xca;" horiz-adv-x="454" 
d="M414 57v-57h-337v700h326v-57h-264v-259h247v-57h-247v-270h275zM301 769l-57 70l-57 -70h-56l81 113h64l81 -113h-56z" />
    <glyph glyph-name="Edieresis" unicode="&#xcb;" horiz-adv-x="454" 
d="M414 57v-57h-337v700h326v-57h-264v-259h247v-57h-247v-270h275zM150 798.5q-11 10.5 -11 28.5t11 28.5t29 10.5q17 0 28 -10.5t11 -28.5t-11 -28.5t-28 -10.5q-18 0 -29 10.5zM279.5 798.5q-11.5 10.5 -11.5 28.5t11.5 28.5t29.5 10.5t29 -10.5t11 -28.5t-11 -28.5
t-29 -10.5t-29.5 10.5z" />
    <glyph glyph-name="Edotaccent" unicode="&#x116;" horiz-adv-x="454" 
d="M414 57v-57h-337v700h326v-57h-264v-259h247v-57h-247v-270h275zM209 807q-13 13 -13 35t13 35t35 13t35 -13t13 -35t-13 -35t-35 -13t-35 13z" />
    <glyph glyph-name="Egrave" unicode="&#xc8;" horiz-adv-x="454" 
d="M414 57v-57h-337v700h326v-57h-264v-259h247v-57h-247v-270h275zM226 769l-105 113h72l92 -113h-59z" />
    <glyph glyph-name="Emacron" unicode="&#x112;" horiz-adv-x="454" 
d="M414 57v-57h-337v700h326v-57h-264v-259h247v-57h-247v-270h275zM152 849h184v-52h-184v52z" />
    <glyph glyph-name="Eogonek" unicode="&#x118;" horiz-adv-x="462" 
d="M422 -134v-52q-16 -6 -41 -6q-43 0 -64.5 24t-21.5 58q0 57 64 110h-282v700h326v-57h-264v-259h247v-57h-247v-270h275v-57q-26 -21 -44 -48t-18 -49q0 -21 11 -30.5t27 -9.5q23 0 32 3z" />
    <glyph glyph-name="F" unicode="F" horiz-adv-x="420" 
d="M139 643v-269h237v-57h-237v-317h-62v700h316v-57h-254z" />
    <glyph glyph-name="G" unicode="G" horiz-adv-x="496" 
d="M111 45.5q-53 55.5 -53 156.5v297q0 102 50.5 156.5t138.5 54.5q86 0 137.5 -52.5t55.5 -147.5h-60q-4 71 -38.5 106.5t-94.5 35.5q-62 0 -95.5 -38.5t-33.5 -115.5v-296q0 -76 36 -115t98 -39t98.5 37t36.5 107v125h-136v56h195v-181q0 -94 -53.5 -148t-140.5 -54
q-88 0 -141 55.5z" />
    <glyph glyph-name="Gbreve" unicode="&#x11e;" horiz-adv-x="496" 
d="M111 45.5q-53 55.5 -53 156.5v297q0 102 50.5 156.5t138.5 54.5q86 0 137.5 -52.5t55.5 -147.5h-60q-4 71 -38.5 106.5t-94.5 35.5q-62 0 -95.5 -38.5t-33.5 -115.5v-296q0 -76 36 -115t98 -39t98.5 37t36.5 107v125h-136v56h195v-181q0 -94 -53.5 -148t-140.5 -54
q-88 0 -141 55.5zM158.5 796.5q-29.5 30.5 -31.5 85.5h52q2 -34 16.5 -50t44.5 -16t44.5 16t16.5 50h52q-2 -55 -31.5 -85.5t-81.5 -30.5t-81.5 30.5z" />
    <glyph glyph-name="uni0122" unicode="&#x122;" horiz-adv-x="496" 
d="M111 45.5q-53 55.5 -53 156.5v297q0 102 50.5 156.5t138.5 54.5q86 0 137.5 -52.5t55.5 -147.5h-60q-4 71 -38.5 106.5t-94.5 35.5q-62 0 -95.5 -38.5t-33.5 -115.5v-296q0 -76 36 -115t98 -39t98.5 37t36.5 107v125h-136v56h195v-181q0 -94 -53.5 -148t-140.5 -54
q-88 0 -141 55.5zM209 -69h65l-37 -180h-46z" />
    <glyph glyph-name="Gdotaccent" unicode="&#x120;" horiz-adv-x="496" 
d="M111 45.5q-53 55.5 -53 156.5v297q0 102 50.5 156.5t138.5 54.5q86 0 137.5 -52.5t55.5 -147.5h-60q-4 71 -38.5 106.5t-94.5 35.5q-62 0 -95.5 -38.5t-33.5 -115.5v-296q0 -76 36 -115t98 -39t98.5 37t36.5 107v125h-136v56h195v-181q0 -94 -53.5 -148t-140.5 -54
q-88 0 -141 55.5zM205 807q-13 13 -13 35t13 35t35 13t35 -13t13 -35t-13 -35t-35 -13t-35 13z" />
    <glyph glyph-name="H" unicode="H" horiz-adv-x="527" 
d="M450 700v-700h-62v327h-249v-327h-62v700h62v-315h249v315h62z" />
    <glyph glyph-name="Hbar" unicode="&#x126;" horiz-adv-x="552" 
d="M532 526h-69v-526h-62v327h-249v-327h-62v526h-70v46h70v128h62v-128h249v128h62v-128h69v-46zM401 526h-249v-141h249v141z" />
    <glyph glyph-name="I" unicode="I" horiz-adv-x="216" 
d="M77 700h62v-700h-62v700z" />
    <glyph glyph-name="Iacute" unicode="&#xcd;" horiz-adv-x="216" 
d="M77 700h62v-700h-62v700zM154 882h72l-105 -113h-59z" />
    <glyph glyph-name="Icircumflex" unicode="&#xce;" horiz-adv-x="216" 
d="M77 700h62v-700h-62v700zM167 769l-57 70l-57 -70h-56l81 113h64l81 -113h-56z" />
    <glyph glyph-name="Idieresis" unicode="&#xcf;" horiz-adv-x="232" 
d="M31 798.5q-11 10.5 -11 28.5t11 28.5t29 10.5q17 0 28 -10.5t11 -28.5t-11 -28.5t-28 -10.5q-18 0 -29 10.5zM142.5 798.5q-11.5 10.5 -11.5 28.5t11.5 28.5t29.5 10.5t29 -10.5t11 -28.5t-11 -28.5t-29 -10.5t-29.5 10.5zM83 700h62v-700h-62v700z" />
    <glyph glyph-name="Idotaccent" unicode="&#x130;" horiz-adv-x="216" 
d="M77 700h62v-700h-62v700zM75 807q-13 13 -13 35t13 35t35 13t35 -13t13 -35t-13 -35t-35 -13t-35 13z" />
    <glyph glyph-name="Igrave" unicode="&#xcc;" horiz-adv-x="216" 
d="M77 700h62v-700h-62v700zM92 769l-105 113h72l92 -113h-59z" />
    <glyph glyph-name="Imacron" unicode="&#x12a;" horiz-adv-x="216" 
d="M77 700h62v-700h-62v700zM18 849h184v-52h-184v52z" />
    <glyph glyph-name="Iogonek" unicode="&#x12e;" horiz-adv-x="212" 
d="M159 -134v-52q-17 -6 -41 -6q-45 0 -67 24.5t-22 60.5q0 57 46 107v700h62v-700q-21 -21 -36 -48.5t-15 -48.5t12 -30.5t29 -9.5q23 0 32 3z" />
    <glyph glyph-name="J" unicode="J" horiz-adv-x="248" 
d="M0 -22q58 0 85.5 31.5t27.5 107.5v583h62v-583q0 -198 -175 -198v59z" />
    <glyph glyph-name="K" unicode="K" horiz-adv-x="480" 
d="M189 341l-50 -68v-273h-62v700h62v-334l57 82l179 252h77l-223 -305l251 -395h-74z" />
    <glyph glyph-name="uni0136" unicode="&#x136;" horiz-adv-x="480" 
d="M189 341l-50 -68v-273h-62v700h62v-334l57 82l179 252h77l-223 -305l251 -395h-74zM229 -69h65l-37 -180h-46z" />
    <glyph glyph-name="L" unicode="L" horiz-adv-x="403" 
d="M395 59v-59h-318v700h62v-641h256z" />
    <glyph glyph-name="Lacute" unicode="&#x139;" horiz-adv-x="403" 
d="M395 59v-59h-318v700h62v-641h256zM158 882h72l-105 -113h-59z" />
    <glyph glyph-name="Lcaron" unicode="&#x13d;" horiz-adv-x="386" 
d="M378 57v-57h-301v700h62v-643h239zM287 536h-42l9 164h65z" />
    <glyph glyph-name="uni013B" unicode="&#x13b;" horiz-adv-x="403" 
d="M395 59v-59h-318v700h62v-641h256zM206 -69h65l-37 -180h-46z" />
    <glyph glyph-name="Lslash" unicode="&#x141;" horiz-adv-x="414" 
d="M406 57v-57h-301v319l-81 -31v59l81 31v322h62v-298l131 50v-59l-131 -50v-286h239z" />
    <glyph glyph-name="M" unicode="M" horiz-adv-x="652" 
d="M575 700v-700h-62v370q0 105 6 198l-4 1q-9 -27 -42 -108l-30 -76l-86 -220h-62l-86 220l-30 76q-33 81 -42 108l-4 -1q6 -93 6 -198v-370h-62v700h66l125 -302q24 -60 56 -156h4q32 96 56 156l125 302h66z" />
    <glyph glyph-name="N" unicode="N" horiz-adv-x="540" 
d="M77 700h64l189 -408q41 -85 76 -173l3 1q-8 136 -8 202v378h62v-700h-64l-191 411q-15 33 -36.5 84t-34.5 86l-3 -1q5 -132 5 -188v-392h-62v700z" />
    <glyph glyph-name="Nacute" unicode="&#x143;" horiz-adv-x="540" 
d="M77 700h64l189 -408q41 -85 76 -173l3 1q-8 136 -8 202v378h62v-700h-64l-191 411q-15 33 -36.5 84t-34.5 86l-3 -1q5 -132 5 -188v-392h-62v700zM314 882h72l-105 -113h-59z" />
    <glyph glyph-name="Ncaron" unicode="&#x147;" horiz-adv-x="540" 
d="M77 700h64l189 -408q41 -85 76 -173l3 1q-8 136 -8 202v378h62v-700h-64l-191 411q-15 33 -36.5 84t-34.5 86l-3 -1q5 -132 5 -188v-392h-62v700zM382 882l-81 -113h-64l-81 113h56l57 -70l57 70h56z" />
    <glyph glyph-name="uni0145" unicode="&#x145;" horiz-adv-x="540" 
d="M77 700h64l189 -408q41 -85 76 -173l3 1q-8 136 -8 202v378h62v-700h-64l-191 411q-15 33 -36.5 84t-34.5 86l-3 -1q5 -132 5 -188v-392h-62v700zM239 -69h65l-37 -180h-46z" />
    <glyph glyph-name="Eng" unicode="&#x14a;" horiz-adv-x="540" 
d="M463 700v-730q0 -75 -42 -118t-126 -44v57q58 1 83.5 27.5t25.5 77.5v22l-200 427q-32 69 -67 162l-3 -1q5 -132 5 -188v-392h-62v700h64l195 -416q44 -104 73 -181l3 1q-4 45 -7.5 107t-3.5 106v383h62z" />
    <glyph glyph-name="Ntilde" unicode="&#xd1;" horiz-adv-x="540" 
d="M77 700h64l189 -408q41 -85 76 -173l3 1q-8 136 -8 202v378h62v-700h-64l-191 411q-15 33 -36.5 84t-34.5 86l-3 -1q5 -132 5 -188v-392h-62v700zM287 800q-11 5 -25 15q-18 12 -27 12q-16 0 -19 -29h-54q2 36 20 57t48 21q16 0 27 -5t25 -15q6 -5 13 -8.5t13 -3.5
q20 0 23 29h50q-4 -37 -21.5 -57.5t-46.5 -20.5q-15 0 -26 5z" />
    <glyph glyph-name="O" unicode="O" horiz-adv-x="518" 
d="M111.5 49q-53.5 62 -53.5 168v266q0 106 53.5 168t147.5 62t147.5 -62t53.5 -168v-266q0 -106 -53.5 -168t-147.5 -62t-147.5 62zM362 91q35 44 35 126v266q0 82 -35 126t-103 44t-103 -44t-35 -126v-266q0 -82 35 -126t103 -44t103 44z" />
    <glyph glyph-name="Oacute" unicode="&#xd3;" horiz-adv-x="518" 
d="M111.5 49q-53.5 62 -53.5 168v266q0 106 53.5 168t147.5 62t147.5 -62t53.5 -168v-266q0 -106 -53.5 -168t-147.5 -62t-147.5 62zM362 91q35 44 35 126v266q0 82 -35 126t-103 44t-103 -44t-35 -126v-266q0 -82 35 -126t103 -44t103 44zM303 882h72l-105 -113h-59z" />
    <glyph glyph-name="Ocircumflex" unicode="&#xd4;" horiz-adv-x="518" 
d="M111.5 49q-53.5 62 -53.5 168v266q0 106 53.5 168t147.5 62t147.5 -62t53.5 -168v-266q0 -106 -53.5 -168t-147.5 -62t-147.5 62zM362 91q35 44 35 126v266q0 82 -35 126t-103 44t-103 -44t-35 -126v-266q0 -82 35 -126t103 -44t103 44zM316 769l-57 70l-57 -70h-56
l81 113h64l81 -113h-56z" />
    <glyph glyph-name="Odieresis" unicode="&#xd6;" horiz-adv-x="518" 
d="M111.5 49q-53.5 62 -53.5 168v266q0 106 53.5 168t147.5 62t147.5 -62t53.5 -168v-266q0 -106 -53.5 -168t-147.5 -62t-147.5 62zM362 91q35 44 35 126v266q0 82 -35 126t-103 44t-103 -44t-35 -126v-266q0 -82 35 -126t103 -44t103 44zM165 798.5q-11 10.5 -11 28.5
t11 28.5t29 10.5q17 0 28 -10.5t11 -28.5t-11 -28.5t-28 -10.5q-18 0 -29 10.5zM294.5 798.5q-11.5 10.5 -11.5 28.5t11.5 28.5t29.5 10.5t29 -10.5t11 -28.5t-11 -28.5t-29 -10.5t-29.5 10.5z" />
    <glyph glyph-name="Ograve" unicode="&#xd2;" horiz-adv-x="518" 
d="M111.5 49q-53.5 62 -53.5 168v266q0 106 53.5 168t147.5 62t147.5 -62t53.5 -168v-266q0 -106 -53.5 -168t-147.5 -62t-147.5 62zM362 91q35 44 35 126v266q0 82 -35 126t-103 44t-103 -44t-35 -126v-266q0 -82 35 -126t103 -44t103 44zM241 769l-105 113h72l92 -113h-59
z" />
    <glyph glyph-name="Ohungarumlaut" unicode="&#x150;" horiz-adv-x="518" 
d="M111.5 49q-53.5 62 -53.5 168v266q0 106 53.5 168t147.5 62t147.5 -62t53.5 -168v-266q0 -106 -53.5 -168t-147.5 -62t-147.5 62zM362 91q35 44 35 126v266q0 82 -35 126t-103 44t-103 -44t-35 -126v-266q0 -82 35 -126t103 -44t103 44zM233 882h67l-82 -113h-53z
M335 882h67l-86 -113h-53z" />
    <glyph glyph-name="Omacron" unicode="&#x14c;" horiz-adv-x="518" 
d="M111.5 49q-53.5 62 -53.5 168v266q0 106 53.5 168t147.5 62t147.5 -62t53.5 -168v-266q0 -106 -53.5 -168t-147.5 -62t-147.5 62zM362 91q35 44 35 126v266q0 82 -35 126t-103 44t-103 -44t-35 -126v-266q0 -82 35 -126t103 -44t103 44zM167 849h184v-52h-184v52z" />
    <glyph glyph-name="Oslash" unicode="&#xd8;" horiz-adv-x="512" 
d="M437 587.5q17 -46.5 17 -105.5v-264q0 -106 -52.5 -168t-145.5 -62q-40 0 -73 12l-18 -60h-59l27 88q-36 29 -55.5 78t-19.5 112v264q0 106 52.5 168t145.5 62q47 0 82 -16l20 64h59l-29 -96q32 -30 49 -76.5zM154 95l166 543q-28 14 -64 14q-66 0 -100.5 -44t-34.5 -126
v-264q0 -79 33 -123zM391 482q0 71 -25 112l-165 -536q23 -10 55 -10q66 0 100.5 44t34.5 126v264z" />
    <glyph glyph-name="Otilde" unicode="&#xd5;" horiz-adv-x="518" 
d="M111.5 49q-53.5 62 -53.5 168v266q0 106 53.5 168t147.5 62t147.5 -62t53.5 -168v-266q0 -106 -53.5 -168t-147.5 -62t-147.5 62zM362 91q35 44 35 126v266q0 82 -35 126t-103 44t-103 -44t-35 -126v-266q0 -82 35 -126t103 -44t103 44zM276 800q-11 5 -25 15
q-18 12 -27 12q-16 0 -19 -29h-54q2 36 20 57t48 21q16 0 27 -5t25 -15q6 -5 13 -8.5t13 -3.5q20 0 23 29h50q-4 -37 -21.5 -57.5t-46.5 -20.5q-15 0 -26 5z" />
    <glyph glyph-name="OE" unicode="&#x152;" horiz-adv-x="775" 
d="M735 57v-57h-337v54q-25 -32 -60.5 -49.5t-78.5 -17.5q-94 0 -147.5 62t-53.5 168v266q0 106 53.5 168t147.5 62q43 0 78.5 -17.5t60.5 -49.5v54h326v-57h-264v-259h247v-57h-247v-270h275zM397 483q0 82 -35 126t-103 44t-103 -44t-35 -126v-266q0 -82 35 -126t103 -44
t103 44t35 126v266z" />
    <glyph glyph-name="P" unicode="P" horiz-adv-x="480" 
d="M393 644q52 -56 52 -159q0 -108 -51.5 -164t-148.5 -56h-106v-265h-62v700h168q96 0 148 -56zM349.5 363q33.5 39 33.5 122q0 78 -34 117t-104 39h-106v-317h106q71 0 104.5 39z" />
    <glyph glyph-name="Thorn" unicode="&#xde;" horiz-adv-x="468" 
d="M393 522q52 -56 52 -159q0 -108 -51.5 -164t-148.5 -56h-106v-143h-62v700h62v-122h106q96 0 148 -56zM349.5 241q33.5 39 33.5 122q0 78 -34 117t-104 39h-106v-317h106q71 0 104.5 39z" />
    <glyph glyph-name="Q" unicode="Q" horiz-adv-x="519" 
d="M421 -58l-58 71q-44 -26 -104 -26q-94 0 -147.5 62t-53.5 168v266q0 106 53.5 168t147.5 62t147.5 -62t53.5 -168v-266q0 -109 -56 -171l57 -69zM324 61l-71 86l40 35l72 -87q32 44 32 122v266q0 82 -35 126t-103 44t-103 -44t-35 -126v-266q0 -82 35 -126t103 -44
q37 0 65 14z" />
    <glyph glyph-name="R" unicode="R" horiz-adv-x="483" 
d="M216 273h-77v-273h-62v700h160q96 0 148 -53.5t52 -151.5q0 -91 -40.5 -147.5t-113.5 -70.5l172 -277h-72zM139 331h97q68 0 103 41t35 119q0 75 -34.5 113t-102.5 38h-98v-311z" />
    <glyph glyph-name="Racute" unicode="&#x154;" horiz-adv-x="483" 
d="M216 273h-77v-273h-62v700h160q96 0 148 -53.5t52 -151.5q0 -91 -40.5 -147.5t-113.5 -70.5l172 -277h-72zM139 331h97q68 0 103 41t35 119q0 75 -34.5 113t-102.5 38h-98v-311zM273 882h72l-105 -113h-59z" />
    <glyph glyph-name="Rcaron" unicode="&#x158;" horiz-adv-x="483" 
d="M216 273h-77v-273h-62v700h160q96 0 148 -53.5t52 -151.5q0 -91 -40.5 -147.5t-113.5 -70.5l172 -277h-72zM139 331h97q68 0 103 41t35 119q0 75 -34.5 113t-102.5 38h-98v-311zM341 882l-81 -113h-64l-81 113h56l57 -70l57 70h56z" />
    <glyph glyph-name="uni0156" unicode="&#x156;" horiz-adv-x="483" 
d="M216 273h-77v-273h-62v700h160q96 0 148 -53.5t52 -151.5q0 -91 -40.5 -147.5t-113.5 -70.5l172 -277h-72zM139 331h97q68 0 103 41t35 119q0 75 -34.5 113t-102.5 38h-98v-311zM207 -69h65l-37 -180h-46z" />
    <glyph glyph-name="S" unicode="S" horiz-adv-x="451" 
d="M87 40q-53 53 -55 140h62q2 -64 37 -98.5t94 -34.5q62 0 94.5 35t32.5 94q0 36 -19 63.5t-47 48t-76 48.5q-55 32 -88.5 57t-56.5 62t-23 87q0 48 23 87t64 61.5t94 22.5q81 0 130 -52t53 -136h-62q-3 64 -35 96t-84 32q-56 0 -88 -30t-32 -81q0 -36 18.5 -63t46.5 -46.5
t75 -46.5q56 -33 89.5 -57.5t57 -62.5t23.5 -90q0 -49 -22 -92.5t-64.5 -70t-101.5 -26.5q-87 0 -140 53z" />
    <glyph glyph-name="Sacute" unicode="&#x15a;" horiz-adv-x="451" 
d="M87 40q-53 53 -55 140h62q2 -64 37 -98.5t94 -34.5q62 0 94.5 35t32.5 94q0 36 -19 63.5t-47 48t-76 48.5q-55 32 -88.5 57t-56.5 62t-23 87q0 48 23 87t64 61.5t94 22.5q81 0 130 -52t53 -136h-62q-3 64 -35 96t-84 32q-56 0 -88 -30t-32 -81q0 -36 18.5 -63t46.5 -46.5
t75 -46.5q56 -33 89.5 -57.5t57 -62.5t23.5 -90q0 -49 -22 -92.5t-64.5 -70t-101.5 -26.5q-87 0 -140 53zM271 882h72l-105 -113h-59z" />
    <glyph glyph-name="Scaron" unicode="&#x160;" horiz-adv-x="451" 
d="M87 40q-53 53 -55 140h62q2 -64 37 -98.5t94 -34.5q62 0 94.5 35t32.5 94q0 36 -19 63.5t-47 48t-76 48.5q-55 32 -88.5 57t-56.5 62t-23 87q0 48 23 87t64 61.5t94 22.5q81 0 130 -52t53 -136h-62q-3 64 -35 96t-84 32q-56 0 -88 -30t-32 -81q0 -36 18.5 -63t46.5 -46.5
t75 -46.5q56 -33 89.5 -57.5t57 -62.5t23.5 -90q0 -49 -22 -92.5t-64.5 -70t-101.5 -26.5q-87 0 -140 53zM339 882l-81 -113h-64l-81 113h56l57 -70l57 70h56z" />
    <glyph glyph-name="Scedilla" unicode="&#x15e;" horiz-adv-x="451" 
d="M395 88.5q-20 -41.5 -58.5 -69t-91.5 -31.5l-11 -38q4 1 14 1q29 0 50 -18.5t21 -46.5q0 -36 -25.5 -56.5t-66.5 -20.5q-36 0 -60.5 19.5t-27.5 53.5h49q3 -13 14 -20.5t27 -7.5q19 0 30.5 8.5t11.5 24.5q0 32 -39 32q-19 0 -31 -7l-17 16l18 60q-76 7 -122 59t-48 133
h62q2 -64 37 -98.5t94 -34.5q62 0 94.5 35t32.5 94q0 36 -19 63.5t-47 48t-76 48.5q-55 32 -88.5 57t-56.5 62t-23 87q0 48 23 87t64 61.5t94 22.5q81 0 130 -52t53 -136h-62q-3 64 -35 96t-84 32q-56 0 -88 -30t-32 -81q0 -36 18.5 -63t46.5 -46.5t75 -46.5
q56 -33 89.5 -57.5t57 -62.5t23.5 -90q0 -46 -20 -87.5z" />
    <glyph glyph-name="uni0218" unicode="&#x218;" horiz-adv-x="451" 
d="M87 40q-53 53 -55 140h62q2 -64 37 -98.5t94 -34.5q62 0 94.5 35t32.5 94q0 36 -19 63.5t-47 48t-76 48.5q-55 32 -88.5 57t-56.5 62t-23 87q0 48 23 87t64 61.5t94 22.5q81 0 130 -52t53 -136h-62q-3 64 -35 96t-84 32q-56 0 -88 -30t-32 -81q0 -36 18.5 -63t46.5 -46.5
t75 -46.5q56 -33 89.5 -57.5t57 -62.5t23.5 -90q0 -49 -22 -92.5t-64.5 -70t-101.5 -26.5q-87 0 -140 53zM209 -69h65l-37 -180h-46z" />
    <glyph glyph-name="T" unicode="T" horiz-adv-x="406" 
d="M388 642h-154v-642h-62v642h-154v58h370v-58z" />
    <glyph glyph-name="Tbar" unicode="&#x166;" horiz-adv-x="406" 
d="M234 642v-259h84v-46h-84v-337h-62v337h-84v46h84v259h-154v58h370v-58h-154z" />
    <glyph glyph-name="Tcaron" unicode="&#x164;" horiz-adv-x="406" 
d="M388 642h-154v-642h-62v642h-154v58h370v-58zM315 882l-81 -113h-64l-81 113h56l57 -70l57 70h56z" />
    <glyph glyph-name="uni0162" unicode="&#x162;" horiz-adv-x="406" 
d="M388 642h-154v-642h-62v642h-154v58h370v-58zM142.5 -171.5q-24.5 19.5 -27.5 53.5h49q3 -13 14 -20.5t27 -7.5q19 0 30.5 8.5t11.5 24.5q0 32 -39 32q-19 0 -31 -7l-17 16l22 72h43l-15 -50q4 1 14 1q29 0 50 -18.5t21 -46.5q0 -36 -25.5 -56.5t-66.5 -20.5
q-36 0 -60.5 19.5z" />
    <glyph glyph-name="uni021A" unicode="&#x21a;" horiz-adv-x="406" 
d="M388 642h-154v-642h-62v642h-154v58h370v-58zM173 -69h65l-37 -180h-46z" />
    <glyph glyph-name="U" unicode="U" horiz-adv-x="514" 
d="M118 46.5q-52 55.5 -52 157.5v496h62v-496q0 -77 34.5 -115t94.5 -38t94.5 38t34.5 115v496h62v-496q0 -102 -52 -157.5t-139 -55.5t-139 55.5z" />
    <glyph glyph-name="Uacute" unicode="&#xda;" horiz-adv-x="514" 
d="M118 46.5q-52 55.5 -52 157.5v496h62v-496q0 -77 34.5 -115t94.5 -38t94.5 38t34.5 115v496h62v-496q0 -102 -52 -157.5t-139 -55.5t-139 55.5zM301 882h72l-105 -113h-59z" />
    <glyph glyph-name="Ucircumflex" unicode="&#xdb;" horiz-adv-x="514" 
d="M118 46.5q-52 55.5 -52 157.5v496h62v-496q0 -77 34.5 -115t94.5 -38t94.5 38t34.5 115v496h62v-496q0 -102 -52 -157.5t-139 -55.5t-139 55.5zM314 769l-57 70l-57 -70h-56l81 113h64l81 -113h-56z" />
    <glyph glyph-name="Udieresis" unicode="&#xdc;" horiz-adv-x="514" 
d="M118 46.5q-52 55.5 -52 157.5v496h62v-496q0 -77 34.5 -115t94.5 -38t94.5 38t34.5 115v496h62v-496q0 -102 -52 -157.5t-139 -55.5t-139 55.5zM163 798.5q-11 10.5 -11 28.5t11 28.5t29 10.5q17 0 28 -10.5t11 -28.5t-11 -28.5t-28 -10.5q-18 0 -29 10.5zM292.5 798.5
q-11.5 10.5 -11.5 28.5t11.5 28.5t29.5 10.5t29 -10.5t11 -28.5t-11 -28.5t-29 -10.5t-29.5 10.5z" />
    <glyph glyph-name="Ugrave" unicode="&#xd9;" horiz-adv-x="514" 
d="M118 46.5q-52 55.5 -52 157.5v496h62v-496q0 -77 34.5 -115t94.5 -38t94.5 38t34.5 115v496h62v-496q0 -102 -52 -157.5t-139 -55.5t-139 55.5zM239 769l-105 113h72l92 -113h-59z" />
    <glyph glyph-name="Uhungarumlaut" unicode="&#x170;" horiz-adv-x="514" 
d="M118 46.5q-52 55.5 -52 157.5v496h62v-496q0 -77 34.5 -115t94.5 -38t94.5 38t34.5 115v496h62v-496q0 -102 -52 -157.5t-139 -55.5t-139 55.5zM231 882h67l-82 -113h-53zM333 882h67l-86 -113h-53z" />
    <glyph glyph-name="Umacron" unicode="&#x16a;" horiz-adv-x="514" 
d="M118 46.5q-52 55.5 -52 157.5v496h62v-496q0 -77 34.5 -115t94.5 -38t94.5 38t34.5 115v496h62v-496q0 -102 -52 -157.5t-139 -55.5t-139 55.5zM165 849h184v-52h-184v52z" />
    <glyph glyph-name="Uogonek" unicode="&#x172;" horiz-adv-x="508" 
d="M262.5 -168q-21.5 24 -21.5 58q0 56 60 111l-1 1q-20 -11 -45 -11q-85 0 -137 54.5t-52 151.5v503h62v-503q0 -71 34.5 -108.5t91.5 -37.5t91.5 37.5t34.5 108.5v503h62v-503q0 -61 -15.5 -95t-41.5 -60q-41 -42 -64 -76t-23 -64q0 -22 11 -30.5t27 -8.5q23 0 32 3v-52
q-16 -6 -41 -6q-43 0 -64.5 24z" />
    <glyph glyph-name="Uring" unicode="&#x16e;" horiz-adv-x="514" 
d="M118 46.5q-52 55.5 -52 157.5v496h62v-496q0 -77 34.5 -115t94.5 -38t94.5 38t34.5 115v496h62v-496q0 -102 -52 -157.5t-139 -55.5t-139 55.5zM206.5 783q-19.5 19 -19.5 50q0 30 19.5 48.5t50.5 18.5t50.5 -18.5t19.5 -48.5q0 -31 -19.5 -50t-50.5 -19t-50.5 19z
M279.5 809.5q8.5 8.5 8.5 22.5t-9 22.5t-22 8.5q-14 0 -22.5 -8.5t-8.5 -22.5t8.5 -22.5t22.5 -8.5t22.5 8.5z" />
    <glyph glyph-name="V" unicode="V" horiz-adv-x="450" 
d="M11 700h66l105 -438l20 -87l21 -90h4l21 90l20 87l105 438h66l-178 -700h-72z" />
    <glyph glyph-name="W" unicode="W" horiz-adv-x="712" 
d="M11 700h65l88 -432l8 -42q21 -97 26 -136h4l36 188l84 411h68l84 -411l36 -188h4q5 39 26 136l8 42l88 432h65l-155 -700h-69l-85 381q-9 41 -19.5 108.5t-14.5 111.5h-4q-4 -44 -14.5 -111.5t-19.5 -108.5l-85 -381h-69z" />
    <glyph glyph-name="Wacute" unicode="&#x1e82;" horiz-adv-x="712" 
d="M11 700h65l88 -432l8 -42q21 -97 26 -136h4l36 188l84 411h68l84 -411l36 -188h4q5 39 26 136l8 42l88 432h65l-155 -700h-69l-85 381q-9 41 -19.5 108.5t-14.5 111.5h-4q-4 -44 -14.5 -111.5t-19.5 -108.5l-85 -381h-69zM400 882h72l-105 -113h-59z" />
    <glyph glyph-name="Wcircumflex" unicode="&#x174;" horiz-adv-x="712" 
d="M11 700h65l88 -432l8 -42q21 -97 26 -136h4l36 188l84 411h68l84 -411l36 -188h4q5 39 26 136l8 42l88 432h65l-155 -700h-69l-85 381q-9 41 -19.5 108.5t-14.5 111.5h-4q-4 -44 -14.5 -111.5t-19.5 -108.5l-85 -381h-69zM413 769l-57 70l-57 -70h-56l81 113h64l81 -113
h-56z" />
    <glyph glyph-name="Wdieresis" unicode="&#x1e84;" horiz-adv-x="712" 
d="M11 700h65l88 -432l8 -42q21 -97 26 -136h4l36 188l84 411h68l84 -411l36 -188h4q5 39 26 136l8 42l88 432h65l-155 -700h-69l-85 381q-9 41 -19.5 108.5t-14.5 111.5h-4q-4 -44 -14.5 -111.5t-19.5 -108.5l-85 -381h-69zM262 798.5q-11 10.5 -11 28.5t11 28.5t29 10.5
q17 0 28 -10.5t11 -28.5t-11 -28.5t-28 -10.5q-18 0 -29 10.5zM391.5 798.5q-11.5 10.5 -11.5 28.5t11.5 28.5t29.5 10.5t29 -10.5t11 -28.5t-11 -28.5t-29 -10.5t-29.5 10.5z" />
    <glyph glyph-name="Wgrave" unicode="&#x1e80;" horiz-adv-x="712" 
d="M11 700h65l88 -432l8 -42q21 -97 26 -136h4l36 188l84 411h68l84 -411l36 -188h4q5 39 26 136l8 42l88 432h65l-155 -700h-69l-85 381q-9 41 -19.5 108.5t-14.5 111.5h-4q-4 -44 -14.5 -111.5t-19.5 -108.5l-85 -381h-69zM338 769l-105 113h72l92 -113h-59z" />
    <glyph glyph-name="X" unicode="X" horiz-adv-x="449" 
d="M361 0l-136 305l-136 -305h-69l169 364l-160 336h69l127 -279l127 279h69l-160 -336l169 -364h-69z" />
    <glyph glyph-name="Y" unicode="Y" horiz-adv-x="422" 
d="M180 251l-175 449h66l100 -270l40 -108l40 109l100 269h66l-175 -449v-251h-62v251z" />
    <glyph glyph-name="Yacute" unicode="&#xdd;" horiz-adv-x="422" 
d="M180 251l-175 449h66l100 -270l40 -108l40 109l100 269h66l-175 -449v-251h-62v251zM255 882h72l-105 -113h-59z" />
    <glyph glyph-name="Ycircumflex" unicode="&#x176;" horiz-adv-x="422" 
d="M180 251l-175 449h66l100 -270l40 -108l40 109l100 269h66l-175 -449v-251h-62v251zM268 769l-57 70l-57 -70h-56l81 113h64l81 -113h-56z" />
    <glyph glyph-name="Ydieresis" unicode="&#x178;" horiz-adv-x="422" 
d="M180 251l-175 449h66l100 -270l40 -108l40 109l100 269h66l-175 -449v-251h-62v251zM117 798.5q-11 10.5 -11 28.5t11 28.5t29 10.5q17 0 28 -10.5t11 -28.5t-11 -28.5t-28 -10.5q-18 0 -29 10.5zM246.5 798.5q-11.5 10.5 -11.5 28.5t11.5 28.5t29.5 10.5t29 -10.5
t11 -28.5t-11 -28.5t-29 -10.5t-29.5 10.5z" />
    <glyph glyph-name="Ygrave" unicode="&#x1ef2;" horiz-adv-x="422" 
d="M180 251l-175 449h66l100 -270l40 -108l40 109l100 269h66l-175 -449v-251h-62v251zM193 769l-105 113h72l92 -113h-59z" />
    <glyph glyph-name="Z" unicode="Z" horiz-adv-x="409" 
d="M20 47l278 595h-265v58h340v-42l-280 -600h285v-58h-358v47z" />
    <glyph glyph-name="Zacute" unicode="&#x179;" horiz-adv-x="409" 
d="M20 47l278 595h-265v58h340v-42l-280 -600h285v-58h-358v47zM240 882h72l-105 -113h-59z" />
    <glyph glyph-name="Zcaron" unicode="&#x17d;" horiz-adv-x="409" 
d="M20 47l278 595h-265v58h340v-42l-280 -600h285v-58h-358v47zM308 882l-81 -113h-64l-81 113h56l57 -70l57 70h56z" />
    <glyph glyph-name="Zdotaccent" unicode="&#x17b;" horiz-adv-x="409" 
d="M20 47l278 595h-265v58h340v-42l-280 -600h285v-58h-358v47zM160 810q-13 13 -13 35t13 35t35 13t35 -13t13 -35t-13 -35t-35 -13t-35 13z" />
    <glyph glyph-name="a" unicode="a" horiz-adv-x="447" 
d="M338 490q43 -47 43 -127v-363h-51l-5 50q-44 -62 -121 -62q-74 0 -120 43t-46 118q0 76 47 116.5t133 40.5h104v56q0 58 -26.5 88t-77.5 30q-45 0 -73.5 -24.5t-31.5 -67.5h-59q3 68 48 108.5t118 40.5q75 0 118 -47zM292.5 76q29.5 30 29.5 82v93h-106q-58 0 -88 -26.5
t-30 -76.5t31 -76t84 -26q50 0 79.5 30z" />
    <glyph glyph-name="aacute" unicode="&#xe1;" horiz-adv-x="447" 
d="M338 490q43 -47 43 -127v-363h-51l-5 50q-44 -62 -121 -62q-74 0 -120 43t-46 118q0 76 47 116.5t133 40.5h104v56q0 58 -26.5 88t-77.5 30q-45 0 -73.5 -24.5t-31.5 -67.5h-59q3 68 48 108.5t118 40.5q75 0 118 -47zM292.5 76q29.5 30 29.5 82v93h-106q-58 0 -88 -26.5
t-30 -76.5t31 -76t84 -26q50 0 79.5 30zM240 723h70l-87 -113h-58z" />
    <glyph glyph-name="abreve" unicode="&#x103;" horiz-adv-x="447" 
d="M338 490q43 -47 43 -127v-363h-51l-5 50q-44 -62 -121 -62q-74 0 -120 43t-46 118q0 76 47 116.5t133 40.5h104v56q0 58 -26.5 88t-77.5 30q-45 0 -73.5 -24.5t-31.5 -67.5h-59q3 68 48 108.5t118 40.5q75 0 118 -47zM292.5 76q29.5 30 29.5 82v93h-106q-58 0 -88 -26.5
t-30 -76.5t31 -76t84 -26q50 0 79.5 30zM136.5 637.5q-29.5 30.5 -31.5 85.5h52q2 -34 16.5 -50t44.5 -16t44.5 16t16.5 50h52q-2 -55 -31.5 -85.5t-81.5 -30.5t-81.5 30.5z" />
    <glyph glyph-name="acircumflex" unicode="&#xe2;" horiz-adv-x="447" 
d="M338 490q43 -47 43 -127v-363h-51l-5 50q-44 -62 -121 -62q-74 0 -120 43t-46 118q0 76 47 116.5t133 40.5h104v56q0 58 -26.5 88t-77.5 30q-45 0 -73.5 -24.5t-31.5 -67.5h-59q3 68 48 108.5t118 40.5q75 0 118 -47zM292.5 76q29.5 30 29.5 82v93h-106q-58 0 -88 -26.5
t-30 -76.5t31 -76t84 -26q50 0 79.5 30zM275 609l-57 70l-57 -70h-56l81 113h64l81 -113h-56z" />
    <glyph glyph-name="adieresis" unicode="&#xe4;" horiz-adv-x="447" 
d="M338 490q43 -47 43 -127v-363h-51l-5 50q-44 -62 -121 -62q-74 0 -120 43t-46 118q0 76 47 116.5t133 40.5h104v56q0 58 -26.5 88t-77.5 30q-45 0 -73.5 -24.5t-31.5 -67.5h-59q3 68 48 108.5t118 40.5q75 0 118 -47zM292.5 76q29.5 30 29.5 82v93h-106q-58 0 -88 -26.5
t-30 -76.5t31 -76t84 -26q50 0 79.5 30zM130 641.5q-11 10.5 -11 28.5t11 28.5t29 10.5q17 0 28 -10.5t11 -28.5t-11 -28.5t-28 -10.5q-18 0 -29 10.5zM247.5 641.5q-11.5 10.5 -11.5 28.5t11.5 28.5t29.5 10.5t29 -10.5t11 -28.5t-11 -28.5t-29 -10.5t-29.5 10.5z" />
    <glyph glyph-name="agrave" unicode="&#xe0;" horiz-adv-x="447" 
d="M338 490q43 -47 43 -127v-363h-51l-5 50q-44 -62 -121 -62q-74 0 -120 43t-46 118q0 76 47 116.5t133 40.5h104v56q0 58 -26.5 88t-77.5 30q-45 0 -73.5 -24.5t-31.5 -67.5h-59q3 68 48 108.5t118 40.5q75 0 118 -47zM292.5 76q29.5 30 29.5 82v93h-106q-58 0 -88 -26.5
t-30 -76.5t31 -76t84 -26q50 0 79.5 30zM208 610l-87 113h70l75 -113h-58z" />
    <glyph glyph-name="amacron" unicode="&#x101;" horiz-adv-x="447" 
d="M338 490q43 -47 43 -127v-363h-51l-5 50q-44 -62 -121 -62q-74 0 -120 43t-46 118q0 76 47 116.5t133 40.5h104v56q0 58 -26.5 88t-77.5 30q-45 0 -73.5 -24.5t-31.5 -67.5h-59q3 68 48 108.5t118 40.5q75 0 118 -47zM292.5 76q29.5 30 29.5 82v93h-106q-58 0 -88 -26.5
t-30 -76.5t31 -76t84 -26q50 0 79.5 30zM126 689h184v-50h-184v50z" />
    <glyph glyph-name="aogonek" unicode="&#x105;" horiz-adv-x="447" 
d="M275.5 -168.5q-21.5 23.5 -21.5 57.5q0 58 76 111l-5 49q-19 -28 -49.5 -44.5t-71.5 -16.5q-74 0 -120 43t-46 118q0 76 47 116.5t133 40.5h104v56q0 58 -26.5 88t-77.5 30q-45 0 -73.5 -24.5t-31.5 -67.5h-59q3 68 48 108.5t118 40.5q75 0 118 -47t43 -127v-363
q-30 -21 -50 -49.5t-20 -51.5q0 -19 11 -27.5t27 -8.5q23 0 32 3v-52q-16 -6 -41 -6q-43 0 -64.5 23.5zM292.5 74.5q29.5 28.5 29.5 73.5v103h-106q-58 0 -88 -26.5t-30 -76.5t31 -76t84 -26q50 0 79.5 28.5z" />
    <glyph glyph-name="aring" unicode="&#xe5;" horiz-adv-x="447" 
d="M338 490q43 -47 43 -127v-363h-51l-5 50q-44 -62 -121 -62q-74 0 -120 43t-46 118q0 76 47 116.5t133 40.5h104v56q0 58 -26.5 88t-77.5 30q-45 0 -73.5 -24.5t-31.5 -67.5h-59q3 68 48 108.5t118 40.5q75 0 118 -47zM292.5 76q29.5 30 29.5 82v93h-106q-58 0 -88 -26.5
t-30 -76.5t31 -76t84 -26q50 0 79.5 30zM167.5 625q-19.5 19 -19.5 50q0 30 19.5 48.5t50.5 18.5t50.5 -18.5t19.5 -48.5q0 -31 -19.5 -50t-50.5 -19t-50.5 19zM240.5 651.5q8.5 8.5 8.5 22.5t-9 22.5t-22 8.5q-14 0 -22.5 -8.5t-8.5 -22.5t8.5 -22.5t22.5 -8.5t22.5 8.5z
" />
    <glyph glyph-name="atilde" unicode="&#xe3;" horiz-adv-x="447" 
d="M338 490q43 -47 43 -127v-363h-51l-5 50q-44 -62 -121 -62q-74 0 -120 43t-46 118q0 76 47 116.5t133 40.5h104v56q0 58 -26.5 88t-77.5 30q-45 0 -73.5 -24.5t-31.5 -67.5h-59q3 68 48 108.5t118 40.5q75 0 118 -47zM292.5 76q29.5 30 29.5 82v93h-106q-58 0 -88 -26.5
t-30 -76.5t31 -76t84 -26q50 0 79.5 30zM233 630q-11 5 -25 15q-18 12 -27 12q-16 0 -19 -29h-54q2 36 20 57t48 21q16 0 27 -5t25 -15q6 -5 13 -8.5t13 -3.5q20 0 23 29h50q-4 -37 -21.5 -57.5t-46.5 -20.5q-15 0 -26 5z" />
    <glyph glyph-name="ae" unicode="&#xe6;" horiz-adv-x="690" 
d="M641 171q0 -86 -45 -133.5t-121 -47.5q-45 0 -80 18.5t-55 53.5q-17 -32 -54.5 -51.5t-86.5 -19.5q-71 0 -116 43t-45 115q0 74 47.5 112.5t137.5 38.5h88v72q0 50 -25 78.5t-70 28.5q-46 0 -73 -24t-30 -67h-59q3 68 47.5 108.5t117.5 40.5q41 0 73 -19t51 -53
q21 35 55.5 53.5t76.5 18.5q75 0 119.5 -49t44.5 -138v-104h-268v-69q0 -65 27 -97t77 -32q51 0 79 30.5t28 92.5h59zM371 298h209v52q0 65 -27 97t-78 32q-50 0 -77 -32t-27 -97v-52zM311 246h-91q-61 0 -91.5 -24t-30.5 -74t30 -76t84 -26q46 0 72.5 27.5t26.5 72.5v100z
" />
    <glyph glyph-name="b" unicode="b" horiz-adv-x="462" 
d="M366 486.5q43 -50.5 43 -146.5v-151q0 -97 -44.5 -149t-118.5 -52q-38 0 -70.5 16t-53.5 45l-8 -49h-48v724h58v-246q21 29 53 44t69 15q77 0 120 -50.5zM349 340q0 74 -28.5 108t-87.5 34q-49 0 -79 -39.5t-30 -102.5v-153q0 -70 30.5 -107t78.5 -37q116 0 116 146v151z
" />
    <glyph glyph-name="c" unicode="c" horiz-adv-x="432" 
d="M98.5 39q-45.5 49 -45.5 138v173q0 89 45.5 138t122.5 49q79 0 125.5 -49t48.5 -138h-60q-4 129 -114 129q-52 0 -80 -32t-28 -97v-173q0 -65 28 -97t80 -32q111 0 115 129h60q-2 -89 -48.5 -138t-126.5 -49q-77 0 -122.5 49z" />
    <glyph glyph-name="cacute" unicode="&#x107;" horiz-adv-x="432" 
d="M98.5 39q-45.5 49 -45.5 138v173q0 89 45.5 138t122.5 49q79 0 125.5 -49t48.5 -138h-60q-4 129 -114 129q-52 0 -80 -32t-28 -97v-173q0 -65 28 -97t80 -32q111 0 115 129h60q-2 -89 -48.5 -138t-126.5 -49q-77 0 -122.5 49zM245 723h70l-87 -113h-58z" />
    <glyph glyph-name="ccaron" unicode="&#x10d;" horiz-adv-x="432" 
d="M98.5 39q-45.5 49 -45.5 138v173q0 89 45.5 138t122.5 49q79 0 125.5 -49t48.5 -138h-60q-4 129 -114 129q-52 0 -80 -32t-28 -97v-173q0 -65 28 -97t80 -32q111 0 115 129h60q-2 -89 -48.5 -138t-126.5 -49q-77 0 -122.5 49zM336 723l-81 -113h-64l-81 113h56l57 -70
l57 70h56z" />
    <glyph glyph-name="ccedilla" unicode="&#xe7;" horiz-adv-x="432" 
d="M352 44q-42 -48 -115 -53l-12 -41q4 1 14 1q29 0 50 -18.5t21 -46.5q0 -36 -25.5 -56.5t-66.5 -20.5q-36 0 -60.5 19.5t-27.5 53.5h49q3 -13 14 -20.5t27 -7.5q19 0 30.5 8.5t11.5 24.5q0 32 -39 32q-19 0 -31 -7l-17 16l19 64q-66 8 -103.5 56.5t-37.5 128.5v173
q0 89 45.5 138t122.5 49q79 0 125.5 -49t48.5 -138h-60q-4 129 -114 129q-52 0 -80 -32t-28 -97v-173q0 -65 28 -97t80 -32q111 0 115 129h60q-2 -85 -44 -133z" />
    <glyph glyph-name="cdotaccent" unicode="&#x10b;" horiz-adv-x="432" 
d="M98.5 39q-45.5 49 -45.5 138v173q0 89 45.5 138t122.5 49q79 0 125.5 -49t48.5 -138h-60q-4 129 -114 129q-52 0 -80 -32t-28 -97v-173q0 -65 28 -97t80 -32q111 0 115 129h60q-2 -89 -48.5 -138t-126.5 -49q-77 0 -122.5 49zM187 635q-13 13 -13 35t13 35t35 13t35 -13
t13 -35t-13 -35t-35 -13t-35 13z" />
    <glyph glyph-name="d" unicode="d" horiz-adv-x="462" 
d="M396 724v-724h-48l-8 49q-21 -29 -53.5 -45t-70.5 -16q-74 0 -118.5 52t-44.5 149v151q0 96 43 146.5t120 50.5q37 0 69 -15t53 -44v246h58zM307.5 80q30.5 37 30.5 107v153q0 63 -30 102.5t-79 39.5q-59 0 -87.5 -34t-28.5 -108v-151q0 -146 116 -146q48 0 78.5 37z" />
    <glyph glyph-name="eth" unicode="&#xf0;" horiz-adv-x="447" 
d="M393 445v-266q0 -90 -46 -139.5t-125 -49.5q-78 0 -123.5 49.5t-45.5 139.5v146q0 89 43.5 139t113.5 50q81 0 124 -54q-4 83 -60 142l-83 -45l-16 33l70 37q-40 31 -104 51l19 54q80 -20 140 -75l72 39l16 -33l-62 -33q67 -78 67 -185zM333 325q0 65 -29.5 98t-80.5 33
q-110 0 -110 -131v-146q0 -66 28.5 -98.5t80.5 -32.5q53 0 82 32.5t29 98.5v146z" />
    <glyph glyph-name="dcaron" unicode="&#x10f;" horiz-adv-x="487" 
d="M517 764l-32 -169h-42l9 169h65zM338 724h58v-724h-48l-8 49q-21 -29 -53.5 -45t-70.5 -16q-74 0 -118.5 52t-44.5 149v151q0 96 43 146.5t120 50.5q37 0 69 -15t53 -44v246zM307.5 80q30.5 37 30.5 107v153q0 63 -30 102.5t-79 39.5q-59 0 -87.5 -34t-28.5 -108v-151
q0 -146 116 -146q48 0 78.5 37z" />
    <glyph glyph-name="dcroat" unicode="&#x111;" horiz-adv-x="465" 
d="M454 615h-58v-615h-48l-8 49q-21 -29 -53.5 -45t-70.5 -16q-74 0 -118.5 52t-44.5 149v151q0 96 43 146.5t120 50.5q37 0 69 -15t53 -44v137h-94v46h94v63h58v-63h58v-46zM307.5 80q30.5 37 30.5 107v153q0 63 -30 102.5t-79 39.5q-59 0 -87.5 -34t-28.5 -108v-151
q0 -146 116 -146q48 0 78.5 37z" />
    <glyph glyph-name="e" unicode="e" horiz-adv-x="450" 
d="M401 161q-6 -83 -52 -127t-127 -44q-78 0 -123.5 49t-45.5 138v173q0 89 46.5 138t125.5 49q80 0 127.5 -49t47.5 -138v-116h-287v-57q0 -65 29 -97t82 -32q55 0 83.5 27.5t34.5 85.5h59zM142.5 447q-29.5 -32 -29.5 -97v-61h228v61q0 65 -30 97t-85 32q-54 0 -83.5 -32z
" />
    <glyph glyph-name="eacute" unicode="&#xe9;" horiz-adv-x="450" 
d="M401 161q-6 -83 -52 -127t-127 -44q-78 0 -123.5 49t-45.5 138v173q0 89 46.5 138t125.5 49q80 0 127.5 -49t47.5 -138v-116h-287v-57q0 -65 29 -97t82 -32q55 0 83.5 27.5t34.5 85.5h59zM142.5 447q-29.5 -32 -29.5 -97v-61h228v61q0 65 -30 97t-85 32q-54 0 -83.5 -32z
M245 718h70l-87 -113h-58z" />
    <glyph glyph-name="ecaron" unicode="&#x11b;" horiz-adv-x="450" 
d="M401 161q-6 -83 -52 -127t-127 -44q-78 0 -123.5 49t-45.5 138v173q0 89 46.5 138t125.5 49q80 0 127.5 -49t47.5 -138v-116h-287v-57q0 -65 29 -97t82 -32q55 0 83.5 27.5t34.5 85.5h59zM142.5 447q-29.5 -32 -29.5 -97v-61h228v61q0 65 -30 97t-85 32q-54 0 -83.5 -32z
M336 718l-81 -113h-64l-81 113h56l57 -70l57 70h56z" />
    <glyph glyph-name="ecircumflex" unicode="&#xea;" horiz-adv-x="450" 
d="M401 161q-6 -83 -52 -127t-127 -44q-78 0 -123.5 49t-45.5 138v173q0 89 46.5 138t125.5 49q80 0 127.5 -49t47.5 -138v-116h-287v-57q0 -65 29 -97t82 -32q55 0 83.5 27.5t34.5 85.5h59zM142.5 447q-29.5 -32 -29.5 -97v-61h228v61q0 65 -30 97t-85 32q-54 0 -83.5 -32z
M280 604l-57 70l-57 -70h-56l81 113h64l81 -113h-56z" />
    <glyph glyph-name="edieresis" unicode="&#xeb;" horiz-adv-x="450" 
d="M401 161q-6 -83 -52 -127t-127 -44q-78 0 -123.5 49t-45.5 138v173q0 89 46.5 138t125.5 49q80 0 127.5 -49t47.5 -138v-116h-287v-57q0 -65 29 -97t82 -32q55 0 83.5 27.5t34.5 85.5h59zM142.5 447q-29.5 -32 -29.5 -97v-61h228v61q0 65 -30 97t-85 32q-54 0 -83.5 -32z
M135 636.5q-11 10.5 -11 28.5t11 28.5t29 10.5q17 0 28 -10.5t11 -28.5t-11 -28.5t-28 -10.5q-18 0 -29 10.5zM252.5 636.5q-11.5 10.5 -11.5 28.5t11.5 28.5t29.5 10.5t29 -10.5t11 -28.5t-11 -28.5t-29 -10.5t-29.5 10.5z" />
    <glyph glyph-name="edotaccent" unicode="&#x117;" horiz-adv-x="450" 
d="M401 161q-6 -83 -52 -127t-127 -44q-78 0 -123.5 49t-45.5 138v173q0 89 46.5 138t125.5 49q80 0 127.5 -49t47.5 -138v-116h-287v-57q0 -65 29 -97t82 -32q55 0 83.5 27.5t34.5 85.5h59zM142.5 447q-29.5 -32 -29.5 -97v-61h228v61q0 65 -30 97t-85 32q-54 0 -83.5 -32z
M187 630q-13 13 -13 35t13 35t35 13t35 -13t13 -35t-13 -35t-35 -13t-35 13z" />
    <glyph glyph-name="egrave" unicode="&#xe8;" horiz-adv-x="450" 
d="M401 161q-6 -83 -52 -127t-127 -44q-78 0 -123.5 49t-45.5 138v173q0 89 46.5 138t125.5 49q80 0 127.5 -49t47.5 -138v-116h-287v-57q0 -65 29 -97t82 -32q55 0 83.5 27.5t34.5 85.5h59zM142.5 447q-29.5 -32 -29.5 -97v-61h228v61q0 65 -30 97t-85 32q-54 0 -83.5 -32z
M213 605l-87 113h70l75 -113h-58z" />
    <glyph glyph-name="emacron" unicode="&#x113;" horiz-adv-x="450" 
d="M401 161q-6 -83 -52 -127t-127 -44q-78 0 -123.5 49t-45.5 138v173q0 89 46.5 138t125.5 49q80 0 127.5 -49t47.5 -138v-116h-287v-57q0 -65 29 -97t82 -32q55 0 83.5 27.5t34.5 85.5h59zM142.5 447q-29.5 -32 -29.5 -97v-61h228v61q0 65 -30 97t-85 32q-54 0 -83.5 -32z
M131 684h184v-50h-184v50z" />
    <glyph glyph-name="eogonek" unicode="&#x119;" horiz-adv-x="454" 
d="M244 -168.5q-21 23.5 -21 59.5q0 51 45 102v1q-19 -4 -44 -4q-80 0 -125.5 49t-45.5 138v173q0 88 46 137.5t125 49.5t126.5 -49t47.5 -138v-116h-285v-57q0 -129 114 -129q108 0 119 113h59q-5 -48 -16 -71t-36 -53q-36 -40 -54.5 -71t-18.5 -61q0 -42 38 -42q23 0 32 3
v-52q-17 -6 -41 -6q-44 0 -65 23.5zM339 289v61q0 64 -30 96.5t-84 32.5t-83 -32t-29 -97v-61h226z" />
    <glyph glyph-name="f" unicode="f" horiz-adv-x="290" 
d="M153 569v-44h115v-54h-115v-471h-59v471h-80v54h80v44q0 80 41 124t116 44h28v-54h-28q-98 0 -98 -114z" />
    <glyph glyph-name="g" unicode="g" horiz-adv-x="463" 
d="M397 525v-561q0 -71 -45.5 -114t-121.5 -43q-73 0 -118 41t-49 111h57q4 -47 32.5 -72t77.5 -25q50 0 79 27t29 75v102q-41 -50 -116 -50q-77 0 -123 49t-46 138v135q0 96 45.5 147.5t121.5 51.5q77 0 120 -65l8 53h49zM310.5 105q27.5 33 27.5 98v145q0 65 -30 99
t-76 34q-119 0 -119 -143v-135q0 -65 31 -98t88 -33q51 0 78.5 33z" />
    <glyph glyph-name="gbreve" unicode="&#x11f;" horiz-adv-x="463" 
d="M397 525v-561q0 -71 -45.5 -114t-121.5 -43q-73 0 -118 41t-49 111h57q4 -47 32.5 -72t77.5 -25q50 0 79 27t29 75v102q-41 -50 -116 -50q-77 0 -123 49t-46 138v135q0 96 45.5 147.5t121.5 51.5q77 0 120 -65l8 53h49zM310.5 105q27.5 33 27.5 98v145q0 65 -30 99
t-76 34q-119 0 -119 -143v-135q0 -65 31 -98t88 -33q51 0 78.5 33zM145.5 637.5q-29.5 30.5 -31.5 85.5h52q2 -34 16.5 -50t44.5 -16t44.5 16t16.5 50h52q-2 -55 -31.5 -85.5t-81.5 -30.5t-81.5 30.5z" />
    <glyph glyph-name="uni0123" unicode="&#x123;" horiz-adv-x="463" 
d="M397 525v-561q0 -71 -45.5 -114t-121.5 -43q-73 0 -118 41t-49 111h57q4 -47 32.5 -72t77.5 -25q50 0 79 27t29 75v102q-41 -50 -116 -50q-77 0 -123 49t-46 138v135q0 96 45.5 147.5t121.5 51.5q77 0 120 -65l8 53h49zM310.5 105q27.5 33 27.5 98v145q0 65 -30 99
t-76 34q-119 0 -119 -143v-135q0 -65 31 -98t88 -33q51 0 78.5 33zM243 783h43l-18 -177h-67z" />
    <glyph glyph-name="gdotaccent" unicode="&#x121;" horiz-adv-x="463" 
d="M397 525v-561q0 -71 -45.5 -114t-121.5 -43q-73 0 -118 41t-49 111h57q4 -47 32.5 -72t77.5 -25q50 0 79 27t29 75v102q-41 -50 -116 -50q-77 0 -123 49t-46 138v135q0 96 45.5 147.5t121.5 51.5q77 0 120 -65l8 53h49zM310.5 105q27.5 33 27.5 98v145q0 65 -30 99
t-76 34q-119 0 -119 -143v-135q0 -65 31 -98t88 -33q51 0 78.5 33zM191 635q-13 13 -13 35t13 35t35 13t35 -13t13 -35t-13 -35t-35 -13t-35 13z" />
    <glyph glyph-name="h" unicode="h" horiz-adv-x="462" 
d="M402 317v-317h-59v312q0 90 -23.5 129.5t-73.5 39.5q-55 0 -88 -43.5t-33 -120.5v-317h-59v720h59v-261q21 37 55.5 57.5t80.5 20.5q141 0 141 -220z" />
    <glyph glyph-name="hbar" unicode="&#x127;" horiz-adv-x="460" 
d="M400 317v-317h-59v312q0 90 -23.5 129.5t-73.5 39.5q-55 0 -88 -43.5t-33 -120.5v-317h-59v610h-64v46h64v67h59v-67h97v-46h-97v-151q21 37 55.5 57.5t80.5 20.5q141 0 141 -220z" />
    <glyph glyph-name="i" unicode="i" horiz-adv-x="191" 
d="M66 525h59v-525h-59v525zM60 635q-13 13 -13 35t13 35t35 13t35 -13t13 -35t-13 -35t-35 -13t-35 13z" />
    <glyph glyph-name="dotlessi" unicode="&#x131;" horiz-adv-x="191" 
d="M66 525h59v-525h-59v525z" />
    <glyph glyph-name="iacute" unicode="&#xed;" horiz-adv-x="191" 
d="M66 525h59v-525h-59v525zM118 723h70l-87 -113h-58z" />
    <glyph glyph-name="icircumflex" unicode="&#xee;" horiz-adv-x="228" 
d="M223 609h-55l-54 70l-54 -70h-55l77 113h64zM84 525h59v-525h-59v525z" />
    <glyph glyph-name="idieresis" unicode="&#xef;" horiz-adv-x="200" 
d="M15.5 642q-10.5 10 -10.5 28t10.5 28t28.5 10q17 0 27.5 -10t10.5 -28t-10.5 -28t-27.5 -10q-18 0 -28.5 10zM127 642q-11 10 -11 28t11 28t29 10t28.5 -10t10.5 -28t-10.5 -28t-28.5 -10t-29 10zM70 525h59v-525h-59v525z" />
    <glyph glyph-name="i.loclTRK" horiz-adv-x="191" 
d="M66 525h59v-525h-59v525zM60 635q-13 13 -13 35t13 35t35 13t35 -13t13 -35t-13 -35t-35 -13t-35 13z" />
    <glyph glyph-name="igrave" unicode="&#xec;" horiz-adv-x="191" 
d="M66 525h59v-525h-59v525zM86 610l-87 113h70l75 -113h-58z" />
    <glyph glyph-name="imacron" unicode="&#x12b;" horiz-adv-x="189" 
d="M7 689h176v-52h-176v52zM65 525h59v-525h-59v525z" />
    <glyph glyph-name="iogonek" unicode="&#x12f;" horiz-adv-x="188" 
d="M67 636q-11 11 -11 28t11 28t28 11t28 -11t11 -28q0 -16 -11.5 -27.5t-27.5 -11.5q-17 0 -28 11zM146 -134v-52q-16 -6 -41 -6q-43 0 -64.5 23.5t-21.5 57.5q0 58 46 109v522h59v-520q-20 -20 -34 -46t-14 -47q0 -23 11 -33.5t27 -10.5q23 0 32 3z" />
    <glyph glyph-name="j" unicode="j" horiz-adv-x="233" 
d="M84 634q-13 13 -13 35t13 35t35 13t35 -13t13 -35t-13 -35t-35 -13t-35 13zM-20 -135q60 1 84.5 32t24.5 93v535h59v-535q0 -86 -41.5 -133.5t-126.5 -48.5v57z" />
    <glyph glyph-name="k" unicode="k" horiz-adv-x="425" 
d="M177 267l-52 -57v-210h-59v724h59v-433l199 234h75l-182 -212l208 -313h-71z" />
    <glyph glyph-name="uni0137" unicode="&#x137;" horiz-adv-x="425" 
d="M177 267l-52 -57v-210h-59v724h59v-433l199 234h75l-182 -212l208 -313h-71zM199 -69h65l-37 -180h-46z" />
    <glyph glyph-name="l" unicode="l" horiz-adv-x="197" 
d="M69 723h59v-723h-59v723z" />
    <glyph glyph-name="lacute" unicode="&#x13a;" horiz-adv-x="197" 
d="M69 723h59v-723h-59v723zM143 882h72l-105 -113h-59z" />
    <glyph glyph-name="lcaron" unicode="&#x13e;" horiz-adv-x="219" 
d="M184 763h65l-32 -174h-42zM69 723h59v-723h-59v723z" />
    <glyph glyph-name="uni013C" unicode="&#x13c;" horiz-adv-x="221" 
d="M75 723h59v-723h-59v723zM87 -69h65l-37 -180h-46z" />
    <glyph glyph-name="lslash" unicode="&#x142;" horiz-adv-x="234" 
d="M221 412l-77 -27v-385h-59v365l-72 -25v56l72 25v299h59v-279l77 27v-56z" />
    <glyph glyph-name="m" unicode="m" horiz-adv-x="723" 
d="M626.5 486q36.5 -51 36.5 -152v-334h-59v329q0 80 -23 116t-67 36q-54 0 -87 -43.5t-33 -119.5v-318h-59v329q0 80 -24 116t-69 36q-53 0 -85 -43.5t-32 -119.5v-318h-59v525h49l9 -68q20 38 52.5 59t78.5 21q45 0 77.5 -25t48.5 -76q19 47 55.5 74t90.5 27
q63 0 99.5 -51z" />
    <glyph glyph-name="n" unicode="n" horiz-adv-x="462" 
d="M365 488.5q37 -48.5 37 -152.5v-336h-59v327q0 80 -23 117t-74 37q-55 0 -88 -43.5t-33 -119.5v-318h-59v525h49l10 -65q21 37 55 57t81 20q67 0 104 -48.5z" />
    <glyph glyph-name="nacute" unicode="&#x144;" horiz-adv-x="462" 
d="M365 488.5q37 -48.5 37 -152.5v-336h-59v327q0 80 -23 117t-74 37q-55 0 -88 -43.5t-33 -119.5v-318h-59v525h49l10 -65q21 37 55 57t81 20q67 0 104 -48.5zM253 718h70l-87 -113h-58z" />
    <glyph glyph-name="ncaron" unicode="&#x148;" horiz-adv-x="462" 
d="M365 488.5q37 -48.5 37 -152.5v-336h-59v327q0 80 -23 117t-74 37q-55 0 -88 -43.5t-33 -119.5v-318h-59v525h49l10 -65q21 37 55 57t81 20q67 0 104 -48.5zM344 718l-81 -113h-64l-81 113h56l57 -70l57 70h56z" />
    <glyph glyph-name="uni0146" unicode="&#x146;" horiz-adv-x="462" 
d="M365 488.5q37 -48.5 37 -152.5v-336h-59v327q0 80 -23 117t-74 37q-55 0 -88 -43.5t-33 -119.5v-318h-59v525h49l10 -65q21 37 55 57t81 20q67 0 104 -48.5zM213 -69h65l-37 -180h-46z" />
    <glyph glyph-name="eng" unicode="&#x14b;" horiz-adv-x="462" 
d="M234 -148q58 1 83.5 27.5t25.5 77.5v370q0 80 -23 117t-74 37q-55 0 -88 -43.5t-33 -119.5v-318h-59v525h49l10 -65q21 37 55 57t81 20q70 0 105.5 -48t35.5 -153v-379q0 -75 -42 -118t-126 -44v57z" />
    <glyph glyph-name="ntilde" unicode="&#xf1;" horiz-adv-x="462" 
d="M365 488.5q37 -48.5 37 -152.5v-336h-59v327q0 80 -23 117t-74 37q-55 0 -88 -43.5t-33 -119.5v-318h-59v525h49l10 -65q21 37 55 57t81 20q67 0 104 -48.5zM246 625q-11 5 -25 15q-18 12 -27 12q-16 0 -19 -29h-54q2 36 20 57t48 21q16 0 27 -5t25 -15q6 -5 13 -8.5
t13 -3.5q20 0 23 29h50q-4 -37 -21.5 -57.5t-46.5 -20.5q-15 0 -26 5z" />
    <glyph glyph-name="o" unicode="o" horiz-adv-x="456" 
d="M100.5 37.5q-47.5 49.5 -47.5 140.5v169q0 91 47.5 140.5t127.5 49.5t127.5 -49.5t47.5 -140.5v-169q0 -91 -47.5 -140.5t-127.5 -49.5t-127.5 49.5zM313 78.5q30 32.5 30 99.5v169q0 67 -30 99.5t-85 32.5t-85 -32.5t-30 -99.5v-169q0 -67 30 -99.5t85 -32.5t85 32.5z
" />
    <glyph glyph-name="oacute" unicode="&#xf3;" horiz-adv-x="456" 
d="M100.5 37.5q-47.5 49.5 -47.5 140.5v169q0 91 47.5 140.5t127.5 49.5t127.5 -49.5t47.5 -140.5v-169q0 -91 -47.5 -140.5t-127.5 -49.5t-127.5 49.5zM313 78.5q30 32.5 30 99.5v169q0 67 -30 99.5t-85 32.5t-85 -32.5t-30 -99.5v-169q0 -67 30 -99.5t85 -32.5t85 32.5z
M250 723h70l-87 -113h-58z" />
    <glyph glyph-name="ocircumflex" unicode="&#xf4;" horiz-adv-x="456" 
d="M100.5 37.5q-47.5 49.5 -47.5 140.5v169q0 91 47.5 140.5t127.5 49.5t127.5 -49.5t47.5 -140.5v-169q0 -91 -47.5 -140.5t-127.5 -49.5t-127.5 49.5zM313 78.5q30 32.5 30 99.5v169q0 67 -30 99.5t-85 32.5t-85 -32.5t-30 -99.5v-169q0 -67 30 -99.5t85 -32.5t85 32.5z
M285 609l-57 70l-57 -70h-56l81 113h64l81 -113h-56z" />
    <glyph glyph-name="odieresis" unicode="&#xf6;" horiz-adv-x="456" 
d="M100.5 37.5q-47.5 49.5 -47.5 140.5v169q0 91 47.5 140.5t127.5 49.5t127.5 -49.5t47.5 -140.5v-169q0 -91 -47.5 -140.5t-127.5 -49.5t-127.5 49.5zM313 78.5q30 32.5 30 99.5v169q0 67 -30 99.5t-85 32.5t-85 -32.5t-30 -99.5v-169q0 -67 30 -99.5t85 -32.5t85 32.5z
M140 641.5q-11 10.5 -11 28.5t11 28.5t29 10.5q17 0 28 -10.5t11 -28.5t-11 -28.5t-28 -10.5q-18 0 -29 10.5zM257.5 641.5q-11.5 10.5 -11.5 28.5t11.5 28.5t29.5 10.5t29 -10.5t11 -28.5t-11 -28.5t-29 -10.5t-29.5 10.5z" />
    <glyph glyph-name="ograve" unicode="&#xf2;" horiz-adv-x="456" 
d="M100.5 37.5q-47.5 49.5 -47.5 140.5v169q0 91 47.5 140.5t127.5 49.5t127.5 -49.5t47.5 -140.5v-169q0 -91 -47.5 -140.5t-127.5 -49.5t-127.5 49.5zM313 78.5q30 32.5 30 99.5v169q0 67 -30 99.5t-85 32.5t-85 -32.5t-30 -99.5v-169q0 -67 30 -99.5t85 -32.5t85 32.5z
M218 610l-87 113h70l75 -113h-58z" />
    <glyph glyph-name="ohungarumlaut" unicode="&#x151;" horiz-adv-x="456" 
d="M100.5 37.5q-47.5 49.5 -47.5 140.5v169q0 91 47.5 140.5t127.5 49.5t127.5 -49.5t47.5 -140.5v-169q0 -91 -47.5 -140.5t-127.5 -49.5t-127.5 49.5zM313 78.5q30 32.5 30 99.5v169q0 67 -30 99.5t-85 32.5t-85 -32.5t-30 -99.5v-169q0 -67 30 -99.5t85 -32.5t85 32.5z
M199 723h67l-82 -113h-53zM301 723h67l-86 -113h-53z" />
    <glyph glyph-name="omacron" unicode="&#x14d;" horiz-adv-x="456" 
d="M100.5 37.5q-47.5 49.5 -47.5 140.5v169q0 91 47.5 140.5t127.5 49.5t127.5 -49.5t47.5 -140.5v-169q0 -91 -47.5 -140.5t-127.5 -49.5t-127.5 49.5zM313 78.5q30 32.5 30 99.5v169q0 67 -30 99.5t-85 32.5t-85 -32.5t-30 -99.5v-169q0 -67 30 -99.5t85 -32.5t85 32.5z
M136 689h184v-50h-184v50z" />
    <glyph glyph-name="oslash" unicode="&#xf8;" horiz-adv-x="456" 
d="M403 347v-167q0 -91 -47.5 -140.5t-127.5 -49.5q-43 0 -78 15l-26 -65h-54l38 93q-55 50 -55 147v167q0 91 47.5 140.5t127.5 49.5q43 0 78 -15l26 63h54l-37 -91q54 -51 54 -147zM133 95l151 373q-25 11 -56 11q-55 0 -85 -32.5t-30 -99.5v-167q0 -53 20 -85zM343 347
q0 52 -19 85l-152 -373q25 -11 56 -11q55 0 85 32.5t30 99.5v167z" />
    <glyph glyph-name="otilde" unicode="&#xf5;" horiz-adv-x="456" 
d="M100.5 37.5q-47.5 49.5 -47.5 140.5v169q0 91 47.5 140.5t127.5 49.5t127.5 -49.5t47.5 -140.5v-169q0 -91 -47.5 -140.5t-127.5 -49.5t-127.5 49.5zM313 78.5q30 32.5 30 99.5v169q0 67 -30 99.5t-85 32.5t-85 -32.5t-30 -99.5v-169q0 -67 30 -99.5t85 -32.5t85 32.5z
M243 630q-11 5 -25 15q-18 12 -27 12q-16 0 -19 -29h-54q2 36 20 57t48 21q16 0 27 -5t25 -15q6 -5 13 -8.5t13 -3.5q20 0 23 29h50q-4 -37 -21.5 -57.5t-46.5 -20.5q-15 0 -26 5z" />
    <glyph glyph-name="oe" unicode="&#x153;" horiz-adv-x="720" 
d="M394 239v-62q0 -65 28 -97t80 -32q53 0 81.5 30.5t28.5 92.5h59q0 -86 -45.5 -133.5t-123.5 -47.5q-46 0 -82 22.5t-56 63.5q-21 -42 -57 -64t-83 -22q-79 0 -125 49.5t-46 139.5v164q0 90 46 139.5t125 49.5q47 0 83 -22t57 -64q20 41 56 63.5t82 22.5q78 0 123.5 -49
t45.5 -138v-106h-277zM334 343q0 66 -29 98.5t-81 32.5q-53 0 -82 -32.5t-29 -98.5v-164q0 -66 29 -98.5t82 -32.5q52 0 81 32.5t29 98.5v164zM394 291h218v54q0 65 -28.5 97t-81.5 32q-52 0 -80 -32t-28 -97v-54z" />
    <glyph glyph-name="p" unicode="p" horiz-adv-x="462" 
d="M364.5 485q44.5 -52 44.5 -149v-151q0 -96 -43 -146.5t-120 -50.5q-37 0 -69 15t-53 44v-227h-58v705h48l8 -49q21 29 53.5 45t70.5 16q74 0 118.5 -52zM349 336q0 146 -116 146q-48 0 -78.5 -37t-30.5 -107v-153q0 -63 30 -102.5t79 -39.5q59 0 87.5 34t28.5 108v151z
" />
    <glyph glyph-name="thorn" unicode="&#xfe;" horiz-adv-x="457" 
d="M362.5 481.5q41.5 -50.5 41.5 -146.5v-130q0 -96 -41.5 -146.5t-116.5 -50.5q-37 0 -69 15t-53 44v-247h-58v900h58v-247q21 29 53 44t69 15q75 0 116.5 -50.5zM344 335q0 74 -27.5 108t-83.5 34q-49 0 -79 -39.5t-30 -102.5v-130q0 -63 30 -102.5t79 -39.5q56 0 83.5 34
t27.5 108v130z" />
    <glyph glyph-name="q" unicode="q" horiz-adv-x="462" 
d="M396 525v-705h-58v227q-21 -29 -53 -44t-69 -15q-77 0 -120 50.5t-43 146.5v151q0 97 44.5 149t118.5 52q38 0 70.5 -16t53.5 -45l8 49h48zM308 82.5q30 39.5 30 102.5v153q0 70 -30.5 107t-78.5 37q-116 0 -116 -146v-151q0 -74 28.5 -108t87.5 -34q49 0 79 39.5z" />
    <glyph glyph-name="r" unicode="r" horiz-adv-x="331" 
d="M315 531v-64q-30 11 -66 11q-57 0 -90.5 -43t-33.5 -117v-318h-59v525h49l10 -66v-1q21 37 55.5 57.5t81.5 20.5q33 0 53 -5z" />
    <glyph glyph-name="racute" unicode="&#x155;" horiz-adv-x="331" 
d="M315 531v-64q-30 11 -66 11q-57 0 -90.5 -43t-33.5 -117v-318h-59v525h49l10 -66v-1q21 37 55.5 57.5t81.5 20.5q33 0 53 -5zM207 723h70l-87 -113h-58z" />
    <glyph glyph-name="rcaron" unicode="&#x159;" horiz-adv-x="331" 
d="M315 531v-64q-30 11 -66 11q-57 0 -90.5 -43t-33.5 -117v-318h-59v525h49l10 -66v-1q21 37 55.5 57.5t81.5 20.5q33 0 53 -5zM298 723l-81 -113h-64l-81 113h56l57 -70l57 70h56z" />
    <glyph glyph-name="uni0157" unicode="&#x157;" horiz-adv-x="331" 
d="M315 531v-64q-30 11 -66 11q-57 0 -90.5 -43t-33.5 -117v-318h-59v525h49l10 -66v-1q21 37 55.5 57.5t81.5 20.5q33 0 53 -5zM88 -69h65l-37 -180h-46z" />
    <glyph glyph-name="s" unicode="s" horiz-adv-x="402" 
d="M79 34q-48 46 -48 122h59q0 -52 30.5 -81t84.5 -29q49 0 76 23.5t27 65.5q0 28 -15.5 46.5t-38 30t-64.5 27.5q-50 20 -80 36.5t-51 45.5t-21 75q0 64 43.5 102.5t114.5 38.5q74 0 118.5 -44t44.5 -117h-59q0 49 -27.5 76.5t-76.5 27.5q-46 0 -72 -22.5t-26 -63.5
q0 -37 28 -57t86 -42q51 -20 81.5 -37t52.5 -47.5t22 -77.5q0 -65 -45 -105t-118 -40q-78 0 -126 46z" />
    <glyph glyph-name="sacute" unicode="&#x15b;" horiz-adv-x="402" 
d="M79 34q-48 46 -48 122h59q0 -52 30.5 -81t84.5 -29q49 0 76 23.5t27 65.5q0 28 -15.5 46.5t-38 30t-64.5 27.5q-50 20 -80 36.5t-51 45.5t-21 75q0 64 43.5 102.5t114.5 38.5q74 0 118.5 -44t44.5 -117h-59q0 49 -27.5 76.5t-76.5 27.5q-46 0 -72 -22.5t-26 -63.5
q0 -37 28 -57t86 -42q51 -20 81.5 -37t52.5 -47.5t22 -77.5q0 -65 -45 -105t-118 -40q-78 0 -126 46zM221 723h70l-87 -113h-58z" />
    <glyph glyph-name="scaron" unicode="&#x161;" horiz-adv-x="402" 
d="M79 34q-48 46 -48 122h59q0 -52 30.5 -81t84.5 -29q49 0 76 23.5t27 65.5q0 28 -15.5 46.5t-38 30t-64.5 27.5q-50 20 -80 36.5t-51 45.5t-21 75q0 64 43.5 102.5t114.5 38.5q74 0 118.5 -44t44.5 -117h-59q0 49 -27.5 76.5t-76.5 27.5q-46 0 -72 -22.5t-26 -63.5
q0 -37 28 -57t86 -42q51 -20 81.5 -37t52.5 -47.5t22 -77.5q0 -65 -45 -105t-118 -40q-78 0 -126 46zM312 723l-81 -113h-64l-81 113h56l57 -70l57 70h56z" />
    <glyph glyph-name="scedilla" unicode="&#x15f;" horiz-adv-x="402" 
d="M326.5 31q-41.5 -39 -110.5 -43l-11 -38q4 1 14 1q29 0 50 -18.5t21 -46.5q0 -36 -25.5 -56.5t-66.5 -20.5q-36 0 -60.5 19.5t-27.5 53.5h49q3 -13 14 -20.5t27 -7.5q19 0 30.5 8.5t11.5 24.5q0 32 -39 32q-19 0 -31 -7l-17 16l19 62q-66 9 -104.5 53.5t-38.5 112.5h59
q0 -52 30.5 -81t84.5 -29q49 0 76 23.5t27 65.5q0 28 -15.5 46.5t-38 30t-64.5 27.5q-50 20 -80 36.5t-51 45.5t-21 75q0 64 43.5 102.5t114.5 38.5q74 0 118.5 -44t44.5 -117h-59q0 49 -27.5 76.5t-76.5 27.5q-46 0 -72 -22.5t-26 -63.5q0 -37 28 -57t86 -42
q51 -20 81.5 -37t52.5 -47.5t22 -77.5q0 -63 -41.5 -102z" />
    <glyph glyph-name="uni0219" unicode="&#x219;" horiz-adv-x="402" 
d="M79 34q-48 46 -48 122h59q0 -52 30.5 -81t84.5 -29q49 0 76 23.5t27 65.5q0 28 -15.5 46.5t-38 30t-64.5 27.5q-50 20 -80 36.5t-51 45.5t-21 75q0 64 43.5 102.5t114.5 38.5q74 0 118.5 -44t44.5 -117h-59q0 49 -27.5 76.5t-76.5 27.5q-46 0 -72 -22.5t-26 -63.5
q0 -37 28 -57t86 -42q51 -20 81.5 -37t52.5 -47.5t22 -77.5q0 -65 -45 -105t-118 -40q-78 0 -126 46zM181 -69h65l-37 -180h-46z" />
    <glyph glyph-name="germandbls" unicode="&#xdf;" horiz-adv-x="462" 
d="M396.5 308q29.5 -45 29.5 -117q0 -92 -49 -141.5t-137 -49.5h-64v59h64q63 0 93 32.5t30 101.5q0 71 -31 105.5t-92 34.5h-64v58h47q111 0 111 132t-106 132q-53 0 -77.5 -34.5t-24.5 -106.5v-514h-60v514q0 94 42 146t121 52t122.5 -51t43.5 -139q0 -64 -21.5 -104.5
t-58.5 -51.5q52 -13 81.5 -58z" />
    <glyph glyph-name="t" unicode="t" horiz-adv-x="297" 
d="M277 51v-56h-30q-72 0 -110.5 42.5t-38.5 118.5v314h-80v55h80v121h59v-121h108v-55h-108v-314q0 -105 90 -105h30z" />
    <glyph glyph-name="tbar" unicode="&#x167;" horiz-adv-x="297" 
d="M277 51v-56h-30q-72 0 -110.5 42.5t-38.5 118.5v116h-62v46h62v152h-80v55h80v121h59v-121h108v-55h-108v-152h83v-46h-83v-116q0 -105 90 -105h30z" />
    <glyph glyph-name="tcaron" unicode="&#x165;" horiz-adv-x="303" 
d="M251 590h-42l9 174h65zM247 51h30v-56h-30q-72 0 -110.5 42.5t-38.5 118.5v314h-80v55h80v121h59v-121h108v-55h-108v-314q0 -105 90 -105z" />
    <glyph glyph-name="uni0163" unicode="&#x163;" horiz-adv-x="297" 
d="M205 -1l-19 -49q4 1 14 1q29 0 50 -19t21 -48q0 -37 -25.5 -58t-66.5 -21q-36 0 -60.5 19.5t-27.5 53.5h49q3 -13 14 -20.5t27 -7.5q19 0 30.5 9t11.5 26q0 34 -39 34q-19 0 -31 -7l-17 16l32 85q-34 19 -52 55.5t-18 87.5v314h-80v55h80v121h59v-121h108v-55h-108v-314
q0 -105 90 -105h30v-56h-30q-25 0 -42 4z" />
    <glyph glyph-name="uni021B" unicode="&#x21b;" horiz-adv-x="297" 
d="M277 51v-56h-30q-72 0 -110.5 42.5t-38.5 118.5v314h-80v55h80v121h59v-121h108v-55h-108v-314q0 -105 90 -105h30zM142 -69h65l-37 -180h-46z" />
    <glyph glyph-name="u" unicode="u" horiz-adv-x="462" 
d="M396 525v-525h-49l-10 65q-21 -37 -55 -57t-81 -20q-67 0 -104 48.5t-37 152.5v336h59v-327q0 -80 23 -117t74 -37q55 0 88 43.5t33 119.5v318h59z" />
    <glyph glyph-name="uacute" unicode="&#xfa;" horiz-adv-x="462" 
d="M396 525v-525h-49l-10 65q-21 -37 -55 -57t-81 -20q-67 0 -104 48.5t-37 152.5v336h59v-327q0 -80 23 -117t74 -37q55 0 88 43.5t33 119.5v318h59zM252 718h70l-87 -113h-58z" />
    <glyph glyph-name="ucircumflex" unicode="&#xfb;" horiz-adv-x="462" 
d="M396 525v-525h-49l-10 65q-21 -37 -55 -57t-81 -20q-67 0 -104 48.5t-37 152.5v336h59v-327q0 -80 23 -117t74 -37q55 0 88 43.5t33 119.5v318h59zM287 604l-57 70l-57 -70h-56l81 113h64l81 -113h-56z" />
    <glyph glyph-name="udieresis" unicode="&#xfc;" horiz-adv-x="462" 
d="M396 525v-525h-49l-10 65q-21 -37 -55 -57t-81 -20q-67 0 -104 48.5t-37 152.5v336h59v-327q0 -80 23 -117t74 -37q55 0 88 43.5t33 119.5v318h59zM142 636.5q-11 10.5 -11 28.5t11 28.5t29 10.5q17 0 28 -10.5t11 -28.5t-11 -28.5t-28 -10.5q-18 0 -29 10.5z
M259.5 636.5q-11.5 10.5 -11.5 28.5t11.5 28.5t29.5 10.5t29 -10.5t11 -28.5t-11 -28.5t-29 -10.5t-29.5 10.5z" />
    <glyph glyph-name="ugrave" unicode="&#xf9;" horiz-adv-x="462" 
d="M396 525v-525h-49l-10 65q-21 -37 -55 -57t-81 -20q-67 0 -104 48.5t-37 152.5v336h59v-327q0 -80 23 -117t74 -37q55 0 88 43.5t33 119.5v318h59zM220 605l-87 113h70l75 -113h-58z" />
    <glyph glyph-name="uhungarumlaut" unicode="&#x171;" horiz-adv-x="462" 
d="M396 525v-525h-49l-10 65q-21 -37 -55 -57t-81 -20q-67 0 -104 48.5t-37 152.5v336h59v-327q0 -80 23 -117t74 -37q55 0 88 43.5t33 119.5v318h59zM201 718h67l-82 -113h-53zM303 718h67l-86 -113h-53z" />
    <glyph glyph-name="umacron" unicode="&#x16b;" horiz-adv-x="462" 
d="M396 525v-525h-49l-10 65q-21 -37 -55 -57t-81 -20q-67 0 -104 48.5t-37 152.5v336h59v-327q0 -80 23 -117t74 -37q55 0 88 43.5t33 119.5v318h59zM138 684h184v-50h-184v50z" />
    <glyph glyph-name="uogonek" unicode="&#x173;" horiz-adv-x="462" 
d="M349.5 -50q-18.5 -28 -18.5 -52q0 -35 39 -35q13 0 25 3v-52q-15 -6 -38 -6q-42 0 -62.5 23.5t-20.5 56.5q0 60 73 112l-10 65q-45 -77 -135 -77q-142 0 -142 201v336h59v-327q0 -80 22.5 -117t73.5 -37q56 0 89 43.5t33 119.5v318h59v-525q-28 -22 -46.5 -50z" />
    <glyph glyph-name="uring" unicode="&#x16f;" horiz-adv-x="462" 
d="M396 525v-525h-49l-10 65q-21 -37 -55 -57t-81 -20q-67 0 -104 48.5t-37 152.5v336h59v-327q0 -80 23 -117t74 -37q55 0 88 43.5t33 119.5v318h59zM179.5 620q-19.5 19 -19.5 50q0 30 19.5 48.5t50.5 18.5t50.5 -18.5t19.5 -48.5q0 -31 -19.5 -50t-50.5 -19t-50.5 19z
M252.5 646.5q8.5 8.5 8.5 22.5t-9 22.5t-22 8.5q-14 0 -22.5 -8.5t-8.5 -22.5t8.5 -22.5t22.5 -8.5t22.5 8.5z" />
    <glyph glyph-name="v" unicode="v" horiz-adv-x="378" 
d="M8 525h62l83 -307l26 -107l8 -34h4l8 34l26 107l83 307h62l-149 -525h-64z" />
    <glyph glyph-name="w" unicode="w" horiz-adv-x="608" 
d="M600 525l-130 -525h-65l-64 261q-11 45 -22 99t-14 79h-2q-3 -25 -14 -79t-22 -99l-64 -261h-65l-130 525h62l65 -286q14 -62 27 -131l7 -34h2q20 107 38 185l63 256h64l63 -256q18 -78 38 -185h2l7 34q13 69 27 131l65 286h62z" />
    <glyph glyph-name="wacute" unicode="&#x1e83;" horiz-adv-x="608" 
d="M600 525l-130 -525h-65l-64 261q-11 45 -22 99t-14 79h-2q-3 -25 -14 -79t-22 -99l-64 -261h-65l-130 525h62l65 -286q14 -62 27 -131l7 -34h2q20 107 38 185l63 256h64l63 -256q18 -78 38 -185h2l7 34q13 69 27 131l65 286h62zM323 718h70l-87 -113h-58z" />
    <glyph glyph-name="wcircumflex" unicode="&#x175;" horiz-adv-x="608" 
d="M600 525l-130 -525h-65l-64 261q-11 45 -22 99t-14 79h-2q-3 -25 -14 -79t-22 -99l-64 -261h-65l-130 525h62l65 -286q14 -62 27 -131l7 -34h2q20 107 38 185l63 256h64l63 -256q18 -78 38 -185h2l7 34q13 69 27 131l65 286h62zM358 604l-57 70l-57 -70h-56l81 113h64
l81 -113h-56z" />
    <glyph glyph-name="wdieresis" unicode="&#x1e85;" horiz-adv-x="608" 
d="M600 525l-130 -525h-65l-64 261q-11 45 -22 99t-14 79h-2q-3 -25 -14 -79t-22 -99l-64 -261h-65l-130 525h62l65 -286q14 -62 27 -131l7 -34h2q20 107 38 185l63 256h64l63 -256q18 -78 38 -185h2l7 34q13 69 27 131l65 286h62zM213 636.5q-11 10.5 -11 28.5t11 28.5
t29 10.5q17 0 28 -10.5t11 -28.5t-11 -28.5t-28 -10.5q-18 0 -29 10.5zM330.5 636.5q-11.5 10.5 -11.5 28.5t11.5 28.5t29.5 10.5t29 -10.5t11 -28.5t-11 -28.5t-29 -10.5t-29.5 10.5z" />
    <glyph glyph-name="wgrave" unicode="&#x1e81;" horiz-adv-x="608" 
d="M600 525l-130 -525h-65l-64 261q-11 45 -22 99t-14 79h-2q-3 -25 -14 -79t-22 -99l-64 -261h-65l-130 525h62l65 -286q14 -62 27 -131l7 -34h2q20 107 38 185l63 256h64l63 -256q18 -78 38 -185h2l7 34q13 69 27 131l65 286h62zM291 605l-87 113h70l75 -113h-58z" />
    <glyph glyph-name="x" unicode="x" horiz-adv-x="380" 
d="M306 0l-116 214l-116 -214h-69l151 262l-144 263h67l111 -206l111 206h67l-143 -263l150 -262h-69z" />
    <glyph glyph-name="y" unicode="y" horiz-adv-x="387" 
d="M379 525l-178 -589q-20 -65 -47.5 -96t-78.5 -31h-34v58h26q32 0 47.5 19.5t27.5 58.5l32 107l-166 473h65l85 -244l44 -135l115 379h62z" />
    <glyph glyph-name="yacute" unicode="&#xfd;" horiz-adv-x="387" 
d="M379 525l-178 -589q-20 -65 -47.5 -96t-78.5 -31h-34v58h26q32 0 47.5 19.5t27.5 58.5l32 107l-166 473h65l85 -244l44 -135l115 379h62zM221 723h70l-87 -113h-58z" />
    <glyph glyph-name="ycircumflex" unicode="&#x177;" horiz-adv-x="387" 
d="M379 525l-178 -589q-20 -65 -47.5 -96t-78.5 -31h-34v58h26q32 0 47.5 19.5t27.5 58.5l32 107l-166 473h65l85 -244l44 -135l115 379h62zM256 609l-57 70l-57 -70h-56l81 113h64l81 -113h-56z" />
    <glyph glyph-name="ydieresis" unicode="&#xff;" horiz-adv-x="387" 
d="M379 525l-178 -589q-20 -65 -47.5 -96t-78.5 -31h-34v58h26q32 0 47.5 19.5t27.5 58.5l32 107l-166 473h65l85 -244l44 -135l115 379h62zM111 641.5q-11 10.5 -11 28.5t11 28.5t29 10.5q17 0 28 -10.5t11 -28.5t-11 -28.5t-28 -10.5q-18 0 -29 10.5zM228.5 641.5
q-11.5 10.5 -11.5 28.5t11.5 28.5t29.5 10.5t29 -10.5t11 -28.5t-11 -28.5t-29 -10.5t-29.5 10.5z" />
    <glyph glyph-name="ygrave" unicode="&#x1ef3;" horiz-adv-x="387" 
d="M379 525l-178 -589q-20 -65 -47.5 -96t-78.5 -31h-34v58h26q32 0 47.5 19.5t27.5 58.5l32 107l-166 473h65l85 -244l44 -135l115 379h62zM189 610l-87 113h70l75 -113h-58z" />
    <glyph glyph-name="z" unicode="z" horiz-adv-x="357" 
d="M16 48l236 422h-225v55h296v-47l-236 -423h244v-55h-315v48z" />
    <glyph glyph-name="zacute" unicode="&#x17a;" horiz-adv-x="357" 
d="M16 48l236 422h-225v55h296v-47l-236 -423h244v-55h-315v48zM196 723h70l-87 -113h-58z" />
    <glyph glyph-name="zcaron" unicode="&#x17e;" horiz-adv-x="357" 
d="M16 48l236 422h-225v55h296v-47l-236 -423h244v-55h-315v48zM287 723l-81 -113h-64l-81 113h56l57 -70l57 70h56z" />
    <glyph glyph-name="zdotaccent" unicode="&#x17c;" horiz-adv-x="357" 
d="M16 48l236 422h-225v55h296v-47l-236 -423h244v-55h-315v48zM138 635q-13 13 -13 35t13 35t35 13t35 -13t13 -35t-13 -35t-35 -13t-35 13z" />
    <glyph glyph-name="uni0410" unicode="&#x410;" horiz-adv-x="458" 
d="M340 164h-222l-41 -164h-66l184 700h68l184 -700h-66zM326 220l-72 290q-15 58 -24 110h-2q-9 -52 -24 -110l-72 -290h194z" />
    <glyph glyph-name="uni0411" unicode="&#x411;" horiz-adv-x="489" 
d="M77 700h340v-58h-278v-226h115q91 0 146 -55t55 -150q0 -98 -55 -154.5t-146 -56.5h-177v700zM254 58q63 0 100.5 39.5t37.5 113.5q0 71 -37.5 109t-100.5 38h-115v-300h115z" />
    <glyph glyph-name="uni0412" unicode="&#x412;" horiz-adv-x="493" 
d="M424 305.5q32 -44.5 32 -114.5q0 -93 -52.5 -142t-146.5 -49h-180v700h164q88 0 137 -47.5t49 -134.5q0 -64 -24.5 -103.5t-66.5 -51.5q56 -13 88 -57.5zM139 642v-254h104q121 0 121 130q0 64 -30 94t-93 30h-102zM359.5 90.5q33.5 32.5 33.5 100.5q0 67 -39.5 103
t-107.5 36h-107v-272h118q69 0 102.5 32.5z" />
    <glyph glyph-name="uni0413" unicode="&#x413;" horiz-adv-x="414" 
d="M396 642h-257v-642h-62v700h319v-58z" />
    <glyph glyph-name="uni0403" unicode="&#x403;" horiz-adv-x="414" 
d="M396 642h-257v-642h-62v700h319v-58zM262 882h72l-105 -113h-59z" />
    <glyph glyph-name="uni0490" unicode="&#x490;" horiz-adv-x="414" 
d="M396 800v-158h-257v-642h-62v700h262v100h57z" />
    <glyph glyph-name="uni0414" unicode="&#x414;" horiz-adv-x="517" 
d="M489 58v-173h-60v115h-362v-115h-60v173h38q31 30 52 99.5t24 160.5l12 382h296v-642h60zM367 642h-175l-12 -340q-6 -161 -58 -244h245v584z" />
    <glyph glyph-name="uni0415" unicode="&#x415;" horiz-adv-x="454" 
d="M414 57v-57h-337v700h326v-57h-264v-259h247v-57h-247v-270h275z" />
    <glyph glyph-name="uni0401" unicode="&#x401;" horiz-adv-x="454" 
d="M414 57v-57h-337v700h326v-57h-264v-259h247v-57h-247v-270h275zM150 798.5q-11 10.5 -11 28.5t11 28.5t29 10.5q17 0 28 -10.5t11 -28.5t-11 -28.5t-28 -10.5q-18 0 -29 10.5zM279.5 798.5q-11.5 10.5 -11.5 28.5t11.5 28.5t29.5 10.5t29 -10.5t11 -28.5t-11 -28.5
t-29 -10.5t-29.5 10.5z" />
    <glyph glyph-name="uni0416" unicode="&#x416;" horiz-adv-x="692" 
d="M408 323l-32 -45v-278h-60v278l-32 45l-210 -323h-74l246 377l-230 323h73l227 -328v328h60v-329l65 95l162 234h73l-230 -323l246 -377h-74z" />
    <glyph glyph-name="uni0417" unicode="&#x417;" horiz-adv-x="484" 
d="M406.5 298.5q30.5 -45.5 30.5 -111.5q0 -93 -54.5 -146.5t-142.5 -53.5q-90 0 -144.5 55.5t-59.5 144.5h63q5 -64 41 -102t98 -38t99.5 38t37.5 102q0 69 -42 106.5t-108 37.5h-57v58h50q64 0 103 33.5t39 101.5q0 62 -32.5 95.5t-91.5 33.5q-117 0 -128 -142h-62
q5 95 54.5 148.5t136.5 53.5q85 0 135 -51t50 -143q0 -62 -26.5 -100.5t-85.5 -56.5q66 -18 96.5 -63.5z" />
    <glyph glyph-name="uni0418" unicode="&#x418;" horiz-adv-x="539" 
d="M77 700h62v-443q0 -81 -3 -134l3 -1q19 51 49 114l204 464h70v-700h-62v461l1 117l-2 1q-4 -12 -37 -90l-217 -489h-68v700z" />
    <glyph glyph-name="uni0419" unicode="&#x419;" horiz-adv-x="539" 
d="M77 700h62v-443q0 -81 -3 -134l3 -1q19 51 49 114l204 464h70v-700h-62v461l1 117l-2 1q-4 -12 -37 -90l-217 -489h-68v700zM188.5 796.5q-29.5 30.5 -31.5 85.5h52q2 -34 16.5 -50t44.5 -16t44.5 16t16.5 50h52q-2 -55 -31.5 -85.5t-81.5 -30.5t-81.5 30.5z" />
    <glyph glyph-name="uni040D" unicode="&#x40d;" horiz-adv-x="539" 
d="M77 700h62v-443q0 -81 -3 -134l3 -1q19 51 49 114l204 464h70v-700h-62v461l1 117l-2 1q-4 -12 -37 -90l-217 -489h-68v700zM252 769l-105 113h72l92 -113h-59z" />
    <glyph glyph-name="uni041A" unicode="&#x41a;" horiz-adv-x="480" 
d="M189 341l-50 -68v-273h-62v700h62v-334l57 82l179 252h77l-223 -305l251 -395h-74z" />
    <glyph glyph-name="uni040C" unicode="&#x40c;" horiz-adv-x="480" 
d="M189 341l-50 -68v-273h-62v700h62v-334l57 82l179 252h77l-223 -305l251 -395h-74zM269 882h72l-105 -113h-59z" />
    <glyph glyph-name="uni041B" unicode="&#x41b;" horiz-adv-x="483" 
d="M0 50q33 0 51 25t23 69q16 135 31 556h301v-700h-62v642h-180q-8 -201 -15 -325t-15 -182q-8 -68 -42 -106t-92 -38v59z" />
    <glyph glyph-name="uni041C" unicode="&#x41c;" horiz-adv-x="652" 
d="M575 700v-700h-62v370q0 105 6 198l-4 1q-9 -27 -42 -108l-30 -76l-86 -220h-62l-86 220l-30 76q-33 81 -42 108l-4 -1q6 -93 6 -198v-370h-62v700h66l125 -302q24 -60 56 -156h4q32 96 56 156l125 302h66z" />
    <glyph glyph-name="uni041D" unicode="&#x41d;" horiz-adv-x="527" 
d="M450 700v-700h-62v327h-249v-327h-62v700h62v-315h249v315h62z" />
    <glyph glyph-name="uni041E" unicode="&#x41e;" horiz-adv-x="518" 
d="M111.5 49q-53.5 62 -53.5 168v266q0 106 53.5 168t147.5 62t147.5 -62t53.5 -168v-266q0 -106 -53.5 -168t-147.5 -62t-147.5 62zM362 91q35 44 35 126v266q0 82 -35 126t-103 44t-103 -44t-35 -126v-266q0 -82 35 -126t103 -44t103 44z" />
    <glyph glyph-name="uni041F" unicode="&#x41f;" horiz-adv-x="527" 
d="M450 0h-62v642h-249v-642h-62v700h373v-700z" />
    <glyph glyph-name="uni0420" unicode="&#x420;" horiz-adv-x="480" 
d="M393 644q52 -56 52 -159q0 -108 -51.5 -164t-148.5 -56h-106v-265h-62v700h168q96 0 148 -56zM349.5 363q33.5 39 33.5 122q0 78 -34 117t-104 39h-106v-317h106q71 0 104.5 39z" />
    <glyph glyph-name="uni0421" unicode="&#x421;" horiz-adv-x="480" 
d="M110.5 43.5q-52.5 55.5 -52.5 154.5v304q0 99 51.5 154.5t135.5 55.5q86 0 137.5 -52.5t56.5 -149.5h-60q-5 73 -39.5 109.5t-94.5 36.5q-58 0 -92.5 -39t-34.5 -115v-304q0 -76 35.5 -115t95.5 -39q121 0 136 146h60q-8 -96 -59 -149t-137 -53t-138.5 55.5z" />
    <glyph glyph-name="uni0422" unicode="&#x422;" horiz-adv-x="406" 
d="M388 642h-154v-642h-62v642h-154v58h370v-58z" />
    <glyph glyph-name="uni0423" unicode="&#x423;" horiz-adv-x="403" 
d="M397 700l-176 -575q-20 -64 -56 -99t-97 -35h-24v59h24q38 0 60.5 24.5t35.5 69.5l23 74l-179 482h66l140 -392l119 392h64z" />
    <glyph glyph-name="uni040E" unicode="&#x40e;" horiz-adv-x="403" 
d="M397 700l-176 -575q-20 -64 -56 -99t-97 -35h-24v59h24q38 0 60.5 24.5t35.5 69.5l23 74l-179 482h66l140 -392l119 392h64zM123.5 796.5q-29.5 30.5 -31.5 85.5h52q2 -34 16.5 -50t44.5 -16t44.5 16t16.5 50h52q-2 -55 -31.5 -85.5t-81.5 -30.5t-81.5 30.5z" />
    <glyph glyph-name="uni0424" unicode="&#x424;" horiz-adv-x="647" 
d="M292 22h-19q-112 0 -174 65t-62 185v157q0 120 62 185t174 65h19v73h62v-73h19q112 0 174.5 -65t62.5 -185v-157q0 -120 -62.5 -185t-174.5 -65h-19v-78h-62v78zM292 82v537h-19q-173 0 -173 -190v-157q0 -190 173 -190h19zM373 82q174 0 174 190v157q0 190 -174 190h-19
v-537h19z" />
    <glyph glyph-name="uni0425" unicode="&#x425;" horiz-adv-x="449" 
d="M361 0l-136 305l-136 -305h-69l169 364l-160 336h69l127 -279l127 279h69l-160 -336l169 -364h-69z" />
    <glyph glyph-name="uni0427" unicode="&#x427;" horiz-adv-x="491" 
d="M414 700v-700h-62v276q-53 -23 -103 -23q-96 0 -152 55t-56 156v236h62v-236q0 -75 38.5 -113.5t107.5 -38.5q27 0 50.5 5t52.5 18v365h62z" />
    <glyph glyph-name="uni0426" unicode="&#x426;" horiz-adv-x="535" 
d="M447 0h-370v700h62v-642h244v642h62v-642h62v-173h-60v115z" />
    <glyph glyph-name="uni0428" unicode="&#x428;" horiz-adv-x="790" 
d="M77 700h62v-642h225v642h62v-642h225v642h62v-700h-636v700z" />
    <glyph glyph-name="uni0429" unicode="&#x429;" horiz-adv-x="801" 
d="M713 0h-636v700h62v-642h225v642h62v-642h225v642h62v-642h60v-173h-60v115z" />
    <glyph glyph-name="uni040F" unicode="&#x40f;" horiz-adv-x="527" 
d="M234 0h-157v700h62v-642h249v642h62v-700h-156v-115h-60v115z" />
    <glyph glyph-name="uni042C" unicode="&#x42c;" horiz-adv-x="476" 
d="M77 700h62v-292h117q89 0 143.5 -54t54.5 -147q0 -96 -54.5 -151.5t-143.5 -55.5h-179v700zM256 58q61 0 98 38.5t37 110.5q0 69 -37 106t-98 37h-117v-292h117z" />
    <glyph glyph-name="uni042A" unicode="&#x42a;" horiz-adv-x="531" 
d="M137 642h-120v58h182v-289h103q95 0 151 -54t56 -149q0 -97 -56 -152.5t-151 -55.5h-165v642zM302 59q67 0 105.5 38.5t38.5 110.5q0 69 -38.5 106.5t-105.5 37.5h-103v-293h103z" />
    <glyph glyph-name="uni042B" unicode="&#x42b;" horiz-adv-x="683" 
d="M77 700h62v-293h100q95 0 150.5 -53.5t55.5 -147.5q0 -96 -56 -151t-150 -55h-162v700zM544 700h62v-700h-62v700zM239 59q66 0 104.5 38t38.5 109q0 69 -38.5 105.5t-104.5 36.5h-100v-289h100z" />
    <glyph glyph-name="uni0409" unicode="&#x409;" horiz-adv-x="720" 
d="M0 50q59 0 71 94q15 112 29 556h289v-293h103q95 0 150.5 -53.5t55.5 -147.5q0 -96 -56 -151t-150 -55h-165v642h-168q-7 -203 -13.5 -326t-14.5 -181q-10 -69 -42.5 -106.5t-88.5 -37.5v59zM492 59q66 0 104.5 38t38.5 109q0 69 -38.5 105.5t-104.5 36.5h-103v-289h103z
" />
    <glyph glyph-name="uni040A" unicode="&#x40a;" horiz-adv-x="772" 
d="M77 700h62v-301h242v301h62v-300h103q94 0 149 -51.5t55 -142.5q0 -96 -55 -151t-149 -55h-165v341h-242v-341h-62v700zM546 59q66 0 103.5 38t37.5 109q0 65 -37.5 100t-103.5 35h-103v-282h103z" />
    <glyph glyph-name="uni0405" unicode="&#x405;" horiz-adv-x="451" 
d="M87 40q-53 53 -55 140h62q2 -64 37 -98.5t94 -34.5q62 0 94.5 35t32.5 94q0 36 -19 63.5t-47 48t-76 48.5q-55 32 -88.5 57t-56.5 62t-23 87q0 48 23 87t64 61.5t94 22.5q81 0 130 -52t53 -136h-62q-3 64 -35 96t-84 32q-56 0 -88 -30t-32 -81q0 -36 18.5 -63t46.5 -46.5
t75 -46.5q56 -33 89.5 -57.5t57 -62.5t23.5 -90q0 -49 -22 -92.5t-64.5 -70t-101.5 -26.5q-87 0 -140 53z" />
    <glyph glyph-name="uni0404" unicode="&#x404;" horiz-adv-x="480" 
d="M445 190q-8 -96 -59 -149t-137 -53t-138.5 55.5t-52.5 154.5v304q0 99 51.5 154.5t135.5 55.5q86 0 137.5 -52.5t56.5 -149.5h-60q-5 73 -39.5 109.5t-94.5 36.5q-58 0 -92.5 -39t-34.5 -115v-117h214v-58h-214v-129q0 -76 35.5 -115t95.5 -39q121 0 136 146h60z" />
    <glyph glyph-name="uni042D" unicode="&#x42d;" horiz-adv-x="480" 
d="M370.5 656.5q51.5 -55.5 51.5 -154.5v-304q0 -99 -52.5 -154.5t-138.5 -55.5t-137 53t-59 149h60q15 -146 136 -146q60 0 95.5 39t35.5 115v129h-214v58h214v117q0 76 -34.5 115t-92.5 39q-60 0 -94.5 -36.5t-39.5 -109.5h-60q5 97 56.5 149.5t137.5 52.5
q84 0 135.5 -55.5z" />
    <glyph glyph-name="uni0406" unicode="&#x406;" horiz-adv-x="216" 
d="M77 700h62v-700h-62v700z" />
    <glyph glyph-name="uni0407" unicode="&#x407;" horiz-adv-x="216" 
d="M77 700h62v-700h-62v700zM16 798.5q-11 10.5 -11 28.5t11 28.5t29 10.5q17 0 28 -10.5t11 -28.5t-11 -28.5t-28 -10.5q-18 0 -29 10.5zM145.5 798.5q-11.5 10.5 -11.5 28.5t11.5 28.5t29.5 10.5t29 -10.5t11 -28.5t-11 -28.5t-29 -10.5t-29.5 10.5z" />
    <glyph glyph-name="uni0408" unicode="&#x408;" horiz-adv-x="248" 
d="M0 -22q58 0 85.5 31.5t27.5 107.5v583h62v-583q0 -198 -175 -198v59z" />
    <glyph glyph-name="uni040B" unicode="&#x40b;" horiz-adv-x="559" 
d="M162 642h-144v58h350v-58h-144v-186q45 76 134 76q71 0 106 -53t35 -166v-313h-59v308q0 89 -23 128.5t-72 39.5q-55 0 -88 -43.5t-33 -119.5v-313h-62v642z" />
    <glyph glyph-name="uni042E" unicode="&#x42e;" horiz-adv-x="723" 
d="M612 645.5q53 -63.5 53 -176.5v-238q0 -113 -53 -176.5t-147 -63.5t-147 63.5t-53 176.5v96h-126v-327h-62v700h62v-315h126v84q0 113 53 176.5t147 63.5t147 -63.5zM602 469q0 89 -35 134.5t-102 45.5t-102 -45.5t-35 -134.5v-238q0 -89 35 -134.5t102 -45.5t102 45.5
t35 134.5v238z" />
    <glyph glyph-name="uni042F" unicode="&#x42f;" horiz-adv-x="479" 
d="M198 281q-73 13 -113 67t-40 139q0 101 53 157t146 56h158v-700h-62v277h-74l-166 -277h-72zM340 335v307h-96q-67 0 -101.5 -38.5t-34.5 -113.5t34 -115t100 -40h98z" />
    <glyph glyph-name="uni0402" unicode="&#x402;" horiz-adv-x="552" 
d="M331 49q59 1 84 29t25 86v144q0 89 -23 128.5t-72 39.5q-55 0 -88 -43.5t-33 -119.5v-313h-62v642h-144v58h350v-58h-144v-186q45 76 134 76q71 0 106 -53t35 -166v-149q0 -82 -41.5 -126.5t-126.5 -45.5v57z" />
    <glyph glyph-name="uni0414.loclBGR" horiz-adv-x="474" 
d="M3 58h44l157 642h67l156 -642h44v-173h-60v115h-348v-115h-60v173zM365 58l-82 357l-45 207h-2q-27 -136 -43 -206l-83 -358h255z" />
    <glyph glyph-name="uni041B.loclBGR" horiz-adv-x="450" 
d="M261 700l178 -700h-66l-105 438l-20 87l-21 90h-4l-21 -90l-20 -87l-105 -438h-66l178 700h72z" />
    <glyph glyph-name="uni0430" unicode="&#x430;" horiz-adv-x="447" 
d="M338 490q43 -47 43 -127v-363h-51l-5 50q-44 -62 -121 -62q-74 0 -120 43t-46 118q0 76 47 116.5t133 40.5h104v56q0 58 -26.5 88t-77.5 30q-45 0 -73.5 -24.5t-31.5 -67.5h-59q3 68 48 108.5t118 40.5q75 0 118 -47zM292.5 76q29.5 30 29.5 82v93h-106q-58 0 -88 -26.5
t-30 -76.5t31 -76t84 -26q50 0 79.5 30z" />
    <glyph glyph-name="uni0431" unicode="&#x431;" horiz-adv-x="462" 
d="M112 39.5q-46 49.5 -46 139.5v294q0 98 53 144.5t119 62.5q36 9 56 20.5t37 40.5l48 -34q-17 -37 -48.5 -56t-77.5 -31q-38 -9 -64.5 -22t-45 -43t-18.5 -82v-40q41 66 127 66q71 0 114 -49t43 -136v-135q0 -90 -46.5 -139.5t-125.5 -49.5t-125 49.5zM320 80.5
q29 32.5 29 98.5v124q0 70 -28.5 104t-80.5 34q-49 0 -81.5 -31t-32.5 -100v-131q0 -66 29 -98.5t82 -32.5q54 0 83 32.5z" />
    <glyph glyph-name="uni0432" unicode="&#x432;" horiz-adv-x="423" 
d="M366.5 227q23.5 -36 23.5 -76q0 -72 -44 -111.5t-127 -39.5h-153v524h138q76 0 118 -37.5t42 -102.5q0 -29 -16 -57.5t-44 -48.5q39 -15 62.5 -51zM124 300h79q50 0 76 22t26 62t-26 62t-76 22h-79v-168zM302.5 80.5q28.5 24.5 28.5 70.5q0 45 -28.5 69t-84.5 24h-94
v-188h94q56 0 84.5 24.5z" />
    <glyph glyph-name="uni0433" unicode="&#x433;" horiz-adv-x="342" 
d="M327 468h-202v-468h-59v525h261v-57z" />
    <glyph glyph-name="uni0453" unicode="&#x453;" horiz-adv-x="342" 
d="M327 468h-202v-468h-59v525h261v-57zM214 723h70l-87 -113h-58z" />
    <glyph glyph-name="uni0491" unicode="&#x491;" horiz-adv-x="342" 
d="M327 625v-157h-202v-468h-59v525h204v100h57z" />
    <glyph glyph-name="uni0434" unicode="&#x434;" horiz-adv-x="445" 
d="M0 56h38q41 77 52 237q8 117 9 232h272v-469h58v-171h-58v115h-313v-115h-58v171zM312 56v413h-157q-2 -107 -8 -185q-12 -150 -44 -228h209z" />
    <glyph glyph-name="uni0435" unicode="&#x435;" horiz-adv-x="450" 
d="M401 161q-6 -83 -52 -127t-127 -44q-78 0 -123.5 49t-45.5 138v173q0 89 46.5 138t125.5 49q80 0 127.5 -49t47.5 -138v-116h-287v-57q0 -65 29 -97t82 -32q55 0 83.5 27.5t34.5 85.5h59zM142.5 447q-29.5 -32 -29.5 -97v-61h228v61q0 65 -30 97t-85 32q-54 0 -83.5 -32z
" />
    <glyph glyph-name="uni0451" unicode="&#x451;" horiz-adv-x="450" 
d="M401 161q-6 -83 -52 -127t-127 -44q-78 0 -123.5 49t-45.5 138v173q0 89 46.5 138t125.5 49q80 0 127.5 -49t47.5 -138v-116h-287v-57q0 -65 29 -97t82 -32q55 0 83.5 27.5t34.5 85.5h59zM142.5 447q-29.5 -32 -29.5 -97v-61h228v61q0 65 -30 97t-85 32q-54 0 -83.5 -32z
M132 636.5q-11 10.5 -11 28.5t11 28.5t29 10.5q17 0 28 -10.5t11 -28.5t-11 -28.5t-28 -10.5q-18 0 -29 10.5zM249.5 636.5q-11.5 10.5 -11.5 28.5t11.5 28.5t29.5 10.5t29 -10.5t11 -28.5t-11 -28.5t-29 -10.5t-29.5 10.5z" />
    <glyph glyph-name="uni0436" unicode="&#x436;" horiz-adv-x="593" 
d="M360 250l-35 -45v-205h-57v205l-35 45l-162 -250h-71l197 295l-182 230h74l98 -129l81 -107v236h57v-236l81 107l98 129h74l-182 -230l197 -295h-71z" />
    <glyph glyph-name="uni0437" unicode="&#x437;" horiz-adv-x="404" 
d="M348.5 227.5q25.5 -33.5 25.5 -77.5q0 -71 -49 -115.5t-124 -44.5q-80 0 -128 44t-51 113h59q3 -45 34 -72t86 -27q52 0 82.5 27.5t30.5 77.5q0 42 -30.5 66.5t-85.5 24.5h-76v55h72q48 0 76 22t28 64q0 40 -26.5 65t-72.5 25q-51 0 -76.5 -24.5t-29.5 -77.5h-59
q4 77 46 118t119 41q44 0 80.5 -19.5t57 -52t20.5 -70.5q0 -43 -20.5 -72t-52.5 -43q39 -14 64.5 -47.5z" />
    <glyph glyph-name="uni0438" unicode="&#x438;" horiz-adv-x="455" 
d="M66 525h59v-300v-47q0 -48 -2 -71l2 -2q19 45 35 78l168 342h61v-525h-59v283q0 56 4 140l-2 1q-7 -23 -42 -95l-163 -329h-61v525z" />
    <glyph glyph-name="uni0439" unicode="&#x439;" horiz-adv-x="455" 
d="M66 525h59v-300v-47q0 -48 -2 -71l2 -2q19 45 35 78l168 342h61v-525h-59v283q0 56 4 140l-2 1q-7 -23 -42 -95l-163 -329h-61v525zM146.5 637.5q-29.5 30.5 -31.5 85.5h52q2 -34 16.5 -50t44.5 -16t44.5 16t16.5 50h52q-2 -55 -31.5 -85.5t-81.5 -30.5t-81.5 30.5z" />
    <glyph glyph-name="uni045D" unicode="&#x45d;" horiz-adv-x="455" 
d="M66 525h59v-300v-47q0 -48 -2 -71l2 -2q19 45 35 78l168 342h61v-525h-59v283q0 56 4 140l-2 1q-7 -23 -42 -95l-163 -329h-61v525zM218 610l-87 113h70l75 -113h-58z" />
    <glyph glyph-name="uni043A" unicode="&#x43a;" horiz-adv-x="422" 
d="M166 251l-41 -50v-201h-59v525h59v-238l78 95l117 143h76l-191 -228l217 -297h-73z" />
    <glyph glyph-name="uni045C" unicode="&#x45c;" horiz-adv-x="422" 
d="M166 251l-41 -50v-201h-59v525h59v-238l78 95l117 143h76l-191 -228l217 -297h-73zM227 723h70l-87 -113h-58z" />
    <glyph glyph-name="uni043B" unicode="&#x43b;" horiz-adv-x="431" 
d="M5 53q42 0 58 47.5t22 142.5q6 102 10 282h270v-525h-59v469h-153q-2 -88 -10 -235q-7 -123 -38.5 -180.5t-99.5 -57.5v57z" />
    <glyph glyph-name="uni043C" unicode="&#x43c;" horiz-adv-x="538" 
d="M472 525v-525h-57v289q0 45 3 81q2 34 2 48l-3 1q-27 -79 -46 -121l-72 -160h-60l-72 160q-19 42 -46 121l-3 -1q0 -14 2 -48q3 -36 3 -81v-289h-57v525h61l107 -239l34 -83h2l34 83l107 239h61z" />
    <glyph glyph-name="uni043D" unicode="&#x43d;" horiz-adv-x="450" 
d="M384 525v-525h-59v244h-200v-244h-59v525h59v-225h200v225h59z" />
    <glyph glyph-name="uni043E" unicode="&#x43e;" horiz-adv-x="456" 
d="M100.5 37.5q-47.5 49.5 -47.5 140.5v169q0 91 47.5 140.5t127.5 49.5t127.5 -49.5t47.5 -140.5v-169q0 -91 -47.5 -140.5t-127.5 -49.5t-127.5 49.5zM313 78.5q30 32.5 30 99.5v169q0 67 -30 99.5t-85 32.5t-85 -32.5t-30 -99.5v-169q0 -67 30 -99.5t85 -32.5t85 32.5z
" />
    <glyph glyph-name="uni043F" unicode="&#x43f;" horiz-adv-x="450" 
d="M66 525h318v-525h-59v469h-200v-469h-59v525z" />
    <glyph glyph-name="uni0440" unicode="&#x440;" horiz-adv-x="462" 
d="M364.5 485q44.5 -52 44.5 -149v-151q0 -96 -43 -146.5t-120 -50.5q-37 0 -69 15t-53 44v-227h-58v705h48l8 -49q21 29 53.5 45t70.5 16q74 0 118.5 -52zM349 336q0 146 -116 146q-48 0 -78.5 -37t-30.5 -107v-153q0 -63 30 -102.5t79 -39.5q59 0 87.5 34t28.5 108v151z
" />
    <glyph glyph-name="uni0441" unicode="&#x441;" horiz-adv-x="432" 
d="M98.5 39q-45.5 49 -45.5 138v173q0 89 45.5 138t122.5 49q79 0 125.5 -49t48.5 -138h-60q-4 129 -114 129q-52 0 -80 -32t-28 -97v-173q0 -65 28 -97t80 -32q111 0 115 129h60q-2 -89 -48.5 -138t-126.5 -49q-77 0 -122.5 49z" />
    <glyph glyph-name="uni0442" unicode="&#x442;" horiz-adv-x="343" 
d="M331 470h-130v-470h-59v470h-130v55h319v-55z" />
    <glyph glyph-name="uni0443" unicode="&#x443;" horiz-adv-x="387" 
d="M379 525l-178 -589q-20 -65 -47.5 -96t-78.5 -31h-34v58h26q32 0 47.5 19.5t27.5 58.5l32 107l-166 473h65l85 -244l44 -135l115 379h62z" />
    <glyph glyph-name="uni045E" unicode="&#x45e;" horiz-adv-x="387" 
d="M379 525l-178 -589q-20 -65 -47.5 -96t-78.5 -31h-34v58h26q32 0 47.5 19.5t27.5 58.5l32 107l-166 473h65l85 -244l44 -135l115 379h62zM117.5 637.5q-29.5 30.5 -31.5 85.5h52q2 -34 16.5 -50t44.5 -16t44.5 16t16.5 50h52q-2 -55 -31.5 -85.5t-81.5 -30.5t-81.5 30.5z
" />
    <glyph glyph-name="uni0444" unicode="&#x444;" horiz-adv-x="614" 
d="M463 508q45 -25 71.5 -72t26.5 -111v-130q0 -63 -26.5 -109t-72 -70t-100.5 -24h-26v-172h-58v172h-26q-55 0 -100.5 24t-72 70t-26.5 109v130q0 64 26.5 111t71.5 72t101 25h26v187h58v-187h26q56 0 101 -25zM278 50v425h-26q-61 0 -100 -38.5t-39 -111.5v-130
q0 -70 39.5 -107.5t99.5 -37.5h26zM501 325q0 73 -39 111.5t-100 38.5h-26v-425h26q60 0 99.5 37.5t39.5 107.5v130z" />
    <glyph glyph-name="uni0445" unicode="&#x445;" horiz-adv-x="380" 
d="M306 0l-116 214l-116 -214h-69l151 262l-144 263h67l111 -206l111 206h67l-143 -263l150 -262h-69z" />
    <glyph glyph-name="uni0447" unicode="&#x447;" horiz-adv-x="425" 
d="M300 198q-23 -12 -48.5 -16.5t-56.5 -4.5q-45 0 -82 23.5t-58.5 69.5t-21.5 113v142h59v-142q0 -76 29.5 -112t78.5 -36q31 0 54.5 4t45.5 18v268h59v-525h-59v198z" />
    <glyph glyph-name="uni0446" unicode="&#x446;" horiz-adv-x="461" 
d="M380 0h-314v525h59v-469h196v469h59v-469h58v-171h-58v115z" />
    <glyph glyph-name="uni0448" unicode="&#x448;" horiz-adv-x="686" 
d="M60 525h59v-469h191v469h60v-469h191v469h59v-525h-560v525z" />
    <glyph glyph-name="uni0449" unicode="&#x449;" horiz-adv-x="705" 
d="M626 0h-560v525h59v-469h191v469h60v-469h191v469h59v-470h56v-170h-56v115z" />
    <glyph glyph-name="uni045F" unicode="&#x45f;" horiz-adv-x="450" 
d="M384 525v-525h-128v-115h-57v115h-133v525h59v-469h200v469h59z" />
    <glyph glyph-name="uni044C" unicode="&#x44c;" horiz-adv-x="407" 
d="M307.5 318.5q39.5 -21.5 62.5 -60.5t23 -87q0 -49 -23 -88t-62.5 -61t-86.5 -22h-155v525h59v-185h96q47 0 86.5 -21.5zM301 88.5q32 31.5 32 82.5q0 50 -32 81t-80 31h-96v-226h96q48 0 80 31.5z" />
    <glyph glyph-name="uni044A" unicode="&#x44a;" horiz-adv-x="459" 
d="M359.5 318.5q39.5 -21.5 62.5 -60.5t23 -87q0 -49 -23 -88t-62.5 -61t-86.5 -22h-155v470h-106v55h165v-185h96q47 0 86.5 -21.5zM353 88.5q32 31.5 32 82.5q0 50 -32 81t-80 31h-96v-226h96q48 0 80 31.5z" />
    <glyph glyph-name="uni044B" unicode="&#x44b;" horiz-adv-x="598" 
d="M307.5 311q39.5 -21 62.5 -59t23 -85q0 -48 -23 -86t-62.5 -59.5t-86.5 -21.5h-155v520h59v-188h96q47 0 86.5 -21zM532 520v-520h-59v520h59zM301 87.5q32 30.5 32 79.5t-32 78.5t-80 29.5h-96v-218h96q48 0 80 30.5z" />
    <glyph glyph-name="uni0459" unicode="&#x459;" horiz-adv-x="647" 
d="M5 53q42 0 58.5 48t21.5 142q6 102 10 282h270v-193h96q47 0 86.5 -21t62.5 -59t23 -85q0 -48 -23 -86t-62.5 -59.5t-86.5 -21.5h-155v469h-153q-2 -88 -10 -235q-6 -122 -37.5 -180t-100.5 -58v57zM461 57q48 0 80 30.5t32 79.5t-32 78.5t-80 29.5h-96v-218h96z" />
    <glyph glyph-name="uni045A" unicode="&#x45a;" horiz-adv-x="663" 
d="M66 525h59v-212h198v212h59v-212h96q47 0 86 -19.5t62 -54t23 -77.5q0 -46 -23 -83t-62 -58t-86 -21h-155v256h-198v-256h-59v525zM478 57q48 0 79.5 29t31.5 76q0 42 -32 68t-79 26h-96v-199h96z" />
    <glyph glyph-name="uni0455" unicode="&#x455;" horiz-adv-x="402" 
d="M79 34q-48 46 -48 122h59q0 -52 30.5 -81t84.5 -29q49 0 76 23.5t27 65.5q0 28 -15.5 46.5t-38 30t-64.5 27.5q-50 20 -80 36.5t-51 45.5t-21 75q0 64 43.5 102.5t114.5 38.5q74 0 118.5 -44t44.5 -117h-59q0 49 -27.5 76.5t-76.5 27.5q-46 0 -72 -22.5t-26 -63.5
q0 -37 28 -57t86 -42q51 -20 81.5 -37t52.5 -47.5t22 -77.5q0 -65 -45 -105t-118 -40q-78 0 -126 46z" />
    <glyph glyph-name="uni0454" unicode="&#x454;" horiz-adv-x="431" 
d="M395 177q-2 -89 -48.5 -138t-125.5 -49q-77 0 -122.5 49t-45.5 138v173q0 89 45.5 138t122.5 49q79 0 125 -49t48 -138h-60q-4 129 -113 129q-52 0 -80 -32t-28 -97v-57h181v-55h-181v-61q0 -65 28 -97t80 -32q110 0 114 129h60z" />
    <glyph glyph-name="uni044D" unicode="&#x44d;" horiz-adv-x="431" 
d="M332.5 488q45.5 -49 45.5 -138v-173q0 -89 -45.5 -138t-122.5 -49q-79 0 -125.5 49t-48.5 138h60q4 -129 114 -129q52 0 80 32t28 97v61h-181v55h181v57q0 65 -28 97t-80 32q-109 0 -113 -129h-60q2 89 48 138t125 49q77 0 122.5 -49z" />
    <glyph glyph-name="uni0456" unicode="&#x456;" horiz-adv-x="191" 
d="M66 525h59v-525h-59v525zM60 635q-13 13 -13 35t13 35t35 13t35 -13t13 -35t-13 -35t-35 -13t-35 13z" />
    <glyph glyph-name="uni0457" unicode="&#x457;" horiz-adv-x="200" 
d="M15.5 642q-10.5 10 -10.5 28t10.5 28t28.5 10q17 0 27.5 -10t10.5 -28t-10.5 -28t-27.5 -10q-18 0 -28.5 10zM127 642q-11 10 -11 28t11 28t29 10t28.5 -10t10.5 -28t-10.5 -28t-28.5 -10t-29 10zM70 525h59v-525h-59v525z" />
    <glyph glyph-name="uni0458" unicode="&#x458;" horiz-adv-x="233" 
d="M84 634q-13 13 -13 35t13 35t35 13t35 -13t13 -35t-13 -35t-35 -13t-35 13zM-20 -135q60 1 84.5 32t24.5 93v535h59v-535q0 -86 -41.5 -133.5t-126.5 -48.5v57z" />
    <glyph glyph-name="uni045B" unicode="&#x45b;" horiz-adv-x="460" 
d="M400 317v-317h-59v312q0 90 -23.5 129.5t-73.5 39.5q-55 0 -88 -43.5t-33 -120.5v-317h-59v610h-64v46h64v67h59v-67h97v-46h-97v-151q21 37 55.5 57.5t80.5 20.5q141 0 141 -220z" />
    <glyph glyph-name="uni044E" unicode="&#x44e;" horiz-adv-x="611" 
d="M512.5 487.5q45.5 -49.5 45.5 -139.5v-169q0 -90 -45.5 -139.5t-123.5 -49.5t-123.5 49.5t-45.5 139.5v62h-95v-241h-59v525h59v-227h95v50q0 90 45.5 139.5t123.5 49.5t123.5 -49.5zM498 348q0 66 -28.5 98.5t-80.5 32.5t-80.5 -32.5t-28.5 -98.5v-169q0 -66 28.5 -98.5
t80.5 -32.5t80.5 32.5t28.5 98.5v169z" />
    <glyph glyph-name="uni044F" unicode="&#x44f;" horiz-adv-x="401" 
d="M341 525v-525h-59v192h-80l-120 -192h-70l127 195q-50 11 -79.5 55t-29.5 108q0 75 45.5 121t120.5 46h145zM282 468h-86q-50 0 -78 -29t-28 -81q0 -54 25.5 -82.5t74.5 -28.5h92v221z" />
    <glyph glyph-name="uni0452" unicode="&#x452;" horiz-adv-x="466" 
d="M238 -148q58 1 83.5 27.5t25.5 77.5v355q0 90 -23.5 129.5t-73.5 39.5q-55 0 -88 -43.5t-33 -120.5v-317h-59v615h-64v46h64v62h59v-62h97v-46h-97v-156q21 37 55.5 57.5t80.5 20.5q141 0 141 -220v-360q0 -75 -42 -118t-126 -44v57z" />
    <glyph glyph-name="uni0432.loclBGR" horiz-adv-x="456" 
d="M413 204q0 -105 -51 -159.5t-134 -54.5q-163 0 -163 215v333q0 91 43 142.5t120 51.5q73 0 116 -48.5t43 -129.5q0 -60 -24.5 -103t-68.5 -63q119 -28 119 -184zM150 639.5q-26 -35.5 -26 -101.5v-138l67 5q64 4 100 44t36 103q0 123 -106 123q-45 0 -71 -35.5zM353 199
q0 85 -37 119.5t-111 29.5l-81 -5v-147q0 -78 25.5 -113t77.5 -35q126 0 126 151z" />
    <glyph glyph-name="uni0433.loclBGR" horiz-adv-x="398" 
d="M79 28q-45 38 -45 105q0 44 21 73.5t50.5 47.5t77.5 40q57 25 84 46t27 56q0 40 -24 62t-67 22q-100 0 -100 -103h-59q0 72 44 116t115 44q70 0 111 -37.5t41 -101.5q0 -42 -20.5 -70.5t-49 -46t-75.5 -38.5q-59 -26 -87 -48.5t-28 -59.5q0 -40 29.5 -63.5t75.5 -23.5
q51 0 78.5 27.5t29.5 80.5h59q-2 -75 -48 -120.5t-119 -45.5q-76 0 -121 38z" />
    <glyph glyph-name="uni0434.loclBGR" horiz-adv-x="463" 
d="M397 525v-561q0 -71 -45.5 -114t-121.5 -43q-73 0 -118 41t-49 111h57q4 -47 32.5 -72t77.5 -25q50 0 79 27t29 75v102q-41 -50 -116 -50q-77 0 -123 49t-46 138v135q0 96 45.5 147.5t121.5 51.5q77 0 120 -65l8 53h49zM310.5 105q27.5 33 27.5 98v145q0 65 -30 99
t-76 34q-119 0 -119 -143v-135q0 -65 31 -98t88 -33q51 0 78.5 33z" />
    <glyph glyph-name="uni0436.loclBGR" horiz-adv-x="593" 
d="M361 253l-36 -45v-208h-57v208l-36 46l-161 -254h-71l195 300l-180 225h74l179 -232v429h57v-429l179 232h74l-180 -225l195 -300h-71z" />
    <glyph glyph-name="uni0437.loclBGR" horiz-adv-x="422" 
d="M354.5 126q25.5 -45 25.5 -120q0 -92 -47 -144.5t-132 -52.5q-79 0 -123 46.5t-48 139.5h59q9 -128 111 -128q58 0 89 37.5t31 104.5q0 71 -35.5 110.5t-99.5 39.5h-56v56h52q59 0 92 35.5t33 101.5q0 59 -28 93t-77 34q-96 0 -105 -128h-59q4 92 46.5 139t118.5 47
q77 0 119.5 -48t42.5 -134q0 -65 -20.5 -104.5t-70.5 -60.5q56 -19 81.5 -64z" />
    <glyph glyph-name="uni0438.loclBGR" horiz-adv-x="462" 
d="M396 525v-525h-49l-10 65q-21 -37 -55 -57t-81 -20q-67 0 -104 48.5t-37 152.5v336h59v-327q0 -80 23 -117t74 -37q55 0 88 43.5t33 119.5v318h59z" />
    <glyph glyph-name="uni0439.loclBGR" horiz-adv-x="462" 
d="M396 525v-525h-49l-10 65q-21 -37 -55 -57t-81 -20q-67 0 -104 48.5t-37 152.5v336h59v-327q0 -80 23 -117t74 -37q55 0 88 43.5t33 119.5v318h59zM146.5 637.5q-29.5 30.5 -31.5 85.5h52q2 -34 16.5 -50t44.5 -16t44.5 16t16.5 50h52q-2 -55 -31.5 -85.5t-81.5 -30.5
t-81.5 30.5z" />
    <glyph glyph-name="uni045D.loclBGR" horiz-adv-x="468" 
d="M227 610l-87 113h70l75 -113h-58zM402 525v-525h-49l-10 65q-21 -37 -55 -57t-81 -20q-67 0 -104 48.5t-37 152.5v336h59v-327q0 -80 23 -117t74 -37q55 0 88 43.5t33 119.5v318h59z" />
    <glyph glyph-name="uni043A.loclBGR" horiz-adv-x="425" 
d="M177 267l-52 -57v-210h-59v724h59v-433l199 234h75l-182 -212l208 -313h-71z" />
    <glyph glyph-name="uni043B.loclBGR" horiz-adv-x="378" 
d="M221 525l149 -525h-62l-83 307l-26 107l-8 34h-4l-8 -34l-26 -107l-83 -307h-62l149 525h64z" />
    <glyph glyph-name="uni043F.loclBGR" horiz-adv-x="462" 
d="M365 488.5q37 -48.5 37 -152.5v-336h-59v327q0 80 -23 117t-74 37q-55 0 -88 -43.5t-33 -119.5v-318h-59v525h49l10 -65q21 37 55 57t81 20q67 0 104 -48.5z" />
    <glyph glyph-name="uni0442.loclBGR" horiz-adv-x="723" 
d="M626.5 486q36.5 -51 36.5 -152v-334h-59v329q0 80 -23 116t-67 36q-54 0 -87 -43.5t-33 -119.5v-318h-59v329q0 80 -24 116t-69 36q-53 0 -85 -43.5t-32 -119.5v-318h-59v525h49l9 -68q20 38 52.5 59t78.5 21q45 0 77.5 -25t48.5 -76q19 47 55.5 74t90.5 27
q63 0 99.5 -51z" />
    <glyph glyph-name="uni0446.loclBGR" horiz-adv-x="475" 
d="M395 0q-44 17 -55 72q-21 -40 -56.5 -62t-84.5 -22q-69 0 -104 48t-35 153v336h59v-327q0 -80 22 -117t73 -37q55 0 88 43.5t33 119.5v318h59v-390q0 -37 6 -55t17.5 -23.5t34.5 -5.5v-166h-57v115z" />
    <glyph glyph-name="uni0448.loclBGR" horiz-adv-x="723" 
d="M657 525v-525h-49l-9 68q-20 -38 -52.5 -59t-78.5 -21q-45 0 -77.5 25t-48.5 76q-19 -47 -55.5 -74t-90.5 -27q-63 0 -99.5 51t-36.5 152v334h59v-329q0 -80 23 -116t67 -36q54 0 87 43.5t33 119.5v318h59v-329q0 -80 24 -116t69 -36q53 0 85 43.5t32 119.5v318h59z" />
    <glyph glyph-name="uni0449.loclBGR" horiz-adv-x="734" 
d="M654 0q-44 17 -56 74q-19 -41 -52 -63.5t-81 -22.5q-44 0 -75.5 24t-47.5 73q-18 -45 -54 -71t-91 -26q-64 0 -100.5 51t-36.5 152v334h59v-329q0 -80 23 -116t68 -36q54 0 85.5 43.5t31.5 119.5v318h59v-329q0 -80 23.5 -116t68.5 -36q53 0 84.5 43.5t31.5 119.5v318h59
v-390q0 -37 6 -55t17.5 -23.5t34.5 -5.5v-166h-57v115z" />
    <glyph glyph-name="uni044C.loclBGR" horiz-adv-x="409" 
d="M351.5 311q43.5 -50 43.5 -134q0 -88 -46 -138.5t-123 -50.5q-76 0 -121 47t-45 125v365h59v-216q43 52 119 52q70 0 113.5 -50zM306.5 79q28.5 33 28.5 98q0 63 -28 95t-81 32q-50 0 -78.5 -33.5t-28.5 -96.5t28 -95.5t79 -32.5q52 0 80.5 33z" />
    <glyph glyph-name="uni044A.loclBGR" horiz-adv-x="462" 
d="M404.5 311q43.5 -50 43.5 -134q0 -88 -46 -138.5t-123 -50.5q-76 0 -121 47t-45 125v310h-106v55h165v-216q43 52 119 52q70 0 113.5 -50zM359.5 79q28.5 33 28.5 98q0 63 -28 95t-81 32q-50 0 -78.5 -33.5t-28.5 -96.5t28 -95.5t79 -32.5q52 0 80.5 33z" />
    <glyph glyph-name="uni044E.loclBGR" horiz-adv-x="614" 
d="M515.5 482.5q45.5 -49.5 45.5 -139.5v-164q0 -90 -45.5 -139.5t-123.5 -49.5t-123.5 49.5t-45.5 139.5v62h-95v-241h-59v720h59v-422h95v45q0 90 45.5 139.5t123.5 49.5t123.5 -49.5zM501 343q0 66 -28.5 98.5t-80.5 32.5t-80.5 -32.5t-28.5 -98.5v-164q0 -66 28.5 -98.5
t80.5 -32.5t80.5 32.5t28.5 98.5v164z" />
    <glyph glyph-name="uni0432.ss01" horiz-adv-x="456" 
d="M413 204q0 -105 -51 -159.5t-134 -54.5q-163 0 -163 215v333q0 91 43 142.5t120 51.5q73 0 116 -48.5t43 -129.5q0 -60 -24.5 -103t-68.5 -63q119 -28 119 -184zM150 639.5q-26 -35.5 -26 -101.5v-138l67 5q64 4 100 44t36 103q0 123 -106 123q-45 0 -71 -35.5zM353 199
q0 85 -37 119.5t-111 29.5l-81 -5v-147q0 -78 25.5 -113t77.5 -35q126 0 126 151z" />
    <glyph glyph-name="uni0433.ss01" horiz-adv-x="398" 
d="M79 28q-45 38 -45 105q0 44 21 73.5t50.5 47.5t77.5 40q57 25 84 46t27 56q0 40 -24 62t-67 22q-100 0 -100 -103h-59q0 72 44 116t115 44q70 0 111 -37.5t41 -101.5q0 -42 -20.5 -70.5t-49 -46t-75.5 -38.5q-59 -26 -87 -48.5t-28 -59.5q0 -40 29.5 -63.5t75.5 -23.5
q51 0 78.5 27.5t29.5 80.5h59q-2 -75 -48 -120.5t-119 -45.5q-76 0 -121 38z" />
    <glyph glyph-name="uni0434.ss01" horiz-adv-x="463" 
d="M397 525v-561q0 -71 -45.5 -114t-121.5 -43q-73 0 -118 41t-49 111h57q4 -47 32.5 -72t77.5 -25q50 0 79 27t29 75v102q-41 -50 -116 -50q-77 0 -123 49t-46 138v135q0 96 45.5 147.5t121.5 51.5q77 0 120 -65l8 53h49zM310.5 105q27.5 33 27.5 98v145q0 65 -30 99
t-76 34q-119 0 -119 -143v-135q0 -65 31 -98t88 -33q51 0 78.5 33z" />
    <glyph glyph-name="uni0436.ss01" horiz-adv-x="593" 
d="M361 253l-36 -45v-208h-57v208l-36 46l-161 -254h-71l195 300l-180 225h74l179 -232v429h57v-429l179 232h74l-180 -225l195 -300h-71z" />
    <glyph glyph-name="uni0437.ss01" horiz-adv-x="422" 
d="M354.5 126q25.5 -45 25.5 -120q0 -92 -47 -144.5t-132 -52.5q-79 0 -123 46.5t-48 139.5h59q9 -128 111 -128q58 0 89 37.5t31 104.5q0 71 -35.5 110.5t-99.5 39.5h-56v56h52q59 0 92 35.5t33 101.5q0 59 -28 93t-77 34q-96 0 -105 -128h-59q4 92 46.5 139t118.5 47
q77 0 119.5 -48t42.5 -134q0 -65 -20.5 -104.5t-70.5 -60.5q56 -19 81.5 -64z" />
    <glyph glyph-name="uni0438.ss01" horiz-adv-x="462" 
d="M396 525v-525h-49l-10 65q-21 -37 -55 -57t-81 -20q-67 0 -104 48.5t-37 152.5v336h59v-327q0 -80 23 -117t74 -37q55 0 88 43.5t33 119.5v318h59z" />
    <glyph glyph-name="uni0439.ss01" horiz-adv-x="462" 
d="M396 525v-525h-49l-10 65q-21 -37 -55 -57t-81 -20q-67 0 -104 48.5t-37 152.5v336h59v-327q0 -80 23 -117t74 -37q55 0 88 43.5t33 119.5v318h59zM146.5 637.5q-29.5 30.5 -31.5 85.5h52q2 -34 16.5 -50t44.5 -16t44.5 16t16.5 50h52q-2 -55 -31.5 -85.5t-81.5 -30.5
t-81.5 30.5z" />
    <glyph glyph-name="uni045D.ss01" horiz-adv-x="468" 
d="M227 610l-87 113h70l75 -113h-58zM402 525v-525h-49l-10 65q-21 -37 -55 -57t-81 -20q-67 0 -104 48.5t-37 152.5v336h59v-327q0 -80 23 -117t74 -37q55 0 88 43.5t33 119.5v318h59z" />
    <glyph glyph-name="uni043A.ss01" horiz-adv-x="425" 
d="M177 267l-52 -57v-210h-59v724h59v-433l199 234h75l-182 -212l208 -313h-71z" />
    <glyph glyph-name="uni043B.ss01" horiz-adv-x="378" 
d="M221 525l149 -525h-62l-83 307l-26 107l-8 34h-4l-8 -34l-26 -107l-83 -307h-62l149 525h64z" />
    <glyph glyph-name="uni043F.ss01" horiz-adv-x="462" 
d="M365 488.5q37 -48.5 37 -152.5v-336h-59v327q0 80 -23 117t-74 37q-55 0 -88 -43.5t-33 -119.5v-318h-59v525h49l10 -65q21 37 55 57t81 20q67 0 104 -48.5z" />
    <glyph glyph-name="uni0442.ss01" horiz-adv-x="723" 
d="M626.5 486q36.5 -51 36.5 -152v-334h-59v329q0 80 -23 116t-67 36q-54 0 -87 -43.5t-33 -119.5v-318h-59v329q0 80 -24 116t-69 36q-53 0 -85 -43.5t-32 -119.5v-318h-59v525h49l9 -68q20 38 52.5 59t78.5 21q45 0 77.5 -25t48.5 -76q19 47 55.5 74t90.5 27
q63 0 99.5 -51z" />
    <glyph glyph-name="uni0446.ss01" horiz-adv-x="475" 
d="M395 0q-44 17 -55 72q-21 -40 -56.5 -62t-84.5 -22q-69 0 -104 48t-35 153v336h59v-327q0 -80 22 -117t73 -37q55 0 88 43.5t33 119.5v318h59v-390q0 -37 6 -55t17.5 -23.5t34.5 -5.5v-166h-57v115z" />
    <glyph glyph-name="uni0448.ss01" horiz-adv-x="723" 
d="M657 525v-525h-49l-9 68q-20 -38 -52.5 -59t-78.5 -21q-45 0 -77.5 25t-48.5 76q-19 -47 -55.5 -74t-90.5 -27q-63 0 -99.5 51t-36.5 152v334h59v-329q0 -80 23 -116t67 -36q54 0 87 43.5t33 119.5v318h59v-329q0 -80 24 -116t69 -36q53 0 85 43.5t32 119.5v318h59z" />
    <glyph glyph-name="uni0449.ss01" horiz-adv-x="734" 
d="M654 0q-44 17 -56 74q-19 -41 -52 -63.5t-81 -22.5q-44 0 -75.5 24t-47.5 73q-18 -45 -54 -71t-91 -26q-64 0 -100.5 51t-36.5 152v334h59v-329q0 -80 23 -116t68 -36q54 0 85.5 43.5t31.5 119.5v318h59v-329q0 -80 23.5 -116t68.5 -36q53 0 84.5 43.5t31.5 119.5v318h59
v-390q0 -37 6 -55t17.5 -23.5t34.5 -5.5v-166h-57v115z" />
    <glyph glyph-name="uni044C.ss01" horiz-adv-x="409" 
d="M351.5 311q43.5 -50 43.5 -134q0 -88 -46 -138.5t-123 -50.5q-76 0 -121 47t-45 125v365h59v-216q43 52 119 52q70 0 113.5 -50zM306.5 79q28.5 33 28.5 98q0 63 -28 95t-81 32q-50 0 -78.5 -33.5t-28.5 -96.5t28 -95.5t79 -32.5q52 0 80.5 33z" />
    <glyph glyph-name="uni044A.ss01" horiz-adv-x="462" 
d="M404.5 311q43.5 -50 43.5 -134q0 -88 -46 -138.5t-123 -50.5q-76 0 -121 47t-45 125v310h-106v55h165v-216q43 52 119 52q70 0 113.5 -50zM359.5 79q28.5 33 28.5 98q0 63 -28 95t-81 32q-50 0 -78.5 -33.5t-28.5 -96.5t28 -95.5t79 -32.5q52 0 80.5 33z" />
    <glyph glyph-name="uni044E.ss01" horiz-adv-x="614" 
d="M515.5 482.5q45.5 -49.5 45.5 -139.5v-164q0 -90 -45.5 -139.5t-123.5 -49.5t-123.5 49.5t-45.5 139.5v62h-95v-241h-59v720h59v-422h95v45q0 90 45.5 139.5t123.5 49.5t123.5 -49.5zM501 343q0 66 -28.5 98.5t-80.5 32.5t-80.5 -32.5t-28.5 -98.5v-164q0 -66 28.5 -98.5
t80.5 -32.5t80.5 32.5t28.5 98.5v164z" />
    <glyph glyph-name="zero" unicode="0" horiz-adv-x="450" 
d="M105 40q-47 50 -47 132v355q0 82 46.5 132.5t123.5 50.5t123.5 -50.5t46.5 -132.5v-355q0 -82 -47 -132t-123 -50t-123 50zM309.5 80.5q29.5 32.5 29.5 91.5v355q0 59 -29 92t-82 33t-82 -33t-29 -92v-355q0 -59 29.5 -91.5t81.5 -32.5t81.5 32.5z" />
    <glyph glyph-name="one" unicode="1" horiz-adv-x="278" 
d="M201 700v-700h-60v621l-115 -96v76l115 99h60z" />
    <glyph glyph-name="two" unicode="2" horiz-adv-x="403" 
d="M32 50q0 60 21 111t51.5 90.5t79.5 92.5q41 46 64 75t38.5 63t15.5 70q0 45 -28 73.5t-76 28.5q-47 0 -74 -30.5t-28 -88.5h-60q5 79 48.5 127t113.5 48q49 0 86.5 -21t57.5 -57t20 -80q0 -47 -18 -88.5t-44.5 -75t-71.5 -82.5t-72 -83.5t-45.5 -76.5t-18.5 -90h277v-56
h-337v50z" />
    <glyph glyph-name="three" unicode="3" horiz-adv-x="407" 
d="M316.5 363q43.5 -46 43.5 -130v-51q0 -92 -46 -142.5t-124 -50.5q-76 0 -124 50t-48 146h60q3 -75 32 -106.5t79 -31.5q112 0 112 135v51q0 62 -32 93t-89 31h-63v50l149 237h-224v56h301v-43l-159 -248h1q88 0 131.5 -46z" />
    <glyph glyph-name="four" unicode="4" horiz-adv-x="407" 
d="M405 187h-85v-187h-60v187h-249v33l162 480h63l-154 -455h178v245h60v-245h85v-58z" />
    <glyph glyph-name="five" unicode="5" horiz-adv-x="400" 
d="M324 417.5q40 -49.5 40 -139.5v-70q0 -218 -156 -218q-73 0 -115.5 46t-45.5 130h59q4 -118 102 -118q48 0 72 37t24 123v69q0 68 -23.5 100.5t-74.5 32.5q-36 0 -60 -20.5t-33 -55.5h-57v366h288v-56h-229v-216q37 39 99 39q70 0 110 -49.5z" />
    <glyph glyph-name="six" unicode="6" horiz-adv-x="432" 
d="M312 438.5q38 -21.5 60.5 -60.5t22.5 -90v-122q0 -53 -22.5 -93t-60.5 -61.5t-85 -21.5t-85.5 21.5t-61 61.5t-22.5 93v373q0 77 47 124t120 47q67 0 114 -46t52 -120h-60q-3 51 -33 79.5t-73 28.5q-48 0 -77.5 -30t-29.5 -82v-127q45 47 113 47q43 0 81 -21.5zM335 288
q0 53 -32.5 83.5t-81.5 30.5q-45 0 -74 -30.5t-29 -85.5v-120q0 -56 30.5 -87t78.5 -31q47 0 77.5 31t30.5 87v122z" />
    <glyph glyph-name="seven" unicode="7" horiz-adv-x="352" 
d="M252 642h-252v58h322v-33l-193 -667h-63z" />
    <glyph glyph-name="eight" unicode="8" horiz-adv-x="456" 
d="M381.5 297.5q24.5 -43.5 24.5 -100.5v-17q0 -89 -47 -139.5t-131 -50.5t-131 50.5t-47 139.5v17q0 57 24.5 100.5t67.5 63.5q-38 21 -59 62.5t-21 94.5v12q0 85 44 132.5t122 47.5t122 -47.5t44 -132.5v-12q0 -53 -21 -94.5t-59 -62.5q43 -20 67.5 -63.5zM122 518
q0 -61 28 -95t78 -34t78 34t28 95v12q0 58 -28 90t-78 32t-78 -32t-28 -90v-12zM346 197q0 63 -31.5 98.5t-86.5 35.5t-86.5 -35.5t-31.5 -98.5v-17q0 -62 31 -97t87 -35t87 35t31 97v17z" />
    <glyph glyph-name="nine" unicode="9" horiz-adv-x="450" 
d="M307.5 688.5q38.5 -21.5 61 -61.5t22.5 -93v-373q0 -77 -47 -124t-120 -47q-67 0 -114 46t-52 120h60q3 -51 33 -79.5t73 -28.5q48 0 77.5 30t29.5 82v127q-45 -47 -113 -47q-43 0 -81 21.5t-60.5 60.5t-22.5 90v122q0 53 22.5 93t60.5 61.5t85 21.5t85.5 -21.5z
M302 328.5q29 30.5 29 85.5v120q0 56 -30.5 87t-78.5 31q-47 0 -77.5 -31t-30.5 -87v-122q0 -53 32.5 -83.5t81.5 -30.5q45 0 74 30.5z" />
    <glyph glyph-name="zero.lf" horiz-adv-x="456" 
d="M105 40q-47 50 -47 132v355q0 82 46.5 132.5t123.5 50.5t123.5 -50.5t46.5 -132.5v-355q0 -82 -47 -132t-123 -50t-123 50zM309.5 80.5q29.5 32.5 29.5 91.5v355q0 59 -29 92t-82 33t-82 -33t-29 -92v-355q0 -59 29.5 -91.5t81.5 -32.5t81.5 32.5z" />
    <glyph glyph-name="one.lf" horiz-adv-x="278" 
d="M201 700v-700h-60v621l-115 -96v76l115 99h60z" />
    <glyph glyph-name="two.lf" horiz-adv-x="403" 
d="M32 50q0 60 21 111t51.5 90.5t79.5 92.5q41 46 64 75t38.5 63t15.5 70q0 45 -28 73.5t-76 28.5q-47 0 -74 -30.5t-28 -88.5h-60q5 79 48.5 127t113.5 48q49 0 86.5 -21t57.5 -57t20 -80q0 -47 -18 -88.5t-44.5 -75t-71.5 -82.5t-72 -83.5t-45.5 -76.5t-18.5 -90h277v-56
h-337v50z" />
    <glyph glyph-name="three.lf" horiz-adv-x="407" 
d="M316.5 363q43.5 -46 43.5 -130v-51q0 -92 -46 -142.5t-124 -50.5q-76 0 -124 50t-48 146h60q3 -75 32 -106.5t79 -31.5q112 0 112 135v51q0 62 -32 93t-89 31h-63v50l149 237h-224v56h301v-43l-159 -248h1q88 0 131.5 -46z" />
    <glyph glyph-name="four.lf" horiz-adv-x="407" 
d="M405 187h-85v-187h-60v187h-249v33l162 480h63l-154 -455h178v245h60v-245h85v-58z" />
    <glyph glyph-name="five.lf" horiz-adv-x="400" 
d="M324 417.5q40 -49.5 40 -139.5v-70q0 -218 -156 -218q-73 0 -115.5 46t-45.5 130h59q4 -118 102 -118q48 0 72 37t24 123v69q0 68 -23.5 100.5t-74.5 32.5q-36 0 -60 -20.5t-33 -55.5h-57v366h288v-56h-229v-216q37 39 99 39q70 0 110 -49.5z" />
    <glyph glyph-name="six.lf" horiz-adv-x="432" 
d="M312 438.5q38 -21.5 60.5 -60.5t22.5 -90v-122q0 -53 -22.5 -93t-60.5 -61.5t-85 -21.5t-85.5 21.5t-61 61.5t-22.5 93v373q0 77 47 124t120 47q67 0 114 -46t52 -120h-60q-3 51 -33 79.5t-73 28.5q-48 0 -77.5 -30t-29.5 -82v-127q45 47 113 47q43 0 81 -21.5zM335 288
q0 53 -32.5 83.5t-81.5 30.5q-45 0 -74 -30.5t-29 -85.5v-120q0 -56 30.5 -87t78.5 -31q47 0 77.5 31t30.5 87v122z" />
    <glyph glyph-name="seven.lf" horiz-adv-x="352" 
d="M252 642h-252v58h322v-33l-193 -667h-63z" />
    <glyph glyph-name="eight.lf" horiz-adv-x="456" 
d="M381.5 297.5q24.5 -43.5 24.5 -100.5v-17q0 -89 -47 -139.5t-131 -50.5t-131 50.5t-47 139.5v17q0 57 24.5 100.5t67.5 63.5q-38 21 -59 62.5t-21 94.5v12q0 85 44 132.5t122 47.5t122 -47.5t44 -132.5v-12q0 -53 -21 -94.5t-59 -62.5q43 -20 67.5 -63.5zM122 518
q0 -61 28 -95t78 -34t78 34t28 95v12q0 58 -28 90t-78 32t-78 -32t-28 -90v-12zM346 197q0 63 -31.5 98.5t-86.5 35.5t-86.5 -35.5t-31.5 -98.5v-17q0 -62 31 -97t87 -35t87 35t31 97v17z" />
    <glyph glyph-name="nine.lf" horiz-adv-x="432" 
d="M290.5 688.5q38.5 -21.5 61 -61.5t22.5 -93v-373q0 -77 -47 -124t-120 -47q-67 0 -114 46t-52 120h60q3 -51 33 -79.5t73 -28.5q48 0 77.5 30t29.5 82v127q-45 -47 -113 -47q-43 0 -81 21.5t-60.5 60.5t-22.5 90v122q0 53 22.5 93t60.5 61.5t85 21.5t85.5 -21.5z
M285 328.5q29 30.5 29 85.5v120q0 56 -30.5 87t-78.5 31q-47 0 -77.5 -31t-30.5 -87v-122q0 -53 32.5 -83.5t81.5 -30.5q45 0 74 30.5z" />
    <glyph glyph-name="zero.lf.zero" horiz-adv-x="456" 
d="M351.5 659.5q46.5 -50.5 46.5 -132.5v-355q0 -82 -47 -132t-123 -50t-123 50t-47 132v355q0 82 46.5 132.5t123.5 50.5t123.5 -50.5zM146 619q-29 -33 -29 -92v-275l222 275q0 59 -29 92t-82 33t-82 -33zM309.5 80.5q29.5 32.5 29.5 91.5v276l-222 -275v-1
q0 -59 29.5 -91.5t81.5 -32.5t81.5 32.5z" />
    <glyph glyph-name="zero.tf" horiz-adv-x="450" 
d="M107 40q-47 50 -47 132v355q0 82 46.5 132.5t123.5 50.5t123.5 -50.5t46.5 -132.5v-355q0 -82 -47 -132t-123 -50t-123 50zM311.5 80.5q29.5 32.5 29.5 91.5v355q0 59 -29 92t-82 33t-82 -33t-29 -92v-355q0 -59 29.5 -91.5t81.5 -32.5t81.5 32.5z" />
    <glyph glyph-name="one.tf" horiz-adv-x="450" 
d="M385 56v-56h-292v56h118v565l-115 -96v76l115 99h60v-644h114z" />
    <glyph glyph-name="two.tf" horiz-adv-x="450" 
d="M69 50q0 60 21 111t51.5 90.5t79.5 92.5q41 45 64.5 74t39 63t15.5 71q0 45 -28 73.5t-76 28.5q-47 0 -74.5 -30.5t-28.5 -88.5h-60q5 79 48.5 127t114.5 48q49 0 86.5 -21t57.5 -57t20 -80q0 -47 -18.5 -88.5t-45 -75.5t-71.5 -82q-45 -49 -72 -83.5t-45.5 -76.5
t-18.5 -90h278v-56h-338v50z" />
    <glyph glyph-name="three.tf" horiz-adv-x="450" 
d="M348.5 363q43.5 -46 43.5 -130v-51q0 -92 -46 -142.5t-124 -50.5q-76 0 -124 50t-48 146h60q3 -75 32 -106.5t79 -31.5q112 0 112 135v51q0 62 -32 93t-89 31h-63v50l149 237h-224v56h301v-43l-159 -248h1q88 0 131.5 -46z" />
    <glyph glyph-name="four.tf" horiz-adv-x="450" 
d="M426 187h-85v-187h-60v187h-249v33l162 480h63l-154 -455h178v245h60v-245h85v-58z" />
    <glyph glyph-name="five.tf" horiz-adv-x="450" 
d="M352 417.5q40 -49.5 40 -139.5v-70q0 -218 -156 -218q-73 0 -115.5 46t-45.5 130h59q4 -118 102 -118q48 0 72 37t24 123v69q0 68 -23.5 100.5t-74.5 32.5q-36 0 -60 -20.5t-33 -55.5h-57v366h288v-56h-229v-216q37 39 99 39q70 0 110 -49.5z" />
    <glyph glyph-name="six.tf" horiz-adv-x="450" 
d="M313 438.5q38 -21.5 60.5 -60.5t22.5 -90v-122q0 -53 -22.5 -93t-60.5 -61.5t-85 -21.5t-85.5 21.5t-61 61.5t-22.5 93v373q0 77 47 124t120 47q67 0 114 -46t52 -120h-60q-3 51 -33 79.5t-73 28.5q-48 0 -77.5 -30t-29.5 -82v-127q45 47 113 47q43 0 81 -21.5zM336 288
q0 53 -32.5 83.5t-81.5 30.5q-45 0 -74 -30.5t-29 -85.5v-120q0 -56 30.5 -87t78.5 -31q47 0 77.5 31t30.5 87v122z" />
    <glyph glyph-name="seven.tf" horiz-adv-x="450" 
d="M321 642h-266v58h335v-33l-210 -667h-63z" />
    <glyph glyph-name="eight.tf" horiz-adv-x="450" 
d="M383.5 297.5q24.5 -43.5 24.5 -100.5v-17q0 -89 -47 -139.5t-131 -50.5t-131 50.5t-47 139.5v17q0 57 24.5 100.5t67.5 63.5q-38 21 -59 62.5t-21 94.5v12q0 85 44 132.5t122 47.5t122 -47.5t44 -132.5v-12q0 -53 -21 -94.5t-59 -62.5q43 -20 67.5 -63.5zM124 518
q0 -61 28 -95t78 -34t78 34t28 95v12q0 58 -28 90t-78 32t-78 -32t-28 -90v-12zM348 197q0 63 -31.5 98.5t-86.5 35.5t-86.5 -35.5t-31.5 -98.5v-17q0 -62 31 -97t87 -35t87 35t31 97v17z" />
    <glyph glyph-name="nine.tf" horiz-adv-x="450" 
d="M307.5 693.5q38.5 -21.5 61 -61.5t22.5 -93v-373q0 -77 -47 -124t-120 -47q-67 0 -114 46t-52 120h60q3 -51 33 -79.5t73 -28.5q48 0 77.5 30t29.5 82v127q-45 -47 -113 -47q-43 0 -81 21.5t-60.5 60.5t-22.5 90v122q0 53 22.5 93t60.5 61.5t85 21.5t85.5 -21.5z
M302 333.5q29 30.5 29 85.5v120q0 56 -30.5 87t-78.5 31q-47 0 -77.5 -31t-30.5 -87v-122q0 -53 32.5 -83.5t81.5 -30.5q45 0 74 30.5z" />
    <glyph glyph-name="zero.tf.zero" horiz-adv-x="450" 
d="M353.5 659.5q46.5 -50.5 46.5 -132.5v-355q0 -82 -47 -132t-123 -50t-123 50t-47 132v355q0 82 46.5 132.5t123.5 50.5t123.5 -50.5zM148 619q-29 -33 -29 -92v-275l222 275q0 59 -29 92t-82 33t-82 -33zM311.5 80.5q29.5 32.5 29.5 91.5v276l-222 -275v-1
q0 -59 29.5 -91.5t81.5 -32.5t81.5 32.5z" />
    <glyph glyph-name="zero.zero" horiz-adv-x="450" 
d="M351.5 659.5q46.5 -50.5 46.5 -132.5v-355q0 -82 -47 -132t-123 -50t-123 50t-47 132v355q0 82 46.5 132.5t123.5 50.5t123.5 -50.5zM146 619q-29 -33 -29 -92v-275l222 275q0 59 -29 92t-82 33t-82 -33zM309.5 80.5q29.5 32.5 29.5 91.5v276l-222 -275v-1
q0 -59 29.5 -91.5t81.5 -32.5t81.5 32.5z" />
    <glyph glyph-name="fraction" unicode="&#x2044;" horiz-adv-x="546" 
d="M466 700h66l-452 -700h-66z" />
    <glyph glyph-name="period" unicode="." horiz-adv-x="182" 
d="M57 3q-13 13 -13 34t13 34t34 13t34 -13t13 -34t-13 -34t-34 -13t-34 13z" />
    <glyph glyph-name="comma" unicode="," horiz-adv-x="148" 
d="M51 78h67l-46 -208h-42z" />
    <glyph glyph-name="colon" unicode=":" horiz-adv-x="175" 
d="M54 3q-13 13 -13 34t13 34t34 13t34 -13t13 -34t-13 -34t-34 -13t-34 13zM54 350q-13 13 -13 34t13 34t34 13t34 -13t13 -34t-13 -34t-34 -13t-34 13z" />
    <glyph glyph-name="semicolon" unicode=";" horiz-adv-x="158" 
d="M47 350q-13 13 -13 34t13 34t34 13t34 -13t13 -34t-13 -34t-34 -13t-34 13zM51 78h67l-46 -208h-42z" />
    <glyph glyph-name="ellipsis" unicode="&#x2026;" horiz-adv-x="502" 
d="M57 3q-13 13 -13 34t13 34t34 13t34 -13t13 -34t-13 -34t-34 -13t-34 13zM217 3q-13 13 -13 34t13 34t34 13t34 -13t13 -34t-13 -34t-34 -13t-34 13zM377 3q-13 13 -13 34t13 34t34 13t34 -13t13 -34t-13 -34t-34 -13t-34 13z" />
    <glyph glyph-name="exclam" unicode="!" horiz-adv-x="220" 
d="M80 700h60v-556h-60v556zM76 3q-13 13 -13 34t13 34t34 13t34 -13t13 -34t-13 -34t-34 -13t-34 13z" />
    <glyph glyph-name="exclamdown" unicode="&#xa1;" horiz-adv-x="220" 
d="M76 454q-13 13 -13 34t13 34t34 13t34 -13t13 -34t-13 -34t-34 -13t-34 13zM80 381h60v-561h-60v561z" />
    <glyph glyph-name="question" unicode="?" horiz-adv-x="374" 
d="M139 207q0 57 19 94t57 82q35 43 52.5 76t17.5 82q0 51 -29.5 82t-75.5 31t-75.5 -32t-29.5 -90h-60q3 82 48.5 130t116.5 48q47 0 85 -22t59 -60.5t21 -86.5q0 -61 -19.5 -99.5t-57.5 -83.5q-35 -43 -52 -76t-17 -82v-56h-60v63zM137 3q-13 13 -13 34t13 34t34 13
t34 -13t13 -34t-13 -34t-34 -13t-34 13z" />
    <glyph glyph-name="questiondown" unicode="&#xbf;" horiz-adv-x="374" 
d="M169 455q-13 13 -13 34t13 34t34 13t34 -13t13 -34t-13 -34t-34 -13t-34 13zM109 -162q-38 22 -59 60.5t-21 86.5q0 61 19.5 99.5t57.5 83.5q35 43 52 76t17 82v56h60v-63q0 -57 -19 -94t-57 -82q-35 -43 -52.5 -76t-17.5 -82q0 -51 29.5 -82t75.5 -31t75.5 32t29.5 90
h60q-3 -82 -48.5 -130t-116.5 -48q-47 0 -85 22z" />
    <glyph glyph-name="periodcentered" unicode="&#xb7;" horiz-adv-x="182" 
d="M57 224q-13 13 -13 34t13 34t34 13t34 -13t13 -34t-13 -34t-34 -13t-34 13z" />
    <glyph glyph-name="bullet" unicode="&#x2022;" horiz-adv-x="176" 
d="M41 204q-18 18 -18 47t18 46.5t47 17.5t46.5 -17.5t17.5 -46.5t-17.5 -47t-46.5 -18t-47 18z" />
    <glyph glyph-name="asterisk" unicode="*" horiz-adv-x="292" 
d="M56 518l53 73l-84 27l13 43l85 -28v89h45v-89l85 27l14 -42l-86 -27l53 -73l-36 -27l-53 73l-52 -72z" />
    <glyph glyph-name="numbersign" unicode="#" horiz-adv-x="565" 
d="M138 189h-124l12 49h123l49 213h-124l11 49h124l46 200h54l-46 -200h108l46 200h55l-46 -200h125l-11 -49h-125l-49 -213h126l-12 -49h-125l-43 -189h-55l43 189h-108l-43 -189h-54zM311 238l49 213h-108l-49 -213h108z" />
    <glyph glyph-name="slash" unicode="/" horiz-adv-x="406" 
d="M337 810h59l-327 -925h-59z" />
    <glyph glyph-name="backslash" unicode="\" horiz-adv-x="478" 
d="M373 -115l-327 925h59l327 -925h-59z" />
    <glyph glyph-name="parenleft" unicode="(" horiz-adv-x="275" 
d="M117 -71q-40 45 -40 114v615q0 68 40.5 113t104.5 49v-57q-39 -3 -62 -31.5t-23 -73.5v-615q0 -45 23 -73.5t62 -32.5v-57q-65 4 -105 49z" />
    <glyph glyph-name="parenright" unicode=")" horiz-adv-x="275" 
d="M53 -63q39 4 62 32.5t23 73.5v615q0 45 -23 73.5t-62 31.5v57q64 -4 104.5 -49t40.5 -113v-615q0 -69 -40 -114t-105 -49v57z" />
    <glyph glyph-name="braceleft" unicode="{" horiz-adv-x="337" 
d="M175.5 407.5q-18.5 -33.5 -50.5 -53.5q32 -20 50.5 -53.5t18.5 -76.5v-184q0 -46 26 -75t64 -29v-56q-41 0 -74.5 20.5t-53.5 57t-20 82.5v184q0 42 -23.5 67t-59.5 33v60q36 8 59.5 33t23.5 67v176q0 46 20 82.5t53.5 57t74.5 20.5v-56q-38 0 -64 -29t-26 -75v-176
q0 -43 -18.5 -76.5z" />
    <glyph glyph-name="braceright" unicode="}" horiz-adv-x="337" 
d="M224.5 410q23.5 -25 59.5 -33v-60q-36 -8 -59.5 -33t-23.5 -67v-176q0 -46 -20 -82.5t-53.5 -57t-74.5 -20.5v56q38 0 64 29t26 75v176q0 43 18.5 76.5t50.5 53.5q-32 20 -50.5 53.5t-18.5 76.5v184q0 46 -26 75t-64 29v56q41 0 74.5 -20.5t53.5 -57t20 -82.5v-184
q0 -42 23.5 -67z" />
    <glyph glyph-name="bracketleft" unicode="[" horiz-adv-x="275" 
d="M77 820h145v-56h-85v-828h85v-56h-145v940z" />
    <glyph glyph-name="bracketright" unicode="]" horiz-adv-x="275" 
d="M198 -120h-145v56h85v828h-85v56h145v-940z" />
    <glyph glyph-name="hyphen" unicode="-" horiz-adv-x="332" 
d="M46 285h240v-56h-240v56z" />
    <glyph glyph-name="endash" unicode="&#x2013;" horiz-adv-x="432" 
d="M46 285h340v-56h-340v56z" />
    <glyph glyph-name="emdash" unicode="&#x2014;" horiz-adv-x="552" 
d="M46 285h460v-56h-460v56z" />
    <glyph glyph-name="underscore" unicode="_" horiz-adv-x="406" 
d="M23 -9h360v-55h-360v55z" />
    <glyph glyph-name="hyphen.case" horiz-adv-x="332" 
d="M46 385h240v-56h-240v56z" />
    <glyph glyph-name="endash.case" horiz-adv-x="432" 
d="M46 385h340v-56h-340v56z" />
    <glyph glyph-name="emdash.case" horiz-adv-x="552" 
d="M46 385h460v-56h-460v56z" />
    <glyph glyph-name="quotesinglbase" unicode="&#x201a;" horiz-adv-x="148" 
d="M51 78h67l-46 -208h-42z" />
    <glyph glyph-name="quotedblbase" unicode="&#x201e;" horiz-adv-x="248" 
d="M51 78h67l-46 -208h-42zM151 78h67l-46 -208h-42z" />
    <glyph glyph-name="quotedblleft" unicode="&#x201c;" horiz-adv-x="225" 
d="M67 700h42l-21 -208h-67zM167 700h42l-21 -208h-67z" />
    <glyph glyph-name="quotedblright" unicode="&#x201d;" horiz-adv-x="225" 
d="M37 700h67l-46 -208h-42zM137 700h67l-46 -208h-42z" />
    <glyph glyph-name="quoteleft" unicode="&#x2018;" horiz-adv-x="125" 
d="M67 700h42l-21 -208h-67z" />
    <glyph glyph-name="quoteright" unicode="&#x2019;" horiz-adv-x="125" 
d="M37 707h67l-46 -208h-42z" />
    <glyph glyph-name="guillemotleft" unicode="&#xab;" horiz-adv-x="434" 
d="M46 242v30l122 153h60l-133 -168l133 -168h-60zM206 242v30l122 153h60l-133 -168l133 -168h-60z" />
    <glyph glyph-name="guillemotright" unicode="&#xbb;" horiz-adv-x="434" 
d="M46 89l133 168l-133 168h60l122 -153v-30l-122 -153h-60zM206 89l133 168l-133 168h60l122 -153v-30l-122 -153h-60z" />
    <glyph glyph-name="guilsinglleft" unicode="&#x2039;" horiz-adv-x="274" 
d="M46 242v30l122 153h60l-133 -168l133 -168h-60z" />
    <glyph glyph-name="guilsinglright" unicode="&#x203a;" horiz-adv-x="274" 
d="M46 89l133 168l-133 168h60l122 -153v-30l-122 -153h-60z" />
    <glyph glyph-name="quotedbl" unicode="&#x22;" horiz-adv-x="225" 
d="M37 700h67l-46 -208h-42zM137 700h67l-46 -208h-42z" />
    <glyph glyph-name="quotesingle" unicode="'" horiz-adv-x="125" 
d="M37 700h67l-46 -208h-42z" />
    <glyph glyph-name="guillemotleft.case" horiz-adv-x="434" 
d="M46 302v30l122 153h60l-133 -168l133 -168h-60zM206 302v30l122 153h60l-133 -168l133 -168h-60z" />
    <glyph glyph-name="guillemotright.case" horiz-adv-x="434" 
d="M46 149l133 168l-133 168h60l122 -153v-30l-122 -153h-60zM206 149l133 168l-133 168h60l122 -153v-30l-122 -153h-60z" />
    <glyph glyph-name="guilsinglleft.case" horiz-adv-x="274" 
d="M46 302v30l122 153h60l-133 -168l133 -168h-60z" />
    <glyph glyph-name="guilsinglright.case" horiz-adv-x="274" 
d="M46 149l133 168l-133 168h60l122 -153v-30l-122 -153h-60z" />
    <glyph glyph-name="uni00A0" unicode="&#xa0;" horiz-adv-x="229" 
 />
    <glyph glyph-name="cent" unicode="&#xa2;" horiz-adv-x="425" 
d="M300 80q29 32 29 97h60q0 -81 -39 -129.5t-107 -56.5v-65h-53v66q-64 9 -100.5 57t-36.5 128v168q0 80 36.5 128t100.5 57v66h53v-65q68 -8 107 -56.5t39 -129.5h-60q0 65 -29 97t-81 32q-51 0 -78.5 -32t-27.5 -97v-168q0 -65 27.5 -97t78.5 -32q52 0 81 32z" />
    <glyph glyph-name="currency" unicode="&#xa4;" horiz-adv-x="474" 
d="M41 142l52 62q-10 17 -15.5 42.5t-5.5 50.5v60q0 25 5.5 50.5t15.5 42.5l-52 62l38 33l45 -53q20 18 51 29t62 11t62 -11t51 -29l45 53l38 -33l-52 -61q10 -17 15.5 -42.5t5.5 -51.5v-60q0 -26 -5.5 -51.5t-15.5 -42.5l52 -61l-38 -33l-45 53q-20 -18 -51 -29t-62 -11
t-62 11t-51 29l-45 -53zM315.5 208q28.5 32 28.5 89v60q0 57 -28.5 89t-78.5 32t-78.5 -32t-28.5 -89v-60q0 -57 28.5 -89t78.5 -32t78.5 32z" />
    <glyph glyph-name="dollar" unicode="$" horiz-adv-x="451" 
d="M394.5 87q-20.5 -42 -59.5 -69.5t-94 -30.5v-72h-45v74q-74 10 -118 61t-46 130h62q2 -64 37 -98.5t94 -34.5q62 0 94.5 35t32.5 94q0 36 -19 63.5t-47 48t-76 48.5q-55 32 -88.5 57t-56.5 62t-23 87q0 67 42.5 114t111.5 55v74h45v-73q73 -6 117 -57t48 -130h-62
q-3 64 -35 96t-84 32q-56 0 -88 -30t-32 -81q0 -36 18.5 -63t46.5 -46.5t75 -46.5q56 -33 89.5 -57.5t57 -62.5t23.5 -90q0 -47 -20.5 -89z" />
    <glyph glyph-name="Euro" unicode="&#x20ac;" horiz-adv-x="543" 
d="M508 190q-8 -96 -59 -149t-137 -53t-138.5 55.5t-52.5 154.5v72h-83v47h83v65h-83v47h83v73q0 99 51.5 154.5t135.5 55.5q86 0 137.5 -52.5t56.5 -149.5h-60q-5 73 -39.5 109.5t-94.5 36.5q-58 0 -92.5 -39t-34.5 -115v-73h172v-47h-172v-65h172v-47h-172v-72
q0 -76 35.5 -115t95.5 -39q121 0 136 146h60z" />
    <glyph glyph-name="sterling" unicode="&#xa3;" horiz-adv-x="471" 
d="M436 60v-60h-404v52q35 14 51.5 42t16.5 72v160h-70v56h70v136q0 87 44.5 139.5t118.5 52.5q75 0 120.5 -52t48.5 -143h-60q-3 67 -31.5 103t-77.5 36q-48 0 -75.5 -36t-27.5 -100v-136h189v-56h-189v-154q0 -72 -34 -112h310z" />
    <glyph glyph-name="yen" unicode="&#xa5;" horiz-adv-x="422" 
d="M260 297h136v-48h-154v-61h154v-48h-154v-140h-62v140h-154v48h154v61h-154v48h136l-157 403h66l100 -270l40 -108l40 109l100 269h66z" />
    <glyph glyph-name="plus" unicode="+" horiz-adv-x="442" 
d="M396 281h-147v-150h-56v150h-147v56h147v150h56v-150h147v-56z" />
    <glyph glyph-name="minus" unicode="&#x2212;" horiz-adv-x="442" 
d="M46 337h350v-56h-350v56z" />
    <glyph glyph-name="multiply" unicode="&#xd7;" horiz-adv-x="449" 
d="M42 159l143 142l-142 142l38 41l144 -143l143 142l39 -40l-142 -142l142 -142l-39 -40l-143 143l-143 -143z" />
    <glyph glyph-name="divide" unicode="&#xf7;" horiz-adv-x="442" 
d="M188.5 418.5q-13.5 13.5 -13.5 32.5q0 20 13.5 33t32.5 13t32.5 -13.5t13.5 -32.5t-13.5 -32.5t-32.5 -13.5t-32.5 13.5zM46 337h350v-56h-350v56zM188.5 126.5q-13.5 13.5 -13.5 32.5q0 20 13.5 33t32.5 13t32.5 -13.5t13.5 -32.5t-13.5 -32.5t-32.5 -13.5t-32.5 13.5z
" />
    <glyph glyph-name="equal" unicode="=" horiz-adv-x="442" 
d="M46 406h350v-56h-350v56zM46 257h350v-56h-350v56z" />
    <glyph glyph-name="notequal" unicode="&#x2260;" horiz-adv-x="460" 
d="M283 397l-50 -93h172v-56h-201l-41 -77h-56l41 77h-93v56h122l50 93h-172v56h201l41 77h56l-41 -77h93v-56h-122z" />
    <glyph glyph-name="greater" unicode="&#x3e;" horiz-adv-x="412" 
d="M366 342v-66l-320 -139v59l257 113l-257 113v59z" />
    <glyph glyph-name="less" unicode="&#x3c;" horiz-adv-x="412" 
d="M366 422l-257 -113l257 -113v-59l-320 139v66l320 139v-59z" />
    <glyph glyph-name="greaterequal" unicode="&#x2265;" horiz-adv-x="412" 
d="M366 372v-66l-320 -139v59l257 113l-257 113v59zM46 127h320v-55h-320v55z" />
    <glyph glyph-name="lessequal" unicode="&#x2264;" horiz-adv-x="412" 
d="M366 452l-257 -113l257 -113v-59l-320 139v66l320 139v-59zM46 127h320v-55h-320v55z" />
    <glyph glyph-name="plusminus" unicode="&#xb1;" horiz-adv-x="460" 
d="M405 373v-56h-147v-150h-56v150h-147v56h147v150h56v-150h147zM55 124h350v-56h-350v56z" />
    <glyph glyph-name="approxequal" unicode="&#x2248;" horiz-adv-x="460" 
d="M277 324q-20 6 -55 20q-30 12 -45.5 17t-30.5 5q-20 0 -36.5 -10.5t-27.5 -26.5l-31 45q40 51 91 51q21 0 41 -6t55 -20q30 -12 45.5 -17t30.5 -5q20 0 36.5 10.5t27.5 26.5l32 -42q-38 -54 -92 -54q-21 0 -41 6zM277 172q-20 6 -55 20q-30 12 -45.5 17t-30.5 5
q-20 0 -36.5 -10.5t-27.5 -26.5l-31 45q40 51 91 51q21 0 41 -6t55 -20q30 -12 45.5 -17t30.5 -5q20 0 36.5 10.5t27.5 26.5l32 -42q-38 -54 -92 -54q-21 0 -41 6z" />
    <glyph glyph-name="asciitilde" unicode="~" horiz-adv-x="460" 
d="M276 253q-20 6 -55 20q-30 12 -45.5 17t-30.5 5q-20 0 -36.5 -10.5t-27.5 -26.5l-31 45q40 51 91 51q21 0 41 -6t55 -20q30 -12 45.5 -17t30.5 -5q20 0 36.5 10.5t27.5 26.5l32 -42q-38 -54 -92 -54q-21 0 -41 6z" />
    <glyph glyph-name="logicalnot" unicode="&#xac;" horiz-adv-x="460" 
d="M356 280h-301v56h355v-138h-54v82z" />
    <glyph glyph-name="asciicircum" unicode="^" horiz-adv-x="309" 
d="M233 478l-78 169l-79 -169h-61l106 222h67l106 -222h-61z" />
    <glyph glyph-name="emptyset" unicode="&#x2205;" horiz-adv-x="819" 
d="M663 610q46 -48 71 -114t25 -146q0 -107 -44 -188.5t-124 -126t-185 -44.5q-129 0 -218 66l-74 -87h-59l99 115q-49 48 -75 115.5t-26 149.5q0 107 44 188.5t124 126t185 44.5q66 0 122.5 -18t100.5 -52l78 91h59zM122 222q22 -58 63 -100l414 482q-81 60 -193 60
q-91 0 -160.5 -39t-107.5 -110.5t-38 -164.5q0 -70 22 -128zM691.5 475q-20.5 57 -59.5 99l-413 -482q78 -56 187 -56q91 0 160.5 39t107.5 110.5t38 164.5q0 68 -20.5 125z" />
    <glyph glyph-name="infinity" unicode="&#x221e;" horiz-adv-x="632" 
d="M510.5 381.5q31.5 -18.5 50 -52t18.5 -78.5q0 -66 -40 -106.5t-98 -40.5q-46 0 -75 22.5t-50 62.5q-21 -40 -50 -62.5t-75 -22.5q-58 0 -98 40.5t-40 106.5q0 45 18.5 78.5t50 52t69.5 18.5q45 0 74.5 -20.5t50.5 -57.5q21 37 50.5 57.5t74.5 20.5q38 0 69.5 -18.5z
M244.5 182.5q19.5 24.5 40.5 73.5q-19 44 -39.5 67t-54.5 23q-37 0 -58.5 -24t-21.5 -71q0 -42 22 -67.5t58 -25.5q34 0 53.5 24.5zM499 183.5q22 25.5 22 67.5q0 47 -21.5 71t-58.5 24q-34 0 -54.5 -23t-39.5 -67q21 -49 40.5 -73.5t53.5 -24.5q36 0 58 25.5z" />
    <glyph glyph-name="integral" unicode="&#x222b;" horiz-adv-x="297" 
d="M16 -132q54 1 78.5 27t24.5 76v579q0 74 41.5 116.5t121.5 43.5v-57q-55 -1 -79.5 -27t-24.5 -76v-579q0 -73 -41 -116t-121 -44v57z" />
    <glyph glyph-name="product" unicode="&#x220f;" horiz-adv-x="502" 
d="M77 700h348v-800h-60v742h-228v-742h-60v800z" />
    <glyph glyph-name="summation" unicode="&#x2211;" horiz-adv-x="363" 
d="M40 55l158 295l-158 295v55h283v-56h-221l152 -277v-34l-152 -277h221v-56h-283v55z" />
    <glyph glyph-name="radical" unicode="&#x221a;" horiz-adv-x="455" 
d="M104 445h-86v55h135l86 -435l141 730h60l-151 -795h-101z" />
    <glyph glyph-name="partialdiff" unicode="&#x2202;" horiz-adv-x="446" 
d="M278.5 675q52.5 -40 83.5 -99t31 -131v-266q0 -90 -46 -139.5t-125 -49.5q-78 0 -123.5 49.5t-45.5 139.5v146q0 89 43.5 139t113.5 50q81 0 124 -54q-4 84 -56.5 138.5t-136.5 79.5l19 54q66 -17 118.5 -57zM333 325q0 65 -29.5 98t-80.5 33q-110 0 -110 -131v-146
q0 -66 28.5 -98.5t80.5 -32.5q53 0 82 32.5t29 98.5v146z" />
    <glyph glyph-name="percent" unicode="%" horiz-adv-x="566" 
d="M42 421.5q-27 28.5 -27 79.5v99q0 51 27 80t70 29q42 0 69 -29t27 -80v-99q0 -51 -27 -79.5t-69 -28.5q-43 0 -70 28.5zM482 700h58l-456 -700h-58zM146.5 455q12.5 15 12.5 46v99q0 32 -12.5 47t-34.5 15q-48 0 -48 -62v-99q0 -61 48 -61q22 0 34.5 15zM386 19.5
q-27 28.5 -27 79.5v99q0 51 27 80t70 29q42 0 69 -29t27 -80v-99q0 -51 -27 -79.5t-69 -28.5q-43 0 -70 28.5zM490.5 53q12.5 15 12.5 46v99q0 32 -12.5 47t-34.5 15q-48 0 -48 -62v-99q0 -61 48 -61q22 0 34.5 15z" />
    <glyph glyph-name="perthousand" unicode="&#x2030;" horiz-adv-x="850" 
d="M42 421.5q-27 28.5 -27 79.5v99q0 51 27 80t70 29q42 0 69 -29t27 -80v-99q0 -51 -27 -79.5t-69 -28.5q-43 0 -70 28.5zM496 700h58l-486 -700h-58zM146.5 455q12.5 15 12.5 46v99q0 32 -12.5 47t-34.5 15q-48 0 -48 -62v-99q0 -61 48 -61q22 0 34.5 15zM386 19.5
q-27 28.5 -27 79.5v99q0 51 27 80t70 29q42 0 69 -29t27 -80v-99q0 -51 -27 -79.5t-69 -28.5q-43 0 -70 28.5zM636 19.5q-27 28.5 -27 79.5v99q0 51 27 80t70 29q42 0 69 -29t27 -80v-99q0 -51 -27 -79.5t-69 -28.5q-43 0 -70 28.5zM490.5 53q12.5 15 12.5 46v99
q0 32 -12.5 47t-34.5 15q-48 0 -48 -62v-99q0 -61 48 -61q22 0 34.5 15zM740.5 53q12.5 15 12.5 46v99q0 32 -12.5 47t-34.5 15q-48 0 -48 -62v-99q0 -61 48 -61q22 0 34.5 15z" />
    <glyph glyph-name="lozenge" unicode="&#x25ca;" horiz-adv-x="454" 
d="M53 330v40l142 330h64l142 -330v-40l-142 -331h-64zM351 350l-124 298l-124 -298l124 -298z" />
    <glyph glyph-name="at" unicode="@" horiz-adv-x="760" 
d="M208.5 -54q-74.5 42 -115 122t-40.5 191v131q0 107 40 184t115.5 117.5t180.5 40.5q152 0 235 -84t83 -246v-108q0 -83 -38.5 -127t-101.5 -44q-34 0 -59 13.5t-38 37.5q-15 -29 -40.5 -44.5t-60.5 -15.5q-55 0 -90 38.5t-35 109.5v108q0 70 34 107.5t90 37.5
q64 0 94 -47l6 38h45v-274q0 -27 13.5 -41.5t43.5 -15.5q40 0 61.5 30t21.5 89v108q0 137 -69 207.5t-195 70.5q-133 0 -207.5 -76.5t-74.5 -213.5v-131q0 -94 34 -162.5t96 -104.5t146 -36q132 0 203 58l27 -46q-83 -64 -229 -64q-101 0 -175.5 42zM437.5 190.5
q22.5 23.5 22.5 70.5v109q0 38 -22 65.5t-64 27.5q-36 0 -56 -22.5t-20 -70.5v-108q0 -49 21 -72t58 -23q38 0 60.5 23.5z" />
    <glyph glyph-name="ampersand" unicode="&#x26;" horiz-adv-x="572" 
d="M469 0q-38 56 -58 84q-76 -97 -174 -97q-70 0 -115 45.5t-45 123.5q0 66 32.5 117t91.5 105q-78 123 -78 197q0 60 37 99t103 39q69 0 104.5 -42t35.5 -102q0 -56 -31.5 -100.5t-90.5 -100.5q51 -77 124 -175q22 45 35 88h69q-30 -88 -63 -145q53 -70 96 -136h-73z
M247 420q46 42 70 75t24 71q0 37 -21 62t-57 25t-57 -23t-21 -57q0 -49 62 -153zM372 137l-45 62q-59 79 -92 127q-44 -42 -68 -80t-24 -83q0 -51 28.5 -83.5t71.5 -32.5q68 0 129 90z" />
    <glyph glyph-name="paragraph" unicode="&#xb6;" horiz-adv-x="570" 
d="M212 390q-71 0 -115 42t-44 113t44 113t115 42h281v-794h-61v736h-159v-736h-61v484z" />
    <glyph glyph-name="section" unicode="&#xa7;" horiz-adv-x="411" 
d="M341.5 162q18.5 -28 18.5 -70q0 -64 -43 -103.5t-114 -39.5q-75 0 -121 45.5t-46 120.5h59q0 -51 28.5 -79.5t79.5 -28.5q46 0 71.5 22.5t25.5 63.5q0 27 -15.5 46t-39 32t-63.5 30q-49 20 -78.5 37t-50.5 46t-21 72q0 47 25 80.5t68 47.5q-74 44 -74 118q0 60 42 97.5
t109 37.5q71 0 112.5 -42.5t41.5 -113.5h-59q0 47 -24.5 73t-69.5 26q-43 0 -67.5 -21.5t-24.5 -56.5q0 -34 27.5 -54.5t84.5 -46.5q49 -22 79 -40t51.5 -48t21.5 -73q0 -45 -22.5 -78t-63.5 -51q34 -21 52.5 -49zM123 297.5q31 -25.5 98 -48.5q44 3 69 26t25 57
q0 41 -30 66t-86 49q-44 2 -75.5 -22t-31.5 -66q0 -36 31 -61.5z" />
    <glyph glyph-name="copyright" unicode="&#xa9;" horiz-adv-x="718" 
d="M137.5 72q-79.5 84 -79.5 236v90q0 149 79.5 231.5t222.5 82.5q142 0 221 -82.5t79 -231.5v-90q0 -152 -79 -236t-221 -84q-143 0 -222.5 84zM546.5 105.5q65.5 71.5 65.5 202.5v90q0 128 -65.5 198t-186.5 70q-122 0 -188 -70t-66 -198v-90q0 -131 66 -202.5t188 -71.5
q121 0 186.5 71.5zM263.5 182.5q-35.5 37.5 -35.5 103.5v128q0 66 35.5 103t94.5 37t94 -37t35 -103h-51q0 45 -21 67.5t-57 22.5q-37 0 -57.5 -22.5t-20.5 -67.5v-128q0 -45 20.5 -67.5t57.5 -22.5t58.5 23t21.5 67h52q0 -66 -36.5 -103.5t-95.5 -37.5t-94.5 37.5z" />
    <glyph glyph-name="registered" unicode="&#xae;" horiz-adv-x="465" 
d="M364 664q46 -48 46 -134v-54q0 -88 -46 -137.5t-128 -49.5q-83 0 -129 49.5t-46 137.5v54q0 86 46.5 134t128.5 48t128 -48zM382 530q0 73 -38.5 113.5t-107.5 40.5t-108 -40.5t-39 -113.5v-54q0 -75 39 -117t108 -42t107.5 42t38.5 117v54zM302 498.5
q-14 -19.5 -41 -25.5l60 -101h-34l-57 99h-26v-99h-30v254h65q37 0 57 -20t20 -56q0 -32 -14 -51.5zM204 501h35q23 0 35 12.5t12 36.5q0 22 -12 34t-35 12h-35v-95z" />
    <glyph glyph-name="trademark" unicode="&#x2122;" horiz-adv-x="469" 
d="M32 700h152v-36h-57v-233h-38v233h-57v36zM431 700v-269h-37v76q0 43 3 127l-2 1l-25 -60l-29 -73h-36l-29 73l-25 60l-2 -1q3 -84 3 -127v-76h-37v269h41l38 -89l29 -72l29 72l38 89h41z" />
    <glyph glyph-name="degree" unicode="&#xb0;" horiz-adv-x="316" 
d="M68 493q-34 35 -34 92t34 92t90 35t90 -35t34 -92t-34 -92t-90 -35t-90 35zM214.5 525.5q21.5 22.5 21.5 59.5t-21.5 59.5t-56.5 22.5t-56.5 -22.5t-21.5 -59.5t21.5 -59.5t56.5 -22.5t56.5 22.5z" />
    <glyph glyph-name="bar" unicode="|" horiz-adv-x="195" 
d="M69 795h57v-880h-57v880z" />
    <glyph glyph-name="brokenbar" unicode="&#xa6;" horiz-adv-x="175" 
d="M59 795h57v-288h-57v288zM59 223h57v-288h-57v288z" />
    <glyph glyph-name="dagger" unicode="&#x2020;" horiz-adv-x="370" 
d="M340 464h-125v-554h-60v554h-125v56h125v200h60v-200h125v-56z" />
    <glyph glyph-name="daggerdbl" unicode="&#x2021;" horiz-adv-x="370" 
d="M215 464v-298h125v-56h-125v-200h-60v200h-125v56h125v298h-125v56h125v200h60v-200h125v-56h-125z" />
    <glyph glyph-name="uni0308" unicode="&#x308;" 
d="M-187 636.5q-11 10.5 -11 28.5t11 28.5t29 10.5q17 0 28 -10.5t11 -28.5t-11 -28.5t-28 -10.5q-18 0 -29 10.5zM-69.5 636.5q-11.5 10.5 -11.5 28.5t11.5 28.5t29.5 10.5t29 -10.5t11 -28.5t-11 -28.5t-29 -10.5t-29.5 10.5z" />
    <glyph glyph-name="uni0307" unicode="&#x307;" 
d="M-127 635q-13 13 -13 35t13 35t35 13t35 -13t13 -35t-13 -35t-35 -13t-35 13z" />
    <glyph glyph-name="gravecomb" unicode="&#x300;" 
d="M-58 610l-87 113h70l75 -113h-58z" />
    <glyph glyph-name="acutecomb" unicode="&#x301;" 
d="M-70 723h70l-87 -113h-58z" />
    <glyph glyph-name="uni030B" unicode="&#x30b;" 
d="M-169 723h67l-82 -113h-53zM-67 723h67l-86 -113h-53z" />
    <glyph glyph-name="uni0302" unicode="&#x302;" 
d="M-56 609l-57 70l-57 -70h-56l81 113h64l81 -113h-56z" />
    <glyph glyph-name="uni030C" unicode="&#x30c;" 
d="M0 723l-81 -113h-64l-81 113h56l57 -70l57 70h56z" />
    <glyph glyph-name="uni0306" unicode="&#x306;" 
d="M-196.5 637.5q-29.5 30.5 -31.5 85.5h52q2 -34 16.5 -50t44.5 -16t44.5 16t16.5 50h52q-2 -55 -31.5 -85.5t-81.5 -30.5t-81.5 30.5z" />
    <glyph glyph-name="uni030A" unicode="&#x30a;" 
d="M-135.5 625q-19.5 19 -19.5 50q0 30 19.5 48.5t50.5 18.5t50.5 -18.5t19.5 -48.5q0 -31 -19.5 -50t-50.5 -19t-50.5 19zM-62.5 651.5q8.5 8.5 8.5 22.5t-9 22.5t-22 8.5q-14 0 -22.5 -8.5t-8.5 -22.5t8.5 -22.5t22.5 -8.5t22.5 8.5z" />
    <glyph glyph-name="tildecomb" unicode="&#x303;" 
d="M-94 630q-11 5 -25 15q-18 12 -27 12q-16 0 -19 -29h-54q2 36 20 57t48 21q16 0 27 -5t25 -15q6 -5 13 -8.5t13 -3.5q20 0 23 29h50q-4 -37 -21.5 -57.5t-46.5 -20.5q-15 0 -26 5z" />
    <glyph glyph-name="uni0304" unicode="&#x304;" 
d="M-184 689h184v-50h-184v50z" />
    <glyph glyph-name="uni0312" unicode="&#x312;" 
d="M-23 783h43l-18 -177h-67z" />
    <glyph glyph-name="uni0326" unicode="&#x326;" 
d="M-67 -69h65l-37 -180h-46z" />
    <glyph glyph-name="uni0327" unicode="&#x327;" 
d="M-169.5 -171.5q-24.5 19.5 -27.5 53.5h49q3 -13 14 -20.5t27 -7.5q19 0 30.5 8.5t11.5 24.5q0 32 -39 32q-19 0 -31 -7l-17 16l22 72h43l-15 -50q4 1 14 1q29 0 50 -18.5t21 -46.5q0 -36 -25.5 -56.5t-66.5 -20.5q-36 0 -60.5 19.5z" />
    <glyph glyph-name="uni0328" unicode="&#x328;" 
d="M-105.5 -168.5q-21.5 23.5 -21.5 57.5q0 59 60 111h55q-25 -22 -41.5 -50t-16.5 -51q0 -19 11 -27.5t27 -8.5q23 0 32 3v-52q-17 -6 -41 -6q-43 0 -64.5 23.5z" />
    <glyph glyph-name="uni0335" unicode="&#x335;" 
d="M-210 418h200v-46h-200v46z" />
    <glyph glyph-name="uni0336" unicode="&#x336;" 
d="M-330 418h320v-46h-320v46z" />
    <glyph glyph-name="uni0337" unicode="&#x337;" 
d="M-78 550h59l-163 -594h-59z" />
    <glyph glyph-name="uni0338" unicode="&#x338;" 
d="M-117 737h59l-215 -774h-59z" />
    <glyph glyph-name="acute" unicode="&#xb4;" horiz-adv-x="145" 
d="M75 723h70l-87 -113h-58z" />
    <glyph glyph-name="breve" unicode="&#x2d8;" horiz-adv-x="230" 
d="M33.5 637.5q-29.5 30.5 -31.5 85.5h52q2 -34 16.5 -50t44.5 -16t44.5 16t16.5 50h52q-2 -55 -31.5 -85.5t-81.5 -30.5t-81.5 30.5z" />
    <glyph glyph-name="caron" unicode="&#x2c7;" horiz-adv-x="226" 
d="M226 723l-81 -113h-64l-81 113h56l57 -70l57 70h56z" />
    <glyph glyph-name="cedilla" unicode="&#xb8;" horiz-adv-x="217" 
d="M47.5 -171.5q-24.5 19.5 -27.5 53.5h49q3 -13 14 -20.5t27 -7.5q19 0 30.5 8.5t11.5 24.5q0 32 -39 32q-19 0 -31 -7l-17 16l22 72h43l-15 -50q4 1 14 1q29 0 50 -18.5t21 -46.5q0 -36 -25.5 -56.5t-66.5 -20.5q-36 0 -60.5 19.5z" />
    <glyph glyph-name="circumflex" unicode="&#x2c6;" horiz-adv-x="226" 
d="M170 609l-57 70l-57 -70h-56l81 113h64l81 -113h-56z" />
    <glyph glyph-name="dieresis" unicode="&#xa8;" horiz-adv-x="198" 
d="M11 636.5q-11 10.5 -11 28.5t11 28.5t29 10.5q17 0 28 -10.5t11 -28.5t-11 -28.5t-28 -10.5q-18 0 -29 10.5zM128.5 636.5q-11.5 10.5 -11.5 28.5t11.5 28.5t29.5 10.5t29 -10.5t11 -28.5t-11 -28.5t-29 -10.5t-29.5 10.5z" />
    <glyph glyph-name="dotaccent" unicode="&#x2d9;" horiz-adv-x="184" 
d="M57 635q-13 13 -13 35t13 35t35 13t35 -13t13 -35t-13 -35t-35 -13t-35 13z" />
    <glyph glyph-name="grave" unicode="`" horiz-adv-x="145" 
d="M87 610l-87 113h70l75 -113h-58z" />
    <glyph glyph-name="hungarumlaut" unicode="&#x2dd;" horiz-adv-x="237" 
d="M68 723h67l-82 -113h-53zM170 723h67l-86 -113h-53z" />
    <glyph glyph-name="macron" unicode="&#xaf;" horiz-adv-x="184" 
d="M0 689h184v-50h-184v50z" />
    <glyph glyph-name="ogonek" unicode="&#x2db;" horiz-adv-x="124" 
d="M18.5 -168.5q-21.5 23.5 -21.5 57.5q0 59 60 111h55q-25 -22 -41.5 -50t-16.5 -51q0 -19 11 -27.5t27 -8.5q23 0 32 3v-52q-16 -6 -41 -6q-43 0 -64.5 23.5z" />
    <glyph glyph-name="ring" unicode="&#x2da;" horiz-adv-x="170" 
d="M34.5 625q-19.5 19 -19.5 50q0 30 19.5 48.5t50.5 18.5t50.5 -18.5t19.5 -48.5q0 -31 -19.5 -50t-50.5 -19t-50.5 19zM107.5 651.5q8.5 8.5 8.5 22.5t-8.5 22.5t-22.5 8.5t-22.5 -8.5t-8.5 -22.5t8.5 -22.5t22.5 -8.5t22.5 8.5z" />
    <glyph glyph-name="tilde" unicode="&#x2dc;" horiz-adv-x="219" 
d="M125 630q-11 5 -25 15q-18 12 -27 12q-16 0 -19 -29h-54q2 36 20 57t48 21q16 0 27 -5t25 -15q6 -5 13 -8.5t13 -3.5q20 0 23 29h50q-4 -37 -21.5 -57.5t-46.5 -20.5q-15 0 -26 5z" />
    <glyph glyph-name="uni0308.case" 
d="M-193 798.5q-11 10.5 -11 28.5t11 28.5t29 10.5q17 0 28 -10.5t11 -28.5t-11 -28.5t-28 -10.5q-18 0 -29 10.5zM-63.5 798.5q-11.5 10.5 -11.5 28.5t11.5 28.5t29.5 10.5t29 -10.5t11 -28.5t-11 -28.5t-29 -10.5t-29.5 10.5z" />
    <glyph glyph-name="uni0307.case" 
d="M-78 807q-13 13 -13 35t13 35t35 13t35 -13t13 -35t-13 -35t-35 -13t-35 13z" />
    <glyph glyph-name="gravecomb.case" 
d="M-69 769l-105 113h72l92 -113h-59z" />
    <glyph glyph-name="acutecomb.case" 
d="M-72 882h72l-105 -113h-59z" />
    <glyph glyph-name="uni030B.case" 
d="M-150 882h67l-82 -113h-53zM-48 882h67l-86 -113h-53z" />
    <glyph glyph-name="uni0302.case" 
d="M-67 769l-57 70l-57 -70h-56l81 113h64l81 -113h-56z" />
    <glyph glyph-name="uni030C.case" 
d="M-15 882l-81 -113h-64l-81 113h56l57 -70l57 70h56z" />
    <glyph glyph-name="uni0306.case" 
d="M-196.5 796.5q-29.5 30.5 -31.5 85.5h52q2 -34 16.5 -50t44.5 -16t44.5 16t16.5 50h52q-2 -55 -31.5 -85.5t-81.5 -30.5t-81.5 30.5z" />
    <glyph glyph-name="uni030A.case" 
d="M-118.5 783q-19.5 19 -19.5 50q0 30 19.5 48.5t50.5 18.5t50.5 -18.5t19.5 -48.5q0 -31 -19.5 -50t-50.5 -19t-50.5 19zM-45.5 809.5q8.5 8.5 8.5 22.5t-9 22.5t-22 8.5q-14 0 -22.5 -8.5t-8.5 -22.5t8.5 -22.5t22.5 -8.5t22.5 8.5z" />
    <glyph glyph-name="tildecomb.case" 
d="M-90 800q-11 5 -25 15q-18 12 -27 12q-16 0 -19 -29h-54q2 36 20 57t48 21q16 0 27 -5t25 -15q6 -5 13 -8.5t13 -3.5q20 0 23 29h50q-4 -37 -21.5 -57.5t-46.5 -20.5q-15 0 -26 5z" />
    <glyph glyph-name="uni0304.case" 
d="M-184 849h184v-52h-184v52z" />
    <glyph glyph-name="uni0312.case" 
d="M-118 946h43l42 -177h-67z" />
    <glyph glyph-name="uni0326.case" 
d="M-78 -69h65l-37 -180h-46z" />
    <glyph glyph-name="uni0327.case" 
d="M-168.5 -171.5q-24.5 19.5 -27.5 53.5h49q3 -13 14 -20.5t27 -7.5q19 0 30.5 8.5t11.5 24.5q0 32 -39 32q-19 0 -31 -7l-17 16l22 72h43l-15 -50q4 1 14 1q29 0 50 -18.5t21 -46.5q0 -36 -25.5 -56.5t-66.5 -20.5q-36 0 -60.5 19.5z" />
    <glyph glyph-name="uni0328.case" 
d="M-100.5 -168.5q-21.5 23.5 -21.5 57.5q0 59 60 111h55q-25 -22 -41.5 -50t-16.5 -51q0 -19 11 -27.5t27 -8.5q23 0 32 3v-52q-17 -6 -41 -6q-43 0 -64.5 23.5z" />
    <glyph glyph-name="uni0337.case" 
d="M-56 550h59l-163 -594h-59z" />
    <glyph glyph-name="uni0338.case" 
d="M-166 737h59l-215 -774h-59z" />
    <glyph glyph-name="brevecombcy" 
d="M-196.5 637.5q-29.5 30.5 -31.5 85.5h52q2 -34 16.5 -50t44.5 -16t44.5 16t16.5 50h52q-2 -55 -31.5 -85.5t-81.5 -30.5t-81.5 30.5z" />
    <glyph glyph-name="brevecombcy.case" 
d="M-196.5 796.5q-29.5 30.5 -31.5 85.5h52q2 -34 16.5 -50t44.5 -16t44.5 16t16.5 50h52q-2 -55 -31.5 -85.5t-81.5 -30.5t-81.5 30.5z" />
    <glyph glyph-name="uni0312.001" horiz-adv-x="78" 
d="M-7 783h43l42 -177h-67z" />
    <glyph glyph-name="uni0335.001" horiz-adv-x="220" 
d="M10 418h200v-46h-200v46z" />
    <glyph glyph-name="uni0336.001" horiz-adv-x="340" 
d="M10 418h320v-46h-320v46z" />
    <glyph glyph-name="uni0337.001" horiz-adv-x="264" 
d="M186 550h59l-163 -594h-59z" />
    <glyph glyph-name="uni0338.001" horiz-adv-x="390" 
d="M273 737h59l-215 -774h-59z" />
    </font>
</defs>
</svg>
