<svg width="116" height="52" viewBox="0 0 116 52" fill="none" xmlns="http://www.w3.org/2000/svg">
                  <g clip-path="url(#clip0_5905_407498)">
                    <path d="M19.3609 35.6634C14.0257 35.6634 9.7019 31.3374 9.7019 26.0012C9.7019 20.6647 14.0257 16.3428 19.3609 16.3428C21.2413 16.3428 22.997 16.8791 24.4802 17.8087L19.3609 26.0012L28.9985 20.4364C27.9514 18.768 26.4496 17.3305 24.6337 16.2396C22.3229 14.8562 19.1084 14 15.554 14C10.4838 14 6.03563 15.8425 3.55501 18.6016C1.71843 20.6413 0.625 23.2084 0.625 26.001C0.625 28.7956 1.71843 31.3646 3.55501 33.4057C6.04208 36.1683 10.424 38.0001 15.4106 38.0001C20.3965 38.0001 24.7771 36.1669 27.2657 33.4057C27.402 33.2537 27.534 33.1002 27.6588 32.941L27.283 31.5324C25.5345 34.0283 22.6384 35.6634 19.3609 35.6634Z" fill="#BF1920" />
                    <path d="M51.313 37.4191L47.268 22.3294C46.6183 19.891 44.3979 18.0987 41.7543 18.0987C41.0687 18.0987 40.4117 18.2212 39.8021 18.4429L31.094 21.6095H40.0502L41.5807 27.3252C40.0961 26.0475 38.1626 25.27 36.0455 25.27C31.8413 25.27 28.4375 28.0873 28.4375 31.5625C28.4375 35.038 31.8413 37.8594 36.0455 37.8594C39.072 37.8594 41.7485 36.3777 43.3995 34.1014L44.2874 37.4191H51.313ZM38.9745 35.0753C37.0352 35.0753 35.4631 33.5047 35.4631 31.5625C35.4631 29.6232 37.0352 28.0511 38.9745 28.0511C40.9137 28.0511 42.4873 29.6232 42.4873 31.5625C42.4873 33.5047 40.9137 35.0753 38.9745 35.0753Z" fill="#BF1920" />
                    <path d="M67.8057 18.1013C67.275 18.1013 66.773 18.2187 66.3255 18.4288L60.7342 21.0345C60.4574 19.37 59.0115 18.1013 57.2673 18.1013C56.7395 18.1013 56.236 18.2187 55.7828 18.4288L48.9565 21.6095H53.756V37.4193H60.7816V23.3684C60.7816 22.3989 61.5662 21.6097 62.5387 21.6097C63.5055 21.6097 64.2958 22.3989 64.2958 23.3684V37.4193H71.3185V21.6095C71.3185 19.6707 69.745 18.1013 67.8057 18.1013Z" fill="#BF1920" />
                    <path d="M111.864 18.1013C111.332 18.1013 110.827 18.2187 110.373 18.4288L104.787 21.0345C104.512 19.37 103.066 18.1013 101.322 18.1013C100.794 18.1013 100.29 18.2187 99.8355 18.4288L93.0122 21.6095H97.8102V37.4193H104.834V23.3684C104.834 22.3989 105.62 21.6097 106.593 21.6097C107.563 21.6097 108.347 22.3989 108.347 23.3684V37.4193H115.376V21.6095C115.376 19.6707 113.801 18.1013 111.864 18.1013Z" fill="#BF1920" />
                    <path d="M94.1481 28.051C94.1481 33.5463 89.6944 38 84.2007 38C78.7027 38 74.2461 33.5463 74.2461 28.051C74.2461 22.5572 78.7027 18.1013 84.2007 18.1013C89.6944 18.1013 94.1481 22.5574 94.1481 28.051ZM84.6124 21.121C84.2997 19.9502 83.0962 19.2553 81.9258 19.57C80.7567 19.8834 80.0582 21.0876 80.3723 22.2582L83.7847 34.9807C84.1003 36.1526 85.3009 36.8468 86.4713 36.537C87.6418 36.22 88.3374 35.0165 88.0233 33.8461L84.6124 21.121Z" fill="#BF1920" />
                  </g>
                  <defs>
                    <clipPath id="clip0_5905_407498">
                      <rect width="114.75" height="52" fill="white" transform="translate(0.625)" />
                    </clipPath>
                  </defs>
                </svg>