<svg width="52" height="52" viewBox="0 0 52 52" fill="none" xmlns="http://www.w3.org/2000/svg">
                  <mask id="mask0_5983_407274" style="mask-type: alpha" maskUnits="userSpaceOnUse" x="0" y="0" width="52" height="52">
                    <rect width="52" height="52" fill="#DA3832" />
                  </mask>
                  <g mask="url(#mask0_5983_407274)">
                    <path d="M12.9998 43.3334C11.8082 43.3334 10.788 42.9091 9.93942 42.0604C9.09081 41.2118 8.6665 40.1917 8.6665 39C8.6665 37.8084 9.09081 36.7882 9.93942 35.9396C10.788 35.091 11.8082 34.6667 12.9998 34.6667C14.1915 34.6667 15.2116 35.091 16.0603 35.9396C16.9089 36.7882 17.3332 37.8084 17.3332 39C17.3332 40.1917 16.9089 41.2118 16.0603 42.0604C15.2116 42.9091 14.1915 43.3334 12.9998 43.3334ZM25.9998 43.3334C24.8082 43.3334 23.788 42.9091 22.9394 42.0604C22.0908 41.2118 21.6665 40.1917 21.6665 39C21.6665 37.8084 22.0908 36.7882 22.9394 35.9396C23.788 35.091 24.8082 34.6667 25.9998 34.6667C27.1915 34.6667 28.2116 35.091 29.0603 35.9396C29.9089 36.7882 30.3332 37.8084 30.3332 39C30.3332 40.1917 29.9089 41.2118 29.0603 42.0604C28.2116 42.9091 27.1915 43.3334 25.9998 43.3334ZM38.9998 43.3334C37.8082 43.3334 36.788 42.9091 35.9394 42.0604C35.0908 41.2118 34.6665 40.1917 34.6665 39C34.6665 37.8084 35.0908 36.7882 35.9394 35.9396C36.788 35.091 37.8082 34.6667 38.9998 34.6667C40.1915 34.6667 41.2116 35.091 42.0603 35.9396C42.9089 36.7882 43.3332 37.8084 43.3332 39C43.3332 40.1917 42.9089 41.2118 42.0603 42.0604C41.2116 42.9091 40.1915 43.3334 38.9998 43.3334ZM12.9998 30.3334C11.8082 30.3334 10.788 29.909 9.93942 29.0604C9.09081 28.2118 8.6665 27.1917 8.6665 26C8.6665 24.8084 9.09081 23.7882 9.93942 22.9396C10.788 22.091 11.8082 21.6667 12.9998 21.6667C14.1915 21.6667 15.2116 22.091 16.0603 22.9396C16.9089 23.7882 17.3332 24.8084 17.3332 26C17.3332 27.1917 16.9089 28.2118 16.0603 29.0604C15.2116 29.909 14.1915 30.3334 12.9998 30.3334ZM25.9998 30.3334C24.8082 30.3334 23.788 29.909 22.9394 29.0604C22.0908 28.2118 21.6665 27.1917 21.6665 26C21.6665 24.8084 22.0908 23.7882 22.9394 22.9396C23.788 22.091 24.8082 21.6667 25.9998 21.6667C27.1915 21.6667 28.2116 22.091 29.0603 22.9396C29.9089 23.7882 30.3332 24.8084 30.3332 26C30.3332 27.1917 29.9089 28.2118 29.0603 29.0604C28.2116 29.909 27.1915 30.3334 25.9998 30.3334ZM38.9998 30.3334C37.8082 30.3334 36.788 29.909 35.9394 29.0604C35.0908 28.2118 34.6665 27.1917 34.6665 26C34.6665 24.8084 35.0908 23.7882 35.9394 22.9396C36.788 22.091 37.8082 21.6667 38.9998 21.6667C40.1915 21.6667 41.2116 22.091 42.0603 22.9396C42.9089 23.7882 43.3332 24.8084 43.3332 26C43.3332 27.1917 42.9089 28.2118 42.0603 29.0604C41.2116 29.909 40.1915 30.3334 38.9998 30.3334ZM12.9998 17.3334C11.8082 17.3334 10.788 16.909 9.93942 16.0604C9.09081 15.2118 8.6665 14.1917 8.6665 13C8.6665 11.8084 9.09081 10.7882 9.93942 9.9396C10.788 9.09099 11.8082 8.66669 12.9998 8.66669C14.1915 8.66669 15.2116 9.09099 16.0603 9.9396C16.9089 10.7882 17.3332 11.8084 17.3332 13C17.3332 14.1917 16.9089 15.2118 16.0603 16.0604C15.2116 16.909 14.1915 17.3334 12.9998 17.3334ZM25.9998 17.3334C24.8082 17.3334 23.788 16.909 22.9394 16.0604C22.0908 15.2118 21.6665 14.1917 21.6665 13C21.6665 11.8084 22.0908 10.7882 22.9394 9.9396C23.788 9.09099 24.8082 8.66669 25.9998 8.66669C27.1915 8.66669 28.2116 9.09099 29.0603 9.9396C29.9089 10.7882 30.3332 11.8084 30.3332 13C30.3332 14.1917 29.9089 15.2118 29.0603 16.0604C28.2116 16.909 27.1915 17.3334 25.9998 17.3334ZM38.9998 17.3334C37.8082 17.3334 36.788 16.909 35.9394 16.0604C35.0908 15.2118 34.6665 14.1917 34.6665 13C34.6665 11.8084 35.0908 10.7882 35.9394 9.9396C36.788 9.09099 37.8082 8.66669 38.9998 8.66669C40.1915 8.66669 41.2116 9.09099 42.0603 9.9396C42.9089 10.7882 43.3332 11.8084 43.3332 13C43.3332 14.1917 42.9089 15.2118 42.0603 16.0604C41.2116 16.909 40.1915 17.3334 38.9998 17.3334Z" fill="#DA3832" />
                  </g>
                </svg>