<svg width="52" height="52" viewBox="0 0 52 52" fill="none" xmlns="http://www.w3.org/2000/svg">
                  <mask id="mask0_5905_407568" style="mask-type: alpha" maskUnits="userSpaceOnUse" x="0" y="0" width="52" height="52">
                    <rect width="52" height="52" fill="#DA3832" />
                  </mask>
                  <g mask="url(#mask0_5905_407568)">
                    <path d="M10.8333 45.5C9.64167 45.5 8.62153 45.0757 7.77292 44.2271C6.92431 43.3785 6.5 42.3583 6.5 41.1667V10.8333C6.5 9.64167 6.92431 8.62153 7.77292 7.77292C8.62153 6.92431 9.64167 6.5 10.8333 6.5H41.1667C42.3583 6.5 43.3785 6.92431 44.2271 7.77292C45.0757 8.62153 45.5 9.64167 45.5 10.8333V41.1667C45.5 42.3583 45.0757 43.3785 44.2271 44.2271C43.3785 45.0757 42.3583 45.5 41.1667 45.5H10.8333ZM10.8333 41.1667H41.1667V15.1667H10.8333V41.1667ZM15.1667 26V21.6667H36.8333V26H15.1667ZM15.1667 34.6667V30.3333H28.1667V34.6667H15.1667Z" fill="#DA3832" />
                  </g>
                </svg>