<svg width="52" height="52" viewBox="0 0 52 52" fill="none" xmlns="http://www.w3.org/2000/svg">
                  <g clip-path="url(#clip0_5905_407496)">
                    <path d="M26 52H25.233L30.563 37.3858H37.869C39.1625 37.3858 40.5752 36.4151 41.0193 35.204L46.7913 19.3786C47.7208 16.796 46.267 14.6553 43.4807 14.6553H33.3082L19.9832 51.3153C8.5215 48.5658 0 38.2698 0 26C0 14.0898 8.034 4.03647 18.9757 0.96847L5.733 37.3858H11.2233L18.2477 18.0461H22.4077L15.3812 37.3858H20.8737L27.4538 19.3375C28.3812 16.7548 26.9295 14.6141 24.1432 14.6141H19.5L24.83 0.0433029C25.233 0.0433029 25.597 0.00213623 26 0.00213623C40.3737 0.00213623 52 11.6285 52 26.0021C52 40.3758 40.3737 52 26 52ZM41.7452 18.0483H37.5852L31.7742 33.9516H35.932L41.7452 18.0483Z" fill="#0096D6" />
                  </g>
                  <defs>
                    <clipPath id="clip0_5905_407496">
                      <rect width="52" height="52" fill="white" />
                    </clipPath>
                  </defs>
                </svg>