<svg width="52" height="52" viewBox="0 0 52 52" fill="none" xmlns="http://www.w3.org/2000/svg">
                  <mask id="mask0_5905_407574" style="mask-type: alpha" maskUnits="userSpaceOnUse" x="0" y="0" width="52" height="52">
                    <rect width="52" height="52" fill="#DA3832" />
                  </mask>
                  <g mask="url(#mask0_5905_407574)">
                    <path d="M30.3335 36.8334H41.1668V26H36.8335V32.5H30.3335V36.8334ZM10.8335 26H15.1668V19.5H21.6668V15.1667H10.8335V26ZM8.66683 43.3334C7.47516 43.3334 6.45502 42.909 5.60641 42.0604C4.7578 41.2118 4.3335 40.1917 4.3335 39V13C4.3335 11.8084 4.7578 10.7882 5.60641 9.9396C6.45502 9.09099 7.47516 8.66669 8.66683 8.66669H43.3335C44.5252 8.66669 45.5453 9.09099 46.3939 9.9396C47.2425 10.7882 47.6668 11.8084 47.6668 13V39C47.6668 40.1917 47.2425 41.2118 46.3939 42.0604C45.5453 42.909 44.5252 43.3334 43.3335 43.3334H8.66683Z" fill="#DA3832" />
                  </g>
                </svg>