<svg width="52" height="52" viewBox="0 0 52 52" fill="none" xmlns="http://www.w3.org/2000/svg">
                  <mask id="mask0_5905_407541" style="mask-type: alpha" maskUnits="userSpaceOnUse" x="0" y="0" width="52" height="52">
                    <rect width="52" height="52" fill="#DA3832" />
                  </mask>
                  <g mask="url(#mask0_5905_407541)">
                    <path d="M17.0085 41.4375C13.2529 39.7042 10.1925 37.0861 7.82725 33.5833C5.46197 30.0806 4.27933 26.1264 4.27933 21.7208C4.27933 20.7819 4.3335 19.8611 4.44183 18.9583C4.55016 18.0556 4.71266 17.1708 4.92933 16.3042L2.43766 17.7667L0.270996 14.0292L10.6168 8.07083L16.5752 18.3625L12.7835 20.5292L9.8585 15.4375C9.46127 16.4125 9.16336 17.4236 8.96475 18.4708C8.76614 19.5181 8.66683 20.6014 8.66683 21.7208C8.66683 25.2236 9.62377 28.4104 11.5377 31.2813C13.4516 34.1521 15.9974 36.2736 19.1752 37.6458L17.0085 41.4375ZM33.5835 15.1667V10.8333H39.4877C37.8265 8.775 35.8224 7.17708 33.4752 6.03958C31.1279 4.90208 28.6363 4.33333 26.0002 4.33333C24.014 4.33333 22.1363 4.64028 20.3668 5.25417C18.5974 5.86806 16.9724 6.73472 15.4918 7.85417L13.3252 4.0625C15.1307 2.79861 17.0897 1.80556 19.2022 1.08333C21.3147 0.361111 23.5627 0 25.946 0C28.7988 0 31.5342 0.532639 34.1522 1.59792C36.7703 2.66319 39.1085 4.20694 41.1668 6.22917V3.25H45.5002V15.1667H33.5835ZM32.1752 47.6667L21.8293 41.7083L27.7877 31.4167L31.5252 33.5833L28.4377 38.8917C32.6988 38.2778 36.2467 36.3549 39.0814 33.1229C41.9161 29.891 43.3335 26.0903 43.3335 21.7208C43.3335 21.3236 43.3245 20.9444 43.3064 20.5833C43.2884 20.2222 43.2432 19.8611 43.171 19.5H47.5585C47.5946 19.8611 47.6217 20.2132 47.6397 20.5563C47.6578 20.8993 47.6668 21.2694 47.6668 21.6667C47.6668 26.5417 46.2134 30.9021 43.3064 34.7479C40.3995 38.5938 36.6168 41.1847 31.9585 42.5208L34.3418 43.9292L32.1752 47.6667Z" fill="#DA3832" />
                  </g>
                </svg>